<svg xmlns="http://www.w3.org/2000/svg" version="1.1" xmlns:xlink="http://www.w3.org/1999/xlink" xmlns:svgjs="http://svgjs.com/svgjs" width="260" height="260"><svg width="260" height="260" viewBox="0 0 260 260" fill="none" xmlns="http://www.w3.org/2000/svg">
<g clip-path="url(#clip0_325_5)">
<path d="M69.448 116.072C68.3387 108.989 65.9493 103.656 62.28 100.072C58.696 96.488 53.9173 94.6533 47.944 94.568C43.5067 94.568 39.624 95.592 36.296 97.64C32.968 99.688 30.1947 102.419 27.976 105.832C25.8427 109.245 24.2213 113.128 23.112 117.48C22.088 121.832 21.576 126.312 21.576 130.92C21.576 138.259 22.6 144.787 24.648 150.504C26.7813 156.136 29.8533 160.573 33.864 163.816C37.8747 167.059 42.7387 168.68 48.456 168.68C53.832 168.68 59.1653 167.315 64.456 164.584C69.7467 161.768 74.184 157.885 77.768 152.936L83.912 158.568C79.7307 164.285 75.336 168.637 70.728 171.624C66.12 174.525 61.5973 176.488 57.16 177.512C52.808 178.536 48.8827 179.048 45.384 179.048C38.8133 179.048 32.84 177.896 27.464 175.592C22.088 173.203 17.4373 169.96 13.512 165.864C9.672 161.683 6.68533 156.861 4.552 151.4C2.504 145.853 1.48 139.88 1.48 133.48C1.48 127.677 2.41867 121.917 4.296 116.2C6.17333 110.483 8.94667 105.32 12.616 100.712C16.3707 96.0187 21.064 92.3067 26.696 89.576C32.328 86.76 38.856 85.352 46.28 85.352C49.608 85.352 53.2347 85.9067 57.16 87.016C61.1707 88.04 64.9253 89.576 68.424 91.624L67.912 86.248H77.768V116.072H69.448ZM165.975 177V168.552C167.938 168.467 169.559 168.211 170.839 167.784C172.204 167.357 173.228 166.376 173.911 164.84C174.679 163.304 175.063 160.829 175.063 157.416V108.392C175.063 106.088 175.106 103.869 175.191 101.736C175.362 99.6027 175.49 97.9813 175.575 96.872C174.21 96.9573 172.503 97.0427 170.455 97.128C168.407 97.128 166.914 97.1707 165.975 97.256V87.4H202.711V95.848C200.834 95.9333 199.212 96.1893 197.847 96.616C196.482 97.0427 195.415 98.024 194.647 99.56C193.964 101.011 193.623 103.485 193.623 106.984V126.952H228.823V108.392C228.823 106.088 228.866 103.869 228.951 101.736C229.036 99.6027 229.164 97.9813 229.335 96.872C227.97 96.9573 226.263 97.0427 224.215 97.128C222.167 97.128 220.674 97.1707 219.735 97.256V87.4H256.471V95.848C254.594 95.9333 252.972 96.1893 251.607 96.616C250.242 97.0427 249.175 98.024 248.407 99.56C247.724 101.011 247.383 103.485 247.383 106.984V156.008C247.383 158.312 247.34 160.531 247.255 162.664C247.17 164.797 247.042 166.419 246.871 167.528C248.236 167.357 249.943 167.272 251.991 167.272C254.124 167.187 255.618 167.144 256.471 167.144V177H219.735V168.552C221.698 168.467 223.319 168.211 224.599 167.784C225.964 167.357 226.988 166.376 227.671 164.84C228.439 163.304 228.823 160.829 228.823 157.416V136.68L193.623 137.064V156.008C193.623 158.312 193.58 160.531 193.495 162.664C193.41 164.797 193.282 166.419 193.111 167.528C194.476 167.357 196.183 167.272 198.231 167.272C200.364 167.187 201.858 167.144 202.711 167.144V177H165.975Z" fill="#DBD9D8"></path>
<path d="M113.633 179.048C109.964 179.048 106.294 178.579 102.625 177.64C99.041 176.701 95.7557 175.293 92.769 173.416C89.8677 171.453 87.521 168.979 85.729 165.992C84.0223 163.005 83.169 159.421 83.169 155.24C83.169 149.523 85.0463 144.488 88.801 140.136C92.641 135.699 97.4197 132.413 103.137 130.28C100.065 126.952 97.761 123.923 96.225 121.192C94.7743 118.461 93.793 115.901 93.281 113.512C92.8543 111.123 92.641 108.776 92.641 106.472C92.7263 99.9867 94.9877 94.8667 99.425 91.112C103.862 87.272 109.75 85.352 117.089 85.352C121.612 85.352 125.537 86.2907 128.865 88.168C132.193 90.0453 134.753 92.52 136.545 95.592C138.422 98.5787 139.361 101.864 139.361 105.448C139.361 108.947 138.465 112.275 136.673 115.432C134.966 118.504 132.705 121.32 129.889 123.88C127.073 126.355 124.086 128.531 120.929 130.408C121.27 130.749 122.465 131.987 124.513 134.12C126.561 136.253 129.121 138.813 132.193 141.8C135.265 144.787 138.422 147.773 141.665 150.76C141.921 149.736 142.092 148.712 142.177 147.688C142.262 146.579 142.305 145.469 142.305 144.36C142.305 141.971 142.049 140.093 141.537 138.728C141.025 137.363 140.257 136.381 139.233 135.784C138.294 135.101 137.057 134.717 135.521 134.632V126.44H157.025V136.04L149.985 135.656C150.412 136.68 150.753 137.875 151.009 139.24C151.265 140.52 151.393 141.928 151.393 143.464C151.393 145.939 151.18 148.328 150.753 150.632C150.326 152.936 149.729 155.155 148.961 157.288C149.302 157.544 149.601 157.843 149.857 158.184C150.198 158.44 150.54 158.696 150.881 158.952C154.209 161.768 157.238 164.072 159.969 165.864C162.7 167.656 164.918 168.552 166.625 168.552V177H152.929C152.246 177 150.71 176.36 148.321 175.08C146.017 173.8 143.372 172.008 140.385 169.704C137.057 172.605 133.132 174.909 128.609 176.616C124.086 178.237 119.094 179.048 113.633 179.048ZM117.729 169.96C120.972 169.96 123.916 169.448 126.561 168.424C129.292 167.315 131.681 165.821 133.729 163.944C132.62 163.005 131.553 162.067 130.529 161.128C129.505 160.104 128.438 159.123 127.329 158.184C122.38 153.661 118.369 149.864 115.297 146.792C112.31 143.635 109.494 140.563 106.849 137.576C105.228 138.856 103.948 140.392 103.009 142.184C102.156 143.976 101.516 145.768 101.089 147.56C100.748 149.267 100.577 150.76 100.577 152.04C100.577 155.88 101.26 159.165 102.625 161.896C103.99 164.541 105.953 166.547 108.513 167.912C111.073 169.277 114.145 169.96 117.729 169.96ZM115.169 123.624C118.412 121.149 120.844 118.077 122.465 114.408C124.086 110.653 124.897 107.453 124.897 104.808C124.897 101.736 124.129 99.2187 122.593 97.256C121.142 95.2933 119.094 94.312 116.449 94.312C114.06 94.312 112.012 95.2933 110.305 97.256C108.684 99.2187 107.873 102.077 107.873 105.832C107.873 108.392 108.556 111.379 109.921 114.792C111.372 118.12 113.121 121.064 115.169 123.624Z" fill="#ECC94E"></path>
</g>
<defs>
<clipPath id="SvgjsClipPath1000">
<rect width="260" height="260" fill="white"></rect>
</clipPath>
</defs>
</svg><style>@media (prefers-color-scheme: light) { :root { filter: contrast(1) brightness(0.7); } }
</style></svg>