<svg width="205" height="173" viewBox="0 0 205 173" fill="none" xmlns="http://www.w3.org/2000/svg">
<path fill-rule="evenodd" clip-rule="evenodd" d="M63.2573 56.2836C52.3003 77.8839 53.5226 104.099 70.928 120.732C67.8173 117.935 65.0286 114.754 62.6937 111.228C52.9224 96.507 52.3515 70.9502 63.2573 56.2836ZM64.2747 56.3306C64.4723 56.6753 64.9334 56.879 65.2482 56.5108C85.047 32.85 115.708 33.3984 137.893 53.753C157.281 71.5456 150.482 106.3 133.398 122.745C132.44 123.662 131.444 124.508 130.434 125.307C114.251 132.978 98.2364 134.286 80.9042 125.629C55.067 112.733 53.7568 80.7357 64.2747 56.3306ZM128.575 128.849C131.854 127.211 134.95 125.221 137.717 122.816C138.237 122.354 137.578 121.539 137.029 121.852C136.912 121.915 136.802 121.97 136.692 122.04C153.863 103.809 157.333 71.2009 139.217 52.3349C121.717 34.1035 89.9363 30.006 71.3013 47.1248C71.1549 47.1013 71.0085 47.1091 70.8475 47.1875C49.3213 57.6625 50.0825 93.757 61.0615 112.247C74.7633 135.32 106.807 142.928 128.575 128.849Z" fill="#333333"/>
<path fill-rule="evenodd" clip-rule="evenodd" d="M80.2386 72.4937C80.2166 72.5563 80.1946 72.6269 80.18 72.6895C80.1141 70.3626 80.8095 68.5058 82.0098 67.1974C81.4023 68.9602 80.7802 70.7074 80.2386 72.4937ZM90.0026 65.2544C94.4966 66.2102 98.127 69.3128 100.477 73.3476C99.0346 77.2807 97.5415 81.2685 96.1801 85.2956C97.0803 81.3625 97.7318 77.3355 98.676 73.7159C98.8736 72.9559 97.805 72.6504 97.5854 73.3947C95.4701 80.5086 93.1425 87.7635 91.2688 94.9714C90.793 94.3525 90.31 93.7414 89.8415 93.1224C93.772 86.4708 94.7748 77.6254 95.8727 69.9944C95.9971 69.0777 94.7089 68.6625 94.5479 69.6027C93.2011 77.2963 90.9248 84.5591 89.073 92.0804C88.6119 91.4537 88.1508 90.8269 87.7116 90.1923C90.8736 83.7365 91.5689 75.5649 93.5598 68.7487C93.8306 67.8085 92.4692 67.4168 92.1837 68.3413C90.1709 74.8911 88.2313 81.5819 86.4014 88.2336C86.0135 87.6382 85.611 87.0505 85.245 86.4394C88.0337 80.963 88.9998 74.0606 90.5588 68.1062C90.7784 67.2522 89.578 66.9075 89.3292 67.738C87.675 73.2693 85.1718 79.1767 84.4618 85.0292C84.1032 84.3711 83.7079 83.7365 83.3786 83.0627C84.696 81.339 85.3475 78.9181 85.933 76.8654C86.9358 73.3633 87.353 69.7437 88.0263 66.1632C88.1288 65.5835 87.3164 65.3327 87.1846 65.9203C86.5551 68.733 85.8086 71.5143 85.0693 74.2956C84.4399 76.6304 83.2834 78.8633 82.5002 81.1589C82.3026 80.6966 82.0977 80.2265 81.9147 79.7486C81.9952 79.7251 82.0757 79.7016 82.1489 79.6076C84.718 76.0506 85.3475 70.5585 85.8964 66.2259C85.9989 65.3641 84.7839 64.9645 84.6375 65.8577C84.2862 68.0749 83.7738 70.2373 83.1736 72.384C82.632 74.327 81.7829 76.2622 81.3877 78.2443C81.212 77.7194 81.0291 77.1945 80.8827 76.6539C81.3511 75.4944 81.5121 74.1546 81.8269 72.9637C82.3685 70.9189 83.0053 68.8975 83.5908 66.8605C83.6933 66.5158 83.5689 66.2494 83.3566 66.1005C85.084 65.0272 87.4042 64.6981 90.0026 65.2544ZM101.479 75.275C101.618 75.5884 101.875 75.6746 102.138 75.6902C100.301 83.4701 97.944 90.9287 95.3749 98.4735C95.1993 98.975 95.9166 99.2649 96.1654 98.8261C97.6147 96.2877 98.6979 93.5769 99.5909 90.7799C98.6613 94.1723 97.805 97.5804 97.1462 100.981C97.0584 101.451 97.7025 101.803 97.9074 101.325C101.823 92.1274 103.617 81.9423 107.02 72.5093C107.357 71.5692 105.959 71.1774 105.615 72.0941C103.931 76.6931 102.306 81.4252 100.857 86.2201C101.779 82.4751 102.475 78.6596 103.236 74.9303C103.243 74.8989 103.221 74.8833 103.221 74.8519C103.514 74.6404 103.609 74.3505 103.551 74.0763C103.902 73.567 104.422 72.8619 105.212 71.8042C106.259 70.4096 107.408 69.1012 108.55 67.7928C111.338 64.6198 118.445 59.9346 121.461 68.5685C122.764 72.2978 121.176 77.0535 120.041 80.6104C118.804 84.5121 117.077 88.3511 115.057 92.0804C116.316 87.5911 117.699 83.1567 119.199 78.7379C119.47 77.9309 118.27 77.5862 117.999 78.3854C116.052 84.1282 114.01 89.8867 112.883 95.8803C111.931 97.455 110.929 99.0063 109.896 100.526C112.861 93.428 114.522 85.5228 116.359 78.1347C116.594 77.1945 115.232 76.7949 114.991 77.7351C112.744 86.651 109.655 95.277 107.335 104.146C105.732 106.324 104.092 108.431 102.445 110.429C102.277 110.226 102.094 110.014 101.926 109.81C99.1956 105.023 95.7043 100.659 92.2715 96.2642C92.8717 95.2378 93.3694 94.1331 93.8379 93.0049C93.5232 94.1958 93.2304 95.3788 92.9669 96.5776C92.8425 97.1495 93.611 97.5412 93.8891 96.985C97.3365 90.1374 98.9248 82.1774 101.201 74.7266C101.289 74.9146 101.391 75.087 101.479 75.275ZM79.8653 66.1789C78.6576 67.7693 78.1891 69.6888 78.1672 71.7024C75.8543 87.5911 91.0053 100.769 100.469 111.291C100.638 111.597 100.828 111.887 100.996 112.2C100.982 112.216 100.967 112.231 100.952 112.247C100.103 113.25 101.494 114.738 102.328 113.736C102.511 113.516 102.702 113.281 102.885 113.062C102.921 113.023 102.958 112.983 102.987 112.944C112.136 101.929 128.041 81.6759 122.647 66.2102C119.148 56.1818 105.146 65.2387 102.182 72.5172C102.131 72.4153 102.065 72.3291 102.006 72.2273C102.058 72.0941 102.094 71.9531 102.138 71.8277C102.314 71.3106 101.779 71.0364 101.413 71.2244C96.7949 64.1419 85.5085 58.7281 79.8653 66.1789Z" fill="#333333"/>
<path fill-rule="evenodd" clip-rule="evenodd" d="M103.645 93.1146C104.129 92.1118 104.414 91.0306 104.868 90.0199C105.051 89.589 104.458 89.2129 104.268 89.6438C103.814 90.6702 103.558 91.7592 103.14 92.8012C103.001 93.1616 103.47 93.4828 103.645 93.1146Z" fill="#333333"/>
<path fill-rule="evenodd" clip-rule="evenodd" d="M102.006 103.832C107.43 93.8118 109.296 82.0911 112.627 71.1852C112.824 70.5506 111.909 70.2999 111.704 70.911C108.081 81.7307 105.095 92.7463 101.23 103.48C101.055 103.973 101.772 104.271 102.006 103.832Z" fill="#333333"/>
<path fill-rule="evenodd" clip-rule="evenodd" d="M112.231 79.0357C109.743 88.8761 105.871 98.168 103.126 107.907C103.038 108.228 103.492 108.439 103.638 108.134C107.913 99.0533 110.979 89.1894 113.27 79.3412C113.439 78.6204 112.414 78.3149 112.231 79.0357Z" fill="#333333"/>
<path fill-rule="evenodd" clip-rule="evenodd" d="M123.005 125.315C131.796 120.442 142.014 112.772 143.617 101.443C143.69 100.926 142.987 100.479 142.753 101.051C140.681 106.222 138.727 110.602 135.024 114.715C131.43 118.711 127.053 121.813 122.771 124.869C122.515 125.057 122.734 125.464 123.005 125.315Z" fill="#333333"/>
<path fill-rule="evenodd" clip-rule="evenodd" d="M61.7059 74.7187C64.9117 64.3455 69.4863 55.9937 78.2622 49.9375C78.6282 49.679 78.3939 48.9503 77.9474 49.1384C69.1789 52.8833 61.5668 64.5414 60.8568 74.6012C60.8202 75.1417 61.5595 75.1966 61.7059 74.7187Z" fill="#333333"/>
<path fill-rule="evenodd" clip-rule="evenodd" d="M145.007 94.3917C145.871 92.9579 146.068 90.9992 146.442 89.3618C146.61 88.6018 145.519 88.2806 145.344 89.0406C144.949 90.6702 144.261 92.5113 144.392 94.2115C144.422 94.5562 144.824 94.6972 145.007 94.3917Z" fill="#333333"/>
<path fill-rule="evenodd" clip-rule="evenodd" d="M80.736 48.0954C81.8705 47.3826 83.4075 46.8578 84.3224 45.8318C84.6957 45.401 84.4029 44.8136 83.8979 44.7587C82.4633 44.5864 81.1239 45.9884 80.0553 46.8422C79.3672 47.3905 79.9674 48.581 80.736 48.0954Z" fill="#333333"/>
<path fill-rule="evenodd" clip-rule="evenodd" d="M122.917 142.011C124.147 144.871 124.967 148.279 126.731 150.825C127.082 151.334 127.777 151.037 127.675 150.402C127.155 147.221 125.296 144.197 123.635 141.564C123.334 141.079 122.698 141.494 122.917 142.011Z" fill="#333333"/>
<path fill-rule="evenodd" clip-rule="evenodd" d="M158.921 132.139C137.124 161.637 97.5413 165.319 67.7589 149.094C68.4323 149.258 68.8714 148.349 68.2566 147.848C67.9346 147.597 67.6198 147.347 67.3051 147.088C69.7205 148.577 72.1944 149.901 74.7489 151.052C74.8294 151.546 75.3417 151.812 75.7077 151.475C100.367 162.099 130.405 156.999 150.123 138.008C150.577 138.399 151.06 138.744 151.602 138.987C151.946 139.136 152.385 138.674 152.239 138.297C152.026 137.741 151.719 137.232 151.375 136.754C154.896 133.174 158.101 129.178 160.81 124.681C162.434 121.993 163.745 119.134 164.843 116.164C165.289 116.266 165.728 116.345 166.167 116.321C166.497 116.298 166.665 115.89 166.431 115.632C166.131 115.279 165.772 114.981 165.399 114.707C170.566 99.5078 169.746 81.4645 167.814 66.1555C165.406 47.078 156.425 33.2732 141.04 23.472C137.505 21.2156 133.713 19.2648 129.776 17.6117C129.644 17.2121 129.19 17.0084 128.817 17.2121C99.7224 5.46786 62.3792 10.772 48.004 43.4505C47.7405 44.0538 48.5091 44.563 48.8457 43.9754C50.4414 41.2255 52.1614 38.6948 53.962 36.3366C54.7525 37.0574 55.5503 37.7704 56.3188 38.5146C57.3142 39.4705 58.2584 40.6379 59.4515 41.3038C59.9492 41.5859 60.4688 41.0296 60.2054 40.4968C59.5905 39.2276 58.4926 38.1934 57.5192 37.2376C56.6994 36.4306 55.843 35.7412 54.9428 35.0987C60.6592 27.9691 67.2978 22.6964 74.5293 19.1473C75.8029 22.524 76.8861 26.8488 79.4552 29.2775C79.6235 29.4264 79.8797 29.2854 79.8285 29.0503C79.038 25.5404 77.479 21.7719 75.8468 18.5361C83.415 15.0732 91.5833 13.4436 99.9786 13.4044C99.8322 15.1045 99.8395 16.8125 99.8395 18.5205C99.8322 20.5575 99.7078 22.6729 100.286 24.6315C100.41 25.0311 100.923 25.0311 101.047 24.6315C101.552 22.9236 101.508 21.1294 101.501 19.351C101.494 17.3688 101.53 15.3788 101.355 13.4044C110.072 13.5376 119.009 15.4179 127.748 18.7712C125.984 21.7249 124.506 25.321 123.649 28.5724C123.532 29.019 124.059 29.3245 124.359 29.0112C126.745 26.5824 127.887 22.6337 129.241 19.3431C132.11 20.5027 134.958 21.8189 137.761 23.2918C142.782 25.9399 147.115 29.301 150.819 33.187C149.838 33.8608 149.018 34.8793 148.162 35.7412C146.852 37.0496 144.824 38.4285 143.982 40.1599C143.858 40.4185 144.004 40.8494 144.334 40.8102C146.025 40.6065 147.613 38.7497 148.791 37.5823C149.801 36.5873 151.046 35.5375 151.814 34.2761C156.564 39.5567 160.18 45.7696 162.815 52.5231C162.442 51.771 162.061 51.0267 161.659 50.2902C161.549 50.0865 161.212 50.2197 161.3 50.4469C162.31 53.1891 163.144 56.0095 163.906 58.8692C160.663 59.5273 157.362 61.1099 154.339 62.4262C153.798 62.669 153.988 63.5622 154.595 63.3977C157.735 62.5515 161.402 61.9326 164.191 59.9974C164.843 62.5437 165.457 65.1056 166.065 67.6441C166.182 68.1455 166.811 68.1142 166.987 67.7224C167.99 73.575 168.422 79.6155 168.319 85.6404C166.687 85.4602 164.982 85.7736 163.357 85.946C161.805 86.1105 160.305 86.369 158.863 87.0193C158.365 87.2465 158.614 88.1945 159.148 88.1318C160.766 87.936 162.376 87.7088 164.001 87.5677C165.428 87.4345 166.929 87.4502 168.305 86.988C168.026 96.2173 166.548 105.392 164.023 113.869C163.115 113.407 162.156 113.015 161.3 112.576C159.258 111.526 157.186 110.578 155.108 109.615C154.537 109.348 154.047 110.171 154.61 110.531C156.557 111.738 158.453 113.015 160.458 114.112C161.388 114.621 162.413 115.24 163.466 115.702C160.773 124.046 156.506 130.933 151.163 136.488C150.255 135.312 149.084 134.302 148.074 133.307C146.427 131.701 144.612 130.306 142.738 129.037C141.955 128.512 141.318 129.773 142.028 130.33C143.895 131.795 145.6 133.448 147.291 135.124C148.14 135.971 148.952 136.95 149.853 137.773C137.505 149.736 119.96 155.04 102.599 154.774C102.782 151.468 102.584 147.997 102.409 144.706C102.372 143.907 101.311 143.915 101.259 144.706C101.047 147.895 100.374 151.671 101.516 154.758C92.8642 154.515 84.2933 152.901 76.4762 150.057C76.9813 149.031 77.4936 148.005 77.9255 146.931C78.4232 145.717 79.016 144.385 78.8843 143.037C78.8477 142.654 78.4232 142.379 78.1304 142.708C77.3692 143.562 77.0618 144.683 76.6446 145.756C76.1615 147.025 75.6711 148.302 75.1661 149.564C73.7534 149.015 72.3554 148.443 71.0014 147.824C65.2776 145.184 60.0882 141.353 55.5063 136.676C57.5484 134.654 59.693 132.508 60.9958 129.985C61.2447 129.507 60.7031 128.778 60.2273 129.17C58.0754 130.925 56.2017 133.26 54.3426 135.461C48.4578 129.131 43.6344 121.367 40.0991 112.882C40.0918 112.874 40.0918 112.858 40.0845 112.842C41.0799 112.537 42.0754 112.231 43.0635 111.91C44.52 111.417 45.9839 111.041 47.1623 109.967C47.4478 109.709 47.2135 109.207 46.8695 109.207C45.3983 109.199 44.0369 109.818 42.6463 110.288C41.6582 110.625 40.7067 111.041 39.7405 111.432C37.6545 102.9 36.1979 94.6973 35.5978 86.369C36.0589 86.2437 36.5273 86.1183 36.9958 85.9851C38.7597 85.4837 40.714 85.327 42.3755 84.5435C42.6975 84.379 42.5511 83.9168 42.2876 83.8149C40.8604 83.2351 39.3526 83.6426 37.9033 84.003C37.0909 84.2066 36.2785 84.4417 35.466 84.6689C35.3416 82.5379 35.2757 80.399 35.2757 78.2366C36.703 71.4988 38.0424 64.9881 39.821 58.5167L39.8357 58.5245C39.9381 58.7282 40.1943 58.83 40.3992 58.7439C41.1385 59.0337 41.8777 59.308 42.6097 59.5978C44.1321 60.2168 45.6106 60.9454 47.2575 61.0081C47.8064 61.0316 48.0333 60.1698 47.5356 59.8877C46.1083 59.0886 44.5347 58.595 43.0269 57.9839C42.434 57.741 41.8119 57.506 41.1897 57.3179C43.8027 51.7318 46.0498 45.8793 49.1092 40.5673C49.3508 40.1521 48.7726 39.823 48.5164 40.1913C44.9372 45.4014 42.3315 50.8935 40.2748 56.9105C41.3508 53.1577 42.5731 49.3971 44.0955 45.6051C44.2931 45.1036 43.7003 44.7041 43.4002 45.1741C39.9235 50.6036 37.3837 57.2396 35.7588 64.1106C35.488 64.0166 35.1513 64.095 35.0634 64.4319C34.5511 66.5237 34.1412 68.6548 33.8192 70.8015C35.0268 60.2716 38.4523 50.298 44.5639 42.0873C45.047 41.437 44.1907 40.5125 43.7076 41.1706C41.8558 43.6856 40.2602 46.3572 38.8841 49.1228C39.982 46.4512 41.1897 43.8266 42.5218 41.2646C42.7341 41.2881 42.9683 41.2255 43.1659 41.0061C58.8147 24.4905 72.7434 12.1117 95.4113 9.82396C112.839 8.06898 130.266 14.3916 144.444 24.9371C176.729 48.9426 183.06 99.4608 158.921 132.139ZM61.2959 145.168C55.8943 141.494 51.2977 137.224 47.4258 132.515C49.1898 134.247 50.9684 136.002 52.7909 137.733C52.8641 138.078 53.1422 138.368 53.4789 138.391C56.6555 141.384 59.9858 144.236 63.5283 146.61C62.7818 146.14 62.0352 145.67 61.2959 145.168ZM46.1449 130.909C36.4175 118.28 31.7917 102.689 31.5794 86.6354C31.6746 86.8078 31.821 86.941 32.0479 86.941C32.2821 86.941 32.5017 86.9096 32.7286 86.894C32.9994 89.6126 33.4532 92.3234 33.9802 95.0264C34.6536 99.4687 35.6709 103.848 36.9958 108.079C36.542 107.123 36.0735 106.175 35.6124 105.204C35.3489 104.647 34.4633 105.039 34.6755 105.627C35.4806 107.875 36.337 110.179 37.2446 112.482C36.7396 112.874 36.9665 113.845 37.6691 113.61C37.6764 113.61 37.6838 113.602 37.6838 113.602C40.0772 119.51 42.9464 125.331 46.7012 130.251C46.4084 130.345 46.1742 130.604 46.1449 130.909ZM32.692 71.1384C32.2162 75.847 32.2162 80.6497 32.6115 85.4524C32.3699 85.515 32.1284 85.5777 31.8869 85.6482C31.7405 85.6874 31.66 85.7814 31.5868 85.8833C31.5648 80.9788 31.9235 76.0429 32.692 71.1384ZM147.745 25.1878C133.845 13.1067 115.942 7.49705 98.2073 7.76343C74.4049 8.13166 57.5484 21.9364 41.9875 39.7447C41.6728 40.1051 41.7094 40.5282 41.9143 40.8494C20.1174 74.5386 27.305 120.168 57.8998 144.973C89.6364 170.71 137.344 164.489 161.878 131.215C185.93 98.5912 176.583 50.2354 147.745 25.1878Z" fill="#333333"/>
<path fill-rule="evenodd" clip-rule="evenodd" d="M38.4816 41.7503C42.7122 35.1456 47.7699 29.6456 52.9227 23.9106C53.1496 23.6599 52.8568 23.2212 52.564 23.4171C46.2474 27.7105 41.7973 34.7147 38.0937 41.5152C37.9473 41.7816 38.3206 42.001 38.4816 41.7503Z" fill="#333333"/>
<path fill-rule="evenodd" clip-rule="evenodd" d="M164.952 129.836C160.458 137.467 155.313 144.079 148.411 149.336C147.971 149.665 148.345 150.347 148.835 150.096C156.477 146.265 162.083 138.235 165.816 130.369C166.101 129.757 165.304 129.248 164.952 129.836Z" fill="#333333"/>
<path fill-rule="evenodd" clip-rule="evenodd" d="M18.5363 33.4533C16.8895 40.9433 13.1274 47.5558 11.9782 55.2338C11.9636 55.3122 12.0075 55.3748 12.0221 55.4454C11.3854 59.2922 10.9608 63.1625 10.7266 67.0721C10.6095 61.7601 10.1557 56.4874 8.93338 51.4497C7.25726 44.5865 3.83912 38.8985 3.50244 31.1813C3.12915 22.5161 2.13372 13.9998 2.47773 5.32674C5.6836 10.0746 3.79521 33.4768 5.66896 37.449C5.9105 37.9505 6.40821 37.9034 6.7449 37.6136C10.2509 36.5872 9.73119 17.3452 9.81902 15.1828C9.91417 12.8167 9.99469 10.4585 10.2216 8.10023C10.5144 18.4342 9.19688 29.7632 11.8611 39.7524C11.9343 40.0345 12.1027 40.1755 12.2856 40.246C12.1905 40.4497 12.1246 40.6691 12.0295 40.8806C11.7586 41.4761 12.3003 42.0872 12.8639 41.7738C17.2262 39.3529 17.3067 30.3116 17.7459 25.838C18.1338 21.858 18.2948 17.8388 18.5217 13.8431C18.6388 11.7904 18.4632 8.78968 19.2024 6.61163C20.4174 15.3552 20.4101 24.9213 18.5363 33.4533ZM14.3424 132.445C14.5766 139.057 14.0057 145.662 14.1447 152.274C14.196 154.641 14.5546 173.898 11.2097 165.319C8.09166 157.312 8.81627 146.767 8.82359 138.258C8.82359 120.732 10.1338 103.198 10.4997 85.6638C10.5876 85.6873 10.6827 85.703 10.7705 85.7265C11.5537 101.419 13.8154 117.23 14.3424 132.445ZM20.2198 4.3004C20.0661 3.60311 19.3195 3.68145 19.0341 4.15154C19.0194 4.15154 19.0048 4.1437 18.9901 4.1437C16.2015 4.69996 16.7358 13.3103 16.626 15.222C16.1576 23.229 15.8136 30.813 13.1274 38.1542C11.8758 27.021 12.5418 15.5902 10.6973 4.76264C10.5949 4.18288 9.89953 4.33174 9.73851 4.76264C8.49422 7.95137 8.80895 31.8629 6.89129 35.8273C6.1374 28.9954 7.6525 3.3759 1.24808 3.65795C0.750367 3.67362 0.750367 4.45709 1.24808 4.48843C1.35787 4.49626 1.45302 4.5276 1.54817 4.55894C-0.0181637 14.8851 1.63601 25.2817 2.1264 35.6627C2.57288 45.1584 8.3332 51.8179 8.9773 61.4389C9.35058 67.0799 9.47501 72.7757 9.45305 78.5029C9.27007 78.119 9.13832 77.7038 9.05049 77.2885C8.80895 76.1838 7.33045 76.6696 7.48415 77.7508C7.70373 79.1923 8.28196 80.4459 9.4311 81.2685L9.44573 81.2764C9.43841 81.9502 9.40914 82.6239 9.40182 83.2977C9.18224 83.1489 8.9773 82.9922 8.77968 82.812C8.07702 82.1617 7.08891 83.188 7.75497 83.9088C8.21609 84.4181 8.76504 84.8725 9.3579 85.2094C9.12368 95.2065 8.54546 105.227 7.98919 115.052C7.25725 127.924 6.80345 140.851 7.6891 153.732C8.02578 158.652 8.14289 168.539 13.5299 170.498C13.9032 170.631 14.3351 170.349 14.4302 169.957C18.0826 154.907 16.6772 134.921 14.7962 119.666C13.4714 108.878 12.4101 97.3532 12.11 85.8205C13.1347 85.75 14.2179 85.3896 14.5766 84.3319C14.6644 84.0812 14.4814 83.7521 14.2472 83.7051C13.5153 83.5328 12.7834 83.8618 12.0514 83.9637C12.0368 83.2664 11.9929 82.5613 11.9929 81.864C12.432 81.7778 12.8126 81.5741 13.0322 81.1589C13.1566 80.9238 13.1274 80.6261 12.9444 80.4381C12.6736 80.1482 12.3296 80.062 11.9709 80.0072C11.9636 70.6917 12.5272 61.4467 14.0716 52.6954C14.1082 52.5073 14.0716 52.3506 14.013 52.2096C18.3973 35.9526 23.9966 21.999 20.2198 4.3004Z" fill="#333333"/>
<path fill-rule="evenodd" clip-rule="evenodd" d="M199.661 142.395C199.661 146.931 199.456 151.452 199.185 155.98C200.312 162.836 197.472 164.677 190.665 161.504C189.831 157.782 189.406 154.014 189.392 150.206C188.579 132.053 196.045 114.981 197.37 97.1573C197.743 97.1181 198.109 97.0476 198.46 96.9301C198.695 102.986 198.965 109.058 199.324 115.185C199.844 124.218 199.668 133.346 199.661 142.395ZM194.354 86.3297C192.51 83.9793 190.563 81.7699 188.601 79.5214C185.286 75.7372 184.034 71.0207 183.763 66.1162C184.532 67.0642 185.183 68.3177 186.34 68.7252C186.61 68.827 186.874 68.5136 186.793 68.2316C186.464 66.9467 185.432 65.8341 184.576 64.9018C184.305 64.6119 183.968 64.6511 183.734 64.847C183.705 63.5934 183.712 62.332 183.785 61.0785C183.866 61.2195 183.961 61.3527 184.041 61.4937C184.568 62.3947 184.985 63.5386 185.842 64.1262C186.054 64.275 186.391 64.134 186.442 63.8676C186.793 62.0108 185.168 59.9816 183.975 58.4617C184.144 56.6127 184.378 54.7872 184.612 53.0322C184.737 52.1077 184.912 51.1989 185.066 50.2901C185.556 52.0686 185.666 54.0037 185.878 55.8214C185.893 55.9703 186.113 56.0956 186.193 55.9076C187.225 53.3848 186.625 51.0109 185.3 48.7937C185.717 46.4981 186.164 44.226 186.698 41.9618C186.881 42.8941 187.159 43.7951 187.672 44.4767C187.899 44.7823 188.345 44.5864 188.433 44.2652C188.909 42.5259 187.986 40.3714 187.489 38.6791C187.877 37.1826 188.272 35.7019 188.689 34.2211C188.762 35.4982 188.967 36.7439 189.728 37.6841C189.897 37.8799 190.168 37.7546 190.241 37.543C190.914 35.5608 190.241 33.0067 189.728 31.0324C189.721 30.9932 189.677 30.9697 189.662 30.9384C189.86 30.2567 190.058 29.5751 190.263 28.9013C190.607 27.781 190.863 26.4099 191.09 24.8821C191.185 25.2034 191.243 25.5324 191.346 25.8615C191.77 27.2012 191.975 28.682 192.802 29.8102C192.985 30.0609 193.337 29.8807 193.417 29.63C194.244 27.1855 192.444 23.9576 191.514 21.5602C191.705 20.009 191.888 18.395 192.122 16.7811C192.415 18.113 192.912 19.3665 193.966 20.009C194.398 20.2753 194.837 19.8444 194.749 19.3587C194.596 18.442 194.113 17.588 193.798 16.7184C193.417 15.6685 193.139 14.5795 192.868 13.4983C192.846 13.4121 192.773 13.373 192.722 13.3103C193.666 8.72698 195.247 4.67644 198.534 3.133C198.731 3.04682 198.834 2.90579 198.892 2.74126C197.904 9.16572 198.314 15.4021 198.702 21.9206C199.273 31.526 198.329 41.2723 198.058 50.8699C197.67 64.9567 197.824 78.8084 198.307 92.715C198.065 92.8012 197.824 92.8874 197.575 92.9422C197.582 92.668 197.597 92.4016 197.597 92.1274C197.604 91.6417 197.275 91.4536 196.953 91.4928C196.499 89.7065 195.752 88.1082 194.354 86.3297ZM199.719 96.1545C199.932 95.9508 200.136 95.7079 200.297 95.4258C200.612 94.8774 200.158 94.3055 199.631 94.329C199.609 93.9921 199.595 93.663 199.58 93.3261C199.609 93.24 199.675 93.1694 199.697 93.0754C199.734 92.8952 199.661 92.762 199.551 92.6523C199.353 87.9907 199.207 83.3212 199.17 78.6439C199.068 65.2936 199.749 51.7944 200.276 38.4519C200.759 26.3159 199.09 14.0232 200.378 1.98913C200.466 1.16649 199.17 0.986288 199.031 1.79326C198.995 2.01263 198.965 2.23984 198.936 2.45921C198.899 1.91862 198.351 1.35452 197.736 1.66791C193.688 3.68926 192.641 8.27256 191.558 12.613C188.96 23.0488 186.815 34.1898 184.744 44.7745C183.873 49.1776 183.09 53.3926 182.658 57.6234C182.285 57.8192 182.021 58.2972 182.299 58.7202C182.38 58.8378 182.446 58.9553 182.519 59.0728C182.175 63.3349 182.226 67.6283 183.017 72.1411C184.378 79.9915 191.28 84.3476 194.808 91.0306C194.493 91.1637 194.244 91.5006 194.354 91.9081C194.647 92.9579 195.123 93.9764 195.986 94.5248C195.95 94.7912 195.899 95.0654 195.862 95.3397C195.518 95.2848 195.174 95.2065 194.83 95.0889C193.856 94.752 193.527 96.2877 194.42 96.6794C194.779 96.8361 195.181 96.9536 195.591 97.0398C192.195 118.295 184.283 140.64 188.916 162.021C191.317 173.138 199.953 167.599 200.715 159.02C202.574 137.984 200.715 117.104 199.719 96.1545Z" fill="#333333"/>
<path fill-rule="evenodd" clip-rule="evenodd" d="M203.013 148.044C202.383 156.576 200.605 164.708 197.545 172.606C197.457 172.841 197.809 172.99 197.919 172.778C201.937 165.108 204.513 156.928 204.169 148.044C204.14 147.237 203.071 147.253 203.013 148.044Z" fill="#333333"/>
<path fill-rule="evenodd" clip-rule="evenodd" d="M2.25082 145.122C2.55823 149.337 2.66802 153.575 4.37343 157.469C4.60765 157.986 5.26639 157.594 5.18587 157.101C4.54177 153.113 3.8318 149.141 3.37068 145.122C3.28285 144.377 2.19227 144.338 2.25082 145.122Z" fill="#333333"/>
<path fill-rule="evenodd" clip-rule="evenodd" d="M0.318613 152.635C0.223462 155.549 1.02859 158.699 2.90966 160.869C3.20975 161.214 3.65623 160.846 3.59036 160.454C3.12924 157.743 1.62877 155.432 1.40187 152.635C1.336 151.906 0.34789 151.883 0.318613 152.635Z" fill="#333333"/>
<path fill-rule="evenodd" clip-rule="evenodd" d="M22.2326 2.95286C23.3159 6.65868 23.7697 10.3567 24.3772 14.1643C24.4211 14.4385 24.8676 14.4542 24.9115 14.1643C25.4092 10.2783 24.304 6.32962 23.1548 2.68648C22.9572 2.06754 22.0496 2.32609 22.2326 2.95286Z" fill="#333333"/>
<path fill-rule="evenodd" clip-rule="evenodd" d="M187.606 13.0831C188.396 11.5632 188.667 9.68285 189.216 8.0454C189.948 5.86735 190.899 3.78332 192.334 2.03618C192.861 1.40157 192.027 0.484907 191.456 1.09601C188.865 3.846 186.515 8.82887 186.764 12.8402C186.793 13.2947 187.379 13.5219 187.606 13.0831Z" fill="#333333"/>
</svg>

