<svg width="200" height="158" viewBox="0 0 200 158" fill="none" xmlns="http://www.w3.org/2000/svg">
<path fill-rule="evenodd" clip-rule="evenodd" d="M61.7455 50.7584C50.9974 70.5529 52.1965 94.5763 69.2698 109.819C66.2185 107.256 63.483 104.341 61.1926 101.11C51.6077 87.6191 51.0477 64.1989 61.7455 50.7584ZM62.7435 50.8015C62.9373 51.1174 63.3896 51.3041 63.6984 50.9666C83.1195 29.2839 113.195 29.7864 134.957 48.4394C153.976 64.7445 147.306 96.5938 130.549 111.664C129.608 112.504 128.632 113.279 127.641 114.012C111.767 121.041 96.0574 122.24 79.0558 114.306C53.7114 102.488 52.4262 73.1664 62.7435 50.8015ZM125.817 117.257C129.034 115.757 132.071 113.933 134.785 111.729C135.295 111.305 134.648 110.558 134.11 110.846C133.995 110.903 133.887 110.953 133.78 111.018C150.623 94.3107 154.027 64.4286 136.257 47.1398C119.09 30.4326 87.9156 26.6776 69.636 42.3653C69.4924 42.3438 69.3488 42.351 69.1909 42.4228C48.0753 52.0221 48.822 85.0991 59.5916 102.043C73.032 123.188 104.465 130.159 125.817 117.257Z" fill="#333333"/>
<path fill-rule="evenodd" clip-rule="evenodd" d="M78.4028 65.6132C78.3813 65.6706 78.3598 65.7352 78.3454 65.7927C78.2808 63.6603 78.9629 61.9587 80.1403 60.7597C79.5444 62.3751 78.9341 63.9762 78.4028 65.6132ZM87.9806 58.9791C92.389 59.855 95.9501 62.6982 98.2548 66.3958C96.8404 70 95.3757 73.6545 94.0403 77.3449C94.9234 73.7406 95.5624 70.0502 96.4886 66.7332C96.6824 66.0368 95.6342 65.7568 95.4188 66.4388C93.3439 72.958 91.0607 79.6065 89.2227 86.2118C88.756 85.6446 88.2821 85.0846 87.8226 84.5174C91.6782 78.4218 92.6618 70.3159 93.7387 63.3228C93.8608 62.4828 92.5972 62.1023 92.4392 62.9639C91.1181 70.0144 88.8852 76.67 87.0688 83.5625C86.6165 82.9881 86.1641 82.4137 85.7333 81.8322C88.835 75.9161 89.5171 68.4276 91.4699 62.1813C91.7356 61.3197 90.4002 60.9607 90.1202 61.8079C88.1457 67.8102 86.2431 73.9417 84.4482 80.0372C84.0676 79.4916 83.6728 78.9531 83.3138 78.3931C86.0493 73.3745 86.997 67.0491 88.5263 61.5925C88.7417 60.8099 87.5642 60.494 87.3201 61.2551C85.6974 66.324 83.242 71.7375 82.5455 77.1007C82.1937 76.4976 81.806 75.9161 81.4829 75.2986C82.7753 73.7191 83.4143 71.5006 83.9887 69.6195C84.9723 66.4101 85.3815 63.0931 86.0421 59.812C86.1426 59.2807 85.3456 59.0509 85.2164 59.5894C84.5989 62.1669 83.8666 64.7157 83.1415 67.2645C82.524 69.4041 81.3896 71.4503 80.6214 73.554C80.4275 73.1304 80.2265 72.6996 80.047 72.2616C80.126 72.2401 80.205 72.2185 80.2768 72.1324C82.7968 68.8728 83.4143 63.8398 83.9528 59.8694C84.0533 59.0796 82.8615 58.7135 82.7179 59.5319C82.3732 61.5638 81.8706 63.5454 81.2819 65.5127C80.7506 67.2932 79.9178 69.0666 79.5301 70.8831C79.3577 70.4021 79.1783 69.921 79.0347 69.4256C79.4942 68.363 79.6521 67.1353 79.9608 66.044C80.4921 64.1701 81.1168 62.3177 81.6912 60.451C81.7917 60.135 81.6696 59.8909 81.4614 59.7545C83.1558 58.7709 85.4318 58.4693 87.9806 58.9791ZM99.2384 68.162C99.3748 68.4492 99.6261 68.5281 99.8846 68.5425C98.0825 75.672 95.7706 82.5071 93.2505 89.4212C93.0782 89.8807 93.7818 90.1463 94.0259 89.7442C95.4475 87.418 96.5101 84.9338 97.386 82.3707C96.4742 85.4795 95.6342 88.6027 94.988 91.7187C94.9019 92.1495 95.5337 92.4725 95.7347 92.0346C99.5759 83.6056 101.335 74.2719 104.673 65.6275C105.004 64.766 103.632 64.407 103.295 65.247C101.644 69.4615 100.05 73.7981 98.6281 78.1921C99.5328 74.7601 100.215 71.2636 100.962 67.8461C100.969 67.8174 100.947 67.803 100.947 67.7743C101.234 67.5804 101.328 67.3148 101.27 67.0635C101.615 66.5968 102.125 65.9506 102.9 64.9814C103.927 63.7034 105.054 62.5044 106.174 61.3053C108.91 58.3975 115.881 54.1041 118.839 62.0161C120.117 65.4337 118.559 69.7918 117.446 73.0514C116.233 76.6269 114.538 80.1449 112.557 83.5625C113.792 79.4485 115.149 75.3848 116.621 71.3354C116.886 70.5959 115.709 70.28 115.443 71.0123C113.533 76.2751 111.53 81.5522 110.424 87.0447C109.491 88.4878 108.507 89.9094 107.495 91.3022C110.403 84.7974 112.033 77.5531 113.835 70.7826C114.065 69.921 112.729 69.5548 112.492 70.4164C110.288 78.5869 107.258 86.4918 104.982 94.6193C103.41 96.6152 101.802 98.5466 100.186 100.377C100.021 100.191 99.8415 99.9969 99.6764 99.8102C96.9983 95.4234 93.5736 91.4243 90.2063 87.3965C90.7951 86.4559 91.2833 85.4436 91.7428 84.4097C91.434 85.501 91.1469 86.5852 90.8884 87.6837C90.7663 88.2078 91.5202 88.5668 91.793 88.057C95.1747 81.7819 96.7327 74.4873 98.9656 67.6594C99.0517 67.8317 99.1523 67.9897 99.2384 68.162ZM78.0367 59.8263C76.852 61.2838 76.3925 63.0428 76.371 64.888C74.1022 79.4485 88.9642 91.5248 98.2476 101.167C98.4127 101.447 98.5994 101.713 98.7646 102C98.7502 102.014 98.7358 102.029 98.7215 102.043C97.8886 102.962 99.2528 104.326 100.071 103.407C100.251 103.206 100.437 102.991 100.617 102.79C100.653 102.754 100.689 102.718 100.717 102.682C109.692 92.5874 125.294 74.0278 120.002 59.855C116.57 50.665 102.835 58.9647 99.9277 65.6347C99.8774 65.5414 99.8128 65.4624 99.7554 65.3691C99.8056 65.247 99.8415 65.1178 99.8846 65.0029C100.057 64.529 99.5328 64.2777 99.1738 64.4501C94.6434 57.9596 83.5722 52.9984 78.0367 59.8263Z" fill="#333333"/>
<path fill-rule="evenodd" clip-rule="evenodd" d="M101.363 84.5102C101.837 83.5912 102.117 82.6004 102.562 81.6742C102.742 81.2794 102.16 80.9347 101.974 81.3296C101.528 82.2702 101.277 83.2681 100.868 84.223C100.731 84.5533 101.191 84.8477 101.363 84.5102Z" fill="#333333"/>
<path fill-rule="evenodd" clip-rule="evenodd" d="M99.7553 94.332C105.075 85.1491 106.906 74.4082 110.173 64.4141C110.367 63.8325 109.469 63.6027 109.268 64.1628C105.714 74.078 102.785 84.1727 98.9942 94.0089C98.8219 94.4612 99.5255 94.734 99.7553 94.332Z" fill="#333333"/>
<path fill-rule="evenodd" clip-rule="evenodd" d="M109.785 71.6085C107.344 80.6262 103.546 89.1414 100.854 98.0658C100.767 98.3601 101.213 98.554 101.356 98.274C105.549 89.9527 108.557 80.9134 110.805 71.8885C110.97 71.2279 109.965 70.9479 109.785 71.6085Z" fill="#333333"/>
<path fill-rule="evenodd" clip-rule="evenodd" d="M120.354 114.019C128.977 109.553 139 102.524 140.572 92.1425C140.644 91.6686 139.954 91.2594 139.725 91.7835C137.693 96.5221 135.776 100.536 132.143 104.305C128.618 107.967 124.324 110.81 120.124 113.61C119.873 113.782 120.088 114.156 120.354 114.019Z" fill="#333333"/>
<path fill-rule="evenodd" clip-rule="evenodd" d="M60.2236 67.6523C63.3683 58.1463 67.8557 50.4927 76.4642 44.9428C76.8231 44.7058 76.5934 44.0381 76.1554 44.2104C67.5541 47.6424 60.0872 58.3258 59.3908 67.5446C59.3549 68.04 60.08 68.0902 60.2236 67.6523Z" fill="#333333"/>
<path fill-rule="evenodd" clip-rule="evenodd" d="M141.936 85.6805C142.783 84.3666 142.977 82.5717 143.343 81.0711C143.508 80.3747 142.439 80.0803 142.266 80.7767C141.879 82.2701 141.204 83.9573 141.333 85.5153C141.362 85.8313 141.757 85.9605 141.936 85.6805Z" fill="#333333"/>
<path fill-rule="evenodd" clip-rule="evenodd" d="M78.8907 43.2555C80.0036 42.6021 81.5114 42.1211 82.4088 41.1805C82.775 40.7856 82.4878 40.2472 81.9924 40.1969C80.5852 40.0389 79.2713 41.3241 78.223 42.1067C77.5481 42.6093 78.1369 43.7006 78.8907 43.2555Z" fill="#333333"/>
<path fill-rule="evenodd" clip-rule="evenodd" d="M120.267 129.319C121.474 131.94 122.278 135.063 124.008 137.396C124.353 137.863 125.035 137.59 124.934 137.008C124.425 134.093 122.601 131.322 120.971 128.91C120.677 128.465 120.052 128.845 120.267 129.319Z" fill="#333333"/>
<path fill-rule="evenodd" clip-rule="evenodd" d="M155.585 120.273C134.203 147.304 95.3755 150.679 66.1612 135.81C66.8217 135.96 67.2525 135.127 66.6494 134.668C66.3335 134.438 66.0248 134.208 65.7161 133.972C68.0854 135.336 70.5121 136.549 73.0179 137.604C73.0968 138.057 73.5994 138.301 73.9584 137.992C98.1469 147.728 127.612 143.054 146.955 125.65C147.4 126.009 147.874 126.325 148.405 126.548C148.742 126.684 149.173 126.26 149.03 125.916C148.821 125.406 148.52 124.939 148.182 124.501C151.636 121.22 154.781 117.559 157.437 113.437C159.031 110.975 160.316 108.354 161.393 105.633C161.831 105.726 162.262 105.798 162.693 105.777C163.016 105.755 163.181 105.382 162.951 105.145C162.657 104.822 162.305 104.549 161.939 104.298C167.008 90.369 166.204 73.8341 164.308 59.8049C161.946 42.3223 153.136 29.6716 138.045 20.6898C134.577 18.622 130.858 16.8343 126.995 15.3193C126.866 14.9532 126.421 14.7665 126.054 14.9532C97.5151 4.19077 60.8841 9.05144 46.7831 38.9981C46.5247 39.5509 47.2785 40.0176 47.6088 39.4791C49.174 36.959 50.8612 34.64 52.6274 32.4789C53.4028 33.1394 54.1854 33.7928 54.9393 34.4749C55.9157 35.3508 56.8419 36.4206 58.0122 37.0308C58.5004 37.2893 59.0102 36.7795 58.7517 36.2913C58.1486 35.1282 57.0717 34.1805 56.1168 33.3046C55.3126 32.565 54.4726 31.9332 53.5895 31.3445C59.1969 24.8109 65.7089 19.979 72.8025 16.7266C74.0517 19.821 75.1143 23.7842 77.6344 26.01C77.7996 26.1464 78.0508 26.0171 78.0006 25.8017C77.2252 22.5852 75.6959 19.1318 74.0948 16.1666C81.5186 12.9931 89.5312 11.4997 97.7664 11.4638C97.6228 13.0218 97.63 14.587 97.63 16.1522C97.6228 18.0189 97.5007 19.9574 98.0679 21.7524C98.19 22.1185 98.6926 22.1185 98.8146 21.7524C99.31 20.1872 99.2669 18.543 99.2598 16.9132C99.2526 15.0968 99.2885 13.2731 99.1162 11.4638C107.667 11.5859 116.434 13.309 125.006 16.3819C123.276 19.0887 121.826 22.3842 120.986 25.3638C120.871 25.773 121.388 26.053 121.682 25.7658C124.023 23.5401 125.143 19.9215 126.471 16.9061C129.285 17.9687 132.078 19.1749 134.828 20.5246C139.753 22.9514 144.004 26.0315 147.637 29.5926C146.675 30.2101 145.871 31.1435 145.031 31.9332C143.745 33.1322 141.757 34.3959 140.931 35.9826C140.809 36.2195 140.952 36.6144 141.276 36.5785C142.934 36.3918 144.492 34.6902 145.648 33.6205C146.639 32.7086 147.859 31.7466 148.613 30.5906C153.273 35.4298 156.82 41.1233 159.404 47.3122C159.038 46.623 158.665 45.9409 158.27 45.266C158.162 45.0793 157.832 45.2014 157.918 45.4096C158.909 47.9225 159.727 50.5072 160.474 53.1278C157.293 53.7309 154.055 55.1812 151.09 56.3874C150.559 56.61 150.746 57.4284 151.341 57.2777C154.422 56.5023 158.019 55.9351 160.754 54.1617C161.393 56.4951 161.996 58.8429 162.592 61.1691C162.707 61.6286 163.324 61.5999 163.497 61.2409C164.48 66.6041 164.904 72.1397 164.803 77.6609C163.202 77.4958 161.53 77.783 159.936 77.9409C158.414 78.0917 156.942 78.3286 155.527 78.9245C155.039 79.1328 155.283 80.0015 155.807 79.9441C157.394 79.7646 158.974 79.5564 160.567 79.4271C161.967 79.3051 163.439 79.3194 164.789 78.8958C164.516 87.3535 163.066 95.761 160.589 103.529C159.699 103.106 158.758 102.747 157.918 102.345C155.915 101.383 153.883 100.514 151.844 99.6309C151.284 99.3868 150.803 100.141 151.356 100.471C153.266 101.577 155.125 102.747 157.092 103.752C158.004 104.219 159.009 104.786 160.043 105.21C157.401 112.856 153.215 119.167 147.974 124.257C147.084 123.18 145.935 122.254 144.944 121.342C143.329 119.871 141.548 118.593 139.71 117.429C138.942 116.948 138.317 118.104 139.014 118.614C140.845 119.957 142.518 121.472 144.176 123.008C145.009 123.783 145.806 124.681 146.689 125.435C134.577 136.398 117.367 141.259 100.337 141.015C100.516 137.985 100.322 134.804 100.15 131.789C100.114 131.057 99.0731 131.064 99.0228 131.789C98.8146 134.711 98.1541 138.172 99.2741 141C90.7877 140.778 82.3802 139.299 74.7123 136.693C75.2077 135.752 75.7103 134.812 76.1339 133.828C76.6221 132.715 77.2036 131.495 77.0744 130.26C77.0385 129.908 76.6221 129.656 76.3349 129.958C75.5882 130.741 75.2866 131.767 74.8774 132.751C74.4035 133.914 73.9225 135.084 73.4271 136.24C72.0414 135.738 70.6701 135.214 69.3418 134.646C63.7273 132.227 58.6369 128.716 54.1423 124.43C56.1455 122.577 58.2492 120.61 59.5271 118.298C59.7713 117.86 59.24 117.192 58.7733 117.551C56.6624 119.16 54.8244 121.299 53.0008 123.317C47.2283 117.516 42.4968 110.4 39.029 102.625C39.0218 102.618 39.0218 102.603 39.0147 102.589C39.9911 102.309 40.9675 102.029 41.9368 101.735C43.3656 101.282 44.8015 100.938 45.9575 99.954C46.2375 99.717 46.0077 99.2575 45.6703 99.2575C44.2271 99.2504 42.8917 99.8176 41.5276 100.248C40.5583 100.557 39.6249 100.938 38.6772 101.297C36.631 93.4779 35.2022 85.9607 34.6135 78.3286C35.0658 78.2138 35.5253 78.0989 35.9848 77.9768C37.7151 77.5173 39.6321 77.3737 41.2619 76.6558C41.5778 76.505 41.4342 76.0814 41.1758 75.988C39.7757 75.4567 38.2967 75.8301 36.8751 76.1604C36.0782 76.347 35.2812 76.5624 34.4843 76.7706C34.3622 74.8177 34.2976 72.8577 34.2976 70.8761C35.6976 64.7015 37.0115 58.7352 38.7562 52.8047L38.7706 52.8119C38.8711 52.9986 39.1224 53.0919 39.3234 53.0129C40.0485 53.2786 40.7737 53.5299 41.4917 53.7955C42.9851 54.3627 44.4354 55.0304 46.0508 55.0879C46.5893 55.1094 46.8118 54.3196 46.3236 54.0612C44.9236 53.3288 43.3799 52.8765 41.9009 52.3165C41.3194 52.0939 40.7091 51.8785 40.0988 51.7062C42.662 46.5871 44.8661 41.2238 47.8673 36.3559C48.1042 35.9754 47.537 35.6739 47.2857 36.0113C43.7748 40.7858 41.2188 45.8188 39.2013 51.3329C40.2568 47.8938 41.4558 44.4475 42.9492 40.9725C43.143 40.513 42.5615 40.1468 42.2671 40.5776C38.8567 45.5532 36.3653 51.6344 34.7714 57.931C34.5058 57.8449 34.1755 57.9167 34.0894 58.2254C33.5868 60.1424 33.1847 62.0953 32.8688 64.0625C34.0535 54.413 37.4136 45.2732 43.4087 37.7488C43.8825 37.1529 43.0425 36.3057 42.5686 36.9088C40.7522 39.2135 39.187 41.6618 37.8372 44.1962C38.9141 41.7479 40.0988 39.3427 41.4055 36.9949C41.6137 37.0165 41.8435 36.959 42.0373 36.758C57.3876 21.6231 71.0506 10.2792 93.2862 8.18269C110.381 6.57444 127.476 12.3685 141.383 22.0324C173.053 44.0311 179.263 90.326 155.585 120.273ZM59.8215 132.212C54.5229 128.845 50.014 124.932 46.2159 120.617C47.9462 122.204 49.6909 123.812 51.4787 125.399C51.5505 125.715 51.8233 125.98 52.1536 126.002C55.2696 128.745 58.5363 131.358 62.0113 133.534C61.279 133.103 60.5467 132.672 59.8215 132.212ZM44.9595 119.145C35.4176 107.572 30.88 93.284 30.6718 78.5727C30.7652 78.7307 30.9088 78.8528 31.1313 78.8528C31.3611 78.8528 31.5765 78.824 31.799 78.8097C32.0647 81.301 32.5098 83.7852 33.0268 86.2622C33.6873 90.3331 34.6853 94.3466 35.9848 98.2237C35.5397 97.3477 35.0802 96.479 34.6279 95.5887C34.3694 95.0789 33.5006 95.4379 33.7088 95.9764C34.4986 98.037 35.3386 100.148 36.2289 102.259C35.7335 102.618 35.9561 103.508 36.6454 103.293C36.6525 103.293 36.6597 103.285 36.6597 103.285C39.0075 108.699 41.8219 114.033 45.5051 118.542C45.2179 118.628 44.9882 118.865 44.9595 119.145ZM31.7631 64.3712C31.2965 68.6863 31.2965 73.0874 31.6842 77.4886C31.4472 77.546 31.2103 77.6035 30.9734 77.6681C30.8298 77.704 30.7508 77.7902 30.679 77.8835C30.6575 73.389 31.0093 68.8658 31.7631 64.3712ZM144.621 22.2621C130.987 11.191 113.425 6.05032 96.0289 6.29443C72.6804 6.63187 56.1455 19.2826 40.8814 35.6021C40.5727 35.9323 40.6086 36.32 40.8096 36.6144C19.4284 67.4872 26.4789 109.302 56.4901 132.033C87.6214 155.618 134.419 149.918 158.485 119.425C182.078 89.529 172.909 45.2157 144.621 22.2621Z" fill="#333333"/>
<path fill-rule="evenodd" clip-rule="evenodd" d="M37.4424 37.4399C41.5922 31.3874 46.5534 26.3472 51.608 21.0917C51.8305 20.8619 51.5433 20.4598 51.2562 20.6393C45.0601 24.5738 40.6948 30.9925 37.0618 37.2245C36.9182 37.4686 37.2844 37.6696 37.4424 37.4399Z" fill="#333333"/>
<path fill-rule="evenodd" clip-rule="evenodd" d="M161.501 118.162C157.092 125.155 152.045 131.214 145.275 136.032C144.844 136.334 145.21 136.958 145.691 136.729C153.187 133.218 158.686 125.858 162.348 118.65C162.628 118.09 161.845 117.623 161.501 118.162Z" fill="#333333"/>
<path fill-rule="evenodd" clip-rule="evenodd" d="M17.8775 29.8366C16.2621 36.7005 12.5717 42.7602 11.4445 49.7963C11.4301 49.8681 11.4732 49.9255 11.4876 49.9901C10.8629 53.5154 10.4465 57.0622 10.2167 60.6449C10.1019 55.777 9.65672 50.945 8.45771 46.3285C6.81355 40.039 3.46061 34.8266 3.13035 27.7545C2.76418 19.8138 1.78774 12.0094 2.12519 4.06143C5.26991 8.41234 3.41754 29.8582 5.25555 33.4983C5.49248 33.9578 5.9807 33.9147 6.31097 33.6491C9.75006 32.7085 9.2403 15.0751 9.32645 13.0935C9.41979 10.9252 9.49877 8.76415 9.72134 6.60305C10.0085 16.0731 8.71618 26.455 11.3296 35.6092C11.4014 35.8676 11.5665 35.9969 11.746 36.0615C11.6527 36.2481 11.5881 36.4492 11.4947 36.643C11.2291 37.1887 11.7604 37.7487 12.3132 37.4615C16.5923 35.243 16.6713 26.9576 17.1021 22.858C17.4826 19.2107 17.6406 15.5275 17.8631 11.8658C17.978 9.9847 17.8057 7.23487 18.5309 5.2389C19.7227 13.2515 19.7155 22.0179 17.8775 29.8366ZM13.7635 120.553C13.9933 126.612 13.4333 132.665 13.5697 138.724C13.6199 140.893 13.9717 158.54 10.6906 150.679C7.63204 143.341 8.34283 133.677 8.35001 125.88C8.35001 109.819 9.63518 93.7506 9.99417 77.6824C10.0803 77.7039 10.1737 77.7183 10.2598 77.7398C11.028 92.1208 13.2466 106.609 13.7635 120.553ZM19.5288 3.12088C19.3781 2.48189 18.6457 2.55369 18.3657 2.98447C18.3514 2.98447 18.337 2.97729 18.3227 2.97729C15.5872 3.48705 16.1113 11.3776 16.0036 13.1294C15.5441 20.4671 15.2067 27.4171 12.5717 34.1445C11.344 23.9421 11.9973 13.4669 10.188 3.54449C10.0875 3.01319 9.40543 3.1496 9.24748 3.54449C8.02692 6.46664 8.33565 28.3792 6.45456 32.0121C5.71505 25.7514 7.20125 2.27368 0.918992 2.53215C0.430771 2.54651 0.430771 3.26448 0.918992 3.2932C1.02669 3.30038 1.12002 3.3291 1.21336 3.35782C-0.323102 12.8207 1.29952 22.3482 1.78056 31.8613C2.21852 40.5632 7.86897 46.6659 8.50078 55.4826C8.86695 60.652 8.98901 65.8717 8.96747 71.1201C8.78797 70.7683 8.65874 70.3877 8.57258 70.0072C8.33565 68.9949 6.88534 69.44 7.03612 70.4308C7.25151 71.7519 7.81871 72.9007 8.94593 73.6545L8.96029 73.6617C8.95311 74.2792 8.92439 74.8966 8.91721 75.5141C8.70182 75.3777 8.50079 75.2341 8.30693 75.0689C7.61768 74.473 6.64841 75.4136 7.30177 76.0741C7.75409 76.5408 8.29257 76.9572 8.87413 77.2659C8.64438 86.4273 8.07718 95.6101 7.53152 104.614C6.81355 116.41 6.3684 128.256 7.23715 140.06C7.56742 144.569 7.6823 153.63 12.9666 155.424C13.3327 155.546 13.7563 155.288 13.8497 154.929C17.4324 141.137 16.0539 122.821 14.2087 108.842C12.9091 98.9559 11.8681 88.3945 11.5737 77.8259C12.5789 77.7613 13.6415 77.4311 13.9933 76.4618C14.0794 76.232 13.8999 75.9305 13.6702 75.8874C12.9522 75.7295 12.2342 76.031 11.5163 76.1244C11.5019 75.4854 11.4588 74.8392 11.4588 74.2002C11.8896 74.1212 12.263 73.9345 12.4784 73.554C12.6004 73.3386 12.5717 73.0658 12.3922 72.8935C12.1265 72.6278 11.7891 72.5488 11.4373 72.4986C11.4301 63.9619 11.983 55.4898 13.4979 47.4701C13.5338 47.2977 13.4979 47.1542 13.4404 47.0249C17.7411 32.127 23.2336 19.3399 19.5288 3.12088Z" fill="#333333"/>
<path fill-rule="evenodd" clip-rule="evenodd" d="M195.547 129.671C195.547 133.828 195.346 137.971 195.08 142.12C196.186 148.403 193.4 150.09 186.723 147.182C185.905 143.772 185.488 140.318 185.474 136.829C184.677 120.194 192 104.549 193.3 88.215C193.666 88.1791 194.025 88.1145 194.37 88.0068C194.599 93.5567 194.865 99.121 195.217 104.736C195.727 113.014 195.554 121.378 195.547 129.671ZM190.342 78.2926C188.533 76.1387 186.623 74.114 184.699 72.0535C181.446 68.5856 180.218 64.2635 179.953 59.7689C180.707 60.6377 181.346 61.7864 182.48 62.1598C182.746 62.2531 183.004 61.9659 182.925 61.7075C182.602 60.53 181.59 59.5105 180.75 58.6561C180.484 58.3904 180.154 58.4263 179.924 58.6058C179.895 57.4571 179.903 56.3011 179.974 55.1524C180.053 55.2816 180.147 55.4037 180.226 55.5329C180.743 56.3586 181.152 57.4068 181.992 57.9453C182.2 58.0817 182.53 57.9525 182.581 57.7084C182.925 56.0068 181.331 54.1472 180.161 52.7543C180.326 51.0599 180.556 49.3871 180.786 47.7788C180.908 46.9316 181.08 46.0987 181.231 45.2659C181.712 46.8957 181.82 48.6691 182.028 50.3348C182.042 50.4712 182.257 50.5861 182.336 50.4138C183.349 48.1019 182.76 45.9264 181.461 43.8946C181.87 41.7909 182.308 39.7088 182.832 37.6338C183.011 38.4882 183.284 39.3139 183.787 39.9385C184.009 40.2185 184.447 40.039 184.533 39.7447C185 38.1508 184.095 36.1764 183.607 34.6255C183.988 33.2542 184.376 31.8972 184.785 30.5403C184.857 31.7106 185.058 32.8521 185.804 33.7137C185.969 33.8932 186.235 33.7783 186.307 33.5845C186.967 31.768 186.307 29.4274 185.804 27.6181C185.797 27.5822 185.754 27.5607 185.74 27.532C185.934 26.9073 186.127 26.2827 186.328 25.6652C186.666 24.6385 186.917 23.3821 187.14 21.982C187.233 22.2764 187.29 22.5779 187.391 22.8795C187.807 24.1072 188.008 25.4642 188.82 26.4981C188.999 26.7278 189.344 26.5627 189.423 26.3329C190.234 24.0929 188.468 21.1348 187.556 18.9378C187.743 17.5162 187.922 16.0372 188.152 14.5582C188.439 15.7787 188.927 16.9275 189.961 17.5162C190.385 17.7604 190.816 17.3655 190.73 16.9203C190.579 16.0803 190.105 15.2977 189.796 14.5008C189.423 13.5387 189.15 12.5407 188.884 11.5499C188.863 11.4709 188.791 11.435 188.741 11.3776C189.667 7.17743 191.218 3.46551 194.441 2.05111C194.635 1.97213 194.736 1.84289 194.793 1.69212C193.824 7.5795 194.226 13.2946 194.607 19.2681C195.167 28.0704 194.24 37.002 193.975 45.7972C193.594 58.7063 193.745 71.4001 194.219 84.1441C193.982 84.2231 193.745 84.3021 193.501 84.3523C193.508 84.101 193.522 83.8569 193.522 83.6056C193.53 83.1605 193.207 82.9882 192.891 83.0241C192.446 81.3871 191.713 79.9224 190.342 78.2926ZM195.605 87.296C195.813 87.1093 196.014 86.8868 196.172 86.6283C196.481 86.1257 196.035 85.6016 195.518 85.6231C195.497 85.3144 195.483 85.0129 195.468 84.7041C195.497 84.6252 195.562 84.5605 195.583 84.4744C195.619 84.3093 195.547 84.1872 195.439 84.0867C195.246 79.8147 195.102 75.5356 195.066 71.2493C194.966 59.0151 195.633 46.6444 196.15 34.4173C196.624 23.2959 194.987 12.0309 196.251 1.00286C196.337 0.248994 195.066 0.0838592 194.93 0.823372C194.894 1.0244 194.865 1.23262 194.836 1.43365C194.8 0.938248 194.262 0.421307 193.659 0.708496C189.689 2.56086 188.662 6.76101 187.599 10.7386C185.05 20.302 182.947 30.5115 180.915 40.2114C180.06 44.2464 179.292 48.1091 178.869 51.9861C178.502 52.1656 178.244 52.6036 178.517 52.9913C178.596 53.099 178.66 53.2067 178.732 53.3144C178.395 57.2201 178.445 61.1546 179.22 65.2902C180.556 72.4842 187.326 76.4762 190.787 82.6005C190.478 82.7225 190.234 83.0313 190.342 83.4046C190.629 84.3667 191.096 85.3001 191.943 85.8026C191.907 86.0467 191.857 86.298 191.821 86.5493C191.483 86.4991 191.146 86.4273 190.809 86.3196C189.854 86.0108 189.531 87.4181 190.406 87.7771C190.758 87.9207 191.153 88.0283 191.555 88.1073C188.224 107.586 180.463 128.063 185.007 147.656C187.362 157.844 195.834 152.768 196.581 144.906C198.405 125.629 196.581 106.495 195.605 87.296Z" fill="#333333"/>
<path fill-rule="evenodd" clip-rule="evenodd" d="M198.835 134.847C198.218 142.666 196.473 150.119 193.472 157.356C193.386 157.571 193.731 157.708 193.838 157.514C197.78 150.485 200.307 142.989 199.97 134.847C199.941 134.108 198.893 134.122 198.835 134.847Z" fill="#333333"/>
<path fill-rule="evenodd" clip-rule="evenodd" d="M1.90259 132.17C2.20414 136.032 2.31184 139.917 3.98471 143.485C4.21446 143.959 4.86064 143.6 4.78166 143.147C4.14985 139.493 3.45341 135.853 3.00109 132.17C2.91493 131.488 1.84515 131.452 1.90259 132.17Z" fill="#333333"/>
<path fill-rule="evenodd" clip-rule="evenodd" d="M0.00725125 139.055C-0.0860848 141.726 0.703685 144.612 2.54887 146.601C2.84325 146.917 3.28121 146.579 3.21659 146.22C2.76427 143.736 1.29242 141.618 1.06985 139.055C1.00523 138.387 0.0359702 138.366 0.00725125 139.055Z" fill="#333333"/>
<path fill-rule="evenodd" clip-rule="evenodd" d="M21.5032 1.88602C22.5658 5.28203 23.011 8.67086 23.6069 12.1602C23.65 12.4115 24.0879 12.4259 24.131 12.1602C24.6193 8.59907 23.5351 4.98048 22.4079 1.64191C22.214 1.07471 21.3238 1.31164 21.5032 1.88602Z" fill="#333333"/>
<path fill-rule="evenodd" clip-rule="evenodd" d="M183.722 11.1694C184.498 9.77653 184.763 8.0534 185.302 6.55283C186.02 4.55687 186.953 2.64706 188.36 1.04598C188.877 0.464424 188.059 -0.375603 187.499 0.184414C184.957 2.7045 182.652 7.27081 182.896 10.9468C182.925 11.3633 183.5 11.5715 183.722 11.1694Z" fill="#333333"/>
</svg>
