<svg width="510" height="368" viewBox="0 0 510 368" fill="none" xmlns="http://www.w3.org/2000/svg">
<g clip-path="url(#clip0_219_5750)">
<path d="M-3.93807e-07 359.087C0.0408321 358.045 0.0840848 357.478 0.827681 356.72C2.12479 355.709 3.61257 354.982 5.06159 354.216C5.21811 354.133 5.37463 354.049 5.5359 353.963C7.70975 352.803 9.90812 351.732 12.1606 350.73C16.1108 348.963 19.373 346.898 22.4111 343.806C22.5985 343.619 22.786 343.431 22.9791 343.237C27.1073 338.854 29.2887 333.257 31.1699 327.642C32.0121 325.139 32.9603 322.745 34.126 320.377C34.2286 320.166 34.3312 319.954 34.437 319.737C36.6742 315.174 39.4163 311.183 42.7848 307.388C43.0057 307.136 43.2267 306.884 43.4543 306.624C44.6842 305.242 45.9364 303.974 47.3689 302.804C47.4977 302.696 47.6266 302.589 47.7593 302.477C51.8256 299.075 56.216 296.534 60.8806 294.038C70.3233 288.974 79.9534 283.793 83.7232 273.31C87.4983 262.824 93.1184 253.295 100.85 245.249C100.981 245.112 101.112 244.975 101.248 244.834C103.052 242.965 104.909 241.243 106.962 239.646C107.328 239.349 107.328 239.349 107.702 239.047C112.004 235.625 116.863 232.819 121.816 230.453C122.061 230.336 122.061 230.336 122.311 230.216C122.729 230.018 123.151 229.827 123.572 229.636C124.545 229.042 125.347 228.3 125.716 227.184C125.811 226.639 125.821 226.159 125.797 225.607C125.635 220.406 127.573 217.114 130.555 212.967C131.561 211.557 132.426 210.131 133.193 208.576C133.277 208.408 133.361 208.24 133.448 208.067C133.629 207.073 133.652 206.174 133.184 205.26C129.482 200.611 122.302 198.319 116.639 197.625C115.713 197.568 114.788 197.535 113.86 197.503C110.401 197.372 107.82 196.992 104.925 195.078C104.588 194.903 104.25 194.73 103.906 194.569C104.258 193.512 104.97 193.227 105.896 192.707C106.161 192.556 106.161 192.556 106.432 192.403C108.609 191.231 110.949 190.607 113.329 189.985C101.945 186.164 101.945 186.164 90.1377 186.69C89.7683 186.772 89.399 186.854 89.0296 186.936C79.0443 189.178 69.3961 193.062 61.995 200.324C61.6507 200.661 61.3005 200.992 60.95 201.323C58.8485 203.343 57.1316 205.601 55.5561 208.042C54.5124 209.658 53.5363 211.006 51.9529 212.141C51.7304 212.307 51.5078 212.472 51.2785 212.642C49.5061 213.924 49.5061 213.924 48.8969 213.924C45.938 204.11 50.2083 193.209 54.8407 184.521C58.0914 178.567 62.7691 172.915 67.9972 168.593C68.2385 168.392 68.4798 168.192 68.7284 167.986C72.3787 165.013 76.3443 162.416 80.4947 160.198C80.9909 159.931 81.4832 159.658 81.9753 159.384C93.6087 152.975 106.795 149.047 119.95 147.455C120.185 147.425 120.419 147.395 120.66 147.364C124.036 146.951 127.422 146.891 130.818 146.87C131.283 146.867 131.748 146.864 132.214 146.859C139.272 146.792 146.248 147.769 153.211 148.821C154.73 149.05 156.251 149.272 157.771 149.495C158.159 149.552 158.547 149.609 158.935 149.666C162.833 150.24 166.735 150.779 170.639 151.3C171.309 151.389 171.978 151.478 172.647 151.568C173.572 151.692 174.496 151.815 175.421 151.937C175.693 151.974 175.965 152.01 176.245 152.048C176.494 152.081 176.744 152.113 177.002 152.147C177.217 152.176 177.433 152.204 177.655 152.233C178.288 152.295 178.907 152.304 179.543 152.294C176.878 150.023 173.856 149.06 170.471 148.394C165.267 147.309 159.572 145.899 154.923 143.246C153.713 142.71 152.478 142.54 151.179 142.314C146.218 141.381 141.554 139.71 137.013 137.523C136.801 137.422 136.59 137.321 136.371 137.218C133.39 135.794 130.514 134.232 127.671 132.551C124.623 130.749 121.53 129.032 118.422 127.336C118.177 127.201 117.932 127.067 117.68 126.928C112.511 124.102 107.117 121.796 101.659 119.597C101.423 119.502 101.187 119.407 100.944 119.309C99.786 118.843 98.6273 118.381 97.4667 117.922C88.0817 114.195 79.6298 109.192 75.3827 99.5767C74.7947 98.0757 74.3295 96.5322 73.8547 94.9926C72.0409 89.1486 69.5151 83.6749 66.801 78.2023C63.1633 70.8324 63.1633 70.8324 63.4927 68.5386C63.518 68.3449 63.5433 68.1512 63.5693 67.9517C63.6678 67.4881 63.6678 67.4881 63.9225 67.2334C64.4975 67.1548 64.4975 67.1548 65.2277 67.122C65.4647 67.1066 65.7017 67.0911 65.9459 67.0752C68.0613 67.5054 69.2288 69.6687 70.3529 71.34C70.5255 71.5913 70.698 71.8426 70.8758 72.1016C71.7687 73.4059 72.6489 74.7182 73.522 76.0359C73.9467 76.6762 74.3735 77.3151 74.8004 77.9539C75.1045 78.4116 75.4047 78.8716 75.7048 79.3319C77.341 81.8074 79.0917 83.9676 82.0748 84.6919C84.9403 85.1624 87.8541 84.6975 90.6789 84.185C90.8678 84.1515 91.0568 84.118 91.2515 84.0834C108.891 81.3571 108.891 81.3571 124.025 73.0909C124.868 71.7214 125.267 70.316 125.617 68.7614C126.875 63.6843 129.819 59.8609 133.189 55.9615C134.238 54.7443 135.198 53.4696 136.151 52.176C136.943 51.2221 137.698 50.323 138.939 50.0013C139.144 50.0046 139.349 50.0079 139.56 50.0113C139.765 50.008 139.97 50.0047 140.181 50.0013C141.781 50.416 142.672 51.7883 143.539 53.0992C144.853 55.0054 146.351 56.664 147.964 58.3199C148.1 58.4615 148.237 58.6031 148.377 58.7491C149.955 60.3836 151.559 61.9202 153.342 63.3338C154.204 64.0252 155.039 64.7439 155.875 65.4666C157.287 66.684 158.726 67.8589 160.188 69.0161C161.961 70.4288 163.659 71.897 165.318 73.439C165.96 74.0304 166.612 74.605 167.271 75.176C168.32 76.109 169.23 77.1001 170.12 78.1843C170.228 78.3125 170.335 78.4408 170.445 78.5729C171.988 80.4211 173.408 82.3094 174.72 84.3282C178.329 89.8449 182.897 93.5161 188.68 96.6161C191.127 97.9299 193.365 99.4424 195.588 101.105C195.742 101.219 195.895 101.333 196.054 101.45C199.897 104.303 202.787 106.86 204.246 111.546C201.715 111.172 199.596 109.561 197.79 107.841C196.592 106.732 195.287 105.756 193.995 104.761C193.579 104.437 193.167 104.108 192.756 103.779C182.309 95.4849 169.678 90.9486 156.464 89.9151C149.08 89.331 142.611 86.9581 136.746 82.4222C133.993 80.2947 131.236 78.6336 127.67 78.5981C127.18 78.5873 127.18 78.5873 126.68 78.5762C124.24 78.7139 121.941 79.9286 119.775 80.9697C110.031 85.5303 99.7888 88.9389 89.1369 90.569C88.5758 90.6601 88.5758 90.6601 87.8616 90.9178C97.4723 99.3295 110.008 103.481 122.275 106.229C127.739 107.467 133.086 108.936 138.394 110.729C139.23 111.011 140.067 111.289 140.905 111.565C146.924 113.576 152.817 115.964 158.698 118.343C169.736 122.806 180.833 126.449 192.387 129.342C202.876 131.985 213.528 135.474 222.485 141.701C223.015 142.055 223.534 142.348 224.111 142.616C223.935 142.41 223.759 142.203 223.579 141.99C222.82 141.097 222.064 140.202 221.309 139.305C221.112 139.071 220.915 138.837 220.711 138.596C212.652 128.898 208.33 118.296 207.194 105.745C206.498 98.1453 205.375 90.6346 204.132 83.1077C203.994 82.2754 203.859 81.443 203.723 80.6104C202.926 75.384 202.926 75.384 201.911 70.1989C201.608 68.8693 201.446 67.751 202.066 66.4853C202.464 65.9601 202.464 65.9601 202.718 65.7054C204.136 65.6109 204.84 65.6324 206.029 66.4694C207.785 68.1555 209.248 70.1562 210.734 72.079C211.138 72.6009 211.544 73.1211 211.95 73.641C212.866 74.8131 213.777 75.989 214.688 77.1656C214.854 77.3796 215.02 77.5935 215.191 77.814C217.469 80.7544 219.646 83.7392 221.719 86.8282C222.215 87.5617 222.725 88.284 223.235 89.0078C225.571 92.3826 227.705 95.875 229.647 99.4899C229.865 99.8941 230.084 100.298 230.305 100.7C233.991 107.416 236.667 114.49 238.675 121.876C239.68 125.527 241.605 127.999 244.471 130.447C250.931 136.06 254.992 144.149 257.218 152.294C257.308 152.623 257.308 152.623 257.4 152.958C258.951 158.801 259.453 164.882 260.032 170.885C260.06 171.175 260.089 171.465 260.118 171.764C260.142 172.019 260.166 172.274 260.191 172.537C260.257 173.208 260.257 173.208 260.529 173.941C264.744 162.389 264.701 150.007 264.912 137.852C265.309 115.051 268.827 93.8021 283.484 75.545C283.727 75.2364 283.97 74.9276 284.213 74.6189C284.388 74.4021 284.563 74.1852 284.743 73.9619C286.125 72.1972 287.166 70.3982 288.121 68.3727C290.534 63.2751 293.412 58.6439 296.947 54.2452C297.154 53.9839 297.361 53.7225 297.574 53.4533C298.711 52.0396 299.904 50.6878 301.135 49.3557C301.625 48.8184 302.1 48.2754 302.572 47.7232C303.69 46.4425 304.89 45.2453 306.093 44.0467C306.48 43.6611 306.866 43.2741 307.251 42.8869C308.47 41.6671 309.702 40.4747 311.013 39.3527C311.718 38.7453 312.392 38.1054 313.071 37.4687C314.299 36.3241 315.566 35.2483 316.876 34.1968C317.642 33.5612 318.375 32.8941 319.103 32.2161C320.054 31.3313 321.019 30.4842 322.032 29.6694C323.058 28.8429 324.041 27.9848 325.008 27.0908C325.138 26.9707 325.268 26.8505 325.402 26.7267C325.764 26.3918 326.127 26.0569 326.489 25.722C329.635 22.8463 332.977 20.447 336.675 18.3365C336.854 18.2346 337.032 18.1327 337.216 18.0278C340.296 16.2949 343.513 14.8574 346.734 13.4118C348.577 12.5839 350.407 11.7415 352.219 10.8465C356.685 8.6418 361.3 6.78395 365.9 4.88259C367.677 4.14799 369.45 3.40577 371.223 2.66192C371.708 2.45844 372.193 2.25543 372.679 2.05254C372.971 1.93007 373.264 1.8076 373.565 1.68142C373.835 1.56838 374.106 1.45535 374.385 1.33889C375.059 1.04981 375.72 0.742217 376.383 0.42895C377.816 -0.21126 379.191 -0.23522 380.734 0.000186928C381.627 0.407052 382.09 1.00054 382.612 1.83064C383.149 4.2497 382.473 6.26754 381.701 8.55891C378.528 18.048 377.07 27.0475 379.492 36.8798C381.189 43.8072 379.338 49.518 375.99 55.5875C374.665 57.9913 373.427 60.4302 372.213 62.8912C368.996 69.4057 365.647 75.8539 360.726 81.2722C360.539 81.478 360.352 81.6838 360.16 81.8959C359.784 82.3076 359.405 82.7169 359.024 83.1235C356.54 85.9258 355.224 89.3646 354.105 92.8915C352.97 96.4621 351.403 99.3012 348.9 102.123C348.754 102.303 348.608 102.483 348.457 102.668C347.44 103.903 346.285 104.876 345.035 105.871C344.348 106.426 343.694 107.003 343.042 107.599C341.947 108.597 340.812 109.532 339.66 110.464C338.769 111.201 337.918 111.979 337.063 112.758C336.408 113.34 335.735 113.893 335.052 114.443C334.03 115.269 333.053 116.127 332.091 117.022C330.912 118.119 329.692 119.148 328.436 120.159C327.769 120.709 327.127 121.278 326.489 121.86C325.407 122.845 324.291 123.774 323.154 124.694C322.502 125.226 321.859 125.768 321.219 126.314C319.506 127.779 317.753 129.185 315.971 130.565C315.559 130.885 315.148 131.206 314.738 131.527C310.561 134.775 306.207 137.754 301.806 140.687C298.167 143.115 294.703 145.666 291.344 148.474C291.135 148.648 291.135 148.648 290.921 148.826C289.051 150.387 287.273 151.995 285.57 153.738C285.11 154.198 284.658 154.614 284.149 155.015C283.393 155.651 282.791 156.341 282.153 157.092C281.642 157.669 281.105 158.203 280.552 158.74C279.5 159.778 278.576 160.884 277.653 162.037C277.111 162.7 276.548 163.331 275.968 163.961C274.707 165.35 273.555 166.813 272.412 168.298C271.933 168.92 271.45 169.539 270.967 170.157C267.423 174.179 267.423 174.179 265.877 179.034C267.007 182.483 270.9 185.355 273.396 187.817C274.516 188.926 275.591 190.048 276.616 191.245C277.576 192.321 278.618 193.319 279.645 194.33C282.118 196.766 282.118 196.766 283.012 197.851C283.981 199.011 285.197 199.696 286.505 200.426C286.667 200.519 286.829 200.612 286.996 200.708C290.588 202.404 295.309 200.645 298.857 199.694C299.436 199.542 300.015 199.391 300.594 199.239C303.835 198.384 307.065 197.495 310.269 196.511C310.577 196.417 310.886 196.324 311.203 196.228C314.406 195.207 317.381 193.817 319.867 191.513C320.041 191.352 320.216 191.192 320.395 191.027C324.179 187.169 325.469 181.724 326.08 176.544C326.304 174.819 326.643 173.285 327.762 171.903C328.526 171.649 328.526 171.649 329.104 171.833C331.054 172.86 331.769 174.117 332.431 176.189C332.515 176.463 332.515 176.463 332.601 176.742C332.662 176.938 332.724 177.133 332.787 177.335C334.561 183.186 334.508 189.093 331.667 194.571C329.486 198.611 326.801 202.285 324.064 205.961C322.576 207.962 321.111 209.972 319.724 212.046C319.603 212.227 319.481 212.407 319.356 212.594C318.525 213.851 317.784 215.146 317.066 216.471C319.835 216.339 322.552 215.849 325.283 215.395C326.169 215.247 327.056 215.102 327.942 214.957C330.462 214.544 332.982 214.128 335.501 213.711C342.155 212.611 348.81 211.54 355.492 210.626C355.757 210.59 356.021 210.554 356.293 210.516C361.372 209.824 366.457 209.259 371.565 208.831C371.806 208.81 372.046 208.79 372.293 208.769C388.102 207.45 403.956 206.813 419.807 206.255C420.762 206.221 421.717 206.186 422.673 206.152C428.893 205.927 435.113 205.733 441.337 205.703C441.868 205.7 442.399 205.697 442.93 205.691C447.35 205.652 451.586 206.157 455.925 206.968C458.434 207.435 458.434 207.435 460.949 207.175C461.521 207.034 462.044 207.003 462.633 206.985C462.854 206.977 463.075 206.969 463.302 206.96C463.763 206.944 464.224 206.93 464.685 206.916C465.017 206.903 465.017 206.903 465.355 206.89C465.655 206.88 465.655 206.88 465.962 206.87C466.65 206.781 467.189 206.543 467.831 206.284C476.623 204.347 485.607 204.862 494.524 205.345C494.951 205.367 494.951 205.367 495.386 205.39C500.435 205.662 504.921 206.037 508.833 209.595C509.468 210.546 509.459 211.014 509.343 212.141C508.798 213.005 508.533 213.345 507.56 213.669C507.124 213.671 506.687 213.67 506.251 213.659C502.786 213.573 499.352 213.943 495.906 214.262C494.958 214.35 494.01 214.434 493.062 214.519C490.237 214.772 487.412 215.03 484.588 215.288C462.57 217.3 440.52 218.886 401.472 221.576C397.343 221.859 393.213 222.142 389.083 222.425C388.495 222.465 387.907 222.506 387.319 222.546C380.779 222.995 374.239 223.444 367.699 223.895C367.132 223.934 366.565 223.973 365.998 224.012C365.62 224.038 365.242 224.064 364.864 224.091C362.163 224.277 359.461 224.462 356.76 224.647C353.128 224.896 349.497 225.146 345.865 225.398C343.913 225.534 341.961 225.668 340.008 225.801C338.534 225.902 337.06 226.004 335.586 226.108C334.991 226.149 334.395 226.19 333.8 226.23C330.893 226.426 327.999 226.663 325.109 227.034C324.876 227.064 324.644 227.094 324.404 227.124C320.464 227.658 316.802 228.7 313.246 230.478C313.011 230.595 312.777 230.712 312.535 230.833C310.947 231.707 309.664 232.888 308.358 234.129C307.785 234.672 307.206 235.199 306.608 235.714C305.796 236.419 304.999 237.139 304.205 237.863C303.239 238.744 302.265 239.614 301.277 240.471C300.915 240.789 300.556 241.113 300.201 241.44C298.879 242.654 297.515 243.783 296.098 244.882C294.876 245.831 293.681 246.808 292.49 247.795C291.04 248.996 289.577 250.177 288.091 251.334C287.152 252.066 286.227 252.814 285.307 253.572C283.651 254.934 281.965 256.24 280.234 257.505C273.989 261.774 273.989 261.774 270.787 268.375C270.165 273.221 272.17 277.929 274.977 281.76C277.265 284.585 280.702 286.111 283.99 287.46C284.169 287.535 284.347 287.609 284.531 287.686C290.621 290.225 296.861 292.35 303.123 294.42C314.109 298.054 325.99 302.66 334.584 310.684C335.078 311.144 335.584 311.574 336.102 312.004C337.783 313.467 339.249 315.17 340.75 316.811C340.876 316.948 341.002 317.085 341.131 317.226C341.858 318.018 342.579 318.814 343.297 319.613C343.473 319.807 343.649 320.001 343.831 320.202C343.991 320.38 344.151 320.559 344.316 320.743C344.452 320.895 344.589 321.047 344.729 321.203C345.585 322.294 345.686 323.282 345.748 324.642C345.758 324.82 345.768 324.998 345.778 325.181C345.802 325.617 345.823 326.053 345.844 326.489C345.42 326.62 344.995 326.746 344.57 326.871C344.334 326.942 344.098 327.013 343.854 327.086C341.946 327.478 340.315 327.153 338.463 326.674C338.098 326.582 338.098 326.582 337.726 326.489C336.935 326.29 336.145 326.087 335.354 325.884C334.808 325.745 334.262 325.607 333.716 325.469C328.916 324.249 324.132 322.968 319.358 321.65C319.637 322.096 319.917 322.542 320.197 322.987C320.353 323.235 320.509 323.483 320.67 323.739C321.692 325.286 322.975 326.545 324.292 327.842C325.645 329.178 326.854 330.588 328.017 332.092C328.127 332.232 328.237 332.372 328.351 332.517C331.982 337.162 334.194 342.032 335.291 347.817C336.014 351.616 337.396 354.68 339.14 358.114C341.728 363.264 341.728 363.264 341.26 365.963C340.845 366.917 340.372 367.476 339.477 368C338.793 368.076 338.183 368.107 337.5 368.093C337.212 368.089 337.212 368.089 336.919 368.086C334.945 368.036 333.045 367.699 331.12 367.284C330.742 367.205 330.364 367.127 329.986 367.048C308.548 362.53 308.548 362.53 303.823 357.813C303.663 357.657 303.504 357.5 303.339 357.339C301.311 355.196 300.076 352.512 299.04 349.787C297.292 345.271 294.516 342.407 290.134 340.369C288.759 339.769 287.347 339.372 285.9 338.984C279.063 337.143 274.267 333.379 270.716 327.253C269.017 324.244 267.889 321.284 267.309 317.862C266.273 311.872 262.494 307.748 258.277 303.638C252.161 297.677 249.157 292.134 247.196 283.818C247.148 283.617 247.1 283.417 247.051 283.211C247.01 283.035 246.969 282.859 246.927 282.678C246.764 282.133 246.535 281.659 246.267 281.157C244.796 281.093 243.626 281.258 242.24 281.778C242.058 281.845 241.875 281.911 241.687 281.98C240.191 282.542 238.737 283.186 237.29 283.863C236.985 284.005 236.985 284.005 236.674 284.15C235.597 284.669 234.712 285.226 233.788 285.996C232.951 286.146 232.61 286.053 231.878 285.614C230.182 284.887 228.496 284.936 226.767 285.56C225.059 286.383 223.568 287.393 222.056 288.536C220.728 289.454 219.282 290.129 217.823 290.813C217.421 291.002 217.02 291.193 216.619 291.386C204.923 297.015 192.435 299.884 179.49 300.234C178.023 300.275 176.558 300.327 175.091 300.38C174.652 300.396 174.652 300.396 174.203 300.412C142.37 301.239 142.37 301.239 114.988 314.072C113.35 315.974 112.074 318.086 110.859 320.273C110.421 321.062 109.976 321.846 109.531 322.631C109.442 322.787 109.353 322.944 109.262 323.105C108.1 325.147 106.856 327.137 105.604 329.125C105.15 329.845 104.7 330.568 104.25 331.291C102.694 333.789 101.128 336.28 99.5446 338.761C98.3608 340.616 97.187 342.477 96.027 344.348C95.8887 344.57 95.7505 344.793 95.608 345.022C94.8703 346.216 94.1635 347.42 93.4803 348.645C92.7034 349.99 91.9955 350.842 90.5356 351.462C89.5744 351.438 89.1081 351.024 88.3709 350.428C87.4102 349.363 87.0734 348.6 87.0427 347.179C87.0325 346.803 87.0325 346.803 87.022 346.419C87.0148 346.144 87.0075 345.869 87.0001 345.585C86.8741 341.732 86.5584 337.902 86.2128 334.063C86.1259 333.097 86.0435 332.13 85.9621 331.163C85.8978 330.407 85.8307 329.652 85.7628 328.896C85.7311 328.539 85.7005 328.182 85.6709 327.825C85.6295 327.33 85.5838 326.835 85.5378 326.341C85.5008 325.921 85.5008 325.921 85.4631 325.493C85.2982 324.617 84.9823 323.954 84.5509 323.178C83.1769 323.047 82.5912 323.394 81.4948 324.197C81.0575 324.581 80.6278 324.974 80.2055 325.375C75.5953 329.607 70.2596 332.619 64.6865 335.402C64.4802 335.506 64.2739 335.611 64.0614 335.718C60.7562 337.378 57.3528 338.796 53.9416 340.221C47.511 342.908 41.1101 345.71 35.1934 349.42C27.5369 354.115 18.5561 356.268 9.99697 358.753C7.90382 359.36 7.90382 359.36 5.83456 360.043C4.34795 360.548 2.64517 360.778 1.19178 360.074C0.700346 359.723 0.700346 359.723 -3.93807e-07 359.087ZM19.8644 351.447C20.3737 351.192 20.3737 351.192 20.3737 351.192L19.8644 351.447ZM20.3737 351.192C20.883 350.937 20.883 350.937 20.883 350.937L20.3737 351.192ZM20.883 350.937C21.3924 350.683 21.3924 350.683 21.3924 350.683L20.883 350.937ZM22.1564 350.428C30.3992 348.805 37.2897 344.619 43.8035 339.477C40.3024 338.36 34.53 342.233 31.3887 343.849C28.1583 345.547 24.8346 347.668 22.1564 350.173C22.1564 350.257 22.1564 350.341 22.1564 350.428ZM32.0886 338.713C33.901 338.214 35.6071 337.579 37.3253 336.819C37.5762 336.709 37.8271 336.599 38.0856 336.485C40.7908 335.287 43.4574 334.01 46.1147 332.71C46.8014 332.375 47.4898 332.043 48.1786 331.712C51.3275 330.183 54.3413 328.453 57.3463 326.661C57.9826 326.283 58.6216 325.911 59.2628 325.542C62.1953 323.838 65.0168 321.97 67.8381 320.09C68.0337 319.96 68.2292 319.83 68.4308 319.696C70.405 318.379 72.3698 317.051 74.3033 315.675C74.5151 315.525 74.5151 315.525 74.7312 315.372C78.2349 312.857 81.2749 309.428 82.1639 305.073C82.3899 303.31 82.3453 301.523 82.3384 299.748C82.3384 299.424 82.3384 299.424 82.3383 299.094C82.3325 294.698 81.9936 290.362 81.4948 285.996C80.466 286.363 79.6364 286.861 78.7362 287.477C78.448 287.673 78.1598 287.868 77.8715 288.064C77.7224 288.166 77.5733 288.267 77.4196 288.372C73.9883 290.708 70.5129 292.778 66.7931 294.617C60.1212 297.931 54.0312 301.978 48.6422 307.134C48.4315 307.332 48.4315 307.332 48.2166 307.534C45.781 309.834 43.7132 312.305 41.7661 315.029C41.6506 315.189 41.5351 315.35 41.416 315.515C37.6737 320.765 35.1998 326.613 33.3779 332.776C33.3059 333.019 33.2339 333.262 33.1598 333.513C32.6728 335.229 32.3498 336.949 32.0886 338.713ZM49.1516 336.421C49.6609 336.166 49.6609 336.166 49.6609 336.166L49.1516 336.421ZM49.6609 336.166C50.1702 335.912 50.1702 335.912 50.1702 335.912L49.6609 336.166ZM50.1702 335.912C60.7674 335.168 70.131 327.774 78.0528 321.351C79.1959 320.426 80.3695 319.542 81.5446 318.659C82.9059 317.657 82.9059 317.657 83.6744 316.23C83.6149 315.139 83.5346 314.237 83.0228 313.246C81.3965 313.555 80.3905 314.065 79.1073 315.092C78.9336 315.227 78.7599 315.362 78.5809 315.5C78.2111 315.787 77.8424 316.076 77.4748 316.366C76.9152 316.808 76.3525 317.245 75.7886 317.681C74.2502 318.871 72.7181 320.07 71.1876 321.27C68.64 323.265 66.0602 325.209 63.4435 327.112C62.975 327.455 62.5108 327.803 62.0483 328.154C59.7825 329.839 57.3657 331.257 54.9274 332.675C52.4884 334.072 52.4884 334.072 50.1702 335.657C50.1702 335.741 50.1702 335.825 50.1702 335.912ZM52.717 202.209C53.6368 201.516 54.3565 200.802 55.0727 199.901C55.2709 199.654 55.4692 199.407 55.6735 199.152C55.8744 198.9 56.0754 198.649 56.2824 198.389C56.6637 197.922 57.0457 197.455 57.4284 196.988C57.9958 196.297 58.5615 195.604 59.1205 194.905C61.1994 192.321 63.3781 189.788 65.9599 187.693C66.2279 187.467 66.4958 187.241 66.7637 187.014C73.5144 181.386 81.3539 177.934 89.8671 175.914C90.2221 175.83 90.2221 175.83 90.5842 175.743C95.7843 174.579 101.089 174.031 106.388 173.553C120.015 172.314 133.387 170.083 146.53 166.224C146.782 166.15 147.033 166.076 147.292 166C147.547 165.926 147.802 165.851 148.065 165.774C148.588 165.62 149.112 165.467 149.635 165.314C149.895 165.238 150.156 165.161 150.424 165.083C156.132 163.421 161.911 162.18 167.731 160.981C173.776 159.771 173.776 159.771 179.543 157.642C178.8 157.146 178.52 157.047 177.674 156.933C177.447 156.902 177.221 156.87 176.988 156.838C176.741 156.806 176.493 156.773 176.238 156.74C175.977 156.704 175.715 156.669 175.446 156.632C174.576 156.514 173.706 156.398 172.836 156.283C172.227 156.201 171.618 156.118 171.008 156.035C169.396 155.817 167.784 155.601 166.171 155.386C164.559 155.17 162.947 154.953 161.335 154.735C159.473 154.484 157.611 154.232 155.748 153.983C150.712 153.307 150.712 153.307 148.332 152.975C148.07 152.939 148.07 152.939 147.802 152.901C147.055 152.797 146.307 152.692 145.56 152.585C129.731 150.359 113.624 152.528 98.5578 157.642C98.2847 157.734 98.0115 157.826 97.7301 157.921C92.1732 159.815 86.6765 162 81.4948 164.773C81.3318 164.858 81.1687 164.944 81.0008 165.032C72.7074 169.417 65.8595 175.824 60.3571 183.364C60.2467 183.514 60.1364 183.665 60.0227 183.82C56.2787 188.975 52.4239 195.615 52.717 202.209ZM76.0333 92.2151C76.1257 92.4752 76.2182 92.7353 76.3134 93.0033C76.416 93.2816 76.5185 93.5598 76.6242 93.8466C76.7286 94.1319 76.833 94.4173 76.9405 94.7112C80.4734 104.193 85.2648 109.1 94.2284 113.584C94.4161 113.679 94.6038 113.775 94.7972 113.873C99.6651 116.344 106.274 119.696 111.801 119.696C111.391 118.377 110.571 117.407 109.731 116.337C109.581 116.144 109.431 115.95 109.276 115.751C108.978 115.368 108.68 114.985 108.38 114.603C108.057 114.19 107.736 113.775 107.417 113.36C104.166 109.188 100.524 105.899 96.0111 103.142C95.3653 102.744 94.7201 102.344 94.0748 101.945C93.6123 101.659 93.1496 101.373 92.6868 101.088C90.7503 99.891 88.8353 98.6641 86.9296 97.4191C86.2616 96.983 85.5928 96.5483 84.9239 96.1137C81.8997 94.1472 78.8884 92.1626 75.892 90.1538C75.5855 91.0735 75.7137 91.3194 76.0333 92.2151ZM76.9107 186.929C78.4064 186.616 79.8667 186.243 81.3267 185.793C81.7277 185.671 82.1288 185.55 82.5299 185.429C83.1468 185.241 83.7634 185.053 84.3798 184.864C86.5977 184.185 88.814 183.544 91.0778 183.035C91.2585 182.994 91.4391 182.953 91.6253 182.911C97.3064 181.682 102.38 182.891 107.726 184.892C108.014 184.998 108.301 185.105 108.598 185.215C109.51 185.559 110.417 185.915 111.323 186.276C111.612 186.386 111.9 186.495 112.198 186.608C114.168 187.42 114.168 187.42 114.704 188.235C114.918 188.8 114.918 188.8 115.111 189.73C116.124 189.559 117.028 189.258 117.985 188.89C118.216 188.801 118.216 188.801 118.452 188.711C118.957 188.516 119.462 188.319 119.966 188.123C120.228 188.021 120.228 188.021 120.494 187.917C126.26 185.674 131.924 183.194 137.522 180.562C137.806 180.429 138.09 180.296 138.382 180.159C145.374 176.865 152.138 173.241 158.756 169.248C159.566 168.762 160.384 168.292 161.207 167.829C161.207 167.745 161.207 167.66 161.207 167.574C157.459 167.702 153.99 168.765 150.433 169.881C136.816 174.135 122.956 176.713 108.744 177.887C102.231 178.427 95.8355 179.275 89.4533 180.705C89.1338 180.777 88.8144 180.848 88.4852 180.922C84.0098 181.961 80.134 183.305 76.9107 186.674C76.9107 186.758 76.9107 186.842 76.9107 186.929ZM88.6256 318.339C88.6598 318.627 88.6598 318.627 88.6947 318.92C89.0765 322.128 89.4626 325.335 89.8512 328.542C89.8769 328.754 89.9025 328.965 89.9289 329.184C90.0771 330.407 90.2259 331.63 90.3757 332.854C90.4215 333.229 90.4672 333.604 90.5128 333.979C90.5756 334.495 90.6391 335.012 90.7026 335.529C90.7381 335.819 90.7737 336.11 90.8103 336.409C90.9059 337.1 91.0267 337.776 91.1723 338.458C91.5925 338.542 92.0127 338.626 92.4457 338.713C94.3428 333.802 96.2301 328.888 98.0858 323.961C101.556 314.749 105.078 305.558 108.721 296.413C108.917 295.92 109.112 295.428 109.307 294.935C114.351 282.211 121.205 271.322 134.21 265.562C142.182 262.171 150.706 260.731 159.345 260.736C159.659 260.736 159.974 260.736 160.298 260.735C163.096 260.751 165.867 260.939 168.652 261.182C171.027 261.449 171.027 261.449 173.272 260.863C174.56 259.728 174.84 258.612 175.002 256.948C175.024 256.749 175.045 256.55 175.067 256.346C175.136 255.703 175.199 255.06 175.262 254.417C175.294 254.089 175.294 254.089 175.328 253.755C176.297 246.583 176.297 246.583 173.94 240.012C168.317 233.328 158.954 230.776 150.591 230.027C139.719 229.268 129.054 231.411 119.441 236.59C119.275 236.678 119.108 236.766 118.937 236.857C114.385 239.283 110.343 242.253 106.535 245.732C106.018 246.2 105.491 246.648 104.956 247.095C94.365 256.365 87.574 271.04 86.3873 284.93C85.6515 296.042 87.3162 307.333 88.6256 318.339ZM106.707 106.453C106.831 106.602 106.955 106.751 107.083 106.904C108.344 108.431 109.57 109.981 110.782 111.546C111.24 112.136 111.699 112.726 112.158 113.315C112.501 113.756 112.844 114.198 113.186 114.639C122.642 126.533 136.735 129.933 151.124 131.877C151.434 131.92 151.745 131.962 152.066 132.006C157.262 132.715 162.466 133.341 167.677 133.928C167.944 133.959 167.944 133.959 168.216 133.989C171.301 134.337 174.387 134.679 177.472 135.019C179.493 135.242 181.514 135.466 183.534 135.694C184.713 135.827 185.893 135.956 187.074 136.084C190.107 136.421 193.113 136.823 196.112 137.393C196.504 137.467 196.504 137.467 196.904 137.543C206.324 139.422 214.998 144.263 221.675 151.148C222.594 152.081 223.6 152.889 224.619 153.709C225.274 154.241 225.916 154.784 226.554 155.335C228.394 156.918 230.317 158.37 232.266 159.813C233.077 160.418 233.879 161.035 234.68 161.653C234.893 161.817 234.893 161.817 235.11 161.985C235.434 162.235 235.757 162.485 236.08 162.735C236.248 162.651 236.416 162.567 236.59 162.48C236.299 162.143 236.299 162.143 236.002 161.799C235.736 161.49 235.47 161.182 235.205 160.873C234.994 160.628 234.994 160.628 234.779 160.378C233.981 159.447 233.2 158.506 232.435 157.546C230.865 155.618 229.145 153.829 227.421 152.039C227.167 151.774 227.167 151.774 226.908 151.503C224.802 149.317 222.659 147.279 220.211 145.479C219.789 145.168 219.372 144.851 218.955 144.533C209.964 137.785 199.441 134.706 188.632 132.318C181.194 130.672 174.25 128.621 167.231 125.628C150.556 118.522 133.398 112.852 115.875 108.235C115.664 108.18 115.452 108.124 115.233 108.066C114.055 107.755 112.877 107.448 111.696 107.146C111.345 107.056 110.995 106.966 110.644 106.874C110.168 106.751 109.691 106.631 109.214 106.511C108.949 106.444 108.685 106.377 108.412 106.308C107.736 106.2 107.345 106.228 106.707 106.453ZM109.509 313.246C110.321 312.484 110.932 311.684 111.549 310.758C111.643 310.617 111.737 310.476 111.834 310.331C112.137 309.876 112.439 309.42 112.74 308.964C112.843 308.809 112.946 308.653 113.052 308.493C114.568 306.208 116.016 303.896 117.403 301.531C123.956 290.543 132.562 286.471 144.59 283.29C145.254 283.113 145.918 282.935 146.583 282.757C146.749 282.712 146.915 282.668 147.087 282.622C147.423 282.532 147.76 282.441 148.097 282.351C148.602 282.216 149.108 282.081 149.613 281.946C152.521 281.169 155.421 280.364 158.32 279.553C164.931 277.708 164.931 277.708 168.21 276.907C168.436 276.851 168.663 276.795 168.895 276.738C172.316 275.933 175.695 275.712 179.193 275.73C179.395 275.73 179.596 275.731 179.804 275.732C185.388 275.759 190.477 276.809 195.899 278.123C200.811 279.312 205.46 280.422 210.534 280.457C210.829 280.459 211.125 280.462 211.429 280.464C211.707 280.463 211.985 280.462 212.272 280.461C212.648 280.46 212.648 280.46 213.031 280.459C213.733 280.437 213.733 280.437 214.433 279.884C214.217 279.804 214 279.723 213.777 279.641C212.92 279.323 212.064 279.005 211.207 278.688C210.809 278.54 210.412 278.393 210.014 278.245C207.671 277.376 205.329 276.503 202.991 275.619C188.112 269.925 188.112 269.925 172.667 266.132C172.44 266.09 172.212 266.048 171.977 266.005C165.002 264.774 157.211 264.8 150.256 266.132C150.027 266.173 149.797 266.214 149.56 266.256C141.207 267.768 133.084 270.768 126.572 276.319C126.366 276.487 126.16 276.656 125.948 276.83C117.495 284.022 114.236 295.896 111.291 306.115C111.201 306.427 111.111 306.74 111.018 307.062C110.762 307.95 110.509 308.839 110.257 309.728C110.181 309.996 110.104 310.264 110.026 310.539C109.957 310.785 109.889 311.03 109.818 311.283C109.758 311.497 109.698 311.711 109.636 311.932C109.48 312.512 109.48 312.512 109.509 313.246ZM121.988 303.823C123.637 304.727 125.508 304.135 127.222 303.648C127.415 303.591 127.609 303.534 127.808 303.476C128.239 303.354 128.671 303.231 129.102 303.109C129.765 302.919 130.428 302.728 131.091 302.536C137.019 300.825 143.004 299.998 149.119 299.277C149.723 299.206 150.326 299.134 150.93 299.062C156.254 298.425 161.584 297.837 166.918 297.286C167.191 297.258 167.464 297.23 167.745 297.201C170.448 296.921 173.151 296.645 175.855 296.375C185.064 295.503 185.064 295.503 194.123 293.684C194.373 293.62 194.623 293.555 194.88 293.489C199.562 292.253 204.621 290.66 208.576 287.779C208.576 287.695 208.576 287.611 208.576 287.524C202.691 287.896 196.818 288.389 190.943 288.889C189.242 289.034 187.542 289.177 185.841 289.319C185.551 289.344 185.261 289.368 184.962 289.393C184.37 289.443 183.778 289.492 183.186 289.542C179.241 289.873 175.296 290.205 171.351 290.541C168.671 290.77 165.99 290.996 163.309 291.219C161.899 291.336 160.489 291.455 159.08 291.577C157.504 291.712 155.928 291.845 154.352 291.973C153.981 292.004 153.981 292.004 153.602 292.035C150.117 292.314 146.659 292.455 143.163 292.321C139.884 292.23 137.161 293.328 134.212 294.655C133.778 294.837 133.343 295.018 132.908 295.198C129.742 296.525 126.929 298.125 124.232 300.258C124.039 300.406 123.847 300.554 123.648 300.706C122.47 301.657 122.47 301.657 121.991 303.043C121.989 303.429 121.989 303.429 121.988 303.823ZM130.137 73.8549C130.952 74.3822 131.806 74.8252 132.668 75.2715C133.175 75.5409 133.683 75.8108 134.19 76.0813C134.448 76.2184 134.706 76.3555 134.972 76.4968C136.159 77.1371 137.326 77.8115 138.493 78.4867C149.212 84.6363 160.41 88.3076 172.922 88.1165C172.051 86.0004 170.502 84.6816 168.829 83.2076C167.943 82.4158 167.084 81.5957 166.221 80.7787C165.851 80.4298 165.481 80.081 165.111 79.7322C164.927 79.5594 164.744 79.3865 164.555 79.2084C163.69 78.3935 162.822 77.5805 161.955 76.7677C161.788 76.6113 161.621 76.455 161.449 76.2939C161.113 75.9786 160.776 75.6633 160.44 75.3481C159.929 74.8691 159.418 74.3899 158.907 73.9106C155.94 71.1271 152.972 68.3444 149.979 65.5878C148.922 64.6126 147.869 63.6317 146.818 62.6493C145.578 61.4912 144.338 60.3332 143.093 59.1794C142.961 59.056 142.828 58.9326 142.692 58.8054C141.004 57.1163 141.004 57.1163 138.796 56.5372C137.502 57.3524 136.774 58.5502 135.947 59.8002C135.802 60.0158 135.657 60.2314 135.508 60.4535C135.213 60.8925 134.92 61.332 134.627 61.772C134.257 62.3261 133.885 62.8777 133.51 63.4283C130.498 67.4499 130.498 67.4499 129.01 72.0294C129.178 72.8867 129.514 73.2351 130.137 73.8549ZM129.946 226.26C130.566 226.813 131.022 226.916 131.845 226.895C133.495 226.755 135.134 226.582 136.775 226.363C144.688 225.333 152.124 226.044 159.823 228.034C160.534 228.208 161.246 228.339 161.971 228.44C161.678 228.147 161.385 227.854 161.092 227.562C160.822 227.292 160.554 227.021 160.288 226.748C159.536 225.985 158.773 225.25 157.961 224.551C156.918 223.643 155.908 222.705 154.904 221.755C153.442 220.379 151.973 219.014 150.491 217.661C149.694 216.932 148.9 216.201 148.107 215.468C147.901 215.277 147.901 215.277 147.69 215.083C147.411 214.825 147.133 214.568 146.854 214.31C146.438 213.926 146.023 213.543 145.607 213.159C145.471 213.033 145.334 212.907 145.193 212.777C144.92 212.524 144.646 212.272 144.372 212.019C143.652 211.355 142.934 210.69 142.217 210.023C142.068 209.885 141.919 209.747 141.765 209.604C141.481 209.34 141.197 209.075 140.913 208.81C140.233 208.18 139.542 207.597 138.796 207.048C132.169 216.39 132.169 216.39 129.946 226.26ZM132.429 292.363C138.743 292.41 138.743 292.41 144.87 291.014C148.912 289.642 153.297 289.482 157.529 289.265C167.877 288.714 178.08 287.093 188.314 285.534C188.562 285.497 188.811 285.459 189.067 285.42C190.507 285.201 191.947 284.98 193.387 284.758C193.833 284.689 194.279 284.62 194.725 284.552C195.339 284.458 195.953 284.363 196.567 284.267C196.749 284.24 196.932 284.212 197.119 284.183C197.954 284.109 197.954 284.109 198.644 283.704C198.654 283.28 198.654 282.855 198.644 282.431C180.48 274.867 161.114 281.934 143.38 288.033C143.169 288.106 142.957 288.179 142.739 288.254C141.222 288.776 139.706 289.303 138.191 289.832C137.886 289.938 137.886 289.938 137.575 290.046C136.998 290.247 136.421 290.45 135.845 290.653C135.676 290.712 135.507 290.77 135.333 290.831C134.324 291.189 133.377 291.611 132.429 292.108C132.429 292.192 132.429 292.276 132.429 292.363ZM132.429 197.88C140.759 201.2 149.179 202.119 157.642 198.644C158.857 198.1 160.037 197.497 161.207 196.861C161.207 196.777 161.207 196.693 161.207 196.606C158.394 196.578 155.589 196.668 152.778 196.765C152.287 196.781 151.797 196.798 151.307 196.814C150.284 196.849 149.262 196.884 148.239 196.919C146.936 196.964 145.634 197.007 144.331 197.051C143.32 197.084 142.309 197.119 141.298 197.154C140.818 197.17 140.338 197.186 139.857 197.202C137.375 197.285 134.902 197.378 132.429 197.625C132.429 197.709 132.429 197.793 132.429 197.88ZM135.23 192.532C158.964 195.782 182.358 188.297 214.688 172.922C214.688 172.838 214.688 172.754 214.688 172.667C214.03 172.69 213.372 172.718 212.714 172.747C212.538 172.753 212.362 172.758 212.181 172.764C208.076 172.959 204.071 173.847 200.111 174.892C199.648 175.012 199.185 175.132 198.722 175.251C197.483 175.572 196.245 175.896 195.007 176.221C193.963 176.495 192.918 176.767 191.872 177.038C188.356 177.953 184.841 178.875 181.326 179.798C180.815 179.932 180.304 180.067 179.793 180.201C174.172 181.677 168.553 183.162 162.936 184.655C160.545 185.29 158.155 185.924 155.763 186.556C148.891 188.37 142.027 190.196 135.23 192.277C135.23 192.361 135.23 192.445 135.23 192.532ZM139.305 185.146C141.973 184.806 144.591 184.321 147.216 183.746C147.541 183.674 147.541 183.674 147.873 183.602C161.144 180.674 174.246 176.872 187.365 173.341C191.645 172.19 195.927 171.045 200.209 169.905C200.71 169.771 201.212 169.638 201.713 169.504C203.491 169.03 205.269 168.557 207.048 168.083C207.048 167.999 207.048 167.915 207.048 167.829C206.128 167.543 205.207 167.261 204.285 166.979C203.698 166.798 203.112 166.613 202.526 166.429C199.891 165.608 197.3 164.933 194.569 164.518C194.358 164.484 194.147 164.451 193.93 164.416C179.857 162.602 167.097 169.79 155.244 176.32C153.464 177.296 151.663 178.23 149.856 179.156C147.317 180.458 144.799 181.785 142.314 183.188C142.067 183.327 141.82 183.466 141.566 183.609C140.36 184.276 140.36 184.276 139.305 185.146ZM140.833 134.721C143.655 137.138 147.526 137.672 151.038 138.432C167.73 142.07 183.803 148.615 198.962 156.421C202.42 158.2 205.769 159.854 209.594 160.698C209.877 160.76 209.877 160.76 210.165 160.824C211.328 161.074 212.492 161.288 213.669 161.462C213.831 161.486 213.993 161.51 214.16 161.535C216.028 161.78 217.9 161.763 219.781 161.764C220.116 161.767 220.451 161.77 220.796 161.774C222.579 161.776 224.173 161.684 225.893 161.207C224.94 160.041 223.924 158.97 222.853 157.912C221.996 157.065 221.155 156.219 220.37 155.302C211.681 145.199 198.697 140.752 185.75 139.772C185.262 139.736 184.774 139.7 184.285 139.664C178.252 139.217 172.281 138.494 166.291 137.662C163.057 137.214 159.822 136.773 156.587 136.332C155.193 136.141 153.799 135.949 152.405 135.756C151.522 135.634 150.639 135.513 149.756 135.392C149.344 135.335 148.933 135.278 148.521 135.221C145.959 134.863 143.417 134.601 140.833 134.467C140.833 134.551 140.833 134.635 140.833 134.721ZM149.428 211.887C150.792 213.245 152.179 214.516 153.692 215.706C154.354 216.235 154.979 216.791 155.604 217.362C156.679 218.341 157.789 219.262 158.919 220.176C159.778 220.881 160.62 221.603 161.462 222.328C162.512 223.233 163.568 224.128 164.645 225.002C165.722 225.876 166.778 226.771 167.828 227.676C168.936 228.629 170.046 229.577 171.171 230.51C171.495 230.778 171.495 230.778 171.826 231.053C172.35 231.449 172.842 231.723 173.431 232.006C173.461 229.604 173.378 227.223 173.224 224.827C173.206 224.499 173.188 224.171 173.17 223.833C173.011 220.51 173.011 220.51 171.473 217.665C169.979 216.559 168.066 216.195 166.3 215.707C153.705 212.156 153.705 212.156 149.81 207.207C149.198 206.493 148.876 206.229 147.964 206.029C146.976 206.108 146.505 206.238 145.672 206.793C145.672 208.774 148.108 210.557 149.428 211.887ZM154.331 207.048C158.926 209.174 163.54 211.128 168.298 212.865C169.025 213.132 169.75 213.406 170.474 213.682C170.86 213.827 171.246 213.971 171.633 214.115C171.881 214.212 171.881 214.212 172.134 214.31C173.173 214.687 173.894 214.722 174.959 214.433C176.872 213.46 178.339 211.968 179.882 210.504C180.286 210.124 180.696 209.751 181.11 209.381C187.219 203.915 191.649 197.316 193.296 189.221C193.296 188.969 193.296 188.717 193.296 188.457C184.721 189.28 177.345 193.874 170.232 198.405C165.252 201.576 159.998 204.76 154.331 206.539C154.331 206.707 154.331 206.875 154.331 207.048ZM180.053 240.665C180.684 239.867 181.177 239.036 181.666 238.146C181.747 238 181.827 237.854 181.91 237.704C182.172 237.227 182.433 236.749 182.695 236.271C182.878 235.937 183.062 235.603 183.246 235.269C184.371 233.22 185.485 231.166 186.594 229.109C188.061 226.392 189.573 223.702 191.1 221.019C191.513 220.29 191.923 219.559 192.332 218.827C195.228 213.648 198.256 208.574 201.7 203.737C201.845 203.532 201.991 203.327 202.141 203.116C204.079 200.409 206.101 197.814 208.321 195.333C208.49 195.142 208.659 194.951 208.833 194.755C211.806 191.416 214.933 188.1 218.508 185.401C218.762 185.2 219.016 184.998 219.277 184.791C222.56 182.194 226.039 180.014 229.714 178.015C229.714 177.847 229.714 177.679 229.714 177.506C223.972 175.624 218.588 176.097 213.173 178.769C211.951 179.403 210.77 180.101 209.594 180.817C209.396 180.937 209.198 181.058 208.994 181.182C202.356 185.238 197.837 188.767 195.6 196.405C194.125 201.361 191.522 205.38 187.947 209.085C187.799 209.247 187.651 209.408 187.498 209.575C186.688 210.434 185.808 211.155 184.873 211.872C180.85 214.96 178.453 218.624 177.62 223.691C176.908 229.475 178.662 235.11 180.053 240.665ZM178.27 262.312C184.27 264.661 190.276 266.995 196.288 269.315C196.747 269.492 196.747 269.492 197.215 269.673C198.951 270.343 200.688 271.012 202.426 271.68C203.206 271.981 203.986 272.284 204.766 272.587C205.239 272.769 205.713 272.952 206.186 273.135C206.499 273.257 206.499 273.257 206.818 273.382C209.282 274.33 212.022 275.23 214.688 275.045C215.244 274.582 215.244 274.582 215.322 273.942C215.17 273.114 214.846 272.856 214.176 272.375C214.024 272.274 213.873 272.173 213.717 272.069C213.559 271.96 213.402 271.85 213.239 271.738C211.949 270.87 210.597 270.149 209.212 269.442C205.658 267.628 202.767 265.342 199.917 262.566C199.775 262.43 199.634 262.293 199.488 262.153C197.625 260.355 195.898 258.508 194.314 256.454C194.139 256.238 193.964 256.023 193.784 255.801C192.291 253.885 191.392 251.815 190.494 249.578C191.905 250.321 193.25 251.142 194.585 252.013C197.391 253.96 197.391 253.96 200.681 254.162C201.937 253.365 202.683 252.352 203.482 251.106C203.482 250.938 203.482 250.77 203.482 250.597C203.284 250.556 203.085 250.515 202.88 250.473C201.961 250.282 201.043 250.089 200.124 249.896C199.812 249.832 199.499 249.768 199.177 249.701C197.332 249.312 195.544 248.848 193.754 248.256C192.298 247.835 191.255 247.808 189.885 248.463C188.882 249.066 188.2 249.837 187.47 250.74C187.338 250.898 187.207 251.056 187.071 251.219C186.681 251.688 186.295 252.161 185.91 252.634C185.709 252.878 185.509 253.123 185.302 253.374C184.933 253.824 184.566 254.275 184.199 254.727C183.542 255.528 182.873 256.318 182.201 257.107C180.009 259.555 180.009 259.555 178.27 262.312ZM182.345 249.578C183.328 248.621 184.228 247.617 185.114 246.57C185.386 246.251 185.658 245.932 185.93 245.614C186.347 245.124 186.763 244.634 187.179 244.143C188.194 242.962 189.282 241.871 190.39 240.777C190.92 240.24 191.42 239.693 191.911 239.121C193.147 237.682 194.474 236.337 195.92 235.11C197.545 233.691 199.052 232.149 200.577 230.625C200.911 230.292 201.245 229.958 201.579 229.625C202.277 228.928 202.975 228.231 203.672 227.534C204.559 226.647 205.447 225.762 206.336 224.877C207.027 224.19 207.716 223.501 208.404 222.813C208.731 222.486 209.058 222.16 209.386 221.834C211.082 220.147 212.713 218.459 214.196 216.578C214.727 215.913 215.285 215.277 215.85 214.64C222.87 206.212 227.479 195.859 231.242 185.656C231.302 185.492 231.363 185.328 231.425 185.159C232.047 183.473 232.638 181.81 233.024 180.053C231.525 180.768 230.15 181.575 228.774 182.504C228.574 182.639 228.374 182.773 228.168 182.912C222.75 186.587 217.326 191.055 213.064 196.049C212.409 196.811 211.739 197.554 211.059 198.294C203.812 206.349 198.342 215.946 193.469 225.558C193.054 226.377 192.635 227.195 192.216 228.013C190.504 231.375 188.907 234.782 187.359 238.222C186.543 240.036 185.721 241.844 184.875 243.644C184.792 243.822 184.708 244 184.622 244.183C184.222 245.034 183.821 245.885 183.418 246.735C183.277 247.034 183.136 247.334 182.99 247.643C182.865 247.907 182.74 248.171 182.611 248.443C182.311 249.033 182.311 249.033 182.345 249.578ZM194.06 244.994C196.007 245.508 197.956 245.982 199.93 246.385C200.245 246.45 200.56 246.514 200.884 246.581C201.515 246.71 202.147 246.836 202.779 246.959C206.405 247.702 206.405 247.702 207.525 249.196C207.777 249.755 207.928 250.258 208.066 250.851C208.438 250.815 208.809 250.778 209.181 250.74C209.491 250.709 209.491 250.709 209.807 250.677C210.369 250.625 210.369 250.625 210.868 250.342C211.369 247.961 211.27 245.227 210.04 243.084C209.221 241.922 208.199 241.177 206.793 240.919C202.191 240.61 198.328 241.881 194.06 243.466C194.06 243.97 194.06 244.474 194.06 244.994ZM202.464 236.08C205.631 237.168 205.631 237.168 208.878 236.829C211.517 235.01 211.871 231.498 212.431 228.56C212.592 227.661 212.686 226.807 212.651 225.894C210.727 227.464 209.019 229.254 207.277 231.018C206.862 231.437 206.446 231.857 206.03 232.275C205.897 232.409 205.765 232.543 205.628 232.68C204.724 233.585 203.789 234.435 202.797 235.244C202.687 235.352 202.577 235.46 202.464 235.571C202.464 235.739 202.464 235.907 202.464 236.08ZM207.742 264.393C213.174 267.877 220.064 269.631 226.443 268.28C226.598 268.244 226.752 268.207 226.912 268.169C226.308 267.565 225.975 267.515 225.15 267.329C224.896 267.27 224.641 267.211 224.379 267.149C223.97 267.055 223.97 267.055 223.554 266.959C218.774 265.807 213.43 264.17 210.577 259.832C210.119 259.075 209.698 258.307 209.286 257.524C208.539 256.133 208.539 256.133 207.318 255.202C205.991 255.149 204.666 255.93 203.578 256.629C201.728 259.741 205.435 262.826 207.742 264.393ZM211.496 95.8724C211.528 96.2069 211.561 96.5414 211.594 96.886C211.631 97.252 211.669 97.618 211.706 97.984C211.744 98.3637 211.782 98.7434 211.82 99.1231C211.9 99.922 211.981 100.721 212.064 101.519C212.147 102.328 212.228 103.137 212.307 103.946C213.067 112.233 213.067 112.233 215.134 120.269C215.221 120.523 215.309 120.777 215.399 121.04C217.954 128.294 222.449 134.933 228.44 139.815C228.524 139.815 228.608 139.815 228.695 139.815C228.598 137.924 228.188 136.318 227.527 134.55C227.433 134.292 227.339 134.033 227.243 133.767C227.04 133.209 226.835 132.651 226.63 132.094C226.187 130.894 225.751 129.692 225.314 128.489C225.086 127.861 224.858 127.232 224.629 126.604C223.546 123.629 222.495 120.643 221.45 117.655C219.78 112.884 218.091 108.12 216.375 103.365C216.285 103.115 216.195 102.865 216.102 102.607C214.508 97.5437 214.508 97.5437 211.632 93.2099C211.326 94.1323 211.4 94.9122 211.496 95.8724ZM213.315 85.9972C213.406 86.2482 213.497 86.4993 213.591 86.7579C213.691 87.0339 213.792 87.3099 213.896 87.5942C214.001 87.883 214.106 88.1719 214.214 88.4695C214.502 89.2628 214.79 90.0559 215.079 90.8489C215.385 91.6877 215.689 92.5269 215.994 93.3661C216.562 94.9303 217.131 96.4942 217.7 98.058C218.319 99.7568 218.937 101.456 219.555 103.155C220.18 104.875 220.805 106.595 221.431 108.314C223.629 114.355 225.816 120.399 228.003 126.443C229.037 129.299 230.07 132.155 231.104 135.01C231.511 136.133 231.917 137.256 232.324 138.379C232.536 138.966 232.749 139.553 232.962 140.14C233.104 140.533 233.104 140.533 233.249 140.933C233.852 142.598 234.456 144.263 235.062 145.927C235.146 145.927 235.23 145.927 235.316 145.927C235.535 144.597 235.615 143.312 235.623 141.966C235.624 141.759 235.626 141.553 235.628 141.34C235.633 140.673 235.634 140.005 235.635 139.337C235.635 138.994 235.635 138.994 235.635 138.645C235.631 134.912 235.452 131.274 234.807 127.591C234.765 127.343 234.722 127.096 234.679 126.841C232.171 112.63 225.309 100.105 216.884 88.578C216.742 88.3829 216.6 88.1878 216.453 87.9868C215.034 86.0556 215.034 86.0556 213.415 84.2964C213.246 84.2964 213.078 84.2964 212.905 84.2964C212.905 84.9391 213.095 85.3916 213.315 85.9972ZM214.179 243.211C214.415 243.006 214.651 242.802 214.895 242.591C215.673 241.922 216.467 241.276 217.266 240.633C218.506 239.624 219.676 238.558 220.841 237.467C221.908 236.473 223.021 235.553 224.158 234.64C225.125 233.835 226.037 232.977 226.954 232.118C227.801 231.329 228.666 230.581 229.57 229.857C230.848 228.832 232.035 227.732 233.226 226.609C234.359 225.548 235.533 224.568 236.745 223.598C237.446 223.015 238.079 222.39 238.713 221.735C239.321 221.124 239.973 220.566 240.626 220.002C241.671 219.095 242.695 218.164 243.72 217.235C244.079 216.912 244.079 216.912 244.446 216.582C247.396 213.916 250.134 211.199 252.534 208.022C252.912 207.526 253.298 207.037 253.685 206.549C253.816 206.384 253.946 206.22 254.08 206.051C254.332 205.734 254.584 205.417 254.837 205.101C255.427 204.486 255.427 204.486 255.69 203.737C252.113 203.82 248.555 203.999 244.994 204.342C244.677 204.371 244.36 204.4 244.034 204.43C239.486 204.892 237.091 206.519 233.788 209.595C233.461 209.883 233.132 210.17 232.801 210.454C230.964 212.053 229.187 213.724 227.419 215.399C224.416 218.242 224.416 218.242 222.869 219.479C217.634 223.695 215.229 228.705 214.455 235.367C214.176 237.987 214.121 240.58 214.179 243.211ZM215.707 260.529C218.431 262.634 222.594 262.457 225.893 262.566C225.893 262.23 225.893 261.894 225.893 261.548C225.644 261.413 225.644 261.413 225.389 261.276C222.311 259.618 219.237 257.96 216.216 256.199C215.287 257.039 215.008 257.532 214.92 258.757C214.956 259.556 215.177 259.934 215.707 260.529ZM216.216 255.435C217.294 255.277 218.132 254.899 219.097 254.401C219.369 254.261 219.641 254.122 219.922 253.978C220.127 253.871 220.333 253.763 220.545 253.653C220.431 252.512 220.431 252.512 219.781 251.615C218.465 251.635 218.465 251.635 217.324 252.183C216.894 252.747 216.738 253.258 216.55 253.939C216.486 254.166 216.422 254.392 216.356 254.626C216.206 255.127 216.206 255.127 216.216 255.435ZM223.092 241.938C224.312 241.566 225.432 241.059 226.569 240.487C226.758 240.393 226.947 240.299 227.141 240.202C227.764 239.892 228.386 239.581 229.007 239.269C229.443 239.051 229.879 238.833 230.315 238.616C231.228 238.159 232.142 237.702 233.054 237.245C234.216 236.662 235.379 236.081 236.543 235.501C237.444 235.052 238.344 234.601 239.245 234.15C239.673 233.936 240.101 233.722 240.529 233.509C245.339 231.109 248.727 229.013 251.816 224.527C252.49 223.548 253.184 222.586 253.886 221.627C260.688 212.881 260.688 212.881 264.094 202.719C262.556 202.96 261.963 203.487 261.042 204.721C260.899 204.922 260.756 205.122 260.608 205.329C260.296 205.748 259.983 206.166 259.669 206.584C259.514 206.792 259.359 207 259.2 207.215C258.101 208.661 256.894 210.018 255.69 211.377C255.481 211.615 255.272 211.853 255.056 212.098C253.523 213.805 251.914 215.434 250.294 217.06C250.079 217.276 249.864 217.492 249.643 217.714C248.53 218.825 247.4 219.897 246.208 220.922C245.594 221.451 245 222.001 244.405 222.551C243.249 223.606 242.056 224.601 240.838 225.584C240.169 226.137 239.524 226.709 238.882 227.294C238.036 228.064 237.176 228.803 236.287 229.523C233.79 231.546 231.375 233.672 228.997 235.835C228.486 236.294 227.964 236.736 227.437 237.179C225.847 238.561 224.261 240.185 223.092 241.938ZM226.212 253.764C226.416 253.968 226.416 253.968 226.625 254.177C227.535 255.077 228.482 255.925 229.45 256.763C230.311 257.519 231.141 258.309 231.974 259.096C234.843 261.808 234.843 261.808 237.863 264.349C238.635 263.577 238.712 262.593 238.944 261.558C238.999 261.321 239.054 261.085 239.11 260.841C239.291 260.057 239.47 259.272 239.648 258.487C239.772 257.942 239.897 257.398 240.022 256.853C240.284 255.711 240.545 254.569 240.805 253.426C241.137 251.961 241.473 250.496 241.81 249.032C242.068 247.908 242.325 246.783 242.582 245.658C242.705 245.118 242.829 244.578 242.953 244.038C243.126 243.283 243.298 242.528 243.469 241.772C243.52 241.549 243.572 241.325 243.625 241.095C243.852 240.086 244.043 239.16 243.975 238.118C240.055 239.958 236.155 241.841 232.264 243.74C231.179 244.269 230.09 244.791 228.999 245.307C228.5 245.548 228 245.788 227.501 246.029C227.168 246.183 227.168 246.183 226.829 246.34C225.46 247.007 224.425 247.764 223.601 249.069C223.191 251.079 224.888 252.47 226.212 253.764ZM228.185 208.083C228.354 208.245 228.522 208.408 228.695 208.576C228.849 208.361 229.003 208.145 229.162 207.923C232.413 203.48 236.58 201.224 241.995 200.333C243.431 200.126 244.873 199.975 246.315 199.822C246.782 199.77 247.249 199.718 247.716 199.666C248.723 199.553 249.73 199.443 250.738 199.333C253.429 199.039 256.119 198.733 258.81 198.428C259.706 198.327 260.602 198.226 261.498 198.126C262.052 198.064 262.606 198.002 263.16 197.939C263.413 197.911 263.665 197.883 263.925 197.854C265.092 197.723 266.249 197.58 267.405 197.37C266.902 196.769 266.394 196.176 265.877 195.588C265.697 195.377 265.697 195.377 265.513 195.162C262.403 191.778 257.911 189.74 253.398 189.221C252.724 189.198 252.062 189.188 251.389 189.196C251.11 189.198 251.11 189.198 250.826 189.2C250.24 189.205 249.654 189.212 249.069 189.221C248.882 189.224 248.695 189.226 248.503 189.229C247.383 189.247 246.263 189.272 245.144 189.302C244.767 189.312 244.39 189.32 244.014 189.328C239.3 189.213 239.3 189.213 235.062 190.749C234.716 191.197 234.716 191.197 234.486 191.729C234.387 191.936 234.288 192.143 234.186 192.356C234.029 192.703 234.029 192.703 233.868 193.057C233.754 193.301 233.64 193.546 233.522 193.797C231.797 197.544 230.195 201.349 228.58 205.144C228.489 205.358 228.398 205.572 228.303 205.793C227.604 207.033 227.604 207.033 228.185 208.083ZM227.931 277.083C228.939 277.251 229.948 277.419 230.987 277.592C230.987 277.34 230.987 277.088 230.987 276.828C229.978 276.828 228.97 276.828 227.931 276.828C227.931 276.912 227.931 276.996 227.931 277.083ZM237.465 175.421C239.223 177.136 240.737 178.135 243.211 178.27C241.429 175.726 241.429 175.726 239.136 173.686C238.437 173.624 238.437 173.624 237.688 173.654C237.308 173.661 237.308 173.661 236.921 173.668C236.728 173.674 236.534 173.68 236.335 173.686C236.335 174.511 236.901 174.848 237.465 175.421ZM237.099 184.892C237.458 185.464 237.458 185.464 238.118 185.91C240.41 185.988 242.624 184.922 244.739 184.128C243.908 183.574 243.215 183.363 242.256 183.093C241.953 183.006 241.649 182.919 241.337 182.829C240.429 182.604 239.559 182.427 238.627 182.345C237.658 183 237.4 183.788 237.099 184.892ZM239.707 140.279C239.74 140.746 239.773 141.213 239.806 141.68C239.876 142.656 239.946 143.632 240.016 144.607C240.105 145.848 240.193 147.088 240.28 148.328C240.347 149.292 240.416 150.256 240.485 151.22C240.518 151.676 240.55 152.133 240.582 152.59C240.606 158.386 240.606 158.386 243.026 163.247C243.728 163.759 244.425 164.163 245.197 164.562C245.481 164.709 245.765 164.856 246.058 165.008C246.361 165.163 246.664 165.318 246.967 165.473C247.277 165.632 247.586 165.791 247.896 165.95C251.412 168.149 251.412 168.149 255.181 169.357C255.429 156.445 250.916 144.195 243.211 133.957C243.102 133.805 242.993 133.653 242.881 133.496C242.265 132.66 242.265 132.66 241.321 132.327C241.125 132.366 240.93 132.405 240.728 132.445C240.53 132.48 240.331 132.514 240.127 132.55C239.647 132.641 239.647 132.641 239.391 132.939C239.303 135.39 239.531 137.836 239.707 140.279ZM244.23 275.3C249.124 275.123 253.327 273.167 256.963 269.952C257.148 269.794 257.333 269.637 257.523 269.475C259.829 267.467 261.945 265.248 264.094 263.076C263.926 262.823 263.758 262.571 263.585 262.312C262.327 262.798 261.745 263.829 260.963 264.878C259.176 266.808 256.843 267.699 254.448 268.678C250.604 270.26 246.794 271.881 244.23 275.3ZM244.994 171.139C247.029 176.096 250.577 179.39 255.435 181.581C256.458 181.854 257.199 181.798 258.237 181.581C258.126 180.237 257.895 179.509 257.011 178.493C256.702 178.135 256.702 178.135 256.386 177.771C256.155 177.512 255.922 177.254 255.69 176.997C255.566 176.858 255.443 176.719 255.315 176.576C253.833 174.913 252.342 173.295 250.597 171.903C250.345 171.702 250.094 171.501 249.835 171.293C248.118 169.939 246.357 168.707 244.484 167.574C243.949 168.646 244.644 170.061 244.994 171.139ZM244.994 257.728C245.945 256.814 246.771 255.847 247.572 254.799C249.481 252.339 251.487 249.972 253.585 247.671C254.069 247.134 254.546 246.593 255.02 246.047C257.621 243.071 260.396 240.262 263.187 237.465C263.33 237.322 263.473 237.178 263.62 237.03C265.043 235.602 266.462 234.182 268.003 232.881C268.463 232.481 268.889 232.058 269.315 231.624C270.064 230.863 270.849 230.16 271.658 229.463C272.373 228.836 273.072 228.193 273.772 227.549C275.213 226.224 276.676 224.93 278.165 223.658C278.472 223.395 278.78 223.132 279.088 222.869C279.243 222.737 279.398 222.605 279.558 222.468C280.458 221.697 281.347 220.914 282.224 220.116C283.073 219.344 283.941 218.608 284.834 217.887C286.05 216.904 287.202 215.865 288.353 214.806C289.031 214.197 289.726 213.62 290.437 213.049C291.74 211.996 292.97 210.88 294.198 209.742C295.382 208.649 296.591 207.591 297.838 206.57C298.048 206.392 298.258 206.213 298.475 206.029C298.475 205.945 298.475 205.861 298.475 205.775C295.433 205.696 292.407 205.829 289.37 205.997C289.18 206.007 288.991 206.017 288.795 206.028C283.499 206.31 278.855 206.764 275.08 210.88C273.98 212.134 273.18 213.481 272.387 214.943C272.245 215.198 272.103 215.453 271.957 215.716C271.204 217.08 270.474 218.455 269.758 219.838C267.506 224.185 264.834 226.946 260.075 228.5C259.749 228.602 259.423 228.704 259.096 228.806C254.257 230.385 251.94 233.927 249.652 238.232C246.71 244.043 244.778 251.196 244.994 257.728ZM249.069 261.038C249.586 260.875 249.586 260.875 250.087 260.529C250.294 259.878 250.294 259.878 250.342 259.256C249.907 259.669 249.483 260.094 249.069 260.529C249.069 260.697 249.069 260.865 249.069 261.038ZM254.417 293.636C255.065 294.668 255.863 295.393 256.963 295.928C257.131 295.928 257.3 295.928 257.473 295.928C257.122 295.187 256.721 294.531 256.245 293.863C256.109 293.671 255.973 293.479 255.832 293.281C255.691 293.083 255.549 292.885 255.403 292.681C255.26 292.479 255.117 292.277 254.969 292.069C254.616 291.572 254.262 291.076 253.907 290.58C253.525 291.727 253.938 292.559 254.417 293.636ZM261.294 293.526C263.7 295.386 266.441 296.809 269.101 298.264C269.701 298.592 270.299 298.922 270.897 299.254C271.71 299.706 272.524 300.154 273.34 300.6C273.658 300.774 273.976 300.949 274.293 301.126C274.736 301.372 275.183 301.614 275.629 301.855C275.885 301.996 276.141 302.136 276.405 302.28C277.049 302.592 277.049 302.592 277.651 302.513C278.192 302.298 278.192 302.298 278.61 301.531C278.388 301.248 278.388 301.248 278.161 300.959C271.598 292.556 266.921 283.982 265.322 273.346C265.253 272.911 265.253 272.911 265.182 272.467C265.144 272.209 265.106 271.951 265.066 271.685C264.817 270.829 264.447 270.342 263.839 269.697C263.002 269.345 262.661 269.407 261.807 269.727C258.693 271.434 256.071 273.493 254.703 276.86C252.958 282.859 256.81 289.695 261.294 293.526ZM254.671 262.312C260.801 260.431 263.235 255.933 266.093 250.63C266.373 250.111 266.657 249.595 266.942 249.079C267.797 247.742 267.797 247.742 268.169 246.267C267.183 246.677 266.47 247.345 265.702 248.066C265.567 248.192 265.432 248.318 265.292 248.448C264.892 248.823 264.493 249.2 264.094 249.578C263.893 249.766 263.691 249.954 263.483 250.147C260.002 253.49 256.69 257.928 254.671 262.312ZM256.199 251.87C256.367 251.786 256.535 251.702 256.709 251.615C256.625 251.363 256.541 251.111 256.454 250.851C256.37 251.188 256.286 251.524 256.199 251.87ZM259.255 222.328C260.173 222.743 260.606 222.896 261.579 222.577C262.416 222.002 262.799 221.505 263.33 220.641C263.424 220.49 263.518 220.34 263.614 220.184C264.412 218.88 265.144 217.54 265.881 216.201C271.451 206.103 271.451 206.103 276.318 203.483C275.968 202.461 275.475 201.764 274.79 200.936C274.151 201.271 273.515 201.611 272.88 201.955C272.703 202.047 272.526 202.139 272.343 202.234C269.946 203.543 268.475 205.384 267.15 207.732C267.013 207.97 266.876 208.208 266.734 208.453C266.274 209.256 265.82 210.061 265.367 210.868C265.284 211.017 265.2 211.166 265.114 211.32C263.075 214.944 261.052 218.576 259.255 222.328ZM263.839 188.457C264.099 188.667 264.359 188.876 264.626 189.093C265.385 189.697 266.152 190.292 266.92 190.884C267.728 191.508 268.529 192.139 269.331 192.77C269.476 192.885 269.622 192.999 269.772 193.116C270.599 193.766 271.423 194.42 272.244 195.078C272.58 194.91 272.916 194.742 273.262 194.569C273.262 193.3 272.794 192.923 271.957 192.07C271.677 191.776 271.396 191.481 271.116 191.187C270.967 191.033 270.819 190.879 270.666 190.72C270.043 190.069 269.431 189.407 268.819 188.745C266.618 186.007 266.618 186.007 263.839 184.128C263.241 184.28 262.645 184.448 262.057 184.637C261.815 186.608 262.336 187.243 263.839 188.457ZM266.386 256.964C267.227 256.879 268.067 256.795 268.933 256.709C268.681 255.952 268.429 255.196 268.169 254.417C267.042 254.793 266.917 255.41 266.386 256.454C266.386 256.622 266.386 256.79 266.386 256.964ZM266.641 302.55C268.364 304.226 270.243 305.458 272.307 306.672C272.626 306.862 272.945 307.053 273.264 307.244C273.745 307.531 274.226 307.819 274.708 308.106C276.068 308.915 277.412 309.748 278.754 310.588C284.493 314.159 290.326 317.614 296.302 320.775C302.809 324.218 308.801 328.156 314.264 333.11C314.502 333.325 314.502 333.325 314.745 333.543C317.859 336.356 317.859 336.356 319.202 337.969C319.67 338.527 320.166 339.055 320.663 339.588C324.152 343.473 327.087 347.864 329.78 352.326C331.255 354.762 333.007 357.469 335.402 359.087C335.238 357.785 334.851 356.656 334.385 355.441C334.309 355.237 334.232 355.033 334.153 354.822C333.902 354.158 333.649 353.495 333.397 352.831C333.134 352.14 332.872 351.449 332.61 350.758C332.434 350.295 332.258 349.831 332.081 349.368C331.552 347.974 331.036 346.576 330.532 345.173C329.406 342.056 328.381 339.241 326.234 336.676C326.013 336.39 325.794 336.104 325.576 335.816C324.878 334.9 324.159 334.004 323.433 333.11C323.323 332.974 323.213 332.837 323.1 332.696C319.658 328.431 315.666 324.341 311.208 321.141C310.928 320.93 310.649 320.719 310.37 320.508C308.734 319.285 307.033 318.194 305.271 317.161C305 317.001 305 317.001 304.724 316.838C301.184 314.808 297.416 313.291 293.604 311.861C293.141 311.686 292.679 311.511 292.216 311.336C287.47 309.546 282.698 307.827 277.924 306.114C276.35 305.548 274.78 304.973 273.212 304.39C272.815 304.243 272.419 304.097 272.022 303.95C271.471 303.746 270.919 303.541 270.369 303.334C269.879 303.149 269.388 302.968 268.897 302.786C268.625 302.685 268.353 302.583 268.073 302.478C267.385 302.223 267.385 302.223 266.641 302.55ZM268.933 155.604C269.185 155.604 269.437 155.604 269.697 155.604C270.066 155.154 270.066 155.154 270.388 154.549C270.519 154.321 270.651 154.093 270.786 153.859C270.925 153.61 271.065 153.361 271.209 153.105C271.508 152.586 271.808 152.066 272.108 151.548C272.259 151.286 272.41 151.024 272.566 150.755C273.192 149.686 273.852 148.641 274.52 147.598C275.635 145.85 276.724 144.088 277.799 142.314C279.653 139.255 281.544 136.221 283.449 133.193C283.592 132.965 283.735 132.738 283.882 132.503C287.478 126.775 291.187 121.093 295.164 115.621C295.298 115.436 295.432 115.251 295.571 115.061C297.282 112.709 299.029 110.385 300.799 108.076C302.149 106.314 303.461 104.533 304.731 102.712C305.675 101.359 306.645 100.027 307.627 98.7012C309.21 96.5626 310.772 94.4101 312.327 92.2508C313.152 91.105 313.979 89.9607 314.806 88.8162C315.493 87.8648 316.18 86.9132 316.866 85.9607C318.428 83.7923 320.003 81.6345 321.591 79.4851C323.016 77.5535 324.422 75.608 325.824 73.6598C326.649 72.514 327.477 71.3697 328.304 70.2252C328.991 69.2738 329.678 68.3222 330.363 67.3697C331.925 65.2013 333.5 63.0435 335.088 60.8941C336.652 58.7745 338.193 56.638 339.732 54.4998C341.565 51.9515 343.41 49.4117 345.276 46.8866C346.28 45.5256 347.275 44.1579 348.263 42.785C349.837 40.5985 351.434 38.4288 353.035 36.262C353.48 35.6594 353.924 35.056 354.367 34.4524C356.046 32.168 357.738 29.8938 359.441 27.6277C360.524 26.1859 361.599 24.7388 362.668 23.2867C362.814 23.0877 362.961 22.8887 363.112 22.6837C363.844 21.6874 364.576 20.6902 365.307 19.6924C365.6 19.2935 365.893 18.8945 366.185 18.4957C366.329 18.2996 366.473 18.1035 366.622 17.9015C367.435 16.7973 368.259 15.702 369.094 14.6139C369.278 14.3747 369.461 14.1355 369.651 13.8891C370.005 13.4281 370.361 12.9679 370.718 12.5086C371.611 11.3491 372.405 10.206 373.093 8.91368C371.447 9.3888 369.836 9.9184 368.234 10.5273C367.792 10.6934 367.349 10.8595 366.907 11.0257C366.563 11.1554 366.563 11.1554 366.212 11.2877C362.519 12.6803 358.817 14.0387 355.086 15.3277C351.853 16.4461 348.653 17.5671 345.589 19.1005C345.366 19.2103 345.142 19.3201 344.912 19.4332C337.844 22.9263 331.585 27.5009 325.82 32.8579C325.016 33.6005 324.191 34.3017 323.337 34.9857C321.879 36.1589 320.524 37.4288 319.16 38.7082C318.385 39.4347 317.593 40.1387 316.789 40.8331C315.985 41.5325 315.196 42.2488 314.405 42.963C313.991 43.3361 313.577 43.7083 313.161 44.0792C311.208 45.8247 309.285 47.5998 307.388 49.4064C307.108 49.6732 307.108 49.6732 306.822 49.9454C304.098 52.555 301.655 55.2268 299.493 58.3199C299.258 58.6556 299.258 58.6556 299.018 58.998C296.165 63.1063 293.658 67.3872 291.21 71.7454C289.324 75.0956 287.242 78.2195 284.937 81.296C272.789 97.6151 269.535 116.429 268.955 136.246C268.934 136.981 268.911 137.717 268.888 138.452C268.763 142.502 268.659 146.553 268.646 150.606C268.645 150.853 268.644 151.1 268.643 151.354C268.646 152.79 268.75 154.18 268.933 155.604ZM268.933 261.548C269.311 261.295 269.311 261.295 269.697 261.038C269.613 260.87 269.529 260.702 269.442 260.529C269.274 260.865 269.106 261.201 268.933 261.548ZM278.801 330.627C281.922 332.977 285.456 334.545 289.141 335.785C292.566 336.94 295.739 338.322 298.475 340.75C298.63 340.885 298.786 341.02 298.946 341.159C301.312 343.353 302.486 346.219 303.612 349.173C304.322 350.974 305.179 352.469 306.37 353.993C306.5 354.168 306.63 354.343 306.764 354.523C310.83 359.626 317.882 360.846 323.926 361.984C324.105 362.018 324.284 362.051 324.469 362.086C324.985 362.183 325.501 362.278 326.018 362.372C326.317 362.426 326.617 362.48 326.925 362.536C327.735 362.648 328.475 362.71 329.29 362.652C329.895 362.175 329.895 362.175 330.309 361.633C329.982 360.752 329.603 360.005 329.077 359.227C328.862 358.906 328.862 358.906 328.642 358.58C328.488 358.353 328.334 358.126 328.176 357.893C327.851 357.411 327.527 356.929 327.202 356.446C326.957 356.085 326.957 356.085 326.708 355.716C326.146 354.882 325.589 354.044 325.034 353.206C319.766 345.269 314.343 337.337 306.624 331.582C306.481 331.475 306.339 331.368 306.192 331.257C298.218 325.295 288.935 321.037 280.036 316.646C278.288 315.778 276.602 314.848 274.952 313.805C274.159 313.445 273.82 313.468 273.008 313.755C272.304 314.307 272.033 314.755 271.89 315.64C271.662 321.389 274.47 326.963 278.801 330.627ZM273.772 247.286C274.74 246.342 275.634 245.356 276.509 244.325C276.643 244.169 276.777 244.012 276.915 243.85C277.897 242.697 278.859 241.529 279.813 240.353C280.465 239.558 281.128 238.774 281.794 237.99C282.825 236.777 283.841 235.553 284.847 234.318C285.651 233.332 286.46 232.351 287.269 231.369C287.58 230.992 287.89 230.615 288.2 230.238C288.688 229.646 289.176 229.055 289.665 228.465C292.199 225.397 294.642 222.257 296.925 218.997C297.42 218.304 297.936 217.639 298.475 216.98C298.391 216.812 298.307 216.644 298.22 216.471C297.028 217.486 295.84 218.505 294.655 219.527C294.443 219.709 294.231 219.891 294.012 220.079C292.542 221.371 291.155 222.746 289.768 224.127C289.574 224.319 289.381 224.512 289.181 224.71C287.982 225.913 286.84 227.147 285.741 228.44C285.603 228.602 285.464 228.765 285.322 228.932C281.315 233.659 277.692 238.642 274.886 244.182C274.802 244.348 274.717 244.514 274.63 244.685C274.209 245.545 273.906 246.336 273.772 247.286ZM273.772 157.132C274.665 156.745 275.288 156.216 276 155.557C276.779 154.843 277.558 154.132 278.356 153.44C279.762 152.214 281.144 150.963 282.524 149.708C284.03 148.343 285.564 147.014 287.112 145.696C287.704 145.192 288.292 144.683 288.875 144.168C292.222 141.228 295.796 138.58 299.521 136.141C306.941 131.267 313.98 125.775 320.886 120.205C321.035 120.085 321.184 119.965 321.337 119.841C323.278 118.275 325.207 116.698 327.105 115.081C327.942 114.369 328.787 113.67 329.64 112.979C331.093 111.796 332.504 110.569 333.916 109.339C334.698 108.658 335.485 107.983 336.275 107.312C338.06 105.792 339.807 104.24 341.514 102.633C341.868 102.304 341.868 102.304 342.228 101.969C346.484 97.8881 348.999 92.938 351.332 87.5945C352.909 84.0061 354.632 80.7604 357.324 77.8709C363.85 70.8631 367.675 61.6704 371.555 53.0498C371.737 52.6465 371.919 52.2435 372.102 51.8407C372.382 51.222 372.661 50.6028 372.939 49.9834C373.024 49.7964 373.109 49.6094 373.197 49.4167C377.335 40.1676 374.004 27.2489 372.839 17.5725C372.097 18.2955 371.408 19.0033 370.806 19.8476C370.674 20.032 370.542 20.2163 370.406 20.4062C370.269 20.6004 370.131 20.7946 369.99 20.9947C369.844 21.1984 369.698 21.4021 369.548 21.6119C369.116 22.2172 368.685 22.8235 368.255 23.4299C367.931 23.884 367.606 24.3379 367.282 24.7917C367.08 25.0744 366.878 25.3572 366.677 25.6401C365.4 27.4298 364.11 29.2099 362.822 30.9911C362.406 31.5672 361.991 32.1437 361.576 32.7205C360.015 34.8878 358.441 37.0446 356.853 39.1926C355.849 40.5536 354.854 41.9214 353.866 43.2943C352.292 45.4803 350.696 47.6497 349.095 49.8162C348.35 50.8249 347.606 51.8347 346.862 52.8445C346.565 53.2477 346.268 53.6509 345.971 54.0542C345.824 54.2538 345.677 54.4534 345.525 54.659C344.188 56.4735 344.188 56.4735 343.743 57.0785C343.446 57.4815 343.149 57.8845 342.852 58.2875C342.106 59.2993 341.361 60.3106 340.614 61.3213C339.164 63.2848 337.72 65.2525 336.293 67.2334C334.424 69.8294 332.523 72.4017 330.622 74.9743C328.461 77.8985 326.32 80.836 324.197 83.787C322.506 86.1362 320.809 88.4798 319.087 90.8064C317.837 92.4972 316.61 94.2023 315.402 95.9238C314.482 97.2344 313.549 98.5348 312.609 99.8313C311.41 101.487 310.225 103.151 309.049 104.824C308.119 106.144 307.175 107.454 306.226 108.761C305.082 110.339 303.961 111.932 302.861 113.542C301.944 114.884 301.015 116.216 300.082 117.547C299.776 117.984 299.47 118.421 299.164 118.858C298.695 119.528 298.225 120.198 297.754 120.868C295.281 124.385 292.877 127.943 290.507 131.53C289.37 133.247 288.212 134.937 286.99 136.595C286.111 137.815 285.3 139.078 284.484 140.34C284.296 140.629 284.108 140.918 283.92 141.206C283.629 141.654 283.338 142.101 283.047 142.549C282.393 143.557 281.735 144.564 281.076 145.569C279.31 148.26 277.552 150.955 275.814 153.663C275.543 154.085 275.272 154.507 275 154.928C274.839 155.181 274.677 155.433 274.511 155.693C274.368 155.916 274.224 156.139 274.077 156.369C273.75 156.815 273.75 156.815 273.772 157.132ZM274.281 252.634C278.947 250.019 282.694 246.932 286.251 242.957C286.41 242.779 286.569 242.601 286.733 242.417C287.407 241.653 288.069 240.877 288.731 240.101C288.992 239.796 289.252 239.49 289.514 239.184C289.645 239.03 289.777 238.876 289.913 238.716C290.729 237.764 291.561 236.829 292.41 235.905C293.228 235.015 294.008 234.109 294.766 233.168C295.698 232.013 296.678 230.922 297.688 229.837C298.657 228.79 299.555 227.696 300.449 226.585C301.044 225.866 301.663 225.179 302.295 224.493C303.342 223.355 304.325 222.178 305.296 220.974C305.849 220.304 306.421 219.659 307.006 219.017C307.98 217.949 308.895 216.843 309.804 215.72C310.554 214.81 311.325 213.921 312.1 213.033C313.051 211.942 313.991 210.847 314.901 209.722C315.812 208.597 316.752 207.502 317.702 206.411C318.852 205.092 319.979 203.76 321.077 202.397C321.494 201.889 321.916 201.392 322.35 200.899C324.4 198.561 325.935 196.164 327.125 193.28C327.194 193.116 327.262 192.952 327.332 192.783C327.729 191.787 327.729 191.787 327.507 190.749C327.38 190.891 327.253 191.034 327.122 191.181C326.225 192.182 325.327 193.18 324.406 194.16C322.939 195.723 321.524 197.297 320.184 198.972C319.552 199.736 318.887 200.465 318.212 201.19C317.114 202.37 316.085 203.59 315.074 204.845C314.525 205.513 313.955 206.154 313.373 206.793C312.603 207.639 311.864 208.499 311.145 209.388C309.817 211.028 308.429 212.614 307.044 214.205C306.386 214.963 305.733 215.724 305.08 216.487C304.893 216.706 304.893 216.706 304.701 216.929C304.45 217.223 304.198 217.518 303.946 217.812C303.184 218.703 302.421 219.592 301.658 220.482C301.024 221.222 300.39 221.961 299.757 222.701C298.305 224.398 296.846 226.09 295.382 227.777C294.457 228.844 293.535 229.914 292.617 230.987C291.151 232.701 289.675 234.405 288.197 236.108C287.505 236.905 286.814 237.702 286.123 238.5C285.847 238.818 285.571 239.137 285.296 239.455C285.159 239.612 285.022 239.77 284.882 239.932C283.64 241.365 283.64 241.365 283.226 241.842C282.951 242.161 282.675 242.479 282.399 242.797C281.707 243.596 281.014 244.395 280.32 245.194C279.633 245.986 278.947 246.779 278.26 247.572C277.834 248.065 277.405 248.556 276.977 249.047C276.699 249.367 276.421 249.687 276.143 250.008C275.95 250.228 275.95 250.228 275.753 250.453C275.156 251.143 274.634 251.787 274.281 252.634ZM282.94 299.494C283.188 299.766 283.188 299.766 283.441 300.045C296.763 314.135 317.431 317.342 335.657 319.867C330.761 313.582 321.659 311.838 314.419 309.752C300.009 305.599 300.009 305.599 293.381 302.55C293.159 302.448 292.936 302.346 292.707 302.242C288.14 300.129 283.204 297.363 279.695 293.68C279.536 293.532 279.536 293.532 279.374 293.382C278.824 293.439 278.824 293.439 278.356 293.636C278.356 295.272 281.904 298.396 282.94 299.494ZM287.779 247.541C289.521 246.899 291.077 245.88 292.665 244.93C292.837 244.828 293.008 244.726 293.185 244.62C295.875 243.007 298.39 241.273 300.807 239.267C301.528 238.675 302.269 238.11 303.011 237.545C303.272 237.345 303.532 237.144 303.801 236.938C304.489 236.411 305.177 235.883 305.865 235.357C306.283 235.036 306.699 234.713 307.116 234.389C307.605 234.013 308.099 233.643 308.6 233.283C310.101 232.172 311.016 230.993 312.009 229.416C313.812 226.665 316.708 225.087 319.867 224.366C327.01 223.146 334.353 222.753 341.576 222.22C342.603 222.144 343.629 222.067 344.656 221.99C346.667 221.839 348.678 221.69 350.689 221.541C353.07 221.364 355.451 221.186 357.831 221.008C362.674 220.647 367.517 220.287 372.359 219.927C376.048 219.653 379.736 219.379 383.424 219.104C407.358 217.322 431.291 215.544 455.229 213.82C455.99 213.765 456.752 213.71 457.513 213.655C460.538 213.437 463.562 213.22 466.586 213.003C467.187 212.96 467.787 212.917 468.388 212.874C470.664 212.711 472.94 212.55 475.217 212.396C475.445 212.381 475.673 212.365 475.908 212.349C479.044 212.142 482.176 212.088 485.318 212.061C485.831 212.056 486.344 212.05 486.857 212.045C488.191 212.031 489.525 212.018 490.859 212.006C492.226 211.993 493.594 211.979 494.962 211.965C497.633 211.938 500.304 211.912 502.976 211.887C502.808 210.962 502.64 210.038 502.466 209.085C501.666 208.885 501.11 208.796 500.308 208.782C500.073 208.776 499.838 208.77 499.596 208.764C499.333 208.757 499.07 208.751 498.8 208.744C495.628 208.643 492.472 208.414 489.309 208.161C489.064 208.142 488.818 208.122 488.565 208.102C486.518 207.938 484.471 207.772 482.425 207.605C480.888 207.479 479.352 207.355 477.815 207.233C477.107 207.176 476.4 207.117 475.692 207.059C471.036 206.483 471.036 206.483 466.558 207.303C465.653 207.331 464.765 207.315 463.862 207.283C462.612 207.256 461.657 207.464 460.446 207.812C459.277 207.981 458.103 208.095 456.928 208.21C456.622 208.242 456.316 208.274 456.001 208.307C451.531 208.758 447.048 208.888 442.559 209.015C441.565 209.043 440.572 209.072 439.579 209.101C439.408 209.106 439.237 209.112 439.061 209.117C438.711 209.127 438.36 209.137 438.01 209.148C437.474 209.163 436.938 209.179 436.402 209.195C416.475 209.779 396.549 210.449 345.702 215.636C344.683 215.788 343.664 215.939 342.644 216.089C342.392 216.126 342.139 216.163 341.879 216.201C336.122 217.038 330.335 217.511 324.538 217.965C323.782 218.024 323.027 218.085 322.272 218.145C321.751 218.186 321.229 218.224 320.708 218.263C318.568 218.431 316.635 218.605 314.734 219.68C314.511 219.805 314.287 219.93 314.057 220.058C313.832 220.187 313.606 220.317 313.373 220.45C313.139 220.581 312.906 220.713 312.665 220.848C312.093 221.169 311.523 221.493 310.954 221.819C310.954 221.987 310.954 222.155 310.954 222.328C311.164 222.512 311.374 222.696 311.59 222.885C312.227 223.602 312.227 223.602 312.37 224.493C312.087 226.258 310.648 227.167 309.298 228.186C309.11 228.329 308.921 228.473 308.727 228.621C307.299 229.692 305.823 230.667 304.316 231.624C300.737 233.916 297.679 236.557 294.671 239.55C294.547 239.673 294.424 239.795 294.296 239.922C292.792 241.42 291.387 242.962 290.065 244.623C289.431 245.41 288.764 246.163 288.088 246.914C287.751 247.238 287.751 247.238 287.779 247.541ZM291.344 295.928C298.72 300.149 306.319 303.029 314.541 305.158C314.999 305.277 315.455 305.4 315.909 305.528C316.83 305.783 317.427 305.884 318.339 305.606C305.564 298.273 305.564 298.273 291.344 295.674C291.344 295.758 291.344 295.842 291.344 295.928Z" fill="#D3A65E"/>
</g>
<defs>
<clipPath id="clip0_219_5750">
<rect width="368" height="509.343" fill="white" transform="translate(0 368) rotate(-90)"/>
</clipPath>
</defs>
</svg>
