<svg class="infinite-svg" width="165" height="200" viewBox="0 0 165 200" fill="none" xmlns="http://www.w3.org/2000/svg">
<mask id="path-1-outside-1_217_5731" maskUnits="userSpaceOnUse" x="8" y="60" width="148" height="89" fill="black">
<rect fill="white" x="8" y="60" width="148" height="89"/>
<path d="M119.4 147.8C113 147.8 106.533 146.133 100 142.8C93.4667 139.333 87.0667 133.533 80.8 125.4C76.9333 131.267 72.0667 136.333 66.2 140.6C60.3333 144.867 53.9333 147 47 147C40.2 147 34.4 145.733 29.6 143.2C24.9333 140.533 21.1333 137.067 18.2 132.8C15.2667 128.533 13.1333 123.867 11.8 118.8C10.4667 113.6 9.8 108.467 9.8 103.4C9.8 95.6667 11.2667 88.6667 14.2 82.4C17.1333 76.1333 21.3333 71.1333 26.8 67.4C32.2667 63.6667 38.6667 61.8 46 61.8C53.2 61.8 60.0667 63.8 66.6 67.8C73.1333 71.8 78.8 77.4 83.6 84.6C88.9333 77 94.6667 71.2 100.8 67.2C106.933 63.0667 113.6 61 120.8 61C128.933 61 135.467 63 140.4 67C145.333 70.8667 148.933 76.1333 151.2 82.8C153.467 89.3333 154.6 96.6667 154.6 104.8C154.6 112.533 153.133 119.667 150.2 126.2C147.4 132.733 143.333 138 138 142C132.8 145.867 126.6 147.8 119.4 147.8ZM43.4 124.2C46.0667 124.2 49.1333 123.733 52.6 122.8C56.2 121.733 59.7333 120.2 63.2 118.2C66.6667 116.067 69.4667 113.467 71.6 110.4C70.2667 107.867 68.6667 105.467 66.8 103.2C65.0667 100.8 63.2 98.5333 61.2 96.4C59.3333 94.2667 57.2667 92.4 55 90.8C52.8667 89.2 50.6667 88 48.4 87.2C46.1333 86.2667 43.8667 85.8 41.6 85.8C38.6667 85.8 35.8 86.4667 33 87.8C30.3333 89 28.1333 91 26.4 93.8C24.8 96.6 24 100.2 24 104.6C24 110.733 25.8667 115.533 29.6 119C33.3333 122.467 37.9333 124.2 43.4 124.2ZM120.6 124.2C124.6 124.2 128.067 123.333 131 121.6C134.067 119.733 136.4 117.267 138 114.2C139.733 111 140.6 107.333 140.6 103.2C140.6 97.2 138.8 92.4 135.2 88.8C131.6 85.0667 126.667 83.2 120.4 83.2C116.4 83.2 111.8 84.3333 106.6 86.6C101.533 88.8667 96.8667 93.0667 92.6 99.2C94.8667 103.333 97.4667 107.333 100.4 111.2C103.467 114.933 106.733 118.067 110.2 120.6C113.667 123 117.133 124.2 120.6 124.2Z"/>
</mask>
<path class="infinite-fill" d="M119.4 147.8C113 147.8 106.533 146.133 100 142.8C93.4667 139.333 87.0667 133.533 80.8 125.4C76.9333 131.267 72.0667 136.333 66.2 140.6C60.3333 144.867 53.9333 147 47 147C40.2 147 34.4 145.733 29.6 143.2C24.9333 140.533 21.1333 137.067 18.2 132.8C15.2667 128.533 13.1333 123.867 11.8 118.8C10.4667 113.6 9.8 108.467 9.8 103.4C9.8 95.6667 11.2667 88.6667 14.2 82.4C17.1333 76.1333 21.3333 71.1333 26.8 67.4C32.2667 63.6667 38.6667 61.8 46 61.8C53.2 61.8 60.0667 63.8 66.6 67.8C73.1333 71.8 78.8 77.4 83.6 84.6C88.9333 77 94.6667 71.2 100.8 67.2C106.933 63.0667 113.6 61 120.8 61C128.933 61 135.467 63 140.4 67C145.333 70.8667 148.933 76.1333 151.2 82.8C153.467 89.3333 154.6 96.6667 154.6 104.8C154.6 112.533 153.133 119.667 150.2 126.2C147.4 132.733 143.333 138 138 142C132.8 145.867 126.6 147.8 119.4 147.8ZM43.4 124.2C46.0667 124.2 49.1333 123.733 52.6 122.8C56.2 121.733 59.7333 120.2 63.2 118.2C66.6667 116.067 69.4667 113.467 71.6 110.4C70.2667 107.867 68.6667 105.467 66.8 103.2C65.0667 100.8 63.2 98.5333 61.2 96.4C59.3333 94.2667 57.2667 92.4 55 90.8C52.8667 89.2 50.6667 88 48.4 87.2C46.1333 86.2667 43.8667 85.8 41.6 85.8C38.6667 85.8 35.8 86.4667 33 87.8C30.3333 89 28.1333 91 26.4 93.8C24.8 96.6 24 100.2 24 104.6C24 110.733 25.8667 115.533 29.6 119C33.3333 122.467 37.9333 124.2 43.4 124.2ZM120.6 124.2C124.6 124.2 128.067 123.333 131 121.6C134.067 119.733 136.4 117.267 138 114.2C139.733 111 140.6 107.333 140.6 103.2C140.6 97.2 138.8 92.4 135.2 88.8C131.6 85.0667 126.667 83.2 120.4 83.2C116.4 83.2 111.8 84.3333 106.6 86.6C101.533 88.8667 96.8667 93.0667 92.6 99.2C94.8667 103.333 97.4667 107.333 100.4 111.2C103.467 114.933 106.733 118.067 110.2 120.6C113.667 123 117.133 124.2 120.6 124.2Z" fill="#D3A65E" fill-opacity="0.0"/>
<path class="infinite-border" d="M100 142.8L99.5313 143.683L99.5384 143.687L99.5455 143.691L100 142.8ZM80.8 125.4L81.5921 124.79L80.7365 123.679L79.965 124.85L80.8 125.4ZM66.2 140.6L66.7882 141.409L66.7882 141.409L66.2 140.6ZM29.6 143.2L29.1039 144.068L29.1184 144.077L29.1332 144.084L29.6 143.2ZM18.2 132.8L17.376 133.367L17.376 133.367L18.2 132.8ZM11.8 118.8L10.8313 119.048L10.8329 119.054L11.8 118.8ZM26.8 67.4L27.364 68.2258L27.364 68.2258L26.8 67.4ZM66.6 67.8L66.0778 68.6528L66.0778 68.6528L66.6 67.8ZM83.6 84.6L82.768 85.1547L83.5788 86.371L84.4186 85.1744L83.6 84.6ZM100.8 67.2L101.346 68.0376L101.353 68.0335L101.359 68.0293L100.8 67.2ZM140.4 67L139.77 67.7767L139.777 67.782L139.783 67.787L140.4 67ZM151.2 82.8L150.253 83.1219L150.255 83.1278L151.2 82.8ZM150.2 126.2L149.288 125.79L149.284 125.798L149.281 125.806L150.2 126.2ZM138 142L138.597 142.802L138.6 142.8L138 142ZM52.6 122.8L52.86 123.766L52.8721 123.762L52.8841 123.759L52.6 122.8ZM63.2 118.2L63.6997 119.066L63.712 119.059L63.7241 119.052L63.2 118.2ZM71.6 110.4L72.4209 110.971L72.768 110.472L72.4849 109.934L71.6 110.4ZM66.8 103.2L65.9893 103.785L66.0079 103.811L66.0281 103.836L66.8 103.2ZM61.2 96.4L60.4474 97.0585L60.4587 97.0714L60.4705 97.0839L61.2 96.4ZM55 90.8L54.4 91.6L54.4115 91.6086L54.4233 91.617L55 90.8ZM48.4 87.2L48.0193 88.1247L48.043 88.1344L48.0672 88.143L48.4 87.2ZM33 87.8L33.4104 88.7119L33.4202 88.7075L33.4299 88.7029L33 87.8ZM26.4 93.8L25.5497 93.2736L25.5405 93.2886L25.5318 93.3039L26.4 93.8ZM29.6 119L28.9195 119.733L28.9195 119.733L29.6 119ZM131 121.6L131.509 122.461L131.52 122.454L131 121.6ZM138 114.2L137.121 113.724L137.117 113.731L137.113 113.737L138 114.2ZM135.2 88.8L134.48 89.4941L134.486 89.5007L134.493 89.5071L135.2 88.8ZM106.6 86.6L106.2 85.6833L106.192 85.6872L106.6 86.6ZM92.6 99.2L91.7791 98.6289L91.4253 99.1376L91.7232 99.6808L92.6 99.2ZM100.4 111.2L99.6033 111.804L99.615 111.82L99.6273 111.835L100.4 111.2ZM110.2 120.6L109.61 121.407L109.62 121.415L109.631 121.422L110.2 120.6ZM119.4 146.8C113.18 146.8 106.868 145.181 100.454 141.909L99.5455 143.691C106.199 147.085 112.82 148.8 119.4 148.8V146.8ZM100.469 141.917C94.1004 138.538 87.8034 132.851 81.5921 124.79L80.0079 126.01C86.33 134.216 92.833 140.129 99.5313 143.683L100.469 141.917ZM79.965 124.85C76.1666 130.613 71.3846 135.593 65.6118 139.791L66.7882 141.409C72.7488 137.074 77.7001 131.92 81.635 125.95L79.965 124.85ZM65.6118 139.791C59.9077 143.94 53.7118 146 47 146V148C54.1549 148 60.759 145.794 66.7882 141.409L65.6118 139.791ZM47 146C40.3224 146 34.691 144.756 30.0668 142.316L29.1332 144.084C34.109 146.71 40.0776 148 47 148V146ZM30.0961 142.332C25.555 139.737 21.8689 136.371 19.024 132.233L17.376 133.367C20.3978 137.762 24.3117 141.33 29.1039 144.068L30.0961 142.332ZM19.024 132.233C16.1568 128.063 14.0714 123.502 12.7671 118.546L10.8329 119.054C12.1952 124.231 14.3765 129.004 17.376 133.367L19.024 132.233ZM12.7687 118.552C11.4549 113.428 10.8 108.378 10.8 103.4H8.8C8.8 108.555 9.47843 113.772 10.8313 119.048L12.7687 118.552ZM10.8 103.4C10.8 95.7958 12.2414 88.943 15.1057 82.8239L13.2943 81.9761C10.2919 88.3903 8.8 95.5375 8.8 103.4H10.8ZM15.1057 82.8239C17.9667 76.7117 22.0519 71.8535 27.364 68.2258L26.236 66.5742C20.6147 70.4131 16.2999 75.5549 13.2943 81.9761L15.1057 82.8239ZM27.364 68.2258C32.6467 64.6181 38.8453 62.8 46 62.8V60.8C38.488 60.8 31.8866 62.7153 26.236 66.5742L27.364 68.2258ZM46 62.8C53.0038 62.8 59.6912 64.7427 66.0778 68.6528L67.1222 66.9471C60.4421 62.8573 53.3962 60.8 46 60.8V62.8ZM66.0778 68.6528C72.4724 72.5679 78.038 78.0597 82.768 85.1547L84.4321 84.0453C79.5621 76.7403 73.7943 71.0321 67.1222 66.9471L66.0778 68.6528ZM84.4186 85.1744C89.6975 77.6519 95.344 71.9521 101.346 68.0376L100.254 66.3624C93.9893 70.4479 88.1691 76.3481 82.7814 84.0256L84.4186 85.1744ZM101.359 68.0293C107.332 64.004 113.805 62 120.8 62V60C113.395 60 106.535 62.1293 100.241 66.3707L101.359 68.0293ZM120.8 62C128.769 62 135.06 63.9576 139.77 67.7767L141.03 66.2232C135.873 62.0424 129.097 60 120.8 60V62ZM139.783 67.787C144.545 71.5196 148.041 76.6156 150.253 83.1219L152.147 82.4781C149.826 75.6511 146.121 70.2137 141.017 66.2129L139.783 67.787ZM150.255 83.1278C152.48 89.539 153.6 96.759 153.6 104.8H155.6C155.6 96.5743 154.454 89.1277 152.145 82.4722L150.255 83.1278ZM153.6 104.8C153.6 112.404 152.159 119.396 149.288 125.79L151.112 126.61C154.108 119.937 155.6 112.663 155.6 104.8H153.6ZM149.281 125.806C146.545 132.189 142.584 137.312 137.4 141.2L138.6 142.8C144.083 138.688 148.255 133.277 151.119 126.594L149.281 125.806ZM137.403 141.198C132.395 144.922 126.41 146.8 119.4 146.8V148.8C126.79 148.8 133.205 146.812 138.597 142.802L137.403 141.198ZM43.4 125.2C46.1788 125.2 49.3358 124.714 52.86 123.766L52.34 121.834C48.9309 122.752 45.9546 123.2 43.4 123.2V125.2ZM52.8841 123.759C56.5641 122.668 60.1695 121.103 63.6997 119.066L62.7003 117.334C59.2972 119.297 55.8359 120.798 52.3159 121.841L52.8841 123.759ZM63.7241 119.052C67.2974 116.853 70.2022 114.16 72.4209 110.971L70.7791 109.829C68.7312 112.773 66.036 115.281 62.6759 117.348L63.7241 119.052ZM72.4849 109.934C71.119 107.339 69.4808 104.882 67.5719 102.564L66.0281 103.836C67.8525 106.051 69.4143 108.394 70.7151 110.866L72.4849 109.934ZM67.6107 102.615C65.8527 100.18 63.959 97.8808 61.9295 95.7161L60.4705 97.0839C62.441 99.1858 64.2806 101.42 65.9893 103.785L67.6107 102.615ZM61.9526 95.7415C60.0349 93.5499 57.9094 91.6297 55.5767 89.983L54.4233 91.617C56.6239 93.1703 58.6318 94.9835 60.4474 97.0585L61.9526 95.7415ZM55.6 90C53.3942 88.3456 51.1051 87.0943 48.7328 86.257L48.0672 88.143C50.2282 88.9057 52.3391 90.0544 54.4 91.6L55.6 90ZM48.7808 86.2753C46.4032 85.2963 44.0076 84.8 41.6 84.8V86.8C43.7257 86.8 45.8634 87.237 48.0193 88.1247L48.7808 86.2753ZM41.6 84.8C38.5094 84.8 35.4965 85.5036 32.5701 86.8971L33.4299 88.7029C36.1035 87.4297 38.8239 86.8 41.6 86.8V84.8ZM32.5896 86.8881C29.7188 88.1799 27.3743 90.3263 25.5497 93.2736L27.2503 94.3263C28.8924 91.6737 30.9479 89.82 33.4104 88.7119L32.5896 86.8881ZM25.5318 93.3039C23.8196 96.3002 23 100.087 23 104.6H25C25 100.313 25.7804 96.8998 27.2682 94.2961L25.5318 93.3039ZM23 104.6C23 110.95 24.9415 116.039 28.9195 119.733L30.2805 118.267C26.7919 115.028 25 110.517 25 104.6H23ZM28.9195 119.733C32.8521 123.384 37.7011 125.2 43.4 125.2V123.2C38.1656 123.2 33.8146 121.549 30.2805 118.267L28.9195 119.733ZM120.6 125.2C124.748 125.2 128.396 124.3 131.509 122.461L130.491 120.739C127.737 122.367 124.452 123.2 120.6 123.2V125.2ZM131.52 122.454C134.736 120.497 137.199 117.897 138.887 114.663L137.113 113.737C135.601 116.636 133.397 118.97 130.48 120.746L131.52 122.454ZM138.879 114.676C140.702 111.311 141.6 107.477 141.6 103.2H139.6C139.6 107.19 138.765 110.689 137.121 113.724L138.879 114.676ZM141.6 103.2C141.6 96.9857 139.728 91.9136 135.907 88.0929L134.493 89.5071C137.872 92.8864 139.6 97.4143 139.6 103.2H141.6ZM135.92 88.1059C132.093 84.1373 126.877 82.2 120.4 82.2V84.2C126.456 84.2 131.107 85.996 134.48 89.4941L135.92 88.1059ZM120.4 82.2C116.218 82.2 111.478 83.383 106.2 85.6833L107 87.5167C112.122 85.2837 116.582 84.2 120.4 84.2V82.2ZM106.192 85.6872C100.911 88.0496 96.1149 92.3963 91.7791 98.6289L93.4209 99.7711C97.6185 93.7371 102.156 89.6838 107.008 87.5128L106.192 85.6872ZM91.7232 99.6808C94.0142 103.859 96.6411 107.9 99.6033 111.804L101.197 110.596C98.2922 106.767 95.7192 102.808 93.4768 98.7192L91.7232 99.6808ZM99.6273 111.835C102.741 115.625 106.068 118.819 109.61 121.407L110.79 119.793C107.399 117.315 104.193 114.242 101.173 110.565L99.6273 111.835ZM109.631 121.422C113.228 123.913 116.889 125.2 120.6 125.2V123.2C117.377 123.2 114.105 122.087 110.769 119.778L109.631 121.422Z" fill="#333333" mask="url(#path-1-outside-1_217_5731)"/>
</svg>
