<svg width="205" height="172" viewBox="0 0 205 172" fill="none" xmlns="http://www.w3.org/2000/svg">
<path fill-rule="evenodd" clip-rule="evenodd" d="M100.919 141.704C100.759 141.232 100.625 140.746 100.503 140.254C100.529 140.192 100.548 140.13 100.58 140.069C102.331 135.06 106.333 133.281 112.571 134.725C118.075 142.956 104.281 151.618 100.919 141.704ZM117.052 119.139C116.733 119.029 116.33 119.173 116.362 119.618C116.752 125.365 110.078 121.376 108.359 119.638C107.79 119.07 107.343 118.468 106.985 117.853C110.846 114.938 115.275 114.062 117.052 119.139ZM140.543 87.1792C140.134 84.7503 140.684 83.0055 141.751 81.4524C143.176 83.7992 143.464 86.3171 140.543 87.1792ZM114.169 135.642C113.3 132.077 108.979 129.368 105.828 131.564C103.533 133.158 101.596 135.409 100.03 138.016C99.4421 134.294 99.6338 130.264 100.439 126.788C101.059 124.134 103.373 120.87 106.115 118.537C106.991 120.104 108.238 121.486 109.797 122.553C112.808 124.613 116.995 124.284 117.353 120.145C117.442 120.507 117.525 120.884 117.583 121.294C117.647 121.664 118.196 121.575 118.184 121.205C117.8 111.797 111.964 113.35 106.825 117.538C104.498 113.042 107.113 107.494 110.027 103.717C115.441 96.7035 115.467 107.302 119.98 108.698C126.007 110.566 128.705 99.6388 125.86 93.5561C128.641 92.8993 131.083 89.1292 132.502 85.5303C133.384 85.7492 134.349 85.7629 135.282 85.5303C135.704 85.4208 135.525 84.7708 135.116 84.8529C132.201 85.414 129.939 83.1355 130.565 79.9882C131.191 76.8613 134.394 76.1087 136.855 76.9366C138.076 77.3471 139.686 78.6745 140.92 80.255C139.328 82.4171 138.657 85.3524 139.674 87.9798C139.782 88.2398 139.993 88.4177 140.275 88.3424C144.659 87.104 144.436 83.5666 142.48 80.4945C143.164 79.6734 143.956 78.8729 144.813 78.0039C145.024 77.785 144.806 77.3608 144.525 77.4703C143.451 77.8603 142.499 78.5376 141.687 79.3792C140.051 77.3403 137.743 75.705 135.743 75.4245C132.387 74.9592 129.402 77.3676 129.248 81.0624C129.152 83.2176 130.233 84.6066 131.716 85.2566C131.096 86.1119 130.501 86.974 129.939 87.8635C129.28 88.7598 128.628 89.6629 127.97 90.5661C125.765 90.3335 124.211 90.3061 123.259 90.4908C122.741 90.1692 122.166 89.9229 121.52 89.7929C121.015 89.6835 120.363 90.2993 120.76 90.8535C122.006 92.5845 123.259 93.4124 124.467 93.604C124.569 93.6724 124.652 93.734 124.761 93.8024C126.327 96.4298 125.912 100.268 125.202 103.074C124.077 107.494 119.673 108.862 117.544 104.695C116.95 103.539 116.502 102.3 115.876 101.151C112.993 95.9303 107.375 105.263 106.16 107.459C104.147 111.079 104.281 115.034 105.968 118.256C103.118 120.774 100.593 123.976 99.5124 126.364C98.413 128.8 98.1509 134.575 99.0777 139.693C93.9066 149.874 94.3476 164.461 103.731 170.475C104.383 170.893 104.946 169.839 104.319 169.401C96.4506 163.921 96.2205 154.951 98.3554 146.165C98.7198 144.838 99.1736 143.558 99.6658 142.286C101.098 147.356 103.942 150.914 108.615 148.177C113.274 145.46 115.537 141.259 114.169 135.642Z" fill="#333333"/>
<path fill-rule="evenodd" clip-rule="evenodd" d="M84.4721 125.933C82.6248 125.482 80.7711 125.03 78.9238 124.578C81.3848 119.994 84.0503 118.756 86.9203 120.747C86.5559 122.485 85.8017 124.229 84.4721 125.933ZM73.3308 102.978C72.8961 104.777 71.7456 105.66 69.8791 105.632C68.9522 104.729 68.019 103.812 67.0921 102.902C68.8947 100.364 70.9849 99.3856 73.3436 99.9262C73.4842 100.939 73.497 101.965 73.3308 102.978ZM58.9742 90.6824C58.1816 89.8546 59.9522 89.1977 61.7292 88.8146C62.036 90.8193 61.122 91.4488 58.9742 90.6824ZM88.4672 120.829C89.8031 112.488 82.139 103.012 75.063 99.5909H75.0566C74.5964 93.3919 68.9331 87.6309 63.1483 87.3093C62.7903 77.2445 53.6177 71.8803 45.3208 70.1903C44.4707 70.0192 44.1127 71.3261 44.9565 71.5929C50.5431 73.2761 57.0375 75.6366 60.144 81.3087C61.1092 83.0877 61.4799 85.284 61.6269 87.364C60.0737 87.5488 58.5396 88.1235 57.1397 89.2798C56.7306 89.6151 56.6731 90.0803 56.9927 90.5114C60.4125 95.2256 62.9373 93.3509 63.1483 88.5614C63.8514 88.4656 64.4203 88.4314 64.6184 88.4656C68.6007 89.2182 71.3876 93.8572 72.7619 97.5383C72.9537 98.0514 73.0943 98.5988 73.2093 99.1393C69.5275 98.3867 64.9572 99.5567 65.7818 104.661C66.3635 108.253 72.666 107.651 74.002 105.024C74.7115 103.635 75.0247 102.198 75.0694 100.761C80.8414 104.497 88.0325 112.057 87.0673 119.83C83.1618 117.305 78.3869 116.149 77.492 121.219C76.8145 125.085 80.0169 131.872 84.3251 128.075C86.4409 126.207 87.6809 124.099 88.2498 121.889C88.4863 122.129 88.7228 122.341 88.9657 122.622C91.2669 124.708 92.2065 128.157 92.9672 131.126C95.3194 140.308 93.3443 151.023 92.1618 160.26C92.0723 160.931 93.0183 161.238 93.127 160.547C94.9487 148.902 97.2626 135.895 92.149 124.838C91.612 123.682 90.2058 122.177 88.4672 120.829Z" fill="#333333"/>
<path fill-rule="evenodd" clip-rule="evenodd" d="M100.292 74.9113C100.082 74.1587 99.0524 74.1381 98.8479 74.9113C97.3777 80.5903 91.6504 84.9761 88.627 77.2718C86.3258 71.4218 92.5709 66.8718 96.9239 65.3528C97.9274 65.0107 99.7427 64.9628 100.439 63.8886C103.616 58.9691 100.491 49.2191 98.2406 44.5254C97.7996 43.5949 96.5148 44.4159 96.943 45.3396C99.0013 49.8144 99.7236 54.4944 99.8834 59.4412C100.037 64.087 97.0645 63.2934 94.725 64.4565C90.6533 66.4818 87.7129 69.2118 86.8372 74.0697C86.0702 78.3187 90.5126 85.5713 95.1724 83.3887C96.7641 82.6429 100.107 79.8924 99.5702 77.956C100.791 82.3555 102.421 96.3135 94.5908 96.0672C93.453 96.0261 92.2001 96.7172 91.1135 97.0387C83.2832 99.3445 94.7314 115.814 97.1859 117.935C97.7484 118.427 98.5602 117.599 97.9977 117.066C97.2946 116.395 85.5332 98.5577 92.181 98.5577C93.8365 98.5577 96.0481 97.8872 97.7101 97.4219C104.831 95.424 101.501 79.2903 100.292 74.9113Z" fill="#333333"/>
<path fill-rule="evenodd" clip-rule="evenodd" d="M173.449 102.718C174.14 102.472 173.859 101.411 173.149 101.562C141.771 108.157 117.851 136.799 111.913 169.784C111.785 170.51 112.789 170.824 112.962 170.092C120.984 135.102 142.071 113.836 173.449 102.718Z" fill="#333333"/>
<path fill-rule="evenodd" clip-rule="evenodd" d="M123.7 47.6592C123.323 47.7961 123.285 48.275 123.598 48.5213C123.994 48.8292 124.48 48.9661 124.985 49.0482C114.937 64.094 108.327 83.553 104.243 101C104.16 101.384 104.658 101.514 104.792 101.165C108.538 90.9357 111.804 80.5562 115.953 70.4914C119.034 63.0061 122.99 56.1161 126.755 49.055C127.094 49.0071 127.427 48.9455 127.727 48.8771C129.357 48.5076 130.687 47.3171 131.703 45.9624C132.227 45.2713 131.345 44.2792 130.776 44.9634C129.919 46.0034 128.961 46.7082 127.772 47.1324C128.213 46.2908 128.654 45.4492 129.082 44.6008C129.274 44.2245 128.782 43.7729 128.507 44.1287C127.669 45.2029 126.864 46.3045 126.071 47.4403C125.266 47.4471 124.454 47.3855 123.7 47.6592Z" fill="#333333"/>
<path fill-rule="evenodd" clip-rule="evenodd" d="M84.2802 97.3741C83.4812 80.6246 72.1417 59.8314 59.7731 49.7119C59.2361 49.2808 58.712 50.1771 59.0955 50.6561C69.9748 64.1624 81.4613 78.8388 83.1935 97.3741C83.2639 98.0994 84.3122 98.1268 84.2802 97.3741Z" fill="#333333"/>
<path fill-rule="evenodd" clip-rule="evenodd" d="M70.288 48.3298C70.8377 47.9466 71.3555 47.5224 71.8732 47.0913C72.3718 46.7834 72.8831 46.5576 73.4009 46.4208C73.4201 46.6534 73.4584 46.8792 73.4776 47.1119C72.8895 48.1792 72.3462 49.2671 71.8604 50.3756C71.6687 50.0677 71.4833 49.7461 71.2915 49.4382C70.94 48.8703 70.1793 49.3561 70.4478 49.9719C70.7226 50.5877 71.0103 51.1966 71.2979 51.8192C71.2915 52.0177 71.3682 52.1887 71.5216 52.305C75.5295 60.8782 80.3938 68.8767 82.4201 78.4009C82.516 78.8662 83.1424 78.6609 83.0721 78.2093C81.6658 68.8425 77.4407 59.7287 72.6594 51.6961C73.1836 50.9434 73.7013 50.1771 74.1935 49.3766C74.6026 49.404 75.082 49.0208 75.0053 48.4461C74.9861 48.3229 74.9797 48.1998 74.9606 48.0766C75.2738 47.5498 75.5806 47.0229 75.881 46.4892C76.5074 46.7082 77.1339 47.0845 77.7347 47.6524C78.278 48.1587 79.3519 47.6866 79.0515 46.8313C78.6424 45.634 78.1118 44.5324 77.543 43.4445C77.8626 42.8492 78.1758 42.2539 78.4954 41.6587C78.9109 40.8992 78.0927 40.0713 77.3895 40.4818C77.006 40.7008 76.6608 40.9813 76.2965 41.2345C75.6893 40.2218 75.0628 39.216 74.4364 38.2034C74.0721 37.6218 73.126 37.7997 73.1452 38.5797C73.1964 40.2971 73.2028 41.9871 73.2539 43.684C72.4741 44.3887 71.6814 45.0797 70.8697 45.7434C70.3327 46.0924 69.8086 46.4892 69.31 46.975C68.6324 47.6319 69.5145 48.8566 70.288 48.3298Z" fill="#333333"/>
<path fill-rule="evenodd" clip-rule="evenodd" d="M53.2406 36.4589C53.3301 33.811 53.899 31.2862 54.992 28.9051C55.5226 27.7488 56.2449 26.743 57.0822 25.833C57.7278 25.1283 58.4373 24.8478 58.8336 23.9514C58.9615 23.6504 58.7953 23.3767 58.5012 23.3425C56.3535 23.0551 54.5318 26.3599 53.6625 28.0704C52.3777 30.6088 51.8983 33.5988 51.8855 36.4589C51.8791 37.3962 53.2086 37.3894 53.2406 36.4589Z" fill="#333333"/>
<path fill-rule="evenodd" clip-rule="evenodd" d="M55.4842 32.9418C55.1263 33.715 56.1682 34.3855 56.5709 33.626C57.3379 32.1413 58.2839 30.8276 59.5624 29.8081C60.2335 29.2676 60.9942 28.9528 61.8379 28.9049C62.4388 28.8707 62.9437 29.0418 63.5382 28.857C63.7491 28.7886 63.8322 28.5355 63.7364 28.337C62.9374 26.6744 60.7768 27.3039 59.524 27.9334C57.6639 28.8707 56.3535 31.0397 55.4842 32.9418Z" fill="#333333"/>
<path fill-rule="evenodd" clip-rule="evenodd" d="M57.3507 38.6619C58.7825 37.4987 60.3166 36.7187 62.0808 36.2945C64.1007 35.8018 65.5709 36.8145 67.22 37.8613C67.4885 38.0324 67.8592 37.745 67.757 37.4166C66.1525 32.0592 59.198 35.1792 56.5453 37.5466C55.9764 38.0598 56.7498 39.1408 57.3507 38.6619Z" fill="#333333"/>
<path fill-rule="evenodd" clip-rule="evenodd" d="M63.4422 42.2882C64.6311 42.9998 65.5068 44.1151 66.6574 44.8677C67.009 45.0935 67.5523 44.7172 67.3925 44.2587C66.3186 41.2961 62.8222 40.044 60.1439 39.5377C59.3833 39.394 59.0445 40.5914 59.8179 40.7966C61.0963 41.1387 62.2916 41.5972 63.4422 42.2882Z" fill="#333333"/>
<path fill-rule="evenodd" clip-rule="evenodd" d="M56.4556 42.3566C55.8868 41.7682 55.0494 42.6713 55.5927 43.2803C56.3981 44.1698 57.1971 45.0729 57.9066 46.0513C58.4691 46.8382 58.923 48.3024 59.869 48.5624C60.1119 48.6308 60.3228 48.4803 60.4059 48.234C60.7511 47.235 59.7539 46.1677 59.2106 45.4287C58.3924 44.3134 57.4081 43.335 56.4556 42.3566Z" fill="#333333"/>
<path fill-rule="evenodd" clip-rule="evenodd" d="M52.3904 59.0582C55.906 56.1435 55.7079 51.2308 54.1227 47.2214C53.8286 46.4824 52.6397 47.0229 52.9082 47.7687C54.2952 51.6756 53.7903 55.0077 51.6681 58.4561C51.3485 58.9693 52.0133 59.373 52.3904 59.0582Z" fill="#333333"/>
<path fill-rule="evenodd" clip-rule="evenodd" d="M46.1964 50.9709C47.3022 50.4852 48.1396 49.6094 48.6893 48.4804C49.092 47.6525 47.9478 46.9272 47.5259 47.7483C47.0145 48.7199 46.3114 49.322 45.327 49.6778C44.5664 49.9515 43.6332 49.8899 42.962 50.3962C42.7127 50.5878 42.6999 50.9367 42.962 51.1215C43.8633 51.7783 45.2695 51.3815 46.1964 50.9709Z" fill="#333333"/>
<path fill-rule="evenodd" clip-rule="evenodd" d="M44.4578 43.3824C45.1737 42.9926 44.5473 41.9118 43.8377 42.247C42.994 42.6437 42.163 42.8421 41.2426 42.801C40.3605 42.7668 39.6382 42.1102 38.7944 41.9529C38.5515 41.905 38.3278 42.1033 38.3917 42.3838C39.0373 45.154 42.8022 44.2853 44.4578 43.3824Z" fill="#333333"/>
<path fill-rule="evenodd" clip-rule="evenodd" d="M42.0097 38.6822C42.764 38.9491 43.0516 37.7175 42.3293 37.4164C39.3506 36.178 38.8073 33.5096 38.1809 30.4991C38.0786 30.0133 37.3435 29.9996 37.254 30.4991C36.6084 34.2143 38.7625 37.5191 42.0097 38.6822Z" fill="#333333"/>
<path fill-rule="evenodd" clip-rule="evenodd" d="M46.1581 35.0698C45.1354 33.2292 44.5282 31.2997 44.1638 29.2061C43.8378 27.3382 44.2533 25.4908 44.004 23.6502C43.9465 23.2739 43.5054 23.3218 43.3456 23.5545C41.0828 26.8524 43.2625 32.7571 45.1098 35.7266C45.5381 36.4245 46.5608 35.795 46.1581 35.0698Z" fill="#333333"/>
<path fill-rule="evenodd" clip-rule="evenodd" d="M48.2034 30.4582C47.9605 29.2951 47.871 28.1388 47.8838 26.9551C47.8902 25.8398 48.0884 24.7587 47.9286 23.6503C47.8774 23.3287 47.4747 23.3561 47.3341 23.5682C46.0749 25.5045 46.5479 28.6588 47.0273 30.8072C47.2063 31.6282 48.3696 31.2793 48.2034 30.4582Z" fill="#333333"/>
<path fill-rule="evenodd" clip-rule="evenodd" d="M133.288 35.7198C131.677 36.8487 131.952 40.085 132.438 41.9871C132.489 42.165 132.591 42.3224 132.732 42.4387C129.728 40.7008 129.12 35.7403 133.288 35.7198ZM133.659 38.0187C133.851 37.1771 134.771 36.8898 135.397 36.4861C135.979 36.9924 136.407 37.6903 136.491 38.4703C136.657 40.1329 135.129 40.7008 133.831 40.8514C133.614 39.9208 133.441 38.9561 133.659 38.0187ZM132.527 44.1219C133.314 44.464 133.889 43.0066 133.109 42.6508C132.975 42.5893 132.86 42.514 132.738 42.4456C132.879 42.555 133.045 42.6235 133.218 42.6166C135.538 42.5482 137.954 41.5219 138.089 38.7098C138.191 36.3561 136.165 34.5087 134.183 34.0913C133.544 33.9545 132.892 33.9545 132.265 34.0708C132.323 33.9476 132.355 33.804 132.329 33.6329C131.971 31.594 132.054 29.5618 132.47 27.5434C132.924 25.3676 134.234 23.8144 135.071 21.8576C135.25 21.4471 134.886 21.0023 134.49 21.2281C130.565 23.4929 130.182 29.9382 131.14 33.9887C131.179 34.1529 131.262 34.2555 131.358 34.3308C129.977 34.8782 128.865 36.0482 128.628 37.745C128.232 40.605 130.169 43.1161 132.527 44.1219Z" fill="#333333"/>
<path fill-rule="evenodd" clip-rule="evenodd" d="M134.803 31.8675C135.353 29.8149 136.107 27.8854 137.258 26.1338C138.472 24.2796 140.351 23.7938 141.892 22.4322C142.096 22.2544 141.988 21.837 141.726 21.7822C139.616 21.3307 137.641 23.1712 136.382 24.7859C134.886 26.6949 134.132 29.1307 133.614 31.5186C133.435 32.3465 134.586 32.6954 134.803 31.8675Z" fill="#333333"/>
<path fill-rule="evenodd" clip-rule="evenodd" d="M139.623 32.1881C140.767 31.0732 142.007 30.3618 143.573 30.3139C145.132 30.266 146.123 31.5178 147.478 32.0445C147.734 32.1471 147.964 31.8461 147.9 31.593C147.498 29.8419 145.606 28.7817 144.001 28.7133C141.917 28.6175 140.147 29.6709 138.696 31.1963C138.088 31.8324 139.003 32.79 139.623 32.1881Z" fill="#333333"/>
<path fill-rule="evenodd" clip-rule="evenodd" d="M142.62 34.967C144.097 35.0628 145.452 35.5349 146.609 36.5476C147.772 37.5602 148.373 39.086 149.134 40.427C149.37 40.8513 150.054 40.7007 150.029 40.167C149.85 36.0549 146.181 33.6465 142.62 33.7149C141.86 33.7286 141.873 34.9191 142.62 34.967Z" fill="#333333"/>
<path fill-rule="evenodd" clip-rule="evenodd" d="M145.261 46.6193C145.318 46.934 145.753 46.9819 145.887 46.7083C147.332 43.7251 145.561 40.2356 143.554 38.1145C142.985 37.5056 142.141 38.4156 142.678 39.0451C143.573 40.0919 144.238 41.214 144.666 42.5688C145.075 43.8688 145.011 45.2783 145.261 46.6193Z" fill="#333333"/>
<path fill-rule="evenodd" clip-rule="evenodd" d="M135.947 53.6802C135.775 53.8992 135.858 54.3371 136.19 54.3029C140.824 53.8308 142.659 47.7481 141.259 43.6976C140.978 42.8765 139.776 43.1981 140.025 44.0602C140.569 45.9555 140.524 47.7276 139.687 49.5065C138.83 51.3197 137.111 52.1818 135.947 53.6802Z" fill="#333333"/>
<path fill-rule="evenodd" clip-rule="evenodd" d="M135.135 45.8325C134.554 47.5088 133.697 48.932 132.572 50.2525C131.645 51.3335 130.124 51.9562 129.434 53.2083C129.28 53.4888 129.485 53.783 129.753 53.8104C131.326 53.9335 132.873 52.1409 133.831 50.9914C134.969 49.6298 135.724 47.8851 136.254 46.1609C136.491 45.3877 135.391 45.0935 135.135 45.8325Z" fill="#333333"/>
<path fill-rule="evenodd" clip-rule="evenodd" d="M125.483 44.0535C126.359 43.8756 125.976 42.5004 125.119 42.6372C124.141 42.8014 123.163 42.6098 122.409 41.8982C121.725 41.2551 121.603 40.2356 121.233 39.4009C121.047 38.9835 120.549 39.1751 120.421 39.5103C119.922 40.824 120.619 42.2746 121.539 43.164C122.62 44.1972 124.122 44.3272 125.483 44.0535Z" fill="#333333"/>
<path fill-rule="evenodd" clip-rule="evenodd" d="M121.507 31.4845C120.766 32.8324 121.482 34.7208 122.179 35.9319C122.952 37.2866 124.275 38.1556 125.624 38.7303C126.308 39.0245 126.806 37.7656 126.129 37.4371C125.029 36.9171 124.128 36.2124 123.438 35.145C122.722 34.0229 122.831 32.5861 122.172 31.4845C122.012 31.2245 121.654 31.204 121.507 31.4845Z" fill="#333333"/>
<path fill-rule="evenodd" clip-rule="evenodd" d="M45.6722 41.6109C46.0238 43.8415 48.0053 45.1346 49.9229 45.5862C50.7092 45.771 51.0416 44.512 50.2553 44.2862C49.0089 43.9167 47.756 43.1778 47.2447 41.8299C46.7717 40.5709 47.5962 39.613 48.6445 39.182C49.8462 38.6825 51.9237 38.4157 52.761 39.743C53.5472 40.9951 51.9237 41.8231 51.2269 42.4457C50.869 42.7673 51.1886 43.3146 51.5721 43.342C53.445 43.4857 54.8129 41.3646 54.3015 39.5241C53.6239 37.0541 50.7219 37.0336 48.8427 37.4578C47.0146 37.8683 45.3398 39.4625 45.6722 41.6109Z" fill="#333333"/>
<path fill-rule="evenodd" clip-rule="evenodd" d="M8.75167 96.2861C9.41005 96.3614 10.0748 96.4435 10.7332 96.5119C10.6757 96.6693 10.6501 96.854 10.714 97.073C10.9633 97.9009 11.0784 98.7151 11.1295 99.5088C10.3241 98.4414 9.5315 97.3672 8.75167 96.2861ZM15.7126 96.9635C16.6714 97.0319 17.6366 97.0798 18.6018 97.1209C18.5443 97.1825 18.4995 97.244 18.442 97.3056C17.4768 97.8667 16.5628 98.5235 15.7062 99.283C15.6934 98.6056 15.6679 97.9214 15.6423 97.244C15.6806 97.1619 15.6998 97.073 15.7126 96.9635ZM18.8191 110.039C19.1132 110.552 19.42 111.058 19.7012 111.578C20.1423 112.399 21.523 111.838 21.1714 110.915C21.1458 110.846 21.1139 110.785 21.0819 110.709C21.0883 110.709 21.0883 110.709 21.0883 110.709C21.0819 110.696 21.0755 110.682 21.0691 110.675C19.9058 107.678 18.4037 104.996 16.55 102.43C16.3902 102.218 16.2368 102.013 16.0961 101.821C17.317 100.802 18.4995 99.7277 19.5926 98.544C20.2254 98.2019 20.8838 97.8872 21.5933 97.6409C22.5329 97.3125 22.143 95.7388 21.1778 96.0467C21.165 96.0467 21.1522 96.0535 21.1395 96.0603C21.0564 95.7182 20.8071 95.4445 20.398 95.4445C18.8191 95.424 17.2467 95.3419 15.6806 95.2393C15.6167 93.9256 15.4761 92.6666 15.1437 91.3393C15.1118 91.2024 15.0351 91.0998 14.9456 91.0177C14.8561 90.5935 14.7985 90.1693 14.6963 89.7451C14.5237 88.9993 13.3475 88.924 13.2325 89.7451C13.0088 91.2777 12.6892 93.1388 12.523 94.993C10.6948 94.8219 8.86672 94.6372 7.0386 94.4251C6.27794 94.343 6.13093 95.3488 6.48888 95.8345C7.95905 97.8598 9.41644 99.9398 10.9505 101.945C10.714 103.019 10.2666 104.011 9.61459 104.9C8.70053 105.68 7.79925 106.474 6.94911 107.343C6.27155 108.041 7.14726 109.225 7.94627 108.725C9.08405 108.014 10.0045 107.145 10.746 106.18C11.4619 105.571 12.1906 104.969 12.9193 104.387C14.7027 106.495 16.6267 108.438 18.8191 110.039Z" fill="#333333"/>
<path fill-rule="evenodd" clip-rule="evenodd" d="M187.857 97.5727C187.857 96.9227 187.876 96.2658 187.927 95.609C188.733 95.4174 189.532 95.2327 190.331 95.0479C189.545 95.9306 188.714 96.7653 187.857 97.5727ZM185.128 100.002C185.025 99.8648 184.91 99.7485 184.808 99.6185C185.294 99.1395 185.645 98.5237 185.869 97.8464C185.876 97.8327 185.882 97.8258 185.882 97.819V97.8121C185.901 97.7437 185.946 97.6821 185.965 97.6069C186.253 96.5874 184.993 96.17 184.469 96.9295C184.412 97.0185 184.361 97.1211 184.303 97.21C184.124 97.169 183.945 97.2032 183.798 97.3058C183.964 97.0321 184.137 96.7653 184.303 96.4848C184.949 96.3342 185.588 96.1769 186.234 96.0195C186.176 97.0253 186.189 98.0311 186.253 99.03C185.876 99.3585 185.505 99.68 185.128 100.002ZM181.069 103.176C180.858 103.334 180.653 103.498 180.442 103.655C181.005 102.465 181.612 101.302 182.232 100.152C182.258 100.268 182.315 100.371 182.398 100.446C181.932 101.343 181.491 102.253 181.069 103.176ZM192.376 92.8037C190.957 93.0842 189.538 93.3921 188.126 93.7205C188.324 92.3658 188.599 91.0111 188.95 89.6632C189.167 88.8421 188.119 88.0963 187.55 88.7942C186.003 90.7237 184.623 92.7695 183.306 94.87C182.475 95.0616 181.644 95.2463 180.807 95.4311C178.633 93.6248 176.128 92.2905 173.021 91.7705C172.005 91.6063 171.564 93.2621 172.593 93.44C174.9 93.8369 176.856 94.7127 178.582 95.9032C177.323 96.1495 176.057 96.389 174.785 96.56C173.846 96.69 173.795 98.2637 174.785 98.1885C176.677 98.0242 178.55 97.7163 180.41 97.3469C180.724 97.6274 181.03 97.9148 181.331 98.2158C179.95 100.713 178.672 103.279 177.528 105.927C177.208 106.659 177.917 107.72 178.672 107.152C180.749 105.605 182.852 104.059 184.891 102.431C186.08 104.032 187.224 105.708 188.42 107.357C188.464 107.418 188.509 107.48 188.547 107.535C189.148 108.363 190.28 107.309 189.851 106.461C188.778 104.326 188.202 102.102 187.972 99.8443C189.851 98.1542 191.628 96.3411 193.188 94.2953C193.725 93.5905 193.226 92.6463 192.376 92.8037Z" fill="#333333"/>
<path fill-rule="evenodd" clip-rule="evenodd" d="M109.561 52.9209C109.938 53.8104 110.334 54.693 110.769 55.562C110.328 55.9588 109.874 56.342 109.407 56.6841C109.439 55.4252 109.503 54.173 109.561 52.9209ZM105.035 66.1468C106.058 64.9426 107.138 63.752 108.218 62.5341C108.225 62.5683 108.231 62.6025 108.231 62.6299C108.468 63.6768 109.874 63.2183 109.714 62.1989C109.644 61.802 109.606 61.4052 109.561 61.0015C109.919 60.591 110.27 60.1736 110.616 59.7494C111.593 59.8589 112.559 60.0915 113.505 60.5225C114.214 60.8441 115.084 60.1531 114.63 59.3252C114.106 58.3673 113.588 57.4231 113.064 56.472C113.626 55.6304 114.163 54.7615 114.63 53.8515C115.058 53.003 113.971 52.0041 113.339 52.7909C112.897 53.3451 112.431 53.872 111.951 54.3852C111.063 52.6472 110.258 50.8751 109.631 48.9799C109.375 48.193 108.327 48.3299 108.289 49.1714C108.161 52.0315 107.771 54.8846 107.758 57.7241C107.464 57.8815 107.151 57.9978 106.844 58.1278C105.668 58.2989 104.486 58.5657 103.309 58.9078C102.415 59.1678 102.574 60.7073 103.527 60.6525C104.856 60.5841 106.077 60.2899 107.228 59.8383C107.432 59.811 107.63 59.7904 107.835 59.7631C107.841 59.8794 107.854 60.0025 107.867 60.1189C106.442 61.7268 105.035 63.3483 103.885 65.1957C103.424 65.9415 104.479 66.8105 105.035 66.1468Z" fill="#333333"/>
<path fill-rule="evenodd" clip-rule="evenodd" d="M63.0396 71.1004C63.7108 71.5451 64.5993 70.6556 64.1454 69.9235C63.5446 68.9656 62.9501 68.0009 62.3493 67.0498C62.6625 66.2835 62.9565 65.5172 63.2442 64.7645C63.551 63.9572 62.394 63.2661 61.8826 63.9161C61.6014 64.2719 61.2882 64.5798 60.9878 64.9082C60.2015 63.6972 59.3898 62.493 58.514 61.3366C58.0538 60.714 57.1014 61.3845 57.3059 62.0893C57.779 63.7519 58.2328 65.4145 58.6483 67.0909C58.041 67.5561 57.4018 67.9735 56.737 68.3498C55.8677 68.6167 54.9984 69.0203 54.1227 69.6019C53.3557 70.1082 53.8542 71.5588 54.7619 71.2098C54.8258 71.1825 54.8897 71.1414 54.9537 71.1209C54.9601 71.1209 54.9601 71.1209 54.9601 71.1209C55.7655 70.7993 56.5389 70.4367 57.2868 70.0193C57.9324 69.8346 58.5652 69.7525 59.2044 69.7661C58.7569 70.7172 58.3095 71.6614 57.9068 72.633C57.5361 73.5088 58.5588 74.1383 59.0957 73.3788C59.3386 73.023 59.5559 72.6398 59.7797 72.2704C60.0545 73.153 61.3649 72.7151 61.2179 71.7298C61.1412 71.2098 61.0325 70.6967 60.9366 70.1904C60.9558 70.1493 60.9686 70.1219 60.9878 70.0877C61.6653 70.3135 62.3429 70.6488 63.0396 71.1004Z" fill="#333333"/>
<path fill-rule="evenodd" clip-rule="evenodd" d="M22.8718 100.966C22.1815 100.877 22.0728 102.047 22.712 102.232C52.2305 110.641 84.2355 133.021 82.4905 169.935C82.4393 170.982 83.9223 170.961 83.9926 169.935C86.3001 135.252 53.3491 104.716 22.8718 100.966Z" fill="#333333"/>
<path fill-rule="evenodd" clip-rule="evenodd" d="M40.4373 96.7652C48.3187 101.644 55.4587 106.433 61.953 113.378C67.7378 119.57 72.5957 126.638 77.9203 133.261C78.3742 133.829 79.0773 133.022 78.6682 132.461C68.492 118.427 57.242 101.719 40.8145 95.8141C40.2839 95.6157 39.9643 96.4709 40.4373 96.7652Z" fill="#333333"/>
<path fill-rule="evenodd" clip-rule="evenodd" d="M36.1355 100.973C36.7747 100.111 37.2605 99.078 37.644 97.9627C38.1618 98.7564 38.6604 99.5638 39.1206 100.385C39.5616 101.172 40.7058 100.46 40.2711 99.6596C39.6192 98.4485 38.8905 97.3059 38.1234 96.2043C38.2896 95.438 38.4111 94.6443 38.4942 93.8506C38.9672 93.7138 39.4274 93.5427 39.9132 93.4538C40.7953 93.2895 40.5971 92.0306 39.9132 91.7569C39.4977 91.5927 39.0694 91.4559 38.6476 91.3122C38.654 90.2859 38.6156 89.2869 38.5325 88.3701C38.443 87.3711 37.2605 87.1932 36.9281 88.1374C36.6469 88.9311 36.3592 89.7453 36.0524 90.5459C34.7037 90.2106 33.3422 89.9438 31.9807 89.6974C31.1369 89.5401 30.6447 90.6622 31.3926 91.1959C32.4473 91.9416 33.3933 92.8311 34.301 93.7753C32.6646 94.829 31.2264 96.2385 30.0694 97.9833C29.5261 98.8043 30.5361 99.5022 31.2072 99.2011C33.144 98.3254 34.5183 96.8885 35.5986 95.1848C35.8415 95.4859 36.0652 95.7938 36.2953 96.1017C35.899 97.5864 35.3365 99.0164 35.1767 100.549C35.1255 101.055 35.8415 101.37 36.1355 100.973Z" fill="#333333"/>
<path fill-rule="evenodd" clip-rule="evenodd" d="M164.104 137.318C164.935 138.269 166.022 139.015 167.172 139.426C168.061 139.754 168.406 138.29 167.556 137.941C166.981 137.708 166.463 137.407 165.996 137.024C166.425 136.963 166.425 136.176 165.996 136.107C165.683 136.059 165.357 136.032 165.038 135.991C164.916 135.827 164.788 135.663 164.68 135.471C164.04 134.356 164.034 132.926 163.868 131.667C163.817 131.229 163.152 131.154 162.986 131.544C162.359 133.069 162.532 134.54 163.139 135.827C143.79 134.657 120.146 150.093 116.675 170.79C116.509 171.775 117.909 172.206 118.094 171.207C122.415 147.732 144.819 140.37 164.104 137.318Z" fill="#333333"/>
<path fill-rule="evenodd" clip-rule="evenodd" d="M35.5792 133.733C34.1858 132.645 32.4919 131.934 30.9642 131.66C30.1524 131.516 29.788 132.81 30.6126 133.001C31.9677 133.316 33.1311 133.911 34.2497 134.76C35.4642 135.676 36.2504 136.997 37.3307 138.037C37.7206 138.42 38.3981 138.057 38.2447 137.476C37.9954 136.552 37.516 135.738 36.9152 135.02C57.3186 135.444 72.6339 148.759 77.1148 170.674C77.3129 171.645 78.6169 171.208 78.4827 170.263C75.5999 149.545 56.0913 129.32 35.5792 133.733Z" fill="#333333"/>
<path fill-rule="evenodd" clip-rule="evenodd" d="M29.7114 119.208C29.8009 118.906 29.558 118.674 29.3023 118.64C27.896 118.462 26.6816 120.35 26.1766 121.554C25.5502 123.046 25.6397 124.674 26.1958 126.166C26.5026 126.987 27.7362 126.672 27.4678 125.79C27.0779 124.503 27.0715 123.265 27.6404 122.047C28.1581 120.932 29.3598 120.364 29.7114 119.208Z" fill="#333333"/>
<path fill-rule="evenodd" clip-rule="evenodd" d="M30.4143 127.035C30.4846 125.701 30.9129 124.538 31.795 123.58C32.5684 122.745 33.6103 122.752 34.5244 122.239C34.8632 122.047 34.8951 121.418 34.5244 121.24C33.214 120.59 31.6991 121.493 30.7339 122.451C29.5642 123.6 29.1615 125.4 29.1806 127.035C29.1998 127.89 30.3632 127.876 30.4143 127.035Z" fill="#333333"/>
<path fill-rule="evenodd" clip-rule="evenodd" d="M31.6225 129.771C32.5685 129.094 33.5529 128.601 34.6971 128.499C35.8157 128.389 36.653 129.101 37.7141 129.142C38.1232 129.162 38.2766 128.697 38.136 128.362C37.6438 127.151 36.2056 126.905 35.087 126.843C33.5976 126.761 32.0955 127.609 30.9449 128.533C30.2674 129.073 30.8938 130.304 31.6225 129.771Z" fill="#333333"/>
<path fill-rule="evenodd" clip-rule="evenodd" d="M30.6381 136.997C29.8903 136.477 29.2383 137.722 29.9478 138.263C33.5529 140.993 33.342 145.276 31.5394 149.135C31.3988 149.436 31.7312 149.703 31.9741 149.491C36.0138 145.926 34.6843 139.823 30.6381 136.997Z" fill="#333333"/>
<path fill-rule="evenodd" clip-rule="evenodd" d="M27.244 142.922C27.1162 144.516 26.4195 145.81 25.1283 146.624C23.8882 147.404 22.5267 146.802 21.2739 147.246C20.9607 147.363 20.8584 147.753 21.0821 148.013C22.2966 149.436 24.8342 148.745 26.1702 147.903C27.8002 146.87 28.4394 144.852 28.3946 142.922C28.3754 142.122 27.3016 142.142 27.244 142.922Z" fill="#333333"/>
<path fill-rule="evenodd" clip-rule="evenodd" d="M19.8995 142.272C19.0238 142.238 18.1544 142.197 17.2851 142.053C16.5181 141.923 15.8469 141.478 15.0927 141.335C14.6963 141.26 14.2169 141.711 14.511 142.142C15.6679 143.852 18.1672 143.633 19.8995 143.578C20.6921 143.551 20.6921 142.299 19.8995 142.272Z" fill="#333333"/>
<path fill-rule="evenodd" clip-rule="evenodd" d="M15.9429 135.854C14.8243 135.806 13.7888 135.553 12.9962 134.657C12.2355 133.788 12.5104 132.344 11.737 131.537C11.6027 131.4 11.379 131.386 11.2448 131.537C10.3051 132.591 11.0722 134.671 11.8137 135.628C12.83 136.942 14.4152 137.298 15.9429 137.284C16.8059 137.277 16.7995 135.888 15.9429 135.854Z" fill="#333333"/>
<path fill-rule="evenodd" clip-rule="evenodd" d="M17.9054 131.763C17.2789 130.777 16.7612 129.758 16.4096 128.608C16.0261 127.356 16.301 125.988 15.8663 124.791C15.7576 124.503 15.3677 124.291 15.144 124.585C13.4181 126.816 15.5211 130.805 16.8379 132.7C17.0297 132.974 17.3109 133.049 17.5666 133.001C16.9529 136.511 20.4941 139.063 23.1852 139.912C24.0225 140.172 24.3549 138.824 23.5431 138.523C21.3379 137.722 18.5573 135.676 19.1774 132.81C19.5929 130.894 21.3571 129.635 23.0957 129.744C24.3613 129.826 25.6525 130.702 26.3237 131.824C27.1419 133.2 26.2022 134.253 25.1348 134.931C24.7385 134.034 24.7896 132.953 24.1887 132.125C23.9522 131.797 23.524 131.913 23.4792 132.331C23.3066 133.897 23.3258 135.389 24.2974 136.627C24.5403 136.935 24.943 136.908 25.2434 136.764C27.1547 135.827 28.791 134.014 27.9601 131.626C27.225 129.512 25.0836 128.321 23.0957 128.075C20.7882 127.787 18.7747 129.573 17.9054 131.763Z" fill="#333333"/>
<path fill-rule="evenodd" clip-rule="evenodd" d="M20.7306 121.739C20.7306 121.452 20.4557 121.322 20.2256 121.431C18.0843 122.519 18.4934 126.091 19.3115 127.938C19.6887 128.793 20.8392 128.047 20.4877 127.192C20.053 126.118 20.0019 125.064 20.2448 123.928C20.411 123.176 20.7306 122.533 20.7306 121.739Z" fill="#333333"/>
<path fill-rule="evenodd" clip-rule="evenodd" d="M173.117 126.303C172.868 127.124 174.031 127.637 174.402 126.884C175.015 125.666 175.719 124.599 176.818 123.819C177.822 123.107 179.177 122.936 180.34 122.704C180.692 122.635 180.768 122.04 180.442 121.876C177.419 120.33 174.057 123.244 173.117 126.303Z" fill="#333333"/>
<path fill-rule="evenodd" clip-rule="evenodd" d="M187.154 127.52C187.486 127.527 187.736 127.096 187.55 126.788C185.914 124.107 181.395 124.777 179.042 125.741C178.16 126.097 178.531 127.622 179.439 127.267C180.672 126.795 181.881 126.576 183.197 126.617C184.597 126.658 185.799 127.486 187.154 127.52Z" fill="#333333"/>
<path fill-rule="evenodd" clip-rule="evenodd" d="M186.016 130.64C185.255 130.148 184.597 131.393 185.326 131.906C186.598 132.796 187.537 133.931 188.279 135.348C188.899 136.538 189.078 137.886 189.87 138.96C190.049 139.2 190.401 139.036 190.471 138.789C191.392 135.669 188.279 132.105 186.016 130.64Z" fill="#333333"/>
<path fill-rule="evenodd" clip-rule="evenodd" d="M185.083 136.408C185.767 137.496 186.202 138.632 186.47 139.912C186.681 140.938 186.457 142.033 186.809 143.025C186.905 143.299 187.205 143.415 187.41 143.196C189.212 141.301 187.467 137.394 186.266 135.67C185.748 134.931 184.578 135.615 185.083 136.408Z" fill="#333333"/>
<path fill-rule="evenodd" clip-rule="evenodd" d="M182.596 142.04C182.974 143.545 182.852 144.838 182.187 146.227C181.58 147.486 180.506 148.355 179.797 149.539C179.579 149.908 179.95 150.503 180.366 150.325C183.447 148.991 184.776 144.934 183.798 141.684C183.555 140.876 182.392 141.205 182.596 142.04Z" fill="#333333"/>
<path fill-rule="evenodd" clip-rule="evenodd" d="M177.809 146.165C176.856 147.322 175.808 148.266 174.53 148.978C173.315 149.655 171.973 149.47 170.714 149.901C170.349 150.018 170.298 150.517 170.611 150.736C173.449 152.706 177.067 149.34 178.691 147.103C179.17 146.446 178.352 145.502 177.809 146.165Z" fill="#333333"/>
<path fill-rule="evenodd" clip-rule="evenodd" d="M171.621 146.938C170.337 147.349 169.071 147.581 167.729 147.526C166.297 147.458 165.338 146.391 164.021 146.152C163.682 146.09 163.35 146.37 163.446 146.767C163.791 148.19 165.344 148.765 166.565 149.066C168.361 149.517 170.298 149.045 172.011 148.443C172.9 148.135 172.535 146.651 171.621 146.938Z" fill="#333333"/>
<path fill-rule="evenodd" clip-rule="evenodd" d="M164.513 138.749C164.379 138.701 164.168 138.749 164.072 138.872C163.35 139.877 164.379 141.225 165.095 141.91C166.079 142.854 167.39 143.353 168.649 143.695C169.582 143.949 169.972 142.423 169.045 142.156C168.022 141.855 167.019 141.465 166.194 140.733C165.555 140.165 165.299 139.043 164.513 138.749Z" fill="#333333"/>
<path fill-rule="evenodd" clip-rule="evenodd" d="M168.131 128.218C167.128 128.8 167.236 130.223 167.243 131.27C167.249 132.118 168.464 132.118 168.47 131.27C168.483 130.401 168.553 129.587 168.777 128.752C168.892 128.335 168.464 128.027 168.131 128.218Z" fill="#333333"/>
<path fill-rule="evenodd" clip-rule="evenodd" d="M176.185 135.95C176.588 135.485 176.185 134.78 175.623 134.917C174.127 135.273 172.44 136.737 172.427 138.502C172.408 139.946 173.724 140.828 174.837 141.26C177.534 142.32 181.593 141.328 182.04 137.825C182.705 132.727 177.751 129.32 173.59 131.386C171.647 132.351 170.081 134.109 169.525 136.354C168.879 138.974 170.26 141.369 172.114 142.95C172.382 143.182 172.663 143.381 172.945 143.579C173.712 144.14 174.389 142.833 173.66 142.265C172.088 141.061 170.65 139.282 170.963 137.065C171.206 135.396 172.369 134.055 173.66 133.206C176.825 131.126 180.653 133.302 180.513 137.387C180.43 139.85 177.451 140.172 175.751 139.734C175.143 139.576 174.249 139.248 174.07 138.523C173.852 137.606 175.738 136.456 176.185 135.95Z" fill="#333333"/>
<path fill-rule="evenodd" clip-rule="evenodd" d="M83.724 8.23486C82.9378 11.4643 82.1388 15.4944 82.5415 19.0181C82.5287 19.0044 82.5223 18.9907 82.5159 18.977C79.7673 14.1122 79.9591 5.90854 87.1693 7.40696C87.6551 7.5096 88.1409 7.67381 88.6203 7.8517C88.3774 7.8996 88.1537 8.05697 88.1217 8.38539C87.8213 11.4712 87.4761 14.5365 87.0607 17.6017C86.7602 19.7981 86.2169 21.967 85.9612 24.1702C85.143 23.0686 84.3568 21.9533 83.6217 20.7833C83.9861 19.2917 83.9605 17.7591 84.0052 16.2128C84.082 13.6333 84.2609 11.0675 84.7403 8.53592C84.8746 7.83118 83.8966 7.53012 83.724 8.23486ZM94.5521 12.0596C93.1778 16.158 91.6629 20.1881 90.3334 24.307C90.0777 25.1075 89.3938 26.6949 89.8732 27.5707C90.3014 28.3507 91.0109 27.6528 91.1452 27.0712C91.1643 26.9891 91.1452 26.9207 91.1324 26.8523C91.1452 26.8318 91.1643 26.8181 91.1771 26.7976C91.3625 26.4281 91.452 25.997 91.567 25.5933C91.9953 24.0675 92.4683 22.5623 92.9413 21.0502C93.7787 18.4023 94.5905 15.7407 95.3895 13.0654C95.6899 13.4554 95.9648 13.8523 96.2332 14.2559C95.3064 17.6086 94.2709 20.9133 93.2098 24.2249C92.6665 25.9012 91.5031 28.077 90.947 30.0749C89.9307 28.9802 88.9399 27.8718 87.9875 26.7223C88.7609 24.7586 89.4001 22.7402 89.9754 20.7081C89.9818 20.6875 89.9882 20.6807 89.9946 20.667C89.9946 20.6602 89.9946 20.6533 89.9946 20.6465C90.5379 18.7238 91.0621 16.7944 91.6821 14.8991C91.9186 14.1807 90.8767 13.8933 90.6338 14.5912C89.5663 17.6086 88.6587 20.6944 87.5912 23.7118C87.3227 24.2523 87.0798 24.7997 86.8497 25.3607L86.8433 25.3539C88.9527 20.3181 88.8568 13.7428 89.2467 8.38539C89.2595 8.23486 89.202 8.14591 89.1381 8.05697C91.126 8.89855 92.9989 10.3354 94.5521 12.0596ZM97.1984 15.9323C97.4286 16.3975 97.6331 16.8628 97.8121 17.3349C96.2588 21.837 93.9385 27.5707 93.5805 32.7913C93.1778 32.3876 92.7624 31.9839 92.3661 31.5665C93.4016 29.8765 93.8746 27.2902 94.4115 25.6481C95.4662 22.4596 96.3547 19.2028 97.1984 15.9323ZM98.4193 36.1439C99.0266 35.2134 99.5699 34.2418 100.062 33.236C100.222 33.2497 100.388 33.2018 100.484 33.017C103.674 27.037 104.76 19.7296 107.138 13.3391C107.458 12.4907 106.179 12.128 105.853 12.9696C105.745 13.2707 105.63 13.5854 105.514 13.8933C105.847 12.3265 106.186 10.787 106.556 9.30908C108.097 7.61907 109.829 5.54591 110.264 3.17853C110.264 3.158 110.257 3.14432 110.257 3.12379C110.449 3.05537 110.647 2.96642 110.845 2.91169C115.288 1.598 115.077 7.35223 114.642 10.2807C113.69 16.8081 110.366 22.6444 106.55 28.0976C107.253 26.2912 107.88 24.4439 108.461 22.576C108.608 22.576 108.755 22.5417 108.845 22.3912C110.692 19.4696 111.977 16.0965 113.421 12.9286C113.741 12.2307 112.776 11.6149 112.443 12.3196C111.606 14.0712 110.705 15.8159 109.867 17.5949C110.999 13.3254 111.964 9.01486 113 4.84801C113.198 4.06116 112.086 3.73958 111.868 4.51274C109.005 14.8786 106.282 24.9639 101.782 34.5976C100.867 35.8086 99.9726 37.006 99.1224 38.1897C98.5855 37.6902 98.0678 37.1771 97.5372 36.6707C97.6139 36.4929 97.6651 36.3013 97.7354 36.1302C97.8632 36.3697 98.2403 36.4244 98.4193 36.1439ZM99.7169 15.9938C100.548 11.8133 102.734 8.59065 105.713 5.84012C106.755 4.88222 107.943 4.10906 109.203 3.53432C107.943 5.12854 106.921 6.92117 105.54 8.4196C105.412 8.56328 105.367 8.71381 105.361 8.86434C103.61 15.1454 101.743 21.4128 99.9598 27.6939C100.72 23.1986 101.059 18.5596 101.551 14.2149C101.622 13.6196 100.663 13.4828 100.573 14.0712C100.42 15.1044 100.241 16.117 100.075 17.1365C99.9214 16.8149 99.4612 16.7123 99.1992 16.9654C99.1736 16.938 99.1672 16.8902 99.1416 16.8696C99.1033 16.7465 99.0713 16.6165 99.0266 16.4865C99.327 16.5138 99.6466 16.3633 99.7169 15.9938ZM95.4854 34.6934C95.3895 34.5976 95.2872 34.5018 95.1913 34.406C95.7027 32.1823 95.92 29.8012 96.425 27.6118C96.5465 27.0849 96.7063 26.5649 96.8341 26.0381C96.2205 28.9186 95.741 31.8334 95.4854 34.6934ZM86.1658 27.2902C86.1146 27.4612 86.0507 27.6118 86.006 27.7828C85.8014 28.5218 86.7155 29.0486 87.1821 28.5902C89.1445 31.067 91.3241 33.4823 93.6189 35.6718C93.6509 35.9797 93.6445 36.2944 93.6956 36.5886C93.7787 37.1018 94.4179 36.9786 94.5585 36.5886C94.5649 36.5818 94.5649 36.575 94.5649 36.5681C94.8142 36.7939 95.0699 37.006 95.3256 37.2318C95.3 37.8613 95.2744 38.4908 95.2808 39.1065C95.2808 39.435 95.7602 39.6265 95.9009 39.2913C96.0543 38.9013 96.1693 38.4908 96.3099 38.0939C96.9236 38.6071 97.5372 39.086 98.1636 39.5444C98.1061 39.6334 98.0422 39.7155 97.9847 39.7976C97.4989 40.5023 98.5152 41.2208 99.0649 40.6871C99.1672 40.5844 99.2695 40.4681 99.3717 40.3723C99.8959 40.5365 100.394 39.955 100.267 39.435C105.636 33.7902 110.002 26.1476 113.345 19.1344C115.179 15.2891 118.765 6.68854 115.339 2.70642C109.484 -4.09465 99.5955 9.00802 98.496 15.2001C98.2723 14.7349 98.023 14.2765 97.7418 13.818C97.8249 13.3733 97.5244 13.0722 97.1857 13.0107C92.6026 6.41486 82.4008 1.07116 79.256 10.6433C77.5685 15.7612 81.9598 21.5496 84.6381 25.2512C85.1302 25.9286 85.6416 26.606 86.1658 27.2902Z" fill="#333333"/>
<path fill-rule="evenodd" clip-rule="evenodd" d="M86.0893 21.3306C86.8308 19.6748 86.8564 17.718 87.0481 15.9048C87.2719 13.7632 87.3422 11.5943 87.3294 9.44585C87.323 8.58374 86.1085 8.59059 86.0829 9.44585C86.0318 11.3343 85.8784 13.2022 85.6739 15.0769C85.4565 17.0817 84.926 19.2233 85.2967 21.2212C85.367 21.6043 85.9295 21.6864 86.0893 21.3306Z" fill="#333333"/>
<path fill-rule="evenodd" clip-rule="evenodd" d="M14.9394 65.613C15.8151 66.6393 16.6716 67.693 17.5345 68.7467C18.2632 69.6293 19.107 71.0114 20.1489 71.6272C19.9763 71.6067 19.8101 71.6067 19.6375 71.5793C17.5345 71.2646 15.5019 69.5198 14.7604 67.3714C14.543 66.7419 14.6581 66.1604 14.9394 65.613ZM16.2689 64.0598C16.2753 64.2104 16.3264 64.3746 16.4543 64.5182C17.7902 65.9961 19.1325 67.4741 20.5068 68.9109C21.4145 69.8551 22.4692 71.1209 23.6773 71.723C22.8719 71.7709 22.0601 71.7777 21.2355 71.723C21.3186 71.6067 21.3698 71.4562 21.3314 71.2851C21.0821 69.9851 19.7398 68.9177 18.9344 67.953C17.9308 66.7556 16.8889 65.5788 15.8215 64.443C15.9621 64.3061 16.1155 64.183 16.2689 64.0598ZM18.308 62.6435C18.3591 62.6161 18.4102 62.5956 18.4614 62.5614C19.6055 64.1009 20.7242 65.6472 21.8875 67.1662C22.9614 68.5756 24.2654 70.4983 25.8442 71.4493C25.5054 71.4972 25.173 71.5862 24.8342 71.6204C24.8918 71.463 24.9046 71.292 24.8279 71.1209C24.1695 69.773 22.6482 68.7672 21.5999 67.7409C20.1872 66.3451 18.7938 64.9219 17.4131 63.4919C17.3492 63.4235 17.2788 63.3825 17.2085 63.3482C17.6176 63.0677 18.0075 62.8282 18.308 62.6435ZM21.2867 61.193C21.2611 61.2956 21.2547 61.4051 21.3058 61.5282C22.0281 63.3961 22.8591 65.1888 23.8499 66.913C23.9138 67.0156 23.9841 67.1319 24.048 67.2414C23.6517 66.8377 23.2746 66.4409 22.9422 66.0372C21.83 64.6756 20.7242 63.314 19.6183 61.9456C20.1681 61.6719 20.7242 61.4324 21.2867 61.193ZM22.8399 60.5772C23.9521 62.6025 25.0132 64.6619 26.1127 66.694C26.5409 67.4946 26.9692 68.3498 27.4358 69.1641C26.6879 68.1309 25.7867 67.1661 25.1027 66.1261C24.0544 64.5182 23.1723 62.8077 22.3989 61.0356C22.3541 60.933 22.2966 60.8714 22.2263 60.8167C22.4308 60.7414 22.6354 60.6524 22.8399 60.5772ZM25.0963 59.633C25.9465 61.6035 26.9436 63.4919 28.0367 65.3256C29.0274 66.9883 30.0246 68.8972 31.5139 70.1014C30.9898 70.2451 30.472 70.4093 29.9479 70.553C29.3342 68.904 28.2348 67.3988 27.3911 65.8935C26.3108 63.9435 25.2178 62.0003 24.1056 60.064C24.4379 59.9272 24.7639 59.7767 25.0963 59.633ZM23.3193 49.9308C23.3449 50.0061 23.3769 50.0882 23.4344 50.1635C25.7355 53.2219 28.0239 56.294 30.2611 59.4072C31.0281 60.4882 31.7568 61.624 32.4983 62.753C32.0828 62.233 31.6673 61.713 31.2774 61.1861C29.7753 59.1472 28.3179 57.074 26.7327 55.1035C26.2533 54.5082 25.4798 55.3566 25.9337 55.9519C26.3492 56.4924 26.7519 57.0672 27.1546 57.6556C26.656 57.3409 25.9081 57.9019 26.298 58.5109C28.5289 61.8977 30.977 66.6735 34.5118 68.6646C34.8889 68.8767 35.4387 68.4183 35.1446 67.9872C34.8889 67.6246 34.5949 67.303 34.3137 66.9609C34.5566 67.1525 34.7867 67.3714 35.0423 67.5493C35.3492 67.7614 35.6943 67.3988 35.6048 67.0635C35.8733 67.3919 36.129 67.734 36.4166 68.0419C36.7938 68.4456 37.286 67.9393 37.1006 67.474C36.1673 65.1067 34.6652 62.9719 33.1375 60.9124C33.5594 61.364 33.9813 61.8156 34.4287 62.2261C34.8122 62.5819 35.3875 62.144 35.1382 61.6377C33.5914 58.5656 31.2902 55.8287 29.3982 52.9824C27.2632 49.7598 25.2753 46.4208 23.3513 43.0476C23.2426 42.8561 23.0828 42.7808 22.923 42.7671C23.9649 41.2003 27.2057 44.2861 27.9152 45.2987C32.4791 51.7577 35.4323 60.543 37.7142 68.2746C35.835 68.8151 33.9813 69.383 32.1276 69.9235C32.1468 69.8551 32.1531 69.7935 32.134 69.7251C31.5906 67.8162 30.2291 66.2288 29.1872 64.6004C28.0047 62.7461 26.9564 60.803 26.0615 58.7709C26.0551 58.6819 26.0423 58.593 26.0104 58.5109C26.1127 58.2988 26.1382 58.0456 25.9976 57.7651C24.7448 55.3156 23.9649 52.6266 23.3193 49.9308ZM23.1659 49.3014C22.7696 47.5771 22.5395 45.8256 22.6034 44.0466C24.3421 47.3513 26.183 51.0187 28.2923 54.4329C26.9628 52.695 25.6269 50.9708 24.2845 49.2466C23.8563 48.6924 23.1851 49.2945 23.3129 49.8829C23.2618 49.6914 23.2107 49.4929 23.1659 49.3014ZM26.9628 73.1256C30.4145 72.6467 35.8861 72.0172 38.8328 69.5814C39.2675 69.5062 39.651 69.123 39.4848 68.5414C37.7142 62.4588 35.2852 56.5403 32.6709 50.8271C30.8492 46.845 28.5992 41.6861 24.0992 40.6529C17.8861 39.2297 22.8911 54.7956 24.4763 58.1482C24.0225 58.2714 23.5494 58.4151 23.0509 58.5724C22.7952 58.5109 22.5075 58.6203 22.3477 58.8324C21.0757 59.2909 19.7334 59.8519 18.4805 60.543C18.4294 60.4882 18.3847 60.4335 18.3399 60.3788C17.8605 59.7972 17.1382 60.543 17.445 61.1519C13.6737 63.533 11.2639 67.0156 15.3868 71.2304C18.4038 74.3162 23.1915 73.6525 26.9628 73.1256Z" fill="#333333"/>
<path fill-rule="evenodd" clip-rule="evenodd" d="M26.8541 46.8176C28.842 50.5055 30.8939 54.6997 33.5082 57.9087C33.7383 58.1892 34.205 57.895 34.0963 57.5461C32.7859 53.5092 29.8008 49.9102 27.8001 46.2292C27.4422 45.5723 26.4961 46.1608 26.8541 46.8176Z" fill="#333333"/>
<path fill-rule="evenodd" clip-rule="evenodd" d="M158.824 66.2698C159.067 66.1398 159.163 65.9413 159.189 65.7361C160.473 65.175 161.733 64.5592 162.896 63.7929C162.838 63.9708 162.762 64.1487 162.704 64.3266C162.576 64.7371 162.762 65.0108 163.024 65.1477C158.863 66.8103 154.842 69.4856 151.192 71.8598C150.451 72.3387 151.115 73.5635 151.863 73.0914C156.804 70.0193 162.18 67.9803 167.14 65.0382C167.716 64.7029 167.313 63.834 166.718 63.964C166.501 64.0119 166.29 64.0871 166.073 64.1419C168.272 63.0676 170.592 62.6571 173.104 62.6913C174.069 62.6982 175.009 62.835 175.853 63.0676C175.207 63.4919 174.574 63.9366 173.935 64.3677C173.89 64.3129 173.826 64.2719 173.737 64.3061C172.452 64.785 171.193 65.3392 169.946 65.914C169.895 65.8798 169.838 65.8592 169.774 65.8729C163.299 67.2687 156.99 71.2987 150.847 73.8714C150.01 74.2203 150.368 75.6708 151.224 75.3219C153.084 74.5624 155.079 73.8235 157.092 73.0435C156.702 73.2761 156.306 73.4951 155.916 73.7208C154.497 74.5008 153.078 75.274 151.665 76.0677C150.853 76.5193 151.569 77.7782 152.381 77.3677C157.763 74.6582 163.069 71.6203 168.233 68.3908C168.208 68.4114 168.182 68.425 168.157 68.4456C165.229 70.5803 162.008 72.3866 159.208 74.6993C158.824 75.014 159.022 75.7803 159.566 75.6024C160.684 75.2398 161.771 74.7335 162.839 74.1656C161.752 74.9182 160.704 75.7119 159.751 76.6219C155.871 77.3472 151.985 77.8672 148.335 78.4967C148.29 78.5103 148.258 78.5309 148.22 78.5445C149.076 76.2319 149.607 73.6935 150.054 71.0935C153.033 69.6019 155.91 67.8914 158.824 66.2698ZM150.885 66.0166C152.522 64.9219 153.998 63.4919 155.449 62.1987C157.846 60.0708 160.147 57.8197 162.34 55.4524C162.883 54.8639 162.052 53.9745 161.503 54.5492C159.476 56.6429 157.354 58.5929 155.174 60.495C153.922 61.5897 152.56 62.6298 151.294 63.7655C151.557 62.3766 151.851 61.0219 152.234 59.7355C152.234 59.7287 152.24 59.7218 152.24 59.7082C152.464 59.5645 152.682 59.4003 152.905 59.2429C152.605 59.6671 152.336 60.105 152.132 60.584C151.966 60.9876 152.33 61.5076 152.739 61.234C154.439 60.0982 155.782 58.3192 157.265 56.8824C158.99 55.206 160.736 53.5571 162.372 51.7781C162.538 51.6002 162.576 51.4018 162.551 51.2171C162.762 51.0666 162.973 50.9092 163.196 50.7587C163.836 50.355 163.273 49.315 162.621 49.6981C160.365 51.005 158.281 52.5513 156.261 54.2345C155.334 55.0145 154.312 55.7876 153.334 56.6155C154.906 52.8113 157.456 48.9797 161.349 48.4802C167.895 47.6386 165.37 56.725 164.513 59.3387C164.162 60.4129 163.746 61.4666 163.35 62.5203C163.331 62.5203 163.312 62.5066 163.292 62.5066C160.921 62.8624 158.428 63.8066 156.018 65.0245C156.133 64.9219 156.248 64.8192 156.363 64.7234C159.157 62.3287 161.867 59.8313 164.398 57.1218C165.057 56.4308 164.053 55.3703 163.395 56.0476C161.081 58.4492 158.626 60.6661 156.12 62.8213C154.382 64.3129 152.388 65.7156 150.674 67.344C150.745 66.9061 150.815 66.4545 150.885 66.0166ZM176.78 63.3961C177.361 63.6355 177.879 63.9298 178.301 64.265C176.818 65.5308 175.277 66.7145 173.775 67.9529C172.203 69.2598 170.189 70.7103 169.32 72.6808C169.077 73.2214 169.595 73.9535 170.138 73.5635C171.691 72.4551 172.97 70.8608 174.434 69.6087C176.044 68.2266 177.713 66.9129 179.317 65.5171C179.758 66.4887 179.573 67.6519 178.454 68.904C178.537 68.2745 177.968 67.5971 177.368 68.0692C175.233 69.7387 172.816 71.0935 171.052 73.2487C170.988 73.324 170.969 73.3993 170.963 73.4745C168.623 74.4461 166.175 75.1919 163.676 75.7872C164.833 74.9456 165.939 74.0219 167.038 73.1666C169.505 71.2577 171.883 69.1914 174.267 67.1524C174.677 66.7966 174.395 66.1466 173.986 65.9756C174.843 65.2777 175.699 64.6003 176.543 63.9708C176.748 63.8203 176.812 63.6013 176.78 63.3961ZM146.513 79.8924C146.513 80.4672 147.299 80.7477 147.555 80.2003C147.651 80.0019 147.715 79.7898 147.804 79.5914C147.939 79.9882 148.29 80.3167 148.782 80.2277C156.798 78.8388 165.242 77.963 172.753 74.4187C175.859 72.9545 181.951 70.5393 181.785 65.8934C181.542 58.9213 169.454 60.7413 164.775 63.1224C166.367 59.3729 168.598 54.4808 166.565 50.8613C164.456 47.1118 161.682 45.8665 157.923 47.926C154.081 50.0402 152.055 55.0624 150.694 59.3524C150.662 59.4003 150.617 59.4413 150.585 59.4892C150.502 59.6055 150.502 59.7355 150.54 59.8724C150.444 60.1597 150.355 60.4608 150.272 60.7413C148.559 66.475 146.5 73.844 146.513 79.8924Z" fill="#333333"/>
<path fill-rule="evenodd" clip-rule="evenodd" d="M150.796 99.2422C149.179 99.7622 149.537 97.3537 148.878 96.5053C148.718 96.2932 148.405 96.3343 148.239 96.5053C147.35 97.4085 147.721 99.3174 148.501 100.214C149.23 101.048 150.227 101.22 151.237 100.973C153.129 100.522 154.772 98.1474 153.25 96.3548C151.09 93.7958 146.954 93.5221 144.602 95.8211C143.496 96.8953 143.228 98.4827 143.426 99.988C143.509 100.617 143.828 101.63 144.314 102.41C134.24 109.43 124.256 122.704 120.708 134.794C120.491 135.546 121.603 136.066 121.91 135.334C127.375 122.095 136.107 113.467 145.19 103.334C145.561 103.546 145.963 103.587 146.404 103.306C146.641 103.163 146.807 102.868 146.801 102.567C146.775 101.801 146.034 101.336 145.669 100.72C145.58 100.563 145.452 100.481 145.331 100.433C144.832 99.0848 144.864 97.6685 146.251 96.6627C148.022 95.3764 150.419 96.1153 151.927 97.4769C152.745 98.2158 151.416 99.0506 150.796 99.2422Z" fill="#333333"/>
<path fill-rule="evenodd" clip-rule="evenodd" d="M73.7397 149.655C74.2064 150.456 75.3633 149.744 74.9287 148.909C70.9464 141.356 64.19 134.383 56.7241 130.901C56.2447 130.675 55.8931 131.304 56.315 131.647C62.9819 137.038 69.2206 141.951 73.7397 149.655Z" fill="#333333"/>
<path fill-rule="evenodd" clip-rule="evenodd" d="M54.6916 155.58C54.0971 155.47 53.6241 156.374 54.2506 156.695C59.9523 159.637 67.041 159.22 70.9722 165.419C71.2981 165.932 72.0652 165.474 71.7584 164.926C68.2364 158.659 61.0453 156.736 54.6916 155.58Z" fill="#333333"/>
<path fill-rule="evenodd" clip-rule="evenodd" d="M140.287 156.668C136.989 156.134 132.879 158.604 130.15 160.383C127.049 162.415 124.518 165.385 123.636 169.21C123.412 170.154 124.729 170.537 124.991 169.613C126.046 165.891 128.654 163.373 131.677 161.423C134.426 159.644 137.718 159.357 140.422 157.728C140.799 157.503 140.773 156.743 140.287 156.668Z" fill="#333333"/>
<path fill-rule="evenodd" clip-rule="evenodd" d="M43.3776 151.735C42.1056 155.717 46.2157 159.446 49.5907 159.466C50.3833 159.473 50.3705 158.221 49.5907 158.166C47.1105 157.988 44.3811 155.32 44.7966 152.474C45.1482 150.011 49.2071 148.923 50.8755 150.476C51.9365 151.468 52.0069 153.473 51.4635 154.773C50.6965 156.6 49.514 153.883 48.9387 153.158C48.6766 152.843 48.0885 153.083 48.1333 153.521C48.3506 155.867 50.7221 158.645 52.5502 156.045C53.9117 154.109 53.4515 150.715 51.8023 149.176C49.303 146.85 44.4067 148.519 43.3776 151.735Z" fill="#333333"/>
<path fill-rule="evenodd" clip-rule="evenodd" d="M53.9371 96.3957C55.7013 98.2225 57.4528 100.07 59.1467 101.979C59.5877 102.472 60.2013 101.753 59.8306 101.247C58.3029 99.1599 56.7241 97.162 54.9854 95.2736C53.4769 93.6246 51.8086 91.5652 49.8334 90.5799C49.4371 90.3815 48.8938 90.8125 49.1815 91.2709C50.3832 93.2346 52.3647 94.7673 53.9371 96.3957Z" fill="#333333"/>
<path fill-rule="evenodd" clip-rule="evenodd" d="M114.885 87.6857C114.668 88.2947 115.614 88.7189 115.87 88.1305C119.501 79.7762 125.337 73.6046 130.712 66.6188C131.249 65.9209 130.437 65.0451 129.785 65.6267C123.4 71.3741 117.864 79.3452 114.885 87.6857Z" fill="#333333"/>
<path fill-rule="evenodd" clip-rule="evenodd" d="M136.324 63.0883C134.829 64.4294 134.253 67.0567 136.005 68.432C137.513 69.6157 139.706 68.4867 140.78 67.2141C142.94 64.6483 142.908 59.9272 139.661 58.4836C137.111 57.3478 133.755 58.2099 131.818 60.2694C129.025 63.232 131.268 67.1046 133.716 69.2941C134.394 69.9031 135.372 68.8973 134.701 68.2404C133.071 66.6394 131.083 64.142 132.63 61.7746C133.742 60.0846 136.12 59.4962 137.929 59.6672C140.089 59.8725 141.048 61.672 140.696 63.8478C140.415 65.5652 139.431 67.2688 137.641 67.3236C135.57 67.392 136.861 64.6688 137.168 63.6152C137.328 63.0609 136.689 62.7736 136.324 63.0883Z" fill="#333333"/>
<path fill-rule="evenodd" clip-rule="evenodd" d="M89.0233 63.4714C89.8478 56.4993 88.3777 48.9524 84.6575 43.0818C84.3571 42.6097 83.5772 42.8903 83.7562 43.4855C85.8145 50.2866 88.1667 56.1503 88.3457 63.4714C88.3585 63.9572 88.9721 63.9298 89.0233 63.4714Z" fill="#333333"/>
<path fill-rule="evenodd" clip-rule="evenodd" d="M111.805 45.9896C111.805 46.8722 113.032 46.8654 113.07 45.9896C113.371 39.7017 115.723 34.5496 117.302 28.6311C117.442 28.1111 116.797 27.8853 116.522 28.2822C113.217 33.1675 111.785 40.0438 111.805 45.9896Z" fill="#333333"/>
<path fill-rule="evenodd" clip-rule="evenodd" d="M43.1603 78.2366C41.166 78.2366 41.166 81.5472 43.1603 81.5472C45.1546 81.5472 45.1546 78.2366 43.1603 78.2366Z" fill="#333333"/>
<path fill-rule="evenodd" clip-rule="evenodd" d="M34.7483 76.7656C32.8946 76.7656 32.8946 79.8437 34.7483 79.8437C36.602 79.8437 36.602 76.7656 34.7483 76.7656Z" fill="#333333"/>
<path fill-rule="evenodd" clip-rule="evenodd" d="M33.7574 160.486C31.9421 160.486 31.9421 163.502 33.7574 163.502C35.5728 163.502 35.5728 160.486 33.7574 160.486Z" fill="#333333"/>
<path fill-rule="evenodd" clip-rule="evenodd" d="M22.3734 161.861C20.9416 161.861 20.9416 164.242 22.3734 164.242C23.8116 164.242 23.8116 161.861 22.3734 161.861Z" fill="#333333"/>
<path fill-rule="evenodd" clip-rule="evenodd" d="M33.757 153.342C34.1846 153.342 34.1846 152.631 33.757 152.631C33.3293 152.631 33.3293 153.342 33.757 153.342Z" fill="#333333"/>
<path fill-rule="evenodd" clip-rule="evenodd" d="M27.8194 81.9377C29.0083 81.9377 29.0083 79.9677 27.8194 79.9677C26.6305 79.9677 26.6305 81.9377 27.8194 81.9377Z" fill="#333333"/>
<path fill-rule="evenodd" clip-rule="evenodd" d="M105.655 75.0824C107.458 76.184 108.966 74.5624 107.937 72.6329C106.569 70.0671 103.258 73.6182 105.655 75.0824Z" fill="#333333"/>
<path fill-rule="evenodd" clip-rule="evenodd" d="M109.963 68.9178C108.864 68.9178 108.864 70.7385 109.963 70.7385C111.063 70.7385 111.063 68.9178 109.963 68.9178Z" fill="#333333"/>
<path fill-rule="evenodd" clip-rule="evenodd" d="M144.104 54.2268C145.727 54.2268 145.727 51.5318 144.104 51.5318C142.48 51.5318 142.48 54.2268 144.104 54.2268Z" fill="#333333"/>
<path fill-rule="evenodd" clip-rule="evenodd" d="M159.444 93.4742C157.303 93.5905 157.303 96.9148 159.444 97.0311C160.007 97.0653 160.435 97.0105 160.947 96.7233C161.989 96.1418 161.989 94.3634 160.947 93.782C160.435 93.4947 160.007 93.44 159.444 93.4742Z" fill="#333333"/>
<path fill-rule="evenodd" clip-rule="evenodd" d="M155.488 91.3317C157.143 91.3317 157.143 88.582 155.488 88.582C153.832 88.582 153.832 91.3317 155.488 91.3317Z" fill="#333333"/>
<path fill-rule="evenodd" clip-rule="evenodd" d="M157.463 124.365C158.077 124.365 158.077 123.354 157.463 123.354C156.856 123.354 156.856 124.365 157.463 124.365Z" fill="#333333"/>
<path fill-rule="evenodd" clip-rule="evenodd" d="M143.554 150.701C143.579 150.667 143.605 150.632 143.624 150.598C143.905 150.195 143.905 149.428 143.624 149.025C143.605 148.991 143.579 148.956 143.554 148.915C142.64 147.554 140.473 147.93 140.473 149.812C140.473 151.693 142.64 152.069 143.554 150.701Z" fill="#333333"/>
<path fill-rule="evenodd" clip-rule="evenodd" d="M143.611 157.386C141.885 157.386 141.885 160.246 143.611 160.246C145.337 160.246 145.337 157.386 143.611 157.386Z" fill="#333333"/>
<path fill-rule="evenodd" clip-rule="evenodd" d="M148.06 152.638C146.373 152.638 146.373 155.456 148.06 155.456C149.76 155.456 149.76 152.638 148.06 152.638Z" fill="#333333"/>
<path fill-rule="evenodd" clip-rule="evenodd" d="M156.971 157.544C155.437 157.544 155.437 160.089 156.971 160.089C158.505 160.089 158.505 157.544 156.971 157.544Z" fill="#333333"/>
<path fill-rule="evenodd" clip-rule="evenodd" d="M73.8421 31.9145C76.0218 31.9145 76.0218 28.2892 73.8421 28.2892C71.6561 28.2892 71.6561 31.9145 73.8421 31.9145Z" fill="#333333"/>
<path fill-rule="evenodd" clip-rule="evenodd" d="M67.4053 24.9152C68.8115 24.9152 68.8115 22.5827 67.4053 22.5827C65.999 22.5827 65.999 24.9152 67.4053 24.9152Z" fill="#333333"/>
<path fill-rule="evenodd" clip-rule="evenodd" d="M120.849 25.6268C122.473 25.6268 122.473 22.9249 120.849 22.9249C119.219 22.9249 119.219 25.6268 120.849 25.6268Z" fill="#333333"/>
<path fill-rule="evenodd" clip-rule="evenodd" d="M164.392 84.463C162.238 84.463 162.238 88.0336 164.392 88.0336C166.546 88.0336 166.546 84.463 164.392 84.463Z" fill="#333333"/>
<path fill-rule="evenodd" clip-rule="evenodd" d="M160.927 87.4737C159.214 87.4737 159.214 90.3192 160.927 90.3192C162.64 90.3192 162.64 87.4737 160.927 87.4737Z" fill="#333333"/>
<path fill-rule="evenodd" clip-rule="evenodd" d="M166.866 96.5045C168.374 96.5045 168.374 94.001 166.866 94.001C165.364 94.001 165.364 96.5045 166.866 96.5045Z" fill="#333333"/>
<path fill-rule="evenodd" clip-rule="evenodd" d="M172.312 85.8104C173.699 85.8104 173.699 83.5121 172.312 83.5121C170.925 83.5121 170.925 85.8104 172.312 85.8104Z" fill="#333333"/>
<path fill-rule="evenodd" clip-rule="evenodd" d="M160.435 124.988C162.442 124.988 162.442 121.664 160.435 121.664C158.428 121.664 158.428 124.988 160.435 124.988Z" fill="#333333"/>
<path fill-rule="evenodd" clip-rule="evenodd" d="M154.005 128.088C152.074 128.088 152.074 131.276 154.005 131.276C155.929 131.276 155.929 128.088 154.005 128.088Z" fill="#333333"/>
<path fill-rule="evenodd" clip-rule="evenodd" d="M154.497 120.008C153.052 120.008 153.052 122.409 154.497 122.409C155.942 122.409 155.942 120.008 154.497 120.008Z" fill="#333333"/>
<path fill-rule="evenodd" clip-rule="evenodd" d="M41.6772 120.986C40.1303 120.986 40.1303 123.551 41.6772 123.551C43.2176 123.551 43.2176 120.986 41.6772 120.986Z" fill="#333333"/>
<path fill-rule="evenodd" clip-rule="evenodd" d="M19.4074 118.208C18.3399 118.208 18.3399 119.974 19.4074 119.974C20.4748 119.974 20.4748 118.208 19.4074 118.208Z" fill="#333333"/>
<path fill-rule="evenodd" clip-rule="evenodd" d="M13.469 156.059C12.0628 156.059 12.0628 158.391 13.469 158.391C14.8753 158.391 14.8753 156.059 13.469 156.059Z" fill="#333333"/>
<path fill-rule="evenodd" clip-rule="evenodd" d="M17.4259 151.044C15.7256 151.044 15.7256 153.876 17.4259 153.876C19.1326 153.876 19.1326 151.044 17.4259 151.044Z" fill="#333333"/>
<path fill-rule="evenodd" clip-rule="evenodd" d="M71.8604 82.3077C70.3008 82.3077 70.3008 84.8933 71.8604 84.8933C73.4137 84.8933 73.4137 82.3077 71.8604 82.3077Z" fill="#333333"/>
<path fill-rule="evenodd" clip-rule="evenodd" d="M85.7823 138.612C84.7723 138.906 84.2865 140.185 84.8171 141.149C85.4243 142.257 87.0032 142.278 87.604 141.149C88.3007 139.85 87.2013 138.194 85.7823 138.612Z" fill="#333333"/>
<path fill-rule="evenodd" clip-rule="evenodd" d="M87.6936 132.098C86.1403 132.098 86.1403 134.684 87.6936 134.684C89.2533 134.684 89.2533 132.098 87.6936 132.098Z" fill="#333333"/>
<path fill-rule="evenodd" clip-rule="evenodd" d="M81.7553 137.558C81.0266 137.558 81.0266 138.76 81.7553 138.76C82.484 138.76 82.484 137.558 81.7553 137.558Z" fill="#333333"/>
<path fill-rule="evenodd" clip-rule="evenodd" d="M104.517 154.629C102.664 154.629 102.664 157.707 104.517 157.707C106.377 157.707 106.377 154.629 104.517 154.629Z" fill="#333333"/>
<path fill-rule="evenodd" clip-rule="evenodd" d="M105.016 161.232C103.456 161.232 103.456 163.81 105.016 163.81C106.569 163.81 106.569 161.232 105.016 161.232Z" fill="#333333"/>
<path fill-rule="evenodd" clip-rule="evenodd" d="M123.323 115.759C121.866 115.759 121.866 118.174 123.323 118.174C124.78 118.174 124.78 115.759 123.323 115.759Z" fill="#333333"/>
<path fill-rule="evenodd" clip-rule="evenodd" d="M100.561 110.182C101.954 110.182 101.954 107.87 100.561 107.87C99.161 107.87 99.161 110.182 100.561 110.182Z" fill="#333333"/>
<path fill-rule="evenodd" clip-rule="evenodd" d="M113.319 129.156V129.601C113.319 131.804 116.502 131.804 116.502 129.601V129.156C116.502 126.953 113.319 126.953 113.319 129.156Z" fill="#333333"/>
<path fill-rule="evenodd" clip-rule="evenodd" d="M91.1582 90.395C89.1319 90.395 89.1319 93.7535 91.1582 93.7535C93.1845 93.7535 93.1845 90.395 91.1582 90.395Z" fill="#333333"/>
<path fill-rule="evenodd" clip-rule="evenodd" d="M87.2013 90.5107C88.5053 90.5107 88.5053 88.3424 87.2013 88.3424C85.891 88.3424 85.891 90.5107 87.2013 90.5107Z" fill="#333333"/>
<path fill-rule="evenodd" clip-rule="evenodd" d="M73.8421 90.4631C75.0886 90.4631 75.0886 88.3905 73.8421 88.3905C72.5957 88.3905 72.5957 90.4631 73.8421 90.4631Z" fill="#333333"/>
<path fill-rule="evenodd" clip-rule="evenodd" d="M73.3436 8.77613C74.4494 8.77613 74.4494 6.94179 73.3436 6.94179C72.2377 6.94179 72.2377 8.77613 73.3436 8.77613Z" fill="#333333"/>
<path fill-rule="evenodd" clip-rule="evenodd" d="M66.913 12.8456C68.4535 12.8456 68.4535 10.2805 66.913 10.2805C65.3661 10.2805 65.3661 12.8456 66.913 12.8456Z" fill="#333333"/>
<path fill-rule="evenodd" clip-rule="evenodd" d="M11.9862 84.7496C13.3733 84.7496 13.3733 82.4513 11.9862 82.4513C10.5991 82.4513 10.5991 84.7496 11.9862 84.7496Z" fill="#333333"/>
<path fill-rule="evenodd" clip-rule="evenodd" d="M7.53103 76.6486C8.72635 76.6486 8.72635 74.6582 7.53103 74.6582C6.33572 74.6582 6.33572 76.6486 7.53103 76.6486Z" fill="#333333"/>
<path fill-rule="evenodd" clip-rule="evenodd" d="M157.962 40.3096C160.045 40.3096 160.045 36.8485 157.962 36.8485C155.878 36.8485 155.878 40.3096 157.962 40.3096Z" fill="#333333"/>
<path fill-rule="evenodd" clip-rule="evenodd" d="M153.014 32.9548C154.535 32.9548 154.535 30.4239 153.014 30.4239C151.486 30.4239 151.486 32.9548 153.014 32.9548Z" fill="#333333"/>
<path fill-rule="evenodd" clip-rule="evenodd" d="M152.522 21.1863C153.903 21.1863 153.903 18.888 152.522 18.888C151.135 18.888 151.135 21.1863 152.522 21.1863Z" fill="#333333"/>
<path fill-rule="evenodd" clip-rule="evenodd" d="M1.59272 122.977C-0.101177 122.977 -0.101177 125.789 1.59272 125.789C3.28661 125.789 3.28661 122.977 1.59272 122.977Z" fill="#333333"/>
<path fill-rule="evenodd" clip-rule="evenodd" d="M193.591 116.122C191.923 116.122 191.923 118.885 193.591 118.885C195.253 118.885 195.253 116.122 193.591 116.122Z" fill="#333333"/>
<path fill-rule="evenodd" clip-rule="evenodd" d="M196.065 124.264C194.639 124.264 194.639 126.63 196.065 126.63C197.49 126.63 197.49 124.264 196.065 124.264Z" fill="#333333"/>
<path fill-rule="evenodd" clip-rule="evenodd" d="M202.993 124.093C201.363 124.093 201.363 126.794 202.993 126.794C204.617 126.794 204.617 124.093 202.993 124.093Z" fill="#333333"/>
</svg>
