<svg width="200" height="157" viewBox="0 0 200 157" fill="none" xmlns="http://www.w3.org/2000/svg">
<path fill-rule="evenodd" clip-rule="evenodd" d="M98.6776 129.125C98.5209 128.693 98.3892 128.247 98.2701 127.796C98.2951 127.74 98.314 127.683 98.3453 127.627C100.063 123.037 103.988 121.407 110.108 122.73C115.507 130.273 101.976 138.211 98.6776 129.125ZM114.503 108.446C114.19 108.346 113.795 108.478 113.826 108.885C114.209 114.152 107.663 110.497 105.976 108.904C105.418 108.384 104.979 107.832 104.628 107.268C108.415 104.597 112.76 103.794 114.503 108.446ZM137.546 79.1586C137.145 76.9327 137.684 75.3339 138.731 73.9105C140.129 76.0612 140.412 78.3686 137.546 79.1586ZM111.676 123.57C110.823 120.303 106.584 117.82 103.493 119.833C101.242 121.294 99.3423 123.357 97.8061 125.746C97.2292 122.335 97.4173 118.642 98.2074 115.456C98.8156 113.024 101.085 110.033 103.775 107.895C104.634 109.331 105.857 110.597 107.387 111.575C110.34 113.463 114.447 113.162 114.798 109.368C114.886 109.7 114.967 110.045 115.024 110.422C115.087 110.76 115.626 110.679 115.613 110.34C115.237 101.719 109.512 103.142 104.471 106.979C102.189 102.86 104.753 97.7747 107.613 94.3135C112.923 87.8867 112.948 97.5991 117.375 98.8782C123.288 100.59 125.934 90.5765 123.144 85.0024C125.871 84.4005 128.266 80.9456 129.658 77.6475C130.524 77.8482 131.47 77.8607 132.386 77.6475C132.8 77.5472 132.624 76.9516 132.223 77.0268C129.364 77.5409 127.144 75.453 127.758 72.5687C128.373 69.7033 131.514 69.0136 133.928 69.7723C135.126 70.1485 136.706 71.3649 137.916 72.8133C136.355 74.7946 135.696 77.4845 136.693 79.8922C136.8 80.1305 137.007 80.2935 137.283 80.2246C141.584 79.0897 141.365 75.848 139.446 73.0327C140.117 72.2803 140.894 71.5467 141.735 70.7504C141.942 70.5498 141.728 70.161 141.452 70.2613C140.399 70.6187 139.465 71.2395 138.669 72.0107C137.063 70.1422 134.8 68.6436 132.837 68.3866C129.545 67.9602 126.617 70.1673 126.467 73.5531C126.373 75.5282 127.432 76.8011 128.887 77.3967C128.279 78.1805 127.696 78.9705 127.144 79.7857C126.498 80.607 125.859 81.4347 125.213 82.2624C123.05 82.0492 121.526 82.0241 120.592 82.1934C120.084 81.8987 119.52 81.673 118.886 81.5538C118.391 81.4535 117.751 82.0178 118.14 82.5257C119.363 84.112 120.592 84.8707 121.777 85.0463C121.877 85.109 121.959 85.1654 122.065 85.2281C123.601 87.6359 123.194 91.1534 122.498 93.7242C121.394 97.7747 117.074 99.0287 114.986 95.2102C114.403 94.1505 113.964 93.0156 113.35 91.9622C110.522 87.1781 105.01 95.7306 103.819 97.7433C101.844 101.06 101.976 104.684 103.631 107.638C100.835 109.945 98.3578 112.879 97.2982 115.068C96.2197 117.3 95.9627 122.592 96.8718 127.282C91.7993 136.612 92.2319 149.98 101.436 155.491C102.076 155.874 102.628 154.908 102.013 154.507C94.2948 149.484 94.0691 141.264 96.1633 133.213C96.5207 131.997 96.9659 130.825 97.4487 129.658C98.8532 134.304 101.643 137.565 106.227 135.057C110.798 132.568 113.017 128.718 111.676 123.57Z" fill="#333333"/>
<path fill-rule="evenodd" clip-rule="evenodd" d="M82.5448 114.673C80.7327 114.259 78.9144 113.845 77.1023 113.431C79.5163 109.23 82.131 108.095 84.9462 109.92C84.5888 111.512 83.849 113.111 82.5448 114.673ZM71.6159 93.6362C71.1896 95.2853 70.061 96.0941 68.2301 96.069C67.3209 95.2414 66.4055 94.4012 65.4963 93.5673C67.2645 91.241 69.3148 90.3444 71.6285 90.8398C71.7664 91.7677 71.779 92.7083 71.6159 93.6362ZM57.5332 82.3688C56.7557 81.6101 58.4926 81.0082 60.2357 80.6571C60.5366 82.4942 59.64 83.0711 57.5332 82.3688ZM86.4636 109.995C87.7741 102.352 80.2562 93.6676 73.3152 90.5325H73.3089C72.8574 84.8518 67.3021 79.5723 61.6276 79.2776C61.2765 70.0543 52.2789 65.1385 44.1402 63.5898C43.3063 63.433 42.9552 64.6306 43.7828 64.8752C49.2629 66.4176 55.6334 68.5808 58.6807 73.7787C59.6275 75.409 59.9911 77.4217 60.1353 79.3278C58.6117 79.4971 57.1069 80.0238 55.7337 81.0834C55.3324 81.3907 55.276 81.817 55.5895 82.2121C58.944 86.5322 61.4207 84.8142 61.6276 80.4251C62.3173 80.3373 62.8754 80.3059 63.0698 80.3373C66.9761 81.027 69.7098 85.2782 71.0579 88.6515C71.246 89.1217 71.384 89.6234 71.4968 90.1187C67.8852 89.429 63.4021 90.5012 64.2109 95.1787C64.7815 98.4705 70.9639 97.9187 72.2743 95.511C72.9703 94.2382 73.2775 92.9214 73.3214 91.6047C78.9834 95.0282 86.0372 101.957 85.0905 109.08C81.2594 106.766 76.5756 105.706 75.6978 110.352C75.0332 113.895 78.1745 120.115 82.4006 116.635C84.476 114.923 85.6924 112.992 86.2504 110.967C86.4824 111.186 86.7144 111.381 86.9527 111.638C89.2099 113.55 90.1316 116.71 90.8778 119.432C93.1852 127.846 91.2477 137.665 90.0878 146.13C90 146.744 90.928 147.026 91.0345 146.393C92.8215 135.721 95.0913 123.802 90.0752 113.669C89.5485 112.61 88.1691 111.23 86.4636 109.995Z" fill="#333333"/>
<path fill-rule="evenodd" clip-rule="evenodd" d="M98.0634 67.9163C97.8565 67.2265 96.847 67.2077 96.6463 67.9163C95.2042 73.1205 89.5862 77.1396 86.6204 70.0795C84.3631 64.7185 90.4891 60.5489 94.759 59.1569C95.7434 58.8434 97.5241 58.7995 98.2076 57.8151C101.324 53.3069 98.2578 44.3719 96.0507 40.0706C95.618 39.2179 94.3577 39.9703 94.7778 40.8168C96.7968 44.9174 97.5053 49.2062 97.6621 53.7395C97.8126 57.9969 94.897 57.2696 92.6021 58.3355C88.608 60.1915 85.7238 62.6932 84.8648 67.145C84.1123 71.0388 88.4701 77.6851 93.041 75.685C94.6023 75.0015 97.8815 72.4809 97.3549 70.7065C98.5525 74.7382 100.151 87.5292 92.4704 87.3035C91.3543 87.2659 90.1254 87.8992 89.0595 88.1939C81.3786 90.3069 92.6084 105.399 95.0161 107.343C95.5679 107.794 96.3642 107.036 95.8124 106.547C95.1227 105.932 83.5856 89.5858 90.1066 89.5858C91.7305 89.5858 93.9 88.9714 95.5302 88.545C102.515 86.7141 99.2484 71.9291 98.0634 67.9163Z" fill="#333333"/>
<path fill-rule="evenodd" clip-rule="evenodd" d="M169.825 93.3982C170.502 93.1725 170.226 92.2006 169.53 92.3385C138.75 98.3829 115.287 124.63 109.463 154.858C109.337 155.523 110.322 155.811 110.491 155.14C118.36 123.075 139.045 103.587 169.825 93.3982Z" fill="#333333"/>
<path fill-rule="evenodd" clip-rule="evenodd" d="M121.024 42.9425C120.655 43.0679 120.617 43.5068 120.924 43.7326C121.313 44.0147 121.789 44.1401 122.285 44.2154C112.428 58.0034 105.945 75.8356 101.938 91.8244C101.857 92.1756 102.346 92.2947 102.477 91.9749C106.152 82.6011 109.356 73.0893 113.425 63.8659C116.447 57.0064 120.328 50.6924 124.022 44.2216C124.354 44.1777 124.68 44.1213 124.975 44.0586C126.574 43.72 127.878 42.629 128.875 41.3875C129.389 40.7542 128.524 39.8451 127.965 40.4721C127.125 41.4251 126.185 42.071 125.019 42.4597C125.451 41.6885 125.884 40.9173 126.304 40.1398C126.492 39.7949 126.009 39.3811 125.74 39.7071C124.918 40.6915 124.128 41.701 123.351 42.7419C122.561 42.7481 121.764 42.6917 121.024 42.9425Z" fill="#333333"/>
<path fill-rule="evenodd" clip-rule="evenodd" d="M82.3565 88.5012C81.5728 73.1519 70.4495 54.097 58.3168 44.8235C57.7901 44.4284 57.276 45.2498 57.6522 45.6887C68.324 58.066 79.5914 71.5154 81.2906 88.5012C81.3596 89.1658 82.3879 89.1909 82.3565 88.5012Z" fill="#333333"/>
<path fill-rule="evenodd" clip-rule="evenodd" d="M68.6312 43.5569C69.1704 43.2058 69.6783 42.817 70.1862 42.422C70.6752 42.1399 71.1769 41.9329 71.6847 41.8075C71.7035 42.0207 71.7412 42.2276 71.76 42.4408C71.1831 43.419 70.6502 44.4159 70.1736 45.4317C69.9855 45.1495 69.8037 44.8548 69.6156 44.5727C69.2707 44.0522 68.5246 44.4974 68.7879 45.0617C69.0576 45.626 69.3397 46.1841 69.6219 46.7547C69.6156 46.9365 69.6908 47.0933 69.8413 47.1999C73.7727 55.0563 78.5443 62.3861 80.5319 71.1141C80.6259 71.5405 81.2404 71.3524 81.1714 70.9386C79.792 62.3548 75.6475 54.0029 70.9574 46.6418C71.4715 45.9521 71.9794 45.2498 72.4622 44.5162C72.8635 44.5413 73.3338 44.1902 73.2585 43.6635C73.2397 43.5506 73.2335 43.4378 73.2146 43.3249C73.5219 42.8421 73.8228 42.3593 74.1175 41.8702C74.732 42.0709 75.3465 42.4157 75.9359 42.9362C76.4688 43.4002 77.5222 42.9675 77.2275 42.1837C76.8262 41.0865 76.3058 40.077 75.7478 39.08C76.0613 38.5345 76.3685 37.989 76.682 37.4435C77.0896 36.7475 76.287 35.9889 75.5973 36.3651C75.2211 36.5657 74.8825 36.8228 74.5251 37.0548C73.9294 36.1268 73.315 35.2051 72.7005 34.2771C72.3431 33.7442 71.4151 33.9072 71.4339 34.622C71.4841 36.1958 71.4904 37.7445 71.5405 39.2995C70.7756 39.9453 69.9981 40.5786 69.2018 41.1868C68.6751 41.5066 68.1609 41.8702 67.6719 42.3154C67.0072 42.9174 67.8725 44.0397 68.6312 43.5569Z" fill="#333333"/>
<path fill-rule="evenodd" clip-rule="evenodd" d="M51.909 32.6783C51.9967 30.2518 52.5548 27.9381 53.627 25.7561C54.1474 24.6964 54.8559 23.7747 55.6773 22.9408C56.3106 22.295 57.0066 22.0379 57.3953 21.2165C57.5207 20.9406 57.3577 20.6898 57.0693 20.6585C54.9625 20.3951 53.1755 23.4236 52.3228 24.9911C51.0625 27.3173 50.5922 30.0574 50.5797 32.6783C50.5734 33.5373 51.8776 33.531 51.909 32.6783Z" fill="#333333"/>
<path fill-rule="evenodd" clip-rule="evenodd" d="M54.1098 29.4553C53.7587 30.1638 54.7807 30.7783 55.1757 30.0823C55.9281 28.7217 56.8561 27.5178 58.1101 26.5836C58.7685 26.0883 59.5146 25.7998 60.3423 25.7559C60.9317 25.7246 61.427 25.8813 62.0102 25.7121C62.2171 25.6493 62.2986 25.4174 62.2045 25.2355C61.4208 23.7119 59.3015 24.2887 58.0725 24.8656C56.2479 25.7246 54.9625 27.7122 54.1098 29.4553Z" fill="#333333"/>
<path fill-rule="evenodd" clip-rule="evenodd" d="M55.9407 34.6971C57.3452 33.6312 58.85 32.9164 60.5806 32.5277C62.5619 32.0762 64.004 33.0042 65.6217 33.9635C65.8851 34.1203 66.2488 33.8569 66.1484 33.556C64.5746 28.6465 57.7527 31.5056 55.1506 33.6751C54.5926 34.1454 55.3513 35.1361 55.9407 34.6971Z" fill="#333333"/>
<path fill-rule="evenodd" clip-rule="evenodd" d="M61.916 38.0203C63.0822 38.6724 63.9412 39.6944 65.0699 40.3841C65.4147 40.591 65.9477 40.2462 65.7909 39.8261C64.7375 37.1111 61.3078 35.9637 58.6806 35.4997C57.9345 35.368 57.6021 36.4653 58.3608 36.6534C59.6148 36.9669 60.7874 37.387 61.916 38.0203Z" fill="#333333"/>
<path fill-rule="evenodd" clip-rule="evenodd" d="M55.0627 38.083C54.5046 37.5438 53.6832 38.3714 54.2162 38.9295C55.0062 39.7446 55.79 40.5723 56.486 41.4689C57.0378 42.19 57.4829 43.5318 58.4109 43.77C58.6492 43.8327 58.8561 43.6948 58.9376 43.4691C59.2762 42.5536 58.2981 41.5755 57.7651 40.8983C56.9625 39.8763 55.9969 38.9796 55.0627 38.083Z" fill="#333333"/>
<path fill-rule="evenodd" clip-rule="evenodd" d="M51.075 53.3884C54.5236 50.7173 54.3292 46.2154 52.7742 42.5411C52.4858 41.8639 51.3195 42.3592 51.5829 43.0427C52.9435 46.6229 52.4481 49.6765 50.3665 52.8366C50.053 53.3069 50.705 53.6768 51.075 53.3884Z" fill="#333333"/>
<path fill-rule="evenodd" clip-rule="evenodd" d="M44.9991 45.9772C46.0838 45.532 46.9052 44.7295 47.4444 43.6949C47.8395 42.9362 46.7171 42.2716 46.3033 43.024C45.8017 43.9143 45.112 44.4661 44.1464 44.7922C43.4002 45.043 42.4848 44.9865 41.8264 45.4505C41.5819 45.6261 41.5693 45.9459 41.8264 46.1152C42.7105 46.7171 44.0899 46.3534 44.9991 45.9772Z" fill="#333333"/>
<path fill-rule="evenodd" clip-rule="evenodd" d="M43.2937 39.0235C43.9959 38.6661 43.3814 37.6755 42.6855 37.9827C41.8578 38.3464 41.0427 38.5282 40.1398 38.4906C39.2745 38.4592 38.566 37.8573 37.7383 37.7131C37.5001 37.6692 37.2806 37.851 37.3433 38.1081C37.9766 40.6475 41.6697 39.8512 43.2937 39.0235Z" fill="#333333"/>
<path fill-rule="evenodd" clip-rule="evenodd" d="M40.8923 34.7159C41.6321 34.9604 41.9143 33.8318 41.2058 33.5559C38.2839 32.421 37.7509 29.9756 37.1365 27.2168C37.0361 26.7716 36.3151 26.7591 36.2273 27.2168C35.594 30.6215 37.707 33.6499 40.8923 34.7159Z" fill="#333333"/>
<path fill-rule="evenodd" clip-rule="evenodd" d="M44.9616 31.4053C43.9584 29.7187 43.3627 27.9505 43.0053 26.0318C42.6855 24.3201 43.0931 22.6272 42.8485 20.9405C42.7921 20.5956 42.3595 20.6395 42.2027 20.8527C39.9831 23.8749 42.1212 29.286 43.9333 32.0073C44.3534 32.6468 45.3566 32.07 44.9616 31.4053Z" fill="#333333"/>
<path fill-rule="evenodd" clip-rule="evenodd" d="M46.9679 27.1795C46.7296 26.1136 46.6418 25.054 46.6543 23.9692C46.6606 22.9472 46.855 21.9565 46.6982 20.9407C46.6481 20.646 46.2531 20.6711 46.1151 20.8655C44.8799 22.6399 45.3439 25.5305 45.8141 27.4993C45.9897 28.2517 47.1309 27.9319 46.9679 27.1795Z" fill="#333333"/>
<path fill-rule="evenodd" clip-rule="evenodd" d="M130.43 32.001C128.85 33.0356 129.119 36.0014 129.596 37.7445C129.646 37.9075 129.746 38.0517 129.884 38.1583C126.937 36.5657 126.342 32.0198 130.43 32.001ZM130.793 34.1078C130.981 33.3366 131.884 33.0732 132.499 32.7033C133.069 33.1673 133.49 33.8068 133.571 34.5216C133.734 36.0452 132.235 36.5657 130.963 36.7036C130.749 35.8509 130.58 34.9668 130.793 34.1078ZM129.684 39.7007C130.455 40.0142 131.019 38.6787 130.254 38.3527C130.122 38.2962 130.01 38.2273 129.89 38.1646C130.028 38.2649 130.191 38.3276 130.361 38.3213C132.637 38.2586 135.007 37.3181 135.139 34.7411C135.239 32.5841 133.251 30.8912 131.307 30.5087C130.68 30.3833 130.041 30.3833 129.426 30.4899C129.483 30.3771 129.514 30.2454 129.489 30.0886C129.138 28.2201 129.22 26.3579 129.627 24.5082C130.072 22.5143 131.358 21.091 132.179 19.2977C132.355 18.9215 131.997 18.514 131.608 18.7209C127.759 20.7963 127.382 26.7028 128.323 30.4147C128.361 30.5652 128.442 30.6592 128.536 30.7282C127.182 31.2298 126.091 32.302 125.859 33.857C125.47 36.4779 127.37 38.779 129.684 39.7007Z" fill="#333333"/>
<path fill-rule="evenodd" clip-rule="evenodd" d="M131.916 28.471C132.455 26.59 133.195 24.8218 134.323 23.2166C135.515 21.5174 137.358 21.0723 138.869 19.8245C139.07 19.6615 138.963 19.279 138.706 19.2288C136.637 18.815 134.7 20.5017 133.464 21.9814C131.997 23.7308 131.257 25.963 130.749 28.1512C130.574 28.9099 131.703 29.2297 131.916 28.471Z" fill="#333333"/>
<path fill-rule="evenodd" clip-rule="evenodd" d="M136.643 28.7657C137.766 27.7437 138.982 27.0916 140.518 27.0477C142.048 27.0038 143.02 28.1512 144.349 28.634C144.6 28.7281 144.826 28.4522 144.763 28.2202C144.368 26.6151 142.512 25.6432 140.938 25.5805C138.894 25.4927 137.157 26.4583 135.734 27.8565C135.138 28.4397 136.035 29.3175 136.643 28.7657Z" fill="#333333"/>
<path fill-rule="evenodd" clip-rule="evenodd" d="M139.584 31.3113C141.032 31.3991 142.362 31.8318 143.497 32.7597C144.638 33.6877 145.227 35.086 145.973 36.3149C146.205 36.7036 146.876 36.5657 146.851 36.0766C146.675 32.3083 143.076 30.1012 139.584 30.1639C138.838 30.1764 138.85 31.2674 139.584 31.3113Z" fill="#333333"/>
<path fill-rule="evenodd" clip-rule="evenodd" d="M142.174 41.9895C142.23 42.2779 142.657 42.3218 142.788 42.071C144.205 39.3372 142.468 36.1394 140.5 34.1957C139.942 33.6377 139.114 34.4716 139.641 35.0484C140.518 36.0078 141.171 37.0361 141.591 38.2776C141.992 39.4689 141.929 40.7605 142.174 41.9895Z" fill="#333333"/>
<path fill-rule="evenodd" clip-rule="evenodd" d="M133.038 48.4602C132.869 48.6608 132.95 49.0621 133.276 49.0308C137.822 48.5981 139.622 43.024 138.249 39.3121C137.973 38.5597 136.794 38.8544 137.038 39.6444C137.571 41.3812 137.527 43.0052 136.706 44.6354C135.866 46.297 134.179 47.087 133.038 48.4602Z" fill="#333333"/>
<path fill-rule="evenodd" clip-rule="evenodd" d="M132.242 41.2683C131.671 42.8045 130.831 44.1087 129.727 45.3188C128.818 46.3095 127.326 46.8801 126.649 48.0275C126.498 48.2846 126.699 48.5542 126.962 48.5793C128.505 48.6922 130.022 47.0494 130.963 45.996C132.079 44.7483 132.819 43.1494 133.339 41.5693C133.571 40.8608 132.493 40.5912 132.242 41.2683Z" fill="#333333"/>
<path fill-rule="evenodd" clip-rule="evenodd" d="M122.774 39.6381C123.633 39.4751 123.257 38.2148 122.416 38.3402C121.457 38.4907 120.498 38.3151 119.758 37.663C119.087 37.0736 118.968 36.1394 118.604 35.3744C118.422 34.992 117.933 35.1675 117.808 35.4748C117.319 36.6786 118.002 38.0079 118.905 38.823C119.965 39.7698 121.438 39.8889 122.774 39.6381Z" fill="#333333"/>
<path fill-rule="evenodd" clip-rule="evenodd" d="M118.874 28.1199C118.146 29.3551 118.849 31.0857 119.532 32.1955C120.291 33.437 121.589 34.2333 122.912 34.76C123.583 35.0296 124.072 33.8759 123.407 33.5749C122.329 33.0984 121.444 32.4526 120.767 31.4744C120.065 30.4461 120.172 29.1294 119.526 28.1199C119.369 27.8816 119.018 27.8628 118.874 28.1199Z" fill="#333333"/>
<path fill-rule="evenodd" clip-rule="evenodd" d="M44.485 37.3999C44.8298 39.4439 46.7735 40.629 48.6546 41.0428C49.4258 41.2121 49.7519 40.0584 48.9806 39.8515C47.758 39.5129 46.529 38.8357 46.0274 37.6005C45.5634 36.4468 46.3723 35.569 47.4006 35.174C48.5793 34.7163 50.6171 34.4717 51.4385 35.6881C52.2098 36.8356 50.6171 37.5942 49.9337 38.1648C49.5826 38.4595 49.8961 38.9611 50.2723 38.9862C52.1094 39.1179 53.4512 37.1741 52.9496 35.4875C52.285 33.224 49.4384 33.2052 47.5949 33.5939C45.8017 33.9701 44.1589 35.431 44.485 37.3999Z" fill="#333333"/>
<path fill-rule="evenodd" clip-rule="evenodd" d="M8.2686 87.5042C8.91442 87.5732 9.56652 87.6484 10.2123 87.7111C10.1559 87.8553 10.1308 88.0246 10.1935 88.2253C10.4381 88.9839 10.5509 89.7301 10.6011 90.4574C9.81105 89.4793 9.03356 88.4949 8.2686 87.5042ZM15.0968 88.1249C16.0373 88.1876 16.9841 88.2315 17.9309 88.2692C17.8744 88.3256 17.8305 88.382 17.7741 88.4384C16.8273 88.9526 15.9307 89.5545 15.0905 90.2505C15.078 89.6298 15.0529 89.0028 15.0278 88.382C15.0654 88.3068 15.0842 88.2253 15.0968 88.1249ZM18.1441 100.107C18.4325 100.577 18.7334 101.041 19.0093 101.518C19.442 102.27 20.7963 101.756 20.4515 100.91C20.4264 100.847 20.395 100.791 20.3637 100.722C20.37 100.722 20.3699 100.722 20.3699 100.722C20.3637 100.709 20.3574 100.697 20.3511 100.69C19.21 97.944 17.7365 95.4861 15.9182 93.1348C15.7614 92.9404 15.6109 92.7523 15.473 92.5767C16.6706 91.6425 17.8305 90.6581 18.9027 89.5733C19.5235 89.2598 20.1693 88.9714 20.8653 88.7457C21.787 88.4447 21.4045 87.0026 20.4577 87.2847C20.4452 87.2847 20.4326 87.291 20.4201 87.2973C20.3386 86.9838 20.0941 86.733 19.6928 86.733C18.1441 86.7142 16.6016 86.6389 15.0654 86.5449C15.0027 85.341 14.8648 84.1873 14.5387 82.9709C14.5074 82.8455 14.4321 82.7514 14.3444 82.6762C14.2566 82.2874 14.2001 81.8987 14.0998 81.5099C13.9305 80.8265 12.7768 80.7575 12.664 81.5099C12.4445 82.9145 12.131 84.6199 11.968 86.3191C10.1747 86.1624 8.38146 85.9931 6.5882 85.7987C5.84206 85.7235 5.69785 86.6452 6.04897 87.0904C7.4911 88.9463 8.92069 90.8524 10.4255 92.6896C10.1935 93.674 9.75462 94.5832 9.11507 95.3983C8.21844 96.1131 7.33435 96.8404 6.50042 97.6367C5.83579 98.2763 6.69479 99.361 7.47856 98.9033C8.59464 98.2512 9.49754 97.4549 10.2249 96.5708C10.9271 96.0128 11.6419 95.461 12.3567 94.928C14.1061 96.8592 15.9934 98.6399 18.1441 100.107Z" fill="#333333"/>
<path fill-rule="evenodd" clip-rule="evenodd" d="M183.958 88.6832C183.958 88.0875 183.977 87.4856 184.027 86.8837C184.817 86.7081 185.601 86.5388 186.384 86.3695C185.613 87.1783 184.798 87.9433 183.958 88.6832ZM181.281 90.9091C181.18 90.7837 181.067 90.6771 180.967 90.5579C181.444 90.119 181.788 89.5547 182.008 88.934C182.014 88.9214 182.02 88.9152 182.02 88.9089V88.9026C182.039 88.8399 182.083 88.7835 182.102 88.7145C182.384 87.7803 181.149 87.3978 180.635 88.0938C180.578 88.1753 180.528 88.2693 180.472 88.3509C180.296 88.3132 180.121 88.3446 179.976 88.4386C180.139 88.1878 180.309 87.9433 180.472 87.6862C181.105 87.5483 181.732 87.4041 182.365 87.2599C182.309 88.1816 182.321 89.1033 182.384 90.0187C182.014 90.3197 181.65 90.6144 181.281 90.9091ZM177.299 93.8184C177.092 93.9626 176.891 94.1131 176.685 94.2573C177.236 93.1663 177.832 92.1004 178.44 91.047C178.465 91.1536 178.522 91.2477 178.603 91.3166C178.145 92.138 177.713 92.9719 177.299 93.8184ZM188.391 84.3129C186.999 84.57 185.607 84.8521 184.221 85.1531C184.416 83.9116 184.685 82.6701 185.03 81.4349C185.243 80.6825 184.215 79.999 183.657 80.6386C182.14 82.4068 180.785 84.2815 179.494 86.2065C178.678 86.382 177.863 86.5513 177.042 86.7206C174.91 85.0653 172.452 83.8426 169.405 83.3661C168.408 83.2156 167.975 84.733 168.985 84.896C171.248 85.2597 173.167 86.0623 174.86 87.1533C173.625 87.379 172.383 87.5984 171.135 87.7552C170.214 87.8743 170.164 89.3165 171.135 89.2475C172.991 89.097 174.829 88.8149 176.653 88.4763C176.96 88.7333 177.261 88.9967 177.556 89.2726C176.202 91.5612 174.948 93.9125 173.825 96.339C173.512 97.0099 174.208 97.9818 174.948 97.4614C176.985 96.0443 179.048 94.6273 181.049 93.135C182.215 94.6022 183.337 96.1384 184.51 97.6495C184.554 97.7059 184.597 97.7623 184.635 97.8125C185.224 98.5712 186.334 97.6056 185.914 96.8281C184.861 94.8718 184.296 92.834 184.071 90.7649C185.914 89.2161 187.657 87.5546 189.187 85.6798C189.714 85.034 189.225 84.1687 188.391 84.3129Z" fill="#333333"/>
<path fill-rule="evenodd" clip-rule="evenodd" d="M107.155 47.7644C107.525 48.5795 107.914 49.3883 108.34 50.1847C107.907 50.5483 107.462 50.8994 107.004 51.213C107.036 50.0592 107.099 48.9118 107.155 47.7644ZM102.716 59.8845C103.719 58.781 104.779 57.69 105.838 56.5739C105.844 56.6053 105.851 56.6366 105.851 56.6617C106.083 57.621 107.462 57.2009 107.305 56.2667C107.236 55.903 107.199 55.5393 107.155 55.1694C107.506 54.7932 107.851 54.4107 108.19 54.022C109.149 54.1223 110.096 54.3355 111.024 54.7305C111.72 55.0252 112.572 54.3919 112.127 53.6332C111.613 52.7554 111.105 51.8901 110.591 51.0186C111.143 50.2474 111.669 49.451 112.127 48.6171C112.547 47.8396 111.481 46.9242 110.861 47.6452C110.428 48.1531 109.97 48.6359 109.5 49.1062C108.628 47.5136 107.838 45.8896 107.224 44.1528C106.973 43.4317 105.945 43.5571 105.907 44.3283C105.782 46.9493 105.399 49.5639 105.387 52.166C105.098 52.3102 104.791 52.4168 104.49 52.5359C103.336 52.6927 102.176 52.9372 101.023 53.2507C100.145 53.489 100.302 54.8998 101.236 54.8496C102.54 54.7869 103.738 54.5173 104.866 54.1035C105.067 54.0784 105.261 54.0596 105.462 54.0345C105.468 54.1411 105.481 54.254 105.493 54.3606C104.095 55.834 102.716 57.3201 101.587 59.013C101.136 59.6964 102.17 60.4927 102.716 59.8845Z" fill="#333333"/>
<path fill-rule="evenodd" clip-rule="evenodd" d="M61.5211 64.4239C62.1794 64.8314 63.051 64.0163 62.6058 63.3454C62.0164 62.4676 61.4333 61.5835 60.8439 60.7119C61.1511 60.0097 61.4395 59.3074 61.7217 58.6177C62.0227 57.8778 60.8878 57.2446 60.3862 57.8402C60.1103 58.1663 59.803 58.4484 59.5083 58.7494C58.7371 57.6396 57.9408 56.536 57.0818 55.4764C56.6304 54.9058 55.6961 55.5203 55.8968 56.1661C56.3607 57.6897 56.8059 59.2134 57.2135 60.7496C56.6178 61.1759 55.9908 61.5584 55.3387 61.9033C54.486 62.1478 53.6332 62.5177 52.7742 63.0507C52.0218 63.5147 52.5109 64.844 53.4012 64.5242C53.4639 64.4991 53.5266 64.4615 53.5893 64.4427C53.5956 64.4427 53.5956 64.4427 53.5956 64.4427C54.3857 64.148 55.1443 63.8157 55.8779 63.4332C56.5112 63.2639 57.132 63.1886 57.759 63.2012C57.3201 64.0727 56.8812 64.938 56.4861 65.8284C56.1225 66.6309 57.1257 67.2078 57.6524 66.5118C57.8907 66.1858 58.1038 65.8346 58.3233 65.4961C58.5929 66.3049 59.8783 65.9036 59.7341 65.0007C59.6588 64.5242 59.5522 64.0539 59.4582 63.5899C59.477 63.5523 59.4895 63.5272 59.5083 63.4959C60.173 63.7028 60.8376 64.01 61.5211 64.4239Z" fill="#333333"/>
<path fill-rule="evenodd" clip-rule="evenodd" d="M22.1194 91.793C21.4422 91.7115 21.3357 92.7837 21.9627 92.953C50.9181 100.659 82.3127 121.169 80.6009 154.996C80.5508 155.955 82.0054 155.936 82.0744 154.996C84.3379 123.213 52.0154 95.229 22.1194 91.793Z" fill="#333333"/>
<path fill-rule="evenodd" clip-rule="evenodd" d="M39.3499 87.9431C47.081 92.4137 54.0847 96.8027 60.4552 103.167C66.1296 108.841 70.8949 115.318 76.118 121.388C76.5631 121.908 77.2529 121.168 76.8516 120.654C66.8695 107.794 55.8341 92.4826 39.7199 87.0715C39.1994 86.8897 38.8859 87.6734 39.3499 87.9431Z" fill="#333333"/>
<path fill-rule="evenodd" clip-rule="evenodd" d="M35.1301 91.7994C35.7571 91.0093 36.2337 90.0625 36.6099 89.0405C37.1177 89.7678 37.6068 90.5077 38.0583 91.2601C38.4909 91.9812 39.6133 91.3291 39.1869 90.5955C38.5473 89.4857 37.8325 88.4386 37.0801 87.4291C37.2431 86.7268 37.3623 85.9995 37.4438 85.2722C37.9078 85.1468 38.3592 84.99 38.8358 84.9085C39.701 84.758 39.5067 83.6043 38.8358 83.3535C38.4282 83.203 38.0081 83.0776 37.5943 82.9459C37.6005 82.0054 37.5629 81.09 37.4814 80.2498C37.3936 79.3344 36.2337 79.1713 35.9076 80.0366C35.6317 80.7639 35.3496 81.5101 35.0486 82.2437C33.7256 81.9365 32.3901 81.6919 31.0545 81.4662C30.2269 81.322 29.7441 82.3503 30.4777 82.8394C31.5122 83.5228 32.4402 84.3379 33.3306 85.2032C31.7254 86.1688 30.3147 87.4604 29.1798 89.0593C28.6468 89.8117 29.6375 90.4513 30.2958 90.1754C32.1957 89.3728 33.5438 88.0561 34.6034 86.4948C34.8417 86.7707 35.0611 87.0529 35.2869 87.335C34.8981 88.6957 34.3463 90.0061 34.1896 91.4106C34.1394 91.8746 34.8417 92.163 35.1301 91.7994Z" fill="#333333"/>
<path fill-rule="evenodd" clip-rule="evenodd" d="M160.658 125.106C161.473 125.978 162.539 126.661 163.668 127.037C164.539 127.338 164.878 125.997 164.044 125.677C163.48 125.464 162.972 125.188 162.514 124.837C162.934 124.78 162.934 124.059 162.514 123.996C162.207 123.952 161.887 123.927 161.573 123.89C161.454 123.739 161.329 123.589 161.222 123.413C160.595 122.391 160.589 121.081 160.426 119.927C160.376 119.526 159.724 119.457 159.561 119.814C158.946 121.212 159.116 122.56 159.711 123.739C140.732 122.667 117.538 136.812 114.134 155.78C113.971 156.683 115.344 157.078 115.526 156.162C119.764 134.649 141.741 127.903 160.658 125.106Z" fill="#333333"/>
<path fill-rule="evenodd" clip-rule="evenodd" d="M34.5845 121.821C33.2176 120.824 31.556 120.172 30.0574 119.921C29.2611 119.789 28.9037 120.974 29.7126 121.15C31.0418 121.438 32.183 121.984 33.2803 122.761C34.4716 123.601 35.2428 124.812 36.3025 125.765C36.685 126.116 37.3496 125.783 37.1991 125.25C36.9546 124.404 36.4843 123.658 35.8949 122.999C55.9092 123.388 70.9324 135.59 75.3278 155.673C75.5221 156.563 76.8013 156.162 76.6696 155.297C73.8418 136.311 54.7053 117.776 34.5845 121.821Z" fill="#333333"/>
<path fill-rule="evenodd" clip-rule="evenodd" d="M28.8285 108.509C28.9163 108.234 28.6781 108.02 28.4273 107.989C27.0478 107.826 25.8565 109.557 25.3612 110.66C24.7467 112.027 24.8345 113.519 25.38 114.886C25.6809 115.639 26.8911 115.35 26.6277 114.541C26.2453 113.363 26.239 112.228 26.797 111.112C27.3049 110.09 28.4837 109.569 28.8285 108.509Z" fill="#333333"/>
<path fill-rule="evenodd" clip-rule="evenodd" d="M29.5181 115.682C29.587 114.46 30.0071 113.394 30.8724 112.516C31.6311 111.751 32.6531 111.757 33.5497 111.287C33.8821 111.112 33.9134 110.535 33.5497 110.372C32.2644 109.776 30.7784 110.604 29.8316 111.481C28.6841 112.535 28.2891 114.184 28.3079 115.682C28.3267 116.466 29.4679 116.454 29.5181 115.682Z" fill="#333333"/>
<path fill-rule="evenodd" clip-rule="evenodd" d="M30.7032 118.19C31.6312 117.57 32.5968 117.118 33.7191 117.024C34.8164 116.924 35.6378 117.576 36.6786 117.614C37.0799 117.632 37.2304 117.206 37.0925 116.899C36.6097 115.789 35.1989 115.563 34.1016 115.507C32.6407 115.432 31.1672 116.209 30.0386 117.055C29.3739 117.551 29.9884 118.679 30.7032 118.19Z" fill="#333333"/>
<path fill-rule="evenodd" clip-rule="evenodd" d="M29.7376 124.811C29.004 124.335 28.3644 125.476 29.0604 125.971C32.5968 128.473 32.3899 132.398 30.6217 135.935C30.4837 136.211 30.8098 136.455 31.0481 136.261C35.0108 132.994 33.7066 127.401 29.7376 124.811Z" fill="#333333"/>
<path fill-rule="evenodd" clip-rule="evenodd" d="M26.4083 130.241C26.2829 131.702 25.5994 132.887 24.3328 133.634C23.1164 134.348 21.7809 133.797 20.552 134.204C20.2447 134.311 20.1444 134.668 20.3639 134.906C21.5552 136.211 24.0444 135.577 25.3549 134.806C26.9538 133.859 27.5808 132.01 27.5369 130.241C27.5181 129.508 26.4647 129.527 26.4083 130.241Z" fill="#333333"/>
<path fill-rule="evenodd" clip-rule="evenodd" d="M19.2038 129.646C18.3448 129.615 17.492 129.577 16.6393 129.445C15.8869 129.326 15.2285 128.919 14.4886 128.787C14.0999 128.718 13.6296 129.132 13.918 129.527C15.0529 131.094 17.5046 130.894 19.2038 130.843C19.9813 130.818 19.9813 129.671 19.2038 129.646Z" fill="#333333"/>
<path fill-rule="evenodd" clip-rule="evenodd" d="M15.3227 123.764C14.2254 123.721 13.2097 123.489 12.4322 122.667C11.686 121.871 11.9556 120.548 11.1969 119.808C11.0653 119.683 10.8458 119.67 10.7141 119.808C9.79243 120.774 10.5449 122.68 11.2722 123.558C12.2691 124.761 13.8241 125.087 15.3227 125.075C16.1692 125.069 16.1629 123.796 15.3227 123.764Z" fill="#333333"/>
<path fill-rule="evenodd" clip-rule="evenodd" d="M17.2477 120.015C16.6332 119.112 16.1253 118.178 15.7805 117.124C15.4043 115.977 15.6739 114.723 15.2475 113.626C15.1409 113.362 14.7584 113.168 14.539 113.437C12.8461 115.482 14.9089 119.137 16.2006 120.874C16.3887 121.125 16.6646 121.194 16.9154 121.15C16.3134 124.366 19.7871 126.705 22.4268 127.483C23.2482 127.721 23.5742 126.486 22.7779 126.21C20.6147 125.476 17.8872 123.601 18.4954 120.974C18.903 119.219 20.6336 118.065 22.339 118.165C23.5805 118.24 24.8471 119.043 25.5054 120.071C26.308 121.332 25.3863 122.297 24.3392 122.918C23.9505 122.097 24.0006 121.106 23.4112 120.347C23.1792 120.046 22.7591 120.153 22.7152 120.535C22.5459 121.971 22.5648 123.338 23.5178 124.473C23.7561 124.755 24.1511 124.73 24.4458 124.598C26.3206 123.739 27.9257 122.078 27.1106 119.889C26.3895 117.952 24.289 116.861 22.339 116.635C20.0755 116.372 18.1004 118.008 17.2477 120.015Z" fill="#333333"/>
<path fill-rule="evenodd" clip-rule="evenodd" d="M20.019 110.829C20.019 110.566 19.7494 110.447 19.5237 110.547C17.4232 111.544 17.8245 114.817 18.6271 116.51C18.997 117.294 20.1256 116.61 19.7808 115.827C19.3544 114.842 19.3042 113.877 19.5425 112.836C19.7055 112.146 20.019 111.557 20.019 110.829Z" fill="#333333"/>
<path fill-rule="evenodd" clip-rule="evenodd" d="M169.499 115.011C169.254 115.764 170.396 116.234 170.759 115.544C171.361 114.428 172.051 113.45 173.129 112.735C174.114 112.083 175.443 111.926 176.584 111.713C176.929 111.651 177.004 111.105 176.684 110.955C173.719 109.538 170.421 112.209 169.499 115.011Z" fill="#333333"/>
<path fill-rule="evenodd" clip-rule="evenodd" d="M183.268 116.127C183.594 116.134 183.839 115.739 183.657 115.457C182.052 112.999 177.619 113.613 175.311 114.497C174.446 114.823 174.81 116.221 175.7 115.895C176.91 115.463 178.095 115.262 179.387 115.3C180.76 115.337 181.939 116.096 183.268 116.127Z" fill="#333333"/>
<path fill-rule="evenodd" clip-rule="evenodd" d="M182.152 118.986C181.406 118.535 180.76 119.676 181.475 120.146C182.722 120.962 183.644 122.002 184.371 123.3C184.98 124.391 185.155 125.627 185.933 126.611C186.108 126.83 186.453 126.68 186.522 126.454C187.425 123.595 184.371 120.328 182.152 118.986Z" fill="#333333"/>
<path fill-rule="evenodd" clip-rule="evenodd" d="M181.237 124.272C181.908 125.269 182.334 126.31 182.597 127.482C182.804 128.423 182.585 129.426 182.93 130.335C183.024 130.586 183.318 130.693 183.519 130.492C185.287 128.755 183.575 125.175 182.397 123.595C181.889 122.918 180.741 123.545 181.237 124.272Z" fill="#333333"/>
<path fill-rule="evenodd" clip-rule="evenodd" d="M178.798 129.433C179.167 130.812 179.048 131.997 178.396 133.27C177.801 134.424 176.747 135.22 176.051 136.305C175.838 136.643 176.202 137.189 176.609 137.026C179.631 135.803 180.936 132.085 179.976 129.107C179.738 128.367 178.597 128.668 178.798 129.433Z" fill="#333333"/>
<path fill-rule="evenodd" clip-rule="evenodd" d="M174.101 133.214C173.167 134.273 172.139 135.139 170.885 135.791C169.693 136.411 168.377 136.242 167.141 136.637C166.784 136.744 166.734 137.201 167.041 137.402C169.825 139.208 173.374 136.123 174.966 134.073C175.437 133.471 174.634 132.605 174.101 133.214Z" fill="#333333"/>
<path fill-rule="evenodd" clip-rule="evenodd" d="M168.032 133.922C166.772 134.298 165.53 134.511 164.213 134.461C162.809 134.398 161.868 133.42 160.577 133.201C160.244 133.144 159.918 133.402 160.012 133.765C160.351 135.069 161.875 135.596 163.072 135.872C164.834 136.286 166.734 135.853 168.414 135.301C169.286 135.019 168.928 133.659 168.032 133.922Z" fill="#333333"/>
<path fill-rule="evenodd" clip-rule="evenodd" d="M161.059 126.417C160.928 126.373 160.721 126.417 160.627 126.53C159.918 127.451 160.928 128.686 161.63 129.313C162.595 130.179 163.881 130.636 165.116 130.95C166.031 131.182 166.414 129.784 165.505 129.539C164.502 129.263 163.517 128.906 162.708 128.235C162.081 127.715 161.83 126.686 161.059 126.417Z" fill="#333333"/>
<path fill-rule="evenodd" clip-rule="evenodd" d="M164.608 116.767C163.624 117.3 163.73 118.604 163.737 119.563C163.743 120.341 164.934 120.341 164.94 119.563C164.953 118.767 165.022 118.021 165.241 117.256C165.354 116.874 164.934 116.591 164.608 116.767Z" fill="#333333"/>
<path fill-rule="evenodd" clip-rule="evenodd" d="M172.509 123.852C172.904 123.426 172.509 122.78 171.957 122.905C170.49 123.231 168.834 124.573 168.822 126.191C168.803 127.514 170.095 128.323 171.186 128.718C173.832 129.69 177.813 128.78 178.252 125.57C178.904 120.899 174.045 117.776 169.963 119.67C168.057 120.554 166.521 122.165 165.975 124.222C165.342 126.624 166.696 128.818 168.515 130.266C168.778 130.48 169.054 130.662 169.33 130.843C170.082 131.358 170.747 130.16 170.032 129.639C168.49 128.536 167.079 126.906 167.386 124.874C167.624 123.344 168.765 122.115 170.032 121.338C173.136 119.432 176.892 121.426 176.754 125.169C176.672 127.426 173.75 127.721 172.082 127.32C171.487 127.175 170.609 126.874 170.433 126.21C170.22 125.37 172.07 124.316 172.509 123.852Z" fill="#333333"/>
<path fill-rule="evenodd" clip-rule="evenodd" d="M81.8109 6.81394C81.0397 9.77344 80.2559 13.4665 80.651 16.6957C80.6384 16.6831 80.6322 16.6706 80.6259 16.658C77.9297 12.2 78.1178 4.68209 85.1905 6.05525C85.6671 6.1493 86.1436 6.29979 86.6139 6.46281C86.3756 6.5067 86.1561 6.65091 86.1248 6.95188C85.8301 9.77971 85.4915 12.5887 85.0839 15.3977C84.7892 17.4105 84.2563 19.3981 84.0055 21.4171C83.2029 20.4076 82.4317 19.3855 81.7106 18.3134C82.068 16.9465 82.0429 15.542 82.0868 14.1249C82.1621 11.7611 82.3376 9.40977 82.8079 7.08982C82.9396 6.444 81.9802 6.16812 81.8109 6.81394ZM92.4325 10.3189C91.0845 14.0747 89.5984 17.7679 88.2943 21.5425C88.0434 22.2761 87.3725 23.7307 87.8428 24.5333C88.2629 25.2481 88.9589 24.6086 89.0906 24.0756C89.1094 24.0004 89.0906 23.9377 89.078 23.875C89.0906 23.8562 89.1094 23.8436 89.1219 23.8248C89.3037 23.4862 89.3915 23.0912 89.5044 22.7213C89.9245 21.323 90.3885 19.9436 90.8525 18.5579C91.6739 16.1314 92.4702 13.6923 93.2539 11.2406C93.5486 11.598 93.8182 11.9617 94.0816 12.3317C93.1724 15.404 92.1567 18.4325 91.1158 21.4672C90.5828 23.0034 89.4417 24.9973 88.8962 26.8282C87.8992 25.825 86.9274 24.8092 85.9931 23.7558C86.7518 21.9563 87.3788 20.1066 87.9431 18.2444C87.9494 18.2256 87.9557 18.2193 87.9619 18.2068C87.9619 18.2005 87.9619 18.1942 87.9619 18.188C88.4949 16.426 89.009 14.6579 89.6172 12.921C89.8492 12.2627 88.8272 11.9993 88.5889 12.6389C87.5418 15.404 86.6515 18.2318 85.6044 20.997C85.341 21.4923 85.1028 21.9939 84.877 22.5081L84.8708 22.5018C86.9399 17.887 86.8459 11.8614 87.2283 6.95188C87.2409 6.81394 87.1844 6.73243 87.1217 6.65091C89.0717 7.42214 90.9089 8.73887 92.4325 10.3189ZM95.0284 13.8678C95.2541 14.2942 95.4547 14.7206 95.6303 15.1532C94.1067 19.279 91.8306 24.5333 91.4795 29.3174C91.0845 28.9475 90.6769 28.5776 90.2882 28.1951C91.3039 26.6464 91.7679 24.2762 92.2946 22.7714C93.3292 19.8495 94.2007 16.865 95.0284 13.8678ZM96.226 32.3898C96.8216 31.5371 97.3546 30.6467 97.8374 29.725C97.9941 29.7375 98.1572 29.6936 98.2512 29.5243C101.38 24.0443 102.446 17.3478 104.778 11.4915C105.092 10.714 103.838 10.3816 103.518 11.1529C103.412 11.4288 103.299 11.7172 103.186 11.9993C103.512 10.5635 103.844 9.1527 104.208 7.79835C105.719 6.24963 107.418 4.34978 107.845 2.18031C107.845 2.1615 107.838 2.14896 107.838 2.13015C108.026 2.06745 108.221 1.98594 108.415 1.93578C112.773 0.731912 112.566 6.00509 112.14 8.68871C111.205 14.6704 107.945 20.0188 104.202 25.0161C104.891 23.3608 105.506 21.6679 106.076 19.9561C106.221 19.9561 106.365 19.9248 106.453 19.7868C108.265 17.1095 109.525 14.0183 110.942 11.1152C111.255 10.4757 110.309 9.91138 109.983 10.5572C109.161 12.1624 108.277 13.7612 107.456 15.3915C108.566 11.4789 109.512 7.52873 110.528 3.71022C110.723 2.98916 109.632 2.69446 109.418 3.40299C106.609 12.9022 103.938 22.1444 99.5241 30.9727C98.6274 32.0826 97.7496 33.1798 96.9157 34.2646C96.389 33.8068 95.8811 33.3366 95.3607 32.8726C95.4359 32.7096 95.4861 32.534 95.5551 32.3773C95.6805 32.5967 96.0504 32.6469 96.226 32.3898ZM97.4988 13.9243C98.3139 10.0932 100.458 7.13998 103.38 4.61939C104.402 3.74157 105.568 3.03305 106.804 2.50636C105.568 3.9673 104.565 5.61007 103.211 6.98323C103.085 7.1149 103.042 7.25285 103.035 7.39079C101.317 13.1468 99.4864 18.8902 97.7371 24.6462C98.4832 20.5267 98.8155 16.2756 99.2983 12.294C99.3673 11.7485 98.4268 11.6231 98.339 12.1624C98.1885 13.1091 98.013 14.0371 97.8499 14.9714C97.6994 14.6767 97.248 14.5826 96.9909 14.8146C96.9658 14.7895 96.9596 14.7457 96.9345 14.7268C96.8969 14.614 96.8655 14.4948 96.8216 14.3757C97.1163 14.4008 97.4298 14.2629 97.4988 13.9243ZM93.348 31.0605C93.2539 30.9727 93.1536 30.885 93.0595 30.7972C93.5612 28.7594 93.7743 26.5774 94.2697 24.5709C94.3888 24.0881 94.5456 23.6116 94.671 23.1288C94.069 25.7685 93.5988 28.4396 93.348 31.0605ZM84.2061 24.2762C84.156 24.433 84.0933 24.5709 84.0494 24.7277C83.8487 25.4049 84.7454 25.8877 85.2031 25.4676C87.128 27.7374 89.2661 29.9507 91.5171 31.9572C91.5484 32.2393 91.5422 32.5277 91.5923 32.7974C91.6739 33.2676 92.3009 33.1548 92.4388 32.7974C92.4451 32.7911 92.4451 32.7848 92.4451 32.7785C92.6896 32.9855 92.9404 33.1798 93.1912 33.3867C93.1661 33.9636 93.1411 34.5405 93.1473 35.1048C93.1473 35.4057 93.6176 35.5813 93.7555 35.2741C93.906 34.9167 94.0189 34.5405 94.1568 34.1768C94.7588 34.647 95.3607 35.086 95.9752 35.5061C95.9187 35.5876 95.856 35.6628 95.7996 35.738C95.3231 36.3839 96.32 37.0422 96.8592 36.5532C96.9596 36.4591 97.0599 36.3525 97.1602 36.2647C97.6744 36.4152 98.1634 35.8823 98.038 35.4057C103.305 30.2329 107.587 23.2291 110.867 16.8023C112.666 13.2784 116.184 5.39689 112.823 1.74767C107.08 -4.48483 97.3797 7.52246 96.3012 13.1969C96.0818 12.7706 95.8372 12.3505 95.5613 11.9304C95.6428 11.5228 95.3481 11.2469 95.0158 11.1905C90.5201 5.14608 80.513 0.249114 77.4281 9.02102C75.7728 13.7111 80.0804 19.0156 82.7076 22.4078C83.1904 23.0285 83.692 23.6492 84.2061 24.2762Z" fill="#333333"/>
<path fill-rule="evenodd" clip-rule="evenodd" d="M84.1312 18.8149C84.8585 17.2975 84.8836 15.5043 85.0717 13.8427C85.2911 11.8801 85.3601 9.8925 85.3476 7.92368C85.3413 7.13364 84.15 7.13991 84.1249 7.92368C84.0747 9.65423 83.9242 11.366 83.7236 13.084C83.5104 14.9211 82.99 16.8837 83.3537 18.7146C83.4226 19.0657 83.9744 19.1409 84.1312 18.8149Z" fill="#333333"/>
<path fill-rule="evenodd" clip-rule="evenodd" d="M14.3383 59.3952C15.1973 60.3357 16.0375 61.3013 16.8839 62.2669C17.5987 63.0758 18.4264 64.3423 19.4484 64.9066C19.2791 64.8878 19.1161 64.8878 18.9468 64.8627C16.8839 64.5743 14.89 62.9754 14.1627 61.0066C13.9495 60.4298 14.0624 59.8968 14.3383 59.3952ZM15.6424 57.9719C15.6487 58.1098 15.6989 58.2603 15.8243 58.392C17.1347 59.7463 18.4515 61.1007 19.7995 62.4174C20.6899 63.2827 21.7245 64.4427 22.9095 64.9944C22.1195 65.0383 21.3232 65.0446 20.5143 64.9944C20.5958 64.8878 20.646 64.7499 20.6084 64.5931C20.3638 63.4018 19.0471 62.4237 18.2571 61.5396C17.2727 60.4423 16.2506 59.3638 15.2035 58.323C15.3415 58.1976 15.492 58.0847 15.6424 57.9719ZM17.6426 56.674C17.6928 56.6489 17.7429 56.6301 17.7931 56.5987C18.9154 58.0095 20.0127 59.4265 21.1539 60.8185C22.2073 62.1102 23.4864 63.8721 25.0351 64.7436C24.7028 64.7875 24.3767 64.869 24.0444 64.9004C24.1008 64.7562 24.1134 64.5994 24.0381 64.4427C23.3923 63.2074 21.9 62.2857 20.8717 61.3452C19.486 60.0661 18.1191 58.7619 16.7648 57.4515C16.7021 57.3888 16.6331 57.3511 16.5642 57.3198C16.9654 57.0627 17.3479 56.8433 17.6426 56.674ZM20.5645 55.3447C20.5394 55.4387 20.5331 55.5391 20.5833 55.6519C21.2918 57.3637 22.1069 59.0064 23.0788 60.5865C23.1415 60.6806 23.2105 60.7872 23.2732 60.8875C22.8844 60.5176 22.5145 60.1539 22.1885 59.7839C21.0975 58.5362 20.0127 57.2884 18.928 56.0344C19.4672 55.7836 20.0127 55.5641 20.5645 55.3447ZM22.0881 54.7804C23.1791 56.6363 24.22 58.5236 25.2984 60.3859C25.7185 61.1195 26.1386 61.9032 26.5964 62.6494C25.8628 61.7026 24.9787 60.8185 24.3078 59.8655C23.2795 58.392 22.4142 56.8244 21.6555 55.2005C21.6116 55.1064 21.5552 55.05 21.4862 54.9998C21.6868 54.9309 21.8875 54.8494 22.0881 54.7804ZM24.3015 53.9151C25.1354 55.7209 26.1136 57.4515 27.1858 59.1319C28.1576 60.6555 29.1358 62.4049 30.5967 63.5084C30.0826 63.6401 29.5747 63.7906 29.0605 63.9222C28.4586 62.4111 27.3801 61.0317 26.5525 59.6523C25.4928 57.8653 24.4206 56.0846 23.3296 54.3101C23.6557 54.1847 23.9754 54.0468 24.3015 53.9151ZM22.5584 45.0241C22.5835 45.093 22.6148 45.1683 22.6713 45.2372C24.9285 48.04 27.1732 50.8553 29.3678 53.7082C30.1202 54.6989 30.835 55.7397 31.5623 56.7743C31.1547 56.2978 30.7472 55.8212 30.3647 55.3384C28.8912 53.4699 27.4616 51.5701 25.9066 49.7643C25.4364 49.2188 24.6777 49.9963 25.1229 50.5418C25.5304 51.0371 25.9255 51.5638 26.3205 52.103C25.8314 51.8146 25.0978 52.3288 25.4803 52.8868C27.6686 55.9905 30.07 60.3671 33.5374 62.1917C33.9073 62.386 34.4466 61.9659 34.1581 61.5709C33.9073 61.2386 33.6189 60.9439 33.343 60.6304C33.5813 60.806 33.807 61.0066 34.0578 61.1696C34.3588 61.364 34.6974 61.0317 34.6096 60.7245C34.8729 61.0254 35.1237 61.3389 35.4059 61.6211C35.7758 61.991 36.2586 61.527 36.0768 61.1007C35.1614 58.9312 33.6879 56.9749 32.1893 55.0876C32.6031 55.5014 33.017 55.9153 33.4559 56.2915C33.8321 56.6175 34.3964 56.2162 34.1519 55.7523C32.6345 52.937 30.3772 50.4289 28.5213 47.8205C26.4271 44.8673 24.4771 41.8075 22.5897 38.7163C22.4832 38.5407 22.3264 38.4718 22.1696 38.4592C23.1917 37.0234 26.3706 39.8512 27.0666 40.7792C31.5435 46.6982 34.4403 54.749 36.6787 61.8343C34.8353 62.3296 33.017 62.85 31.1986 63.3454C31.2174 63.2827 31.2237 63.2262 31.2049 63.1635C30.6719 61.4142 29.3364 59.9595 28.3144 58.4672C27.1544 56.768 26.1261 54.9873 25.2483 53.1251C25.242 53.0436 25.2295 52.962 25.1981 52.8868C25.2984 52.6924 25.3235 52.4604 25.1856 52.2034C23.9566 49.9587 23.1917 47.4945 22.5584 45.0241ZM22.4079 44.4472C22.0192 42.8671 21.7934 41.262 21.8561 39.6317C23.5616 42.6602 25.3674 46.021 27.4366 49.1498C26.1324 47.5572 24.8219 45.9771 23.5052 44.397C23.0851 43.8892 22.4267 44.4409 22.5521 44.9802C22.502 44.8046 22.4518 44.6228 22.4079 44.4472ZM26.1324 66.2798C29.5182 65.8409 34.8855 65.264 37.776 63.0319C38.2024 62.9629 38.5786 62.6118 38.4156 62.0788C36.6787 56.5047 34.2961 51.081 31.7316 45.8454C29.9446 42.1962 27.7375 37.4686 23.3234 36.5218C17.2288 35.2176 22.1383 49.4821 23.6933 52.5545C23.2481 52.6673 22.7841 52.799 22.295 52.9432C22.0442 52.8868 21.7621 52.9871 21.6053 53.1815C20.3576 53.6016 19.0409 54.1157 17.8119 54.749C17.7617 54.6989 17.7179 54.6487 17.674 54.5985C17.2037 54.0656 16.4952 54.749 16.7961 55.3071C13.0968 57.4891 10.7329 60.6806 14.7772 64.543C17.7367 67.3708 22.433 66.7626 26.1324 66.2798Z" fill="#333333"/>
<path fill-rule="evenodd" clip-rule="evenodd" d="M26.0257 42.1711C27.9758 45.5507 29.9885 49.3942 32.553 52.3349C32.7787 52.592 33.2364 52.3224 33.1298 52.0026C31.8444 48.3032 28.9163 45.0052 26.9537 41.6318C26.6026 41.0299 25.6746 41.5691 26.0257 42.1711Z" fill="#333333"/>
<path fill-rule="evenodd" clip-rule="evenodd" d="M155.479 59.9971C155.717 59.878 155.811 59.6962 155.836 59.5081C157.096 58.9939 158.332 58.4296 159.473 57.7273C159.416 57.8904 159.341 58.0534 159.285 58.2164C159.159 58.5926 159.341 58.8434 159.598 58.9688C155.516 60.4925 151.573 62.9441 147.992 65.1198C147.265 65.5587 147.917 66.6811 148.651 66.2485C153.497 63.4332 158.771 61.5647 163.636 58.8685C164.201 58.5613 163.806 57.765 163.222 57.8841C163.009 57.928 162.802 57.997 162.589 58.0471C164.746 57.0627 167.022 56.6865 169.486 56.7179C170.433 56.7241 171.355 56.8495 172.182 57.0627C171.549 57.4515 170.928 57.859 170.301 58.254C170.257 58.2039 170.195 58.1663 170.107 58.1976C168.847 58.6365 167.611 59.1444 166.389 59.6711C166.339 59.6397 166.282 59.6209 166.22 59.6335C159.868 60.9126 153.679 64.6057 147.654 66.9633C146.832 67.283 147.183 68.6123 148.024 68.2925C149.848 67.5965 151.804 66.9194 153.78 66.2046C153.397 66.4177 153.008 66.6184 152.626 66.8253C151.234 67.5401 149.842 68.2486 148.456 68.976C147.66 69.3898 148.362 70.5435 149.159 70.1673C154.438 67.6843 159.642 64.9004 164.708 61.9409C164.683 61.9597 164.658 61.9722 164.633 61.991C161.761 63.9473 158.601 65.6026 155.855 67.7219C155.479 68.0104 155.673 68.7126 156.206 68.5496C157.303 68.2173 158.369 67.7533 159.416 67.2329C158.351 67.9226 157.322 68.6499 156.388 69.4838C152.582 70.1485 148.77 70.625 145.19 71.2019C145.146 71.2144 145.114 71.2332 145.077 71.2457C145.917 69.1264 146.437 66.8002 146.876 64.4176C149.798 63.0507 152.62 61.4832 155.479 59.9971ZM147.691 59.7651C149.296 58.7619 150.745 57.4515 152.168 56.2664C154.519 54.3164 156.777 52.2535 158.927 50.0841C159.46 49.5448 158.645 48.7297 158.106 49.2564C156.118 51.1751 154.037 52.962 151.899 54.7051C150.67 55.7084 149.334 56.6614 148.093 57.7023C148.35 56.4294 148.638 55.1879 149.014 54.0092C149.014 54.0029 149.021 53.9966 149.021 53.9841C149.24 53.8524 149.453 53.7019 149.673 53.5577C149.378 53.9465 149.115 54.3477 148.914 54.7867C148.751 55.1566 149.108 55.6331 149.51 55.3823C151.177 54.3415 152.494 52.7112 153.949 51.3945C155.642 49.8583 157.354 48.3472 158.959 46.717C159.122 46.554 159.159 46.3721 159.134 46.2028C159.341 46.0649 159.548 45.9207 159.768 45.7828C160.395 45.4128 159.843 44.4598 159.203 44.8109C156.99 46.0085 154.946 47.4255 152.964 48.968C152.055 49.6828 151.052 50.3913 150.093 51.15C151.635 47.6638 154.137 44.1525 157.955 43.6948C164.376 42.9236 161.899 51.2503 161.059 53.6455C160.714 54.6299 160.307 55.5955 159.918 56.5611C159.899 56.5611 159.88 56.5486 159.862 56.5486C157.535 56.8746 155.09 57.7399 152.726 58.856C152.839 58.7619 152.952 58.6679 153.065 58.5801C155.805 56.3855 158.463 54.0969 160.946 51.614C161.592 50.9807 160.608 50.0088 159.962 50.6296C157.692 52.8304 155.284 54.8619 152.827 56.837C151.121 58.2039 149.165 59.4893 147.484 60.9815C147.553 60.5803 147.622 60.1664 147.691 59.7651ZM173.092 57.3637C173.662 57.5831 174.17 57.8527 174.584 58.16C173.129 59.32 171.618 60.4047 170.145 61.5396C168.602 62.7372 166.627 64.0664 165.774 65.8722C165.536 66.3676 166.044 67.0385 166.577 66.6811C168.101 65.6653 169.355 64.2044 170.79 63.057C172.371 61.7904 174.007 60.5865 175.581 59.3074C176.013 60.1978 175.832 61.2637 174.734 62.4111C174.816 61.8343 174.258 61.2135 173.668 61.6462C171.574 63.1761 169.204 64.4176 167.474 66.3927C167.411 66.4616 167.392 66.5306 167.386 66.5996C165.091 67.4899 162.689 68.1734 160.238 68.7189C161.373 67.9477 162.457 67.1012 163.536 66.3174C165.956 64.5681 168.289 62.6745 170.627 60.806C171.029 60.4799 170.753 59.8843 170.352 59.7275C171.192 59.088 172.032 58.4672 172.86 57.8904C173.06 57.7524 173.123 57.5518 173.092 57.3637ZM143.403 72.481C143.403 73.0077 144.174 73.2647 144.425 72.7631C144.519 72.5813 144.581 72.3869 144.669 72.2051C144.801 72.5687 145.146 72.8697 145.628 72.7882C153.491 71.5154 161.774 70.7128 169.141 67.4649C172.189 66.1231 178.164 63.9097 178.001 59.6523C177.763 53.263 165.906 54.9309 161.316 57.1129C162.878 53.6768 165.066 49.1937 163.072 45.8768C161.003 42.4408 158.282 41.2996 154.595 43.1869C150.826 45.1244 148.839 49.7267 147.503 53.658C147.472 53.7019 147.428 53.7395 147.397 53.7834C147.315 53.89 147.315 54.0092 147.353 54.1346C147.259 54.3979 147.171 54.6738 147.089 54.9309C145.409 60.1852 143.39 66.9382 143.403 72.481Z" fill="#333333"/>
<path fill-rule="evenodd" clip-rule="evenodd" d="M147.603 90.2131C146.017 90.6896 146.368 88.4825 145.722 87.705C145.566 87.5106 145.258 87.5483 145.095 87.705C144.224 88.5327 144.588 90.282 145.352 91.1034C146.067 91.8684 147.045 92.0251 148.036 91.7994C149.892 91.3856 151.503 89.2098 150.011 87.5671C147.892 85.222 143.835 84.9712 141.528 87.078C140.443 88.0624 140.18 89.5171 140.374 90.8965C140.455 91.4734 140.769 92.4013 141.246 93.1161C131.364 99.5493 121.57 111.713 118.09 122.793C117.877 123.482 118.968 123.959 119.269 123.288C124.63 111.155 133.195 103.249 142.105 93.9626C142.468 94.157 142.863 94.1946 143.296 93.9375C143.528 93.8058 143.691 93.5362 143.685 93.2603C143.66 92.5581 142.932 92.1317 142.575 91.5674C142.487 91.4232 142.362 91.348 142.242 91.3041C141.753 90.0688 141.785 88.7709 143.145 87.8492C144.882 86.6704 147.234 87.3476 148.713 88.5954C149.516 89.2725 148.212 90.0375 147.603 90.2131Z" fill="#333333"/>
<path fill-rule="evenodd" clip-rule="evenodd" d="M72.0171 136.411C72.4748 137.145 73.6097 136.493 73.1834 135.728C69.2771 128.806 62.6495 122.416 55.326 119.225C54.8558 119.018 54.5109 119.595 54.9247 119.908C61.4645 124.849 67.5841 129.351 72.0171 136.411Z" fill="#333333"/>
<path fill-rule="evenodd" clip-rule="evenodd" d="M53.3323 141.841C52.7492 141.741 52.2852 142.568 52.8997 142.863C58.4926 145.559 65.4462 145.177 69.3023 150.857C69.6221 151.328 70.3745 150.908 70.0735 150.406C66.6187 144.662 59.5648 142.901 53.3323 141.841Z" fill="#333333"/>
<path fill-rule="evenodd" clip-rule="evenodd" d="M137.295 142.838C134.06 142.349 130.028 144.612 127.351 146.243C124.31 148.105 121.827 150.826 120.962 154.331C120.742 155.196 122.034 155.548 122.291 154.701C123.326 151.29 125.884 148.983 128.85 147.196C131.546 145.566 134.775 145.302 137.427 143.81C137.797 143.603 137.772 142.907 137.295 142.838Z" fill="#333333"/>
<path fill-rule="evenodd" clip-rule="evenodd" d="M42.2341 138.317C40.9863 141.967 45.018 145.384 48.3286 145.403C49.1061 145.409 49.0936 144.261 48.3286 144.211C45.8958 144.048 43.2185 141.603 43.626 138.995C43.9709 136.737 47.9524 135.74 49.5889 137.164C50.6298 138.073 50.6988 139.91 50.1658 141.101C49.4134 142.775 48.2534 140.286 47.6891 139.622C47.432 139.333 46.8552 139.553 46.8991 139.954C47.1122 142.105 49.4385 144.65 51.2317 142.268C52.5673 140.493 52.1158 137.383 50.4981 135.972C48.0465 133.841 43.2436 135.37 42.2341 138.317Z" fill="#333333"/>
<path fill-rule="evenodd" clip-rule="evenodd" d="M52.5922 87.6045C54.3228 89.2787 56.0408 90.9716 57.7024 92.721C58.135 93.1724 58.7369 92.5141 58.3733 92.0501C56.8747 90.1377 55.326 88.3068 53.6205 86.5762C52.1408 85.0651 50.5043 83.1778 48.5668 82.2749C48.178 82.0931 47.6451 82.4881 47.9272 82.9082C49.106 84.7077 51.0498 86.1122 52.5922 87.6045Z" fill="#333333"/>
<path fill-rule="evenodd" clip-rule="evenodd" d="M112.378 79.6228C112.165 80.1809 113.093 80.5696 113.344 80.0304C116.905 72.3745 122.63 66.7189 127.903 60.3171C128.43 59.6775 127.633 58.875 126.994 59.4079C120.73 64.6748 115.3 71.9795 112.378 79.6228Z" fill="#333333"/>
<path fill-rule="evenodd" clip-rule="evenodd" d="M133.408 57.0817C131.941 58.3107 131.376 60.7184 133.094 61.9787C134.574 63.0634 136.725 62.0288 137.778 60.8626C139.898 58.5113 139.866 54.1849 136.681 52.8619C134.179 51.8211 130.887 52.6111 128.988 54.4984C126.247 57.2134 128.448 60.7623 130.85 62.7687C131.514 63.3268 132.474 62.4051 131.815 61.8031C130.216 60.3359 128.266 58.0473 129.784 55.8779C130.875 54.3291 133.207 53.7899 134.982 53.9467C137.101 54.1348 138.042 55.7838 137.697 57.7777C137.421 59.3515 136.455 60.9128 134.7 60.9629C132.668 61.0256 133.935 58.5301 134.236 57.5645C134.392 57.0566 133.765 56.7933 133.408 57.0817Z" fill="#333333"/>
<path fill-rule="evenodd" clip-rule="evenodd" d="M87.0091 57.4328C87.818 51.0435 86.3759 44.1276 82.7266 38.7478C82.4319 38.3152 81.667 38.5722 81.8425 39.1177C83.8615 45.3502 86.1689 50.7237 86.3445 57.4328C86.357 57.878 86.959 57.8529 87.0091 57.4328Z" fill="#333333"/>
<path fill-rule="evenodd" clip-rule="evenodd" d="M109.356 41.4124C109.356 42.2213 110.56 42.215 110.597 41.4124C110.892 35.6502 113.199 30.9288 114.748 25.5051C114.886 25.0286 114.253 24.8216 113.983 25.1853C110.742 29.6622 109.337 35.9637 109.356 41.4124Z" fill="#333333"/>
<path fill-rule="evenodd" clip-rule="evenodd" d="M42.0209 70.9636C40.0647 70.9636 40.0647 73.9984 42.0209 73.9984C43.9772 73.9984 43.9772 70.9636 42.0209 70.9636Z" fill="#333333"/>
<path fill-rule="evenodd" clip-rule="evenodd" d="M33.7693 69.6155C31.951 69.6155 31.951 72.437 33.7693 72.437C35.5877 72.437 35.5877 69.6155 33.7693 69.6155Z" fill="#333333"/>
<path fill-rule="evenodd" clip-rule="evenodd" d="M32.7974 146.337C31.0167 146.337 31.0167 149.102 32.7974 149.102C34.5781 149.102 34.5781 146.337 32.7974 146.337Z" fill="#333333"/>
<path fill-rule="evenodd" clip-rule="evenodd" d="M21.6305 147.597C20.226 147.597 20.226 149.779 21.6305 149.779C23.0413 149.779 23.0413 147.597 21.6305 147.597Z" fill="#333333"/>
<path fill-rule="evenodd" clip-rule="evenodd" d="M32.7974 139.791C33.2175 139.791 33.2175 139.139 32.7974 139.139C32.3773 139.139 32.3773 139.791 32.7974 139.791Z" fill="#333333"/>
<path fill-rule="evenodd" clip-rule="evenodd" d="M26.9726 74.3558C28.1389 74.3558 28.1389 72.55 26.9726 72.55C25.8064 72.55 25.8064 74.3558 26.9726 74.3558Z" fill="#333333"/>
<path fill-rule="evenodd" clip-rule="evenodd" d="M103.324 68.073C105.092 69.0825 106.572 67.5964 105.562 65.8283C104.22 63.477 100.972 66.7312 103.324 68.073Z" fill="#333333"/>
<path fill-rule="evenodd" clip-rule="evenodd" d="M107.55 62.4238C106.471 62.4238 106.471 64.0917 107.55 64.0917C108.628 64.0917 108.628 62.4238 107.55 62.4238Z" fill="#333333"/>
<path fill-rule="evenodd" clip-rule="evenodd" d="M141.039 48.9616C142.631 48.9616 142.631 46.4912 141.039 46.4912C139.446 46.4912 139.446 48.9616 141.039 48.9616Z" fill="#333333"/>
<path fill-rule="evenodd" clip-rule="evenodd" d="M156.087 84.9272C153.987 85.0338 153.987 88.0811 156.087 88.1877C156.639 88.219 157.059 88.1689 157.561 87.9055C158.583 87.3726 158.583 85.7423 157.561 85.2094C157.059 84.946 156.639 84.8959 156.087 84.9272Z" fill="#333333"/>
<path fill-rule="evenodd" clip-rule="evenodd" d="M152.206 82.9647C153.83 82.9647 153.83 80.4441 152.206 80.4441C150.582 80.4441 150.582 82.9647 152.206 82.9647Z" fill="#333333"/>
<path fill-rule="evenodd" clip-rule="evenodd" d="M154.144 113.237C154.745 113.237 154.745 112.309 154.144 112.309C153.548 112.309 153.548 113.237 154.144 113.237Z" fill="#333333"/>
<path fill-rule="evenodd" clip-rule="evenodd" d="M140.499 137.37C140.524 137.339 140.55 137.308 140.568 137.276C140.844 136.906 140.844 136.204 140.568 135.834C140.55 135.803 140.524 135.771 140.499 135.734C139.603 134.486 137.477 134.831 137.477 136.555C137.477 138.28 139.603 138.624 140.499 137.37Z" fill="#333333"/>
<path fill-rule="evenodd" clip-rule="evenodd" d="M140.556 143.497C138.863 143.497 138.863 146.117 140.556 146.117C142.249 146.117 142.249 143.497 140.556 143.497Z" fill="#333333"/>
<path fill-rule="evenodd" clip-rule="evenodd" d="M144.92 139.145C143.265 139.145 143.265 141.728 144.92 141.728C146.588 141.728 146.588 139.145 144.92 139.145Z" fill="#333333"/>
<path fill-rule="evenodd" clip-rule="evenodd" d="M153.661 143.641C152.156 143.641 152.156 145.973 153.661 145.973C155.165 145.973 155.165 143.641 153.661 143.641Z" fill="#333333"/>
<path fill-rule="evenodd" clip-rule="evenodd" d="M72.1176 28.5148C74.2557 28.5148 74.2557 25.1917 72.1176 25.1917C69.9732 25.1917 69.9732 28.5148 72.1176 28.5148Z" fill="#333333"/>
<path fill-rule="evenodd" clip-rule="evenodd" d="M65.8035 22.1005C67.1829 22.1005 67.1829 19.9624 65.8035 19.9624C64.424 19.9624 64.424 22.1005 65.8035 22.1005Z" fill="#333333"/>
<path fill-rule="evenodd" clip-rule="evenodd" d="M118.228 22.7526C119.821 22.7526 119.821 20.2759 118.228 20.2759C116.629 20.2759 116.629 22.7526 118.228 22.7526Z" fill="#333333"/>
<path fill-rule="evenodd" clip-rule="evenodd" d="M160.94 76.6694C158.827 76.6694 158.827 79.9424 160.94 79.9424C163.053 79.9424 163.053 76.6694 160.94 76.6694Z" fill="#333333"/>
<path fill-rule="evenodd" clip-rule="evenodd" d="M157.542 79.4285C155.861 79.4285 155.861 82.0368 157.542 82.0368C159.222 82.0368 159.222 79.4285 157.542 79.4285Z" fill="#333333"/>
<path fill-rule="evenodd" clip-rule="evenodd" d="M163.367 87.705C164.847 87.705 164.847 85.4102 163.367 85.4102C161.893 85.4102 161.893 87.705 163.367 87.705Z" fill="#333333"/>
<path fill-rule="evenodd" clip-rule="evenodd" d="M168.709 77.9049C170.07 77.9049 170.07 75.7981 168.709 75.7981C167.348 75.7981 167.348 77.9049 168.709 77.9049Z" fill="#333333"/>
<path fill-rule="evenodd" clip-rule="evenodd" d="M157.059 113.808C159.028 113.808 159.028 110.76 157.059 110.76C155.09 110.76 155.09 113.808 157.059 113.808Z" fill="#333333"/>
<path fill-rule="evenodd" clip-rule="evenodd" d="M150.751 116.648C148.858 116.648 148.858 119.57 150.751 119.57C152.638 119.57 152.638 116.648 150.751 116.648Z" fill="#333333"/>
<path fill-rule="evenodd" clip-rule="evenodd" d="M151.234 109.243C149.817 109.243 149.817 111.444 151.234 111.444C152.651 111.444 152.651 109.243 151.234 109.243Z" fill="#333333"/>
<path fill-rule="evenodd" clip-rule="evenodd" d="M40.5661 110.139C39.0487 110.139 39.0487 112.491 40.5661 112.491C42.0772 112.491 42.0772 110.139 40.5661 110.139Z" fill="#333333"/>
<path fill-rule="evenodd" clip-rule="evenodd" d="M18.721 107.594C17.6739 107.594 17.6739 109.211 18.721 109.211C19.7682 109.211 19.7682 107.594 18.721 107.594Z" fill="#333333"/>
<path fill-rule="evenodd" clip-rule="evenodd" d="M12.896 142.28C11.5166 142.28 11.5166 144.418 12.896 144.418C14.2754 144.418 14.2754 142.28 12.896 142.28Z" fill="#333333"/>
<path fill-rule="evenodd" clip-rule="evenodd" d="M16.7774 137.684C15.1096 137.684 15.1096 140.28 16.7774 140.28C18.4515 140.28 18.4515 137.684 16.7774 137.684Z" fill="#333333"/>
<path fill-rule="evenodd" clip-rule="evenodd" d="M70.1736 74.6943C68.6437 74.6943 68.6437 77.0644 70.1736 77.0644C71.6973 77.0644 71.6973 74.6943 70.1736 74.6943Z" fill="#333333"/>
<path fill-rule="evenodd" clip-rule="evenodd" d="M83.83 126.291C82.8393 126.561 82.3627 127.733 82.8832 128.617C83.4788 129.633 85.0275 129.652 85.6169 128.617C86.3004 127.426 85.2219 125.909 83.83 126.291Z" fill="#333333"/>
<path fill-rule="evenodd" clip-rule="evenodd" d="M85.7048 120.322C84.1812 120.322 84.1812 122.692 85.7048 122.692C87.2347 122.692 87.2347 120.322 85.7048 120.322Z" fill="#333333"/>
<path fill-rule="evenodd" clip-rule="evenodd" d="M79.8798 125.326C79.165 125.326 79.165 126.429 79.8798 126.429C80.5946 126.429 80.5946 125.326 79.8798 125.326Z" fill="#333333"/>
<path fill-rule="evenodd" clip-rule="evenodd" d="M102.208 140.97C100.389 140.97 100.389 143.791 102.208 143.791C104.032 143.791 104.032 140.97 102.208 140.97Z" fill="#333333"/>
<path fill-rule="evenodd" clip-rule="evenodd" d="M102.697 147.02C101.167 147.02 101.167 149.384 102.697 149.384C104.22 149.384 104.22 147.02 102.697 147.02Z" fill="#333333"/>
<path fill-rule="evenodd" clip-rule="evenodd" d="M120.655 105.349C119.225 105.349 119.225 107.562 120.655 107.562C122.084 107.562 122.084 105.349 120.655 105.349Z" fill="#333333"/>
<path fill-rule="evenodd" clip-rule="evenodd" d="M98.3266 100.239C99.6935 100.239 99.6935 98.1196 98.3266 98.1196C96.9535 98.1196 96.9535 100.239 98.3266 100.239Z" fill="#333333"/>
<path fill-rule="evenodd" clip-rule="evenodd" d="M110.842 117.626V118.034C110.842 120.053 113.964 120.053 113.964 118.034V117.626C113.964 115.607 110.842 115.607 110.842 117.626Z" fill="#333333"/>
<path fill-rule="evenodd" clip-rule="evenodd" d="M89.1033 82.1055C87.1157 82.1055 87.1157 85.1841 89.1033 85.1841C91.091 85.1841 91.091 82.1055 89.1033 82.1055Z" fill="#333333"/>
<path fill-rule="evenodd" clip-rule="evenodd" d="M85.2219 82.2122C86.501 82.2122 86.501 80.2246 85.2219 80.2246C83.9366 80.2246 83.9366 82.2122 85.2219 82.2122Z" fill="#333333"/>
<path fill-rule="evenodd" clip-rule="evenodd" d="M72.1176 82.1684C73.3402 82.1684 73.3402 80.2686 72.1176 80.2686C70.8949 80.2686 70.8949 82.1684 72.1176 82.1684Z" fill="#333333"/>
<path fill-rule="evenodd" clip-rule="evenodd" d="M71.6285 7.3093C72.7132 7.3093 72.7132 5.62891 71.6285 5.62891C70.5438 5.62891 70.5438 7.3093 71.6285 7.3093Z" fill="#333333"/>
<path fill-rule="evenodd" clip-rule="evenodd" d="M65.3206 11.0398C66.8317 11.0398 66.8317 8.68848 65.3206 8.68848C63.8032 8.68848 63.8032 11.0398 65.3206 11.0398Z" fill="#333333"/>
<path fill-rule="evenodd" clip-rule="evenodd" d="M11.4414 76.9327C12.802 76.9327 12.802 74.8259 11.4414 74.8259C10.0808 74.8259 10.0808 76.9327 11.4414 76.9327Z" fill="#333333"/>
<path fill-rule="evenodd" clip-rule="evenodd" d="M7.07123 69.5089C8.24375 69.5089 8.24375 67.6843 7.07123 67.6843C5.89872 67.6843 5.89872 69.5089 7.07123 69.5089Z" fill="#333333"/>
<path fill-rule="evenodd" clip-rule="evenodd" d="M154.633 36.2081C156.677 36.2081 156.677 33.0354 154.633 33.0354C152.589 33.0354 152.589 36.2081 154.633 36.2081Z" fill="#333333"/>
<path fill-rule="evenodd" clip-rule="evenodd" d="M149.779 29.4679C151.272 29.4679 151.272 27.1479 149.779 27.1479C148.281 27.1479 148.281 29.4679 149.779 29.4679Z" fill="#333333"/>
<path fill-rule="evenodd" clip-rule="evenodd" d="M149.297 18.6832C150.651 18.6832 150.651 16.5764 149.297 16.5764C147.936 16.5764 147.936 18.6832 149.297 18.6832Z" fill="#333333"/>
<path fill-rule="evenodd" clip-rule="evenodd" d="M1.24619 111.964C-0.415396 111.964 -0.415396 114.541 1.24619 114.541C2.90777 114.541 2.90777 111.964 1.24619 111.964Z" fill="#333333"/>
<path fill-rule="evenodd" clip-rule="evenodd" d="M189.582 105.681C187.946 105.681 187.946 108.215 189.582 108.215C191.213 108.215 191.213 105.681 189.582 105.681Z" fill="#333333"/>
<path fill-rule="evenodd" clip-rule="evenodd" d="M192.009 113.143C190.611 113.143 190.611 115.312 192.009 115.312C193.407 115.312 193.407 113.143 192.009 113.143Z" fill="#333333"/>
<path fill-rule="evenodd" clip-rule="evenodd" d="M198.806 112.986C197.207 112.986 197.207 115.463 198.806 115.463C200.398 115.463 200.398 112.986 198.806 112.986Z" fill="#333333"/>
</svg>
