<svg width="205" height="164" viewBox="0 0 205 164" fill="none" xmlns="http://www.w3.org/2000/svg">
<path fill-rule="evenodd" clip-rule="evenodd" d="M117.792 9.81395C119.524 10.2114 121.174 11.0062 122.695 11.9414C123.481 12.4401 124.162 11.2089 123.406 10.6867C121.787 9.549 120.099 8.77752 118.208 8.2554C116.717 7.84239 114.652 7.2891 113.267 8.13072C112.995 8.30216 113.01 8.6918 113.267 8.85544C114.546 9.69706 116.316 9.47887 117.792 9.81395Z" fill="#333333"/>
<path fill-rule="evenodd" clip-rule="evenodd" d="M111.035 13.2892C111.996 13.6865 113.123 13.593 114.137 13.741C115.378 13.9124 116.611 14.1384 117.844 14.3721C118.73 14.5357 119.123 13.1645 118.223 12.962C116.997 12.6893 115.779 12.4244 114.545 12.2141C113.426 12.0349 112.117 11.7467 111.035 12.1596C110.482 12.3699 110.505 13.0711 111.035 13.2892Z" fill="#333333"/>
<path fill-rule="evenodd" clip-rule="evenodd" d="M141.891 4.84996C141.437 4.10185 141.013 3.33037 140.68 2.51213C140.385 1.76403 140.309 0.945786 139.916 0.244439C139.742 -0.0750638 139.212 -0.114029 139.046 0.244439C138.274 1.9043 139.84 4.21874 140.718 5.5591C141.202 6.3072 142.367 5.62144 141.891 4.84996Z" fill="#333333"/>
<path fill-rule="evenodd" clip-rule="evenodd" d="M164.605 10.3984C165.603 9.1516 166.625 7.94372 167.729 6.79819C168.403 6.10463 169.122 5.45783 169.893 4.88117C170.453 4.46036 170.968 4.16424 171.331 3.54082C171.498 3.24469 171.278 2.9174 170.968 2.89402C169.576 2.80051 168.274 4.2032 167.313 5.09937C165.936 6.37738 164.779 7.90476 163.644 9.40876C163.114 10.1101 164.037 11.1076 164.605 10.3984Z" fill="#333333"/>
<path fill-rule="evenodd" clip-rule="evenodd" d="M169.947 13.3441C172.156 11.9804 174.365 10.5543 176.333 8.84768C176.688 8.53597 176.31 7.81903 175.856 8.01385C173.472 9.0347 171.445 10.7179 169.25 12.1128C168.494 12.5882 169.182 13.8195 169.947 13.3441Z" fill="#333333"/>
<path fill-rule="evenodd" clip-rule="evenodd" d="M178.27 22.4141C179.284 22.3596 180.191 22.009 181.069 21.5182C181.296 21.3936 181.425 21.1287 181.432 20.8716C181.432 20.4509 181.145 20.1237 180.706 20.1237C180.373 20.1237 180.017 20.3652 179.722 20.5054C179.253 20.7236 178.784 20.8638 178.27 20.895C177.324 20.9495 177.316 22.4609 178.27 22.4141Z" fill="#333333"/>
<path fill-rule="evenodd" clip-rule="evenodd" d="M118.904 150.013C119.055 150.161 119.214 150.317 119.365 150.473C119.41 150.512 119.471 150.449 119.433 150.403C119.282 150.247 119.131 150.083 118.987 149.928C118.934 149.873 118.851 149.959 118.904 150.013Z" fill="#333333"/>
<path fill-rule="evenodd" clip-rule="evenodd" d="M190.534 136.018C177.119 162.474 149.086 167.033 124.132 155.39C120.167 153.551 116.634 151.112 113.463 148.283C113.864 147.964 114.235 147.613 114.621 147.278C114.825 148.377 115.325 149.507 116.324 149.764C116.588 149.834 116.808 149.647 116.823 149.374C116.899 148.283 115.991 147.387 115.718 146.32C115.9 146.156 116.074 145.969 116.255 145.805C116.672 147.161 117.322 149.07 118.601 149.156C118.745 149.172 118.889 149.047 118.926 148.907C118.957 148.759 118.957 148.642 118.949 148.509C120.137 149.967 121.393 151.315 122.952 152.491C123.133 152.624 123.345 152.328 123.186 152.18C121.9 150.964 120.689 149.616 119.517 148.237C119.766 148.47 120.016 148.712 120.311 148.868C120.523 148.985 120.757 148.876 120.841 148.681C120.863 148.743 120.863 148.813 120.924 148.868C122.558 150.364 124.215 151.829 125.948 153.201C127.438 154.385 129.33 156.162 131.267 156.38C131.479 156.403 131.638 156.107 131.517 155.928C130.601 154.627 128.967 153.863 127.696 152.975C125.577 151.486 123.512 149.912 121.522 148.252C121.272 148.034 120.977 148.182 120.856 148.408C120.44 146.74 119.153 145.338 118.26 143.857C118.359 143.764 118.457 143.678 118.548 143.584C120.546 145.556 122.702 147.395 125.093 148.985C125.554 149.296 126.046 148.603 125.668 148.213C125.365 147.902 125.085 147.582 124.783 147.27C127.628 149.109 130.669 150.535 133.832 151.556C133.643 151.665 133.537 151.915 133.741 152.117C136.072 154.385 139.84 156.357 143.131 155.912C143.381 155.881 143.578 155.492 143.275 155.351C140.301 153.941 137.033 154.058 134.445 151.728C136.601 152.382 138.803 152.834 141.043 153.123C141.058 153.138 141.058 153.169 141.081 153.185C143.313 154.564 145.961 156.185 148.609 156.38C148.912 156.403 148.98 155.975 148.753 155.819C147.149 154.736 145.272 154.136 143.487 153.364C145.991 153.543 148.526 153.458 151.046 153.185C151.023 153.341 151.076 153.52 151.257 153.59C153.656 154.572 156.63 155.203 159.157 154.401C159.353 154.346 159.353 154.058 159.157 153.995C156.849 153.263 154.382 153.699 152.037 153.092C157.379 152.398 162.637 150.691 167.502 148.042C169.969 148.455 172.322 148.011 174.259 146.312C174.365 146.218 174.252 146.023 174.131 146.078C172.352 146.709 170.605 147.294 168.766 147.309C170.03 146.569 171.255 145.751 172.451 144.886C175.371 144.106 178.633 142.969 180.691 140.709C180.812 140.576 180.691 140.311 180.501 140.382C178.64 141.044 176.87 141.956 175.076 142.836C175.137 142.782 175.197 142.743 175.258 142.696C176.612 141.519 177.846 140.226 179.011 138.893C180.872 137.748 182.786 136.368 183.944 134.576C184.08 134.381 183.823 134.124 183.634 134.256C182.756 134.833 181.954 135.527 181.152 136.22C191.51 121.991 192.222 101.153 183.505 85.8868C171.611 65.0801 137.577 59.9837 120.296 76.2004C120.197 76.2004 120.092 76.2238 119.993 76.3251C109.075 87.5077 104.232 104.636 107.168 120.167C106.866 119.17 106.54 118.196 106.283 117.144C102.575 101.909 108.386 87.6168 118.351 76.5121C118.752 76.0679 118.139 75.4445 117.708 75.8497C103.173 89.4793 100.805 111.018 108.333 128.443C107.978 128.248 107.38 128.466 107.425 128.957C107.539 130.274 107.599 131.584 107.774 132.893C107.887 133.781 107.917 134.888 108.318 135.729C108.129 135.924 107.948 136.142 107.758 136.329C107.055 136.875 106.389 137.49 105.723 138.044C105.526 138.2 105.322 138.355 105.133 138.519C103.279 135.675 101.652 132.659 100.351 129.448C100.389 129.308 100.381 129.144 100.306 128.973C99.965 128.264 99.6548 127.555 99.3597 126.838C99.2916 126.643 99.216 126.456 99.1479 126.261C94.7594 113.294 96.825 100.436 101.569 88.3571C101.766 88.3961 101.978 88.3181 102.031 88.0532C102.197 87.2505 102.409 86.4868 102.644 85.7387C103.408 83.9464 104.232 82.1774 105.087 80.4319C112.283 72.6625 119.645 65.4542 129.542 61.2773C133.393 59.6486 137.479 58.7057 141.656 58.3004C141.686 58.316 141.716 58.3316 141.754 58.3472C141.754 58.4018 141.799 58.4563 141.822 58.5109C139.567 58.7914 137.426 59.2667 135.648 59.9759C134.816 60.3032 135.156 61.6747 136.011 61.363C142.972 58.7992 149.373 61.0669 156.365 61.55C156.773 61.5812 156.894 60.9812 156.569 60.7863C155.366 60.046 153.951 59.5083 152.445 59.1031C152.521 58.9005 152.521 58.6511 152.423 58.4407C152.574 58.4329 152.71 58.4251 152.861 58.4251C153.172 58.4563 153.489 58.4719 153.8 58.5109C153.951 58.9784 154.632 59.2667 155.063 58.8537C155.131 58.8148 155.192 58.768 155.26 58.7213C159.762 59.3758 164.188 60.4746 168.335 61.9007C198.63 72.2962 203.881 109.694 190.534 136.018ZM130.904 71.439C149.162 63.8411 172.89 70.3558 183.029 88.1077C192.532 104.753 188.378 127.126 175.455 140.405C160.715 155.546 135.338 155.757 120.288 141.706C123.852 137.67 126.909 133.088 129.3 127.991C138.395 108.61 138.395 88.3259 130.904 71.439ZM119.781 78.0551C125.653 94.3731 123.005 114.128 114.099 128.466C113.554 129.339 112.979 130.165 112.397 130.983C103.862 114.065 108.318 92.6509 119.781 78.0551ZM109.574 131.038C109.446 131.132 109.355 131.264 109.347 131.474C109.34 132.254 109.362 133.384 109.726 134.217C109.65 134.303 109.574 134.381 109.491 134.467C109.408 133.976 109.287 133.485 109.211 133.033C108.999 131.739 108.803 130.454 108.629 129.16C108.916 129.799 109.264 130.407 109.574 131.038ZM51.8959 139.524C46.2287 135.636 41.0306 130.438 36.3546 124.017C19.1487 100.405 26.8361 75.1172 46.0623 56.212C46.2893 55.9938 46.312 55.7444 46.2439 55.5184C65.5457 42.4889 96.6888 46.7828 111.587 63.8333C112.117 64.4567 112.601 65.1035 113.085 65.7503C106.412 70.9793 102.023 80.2448 98.4972 87.3518C92.3911 99.7034 91.7858 116.707 98.7847 128.794C100.169 132.487 101.97 136.01 104.119 139.322C103.771 139.594 103.438 139.875 103.098 140.148C88.275 150.504 67.9139 148.852 51.8959 139.524ZM35.3559 65.3841C35.424 65.4152 35.4996 65.4386 35.5829 65.462C25.0581 79.5825 22.0088 96.2044 28.4705 113.091C21.9785 97.2876 23.9307 79.263 35.3559 65.3841ZM41.4014 134.233C44.0421 136.758 46.9551 138.994 50.0573 140.927C51.5252 141.956 53.0385 142.899 54.5896 143.764C48.8543 141.356 43.6789 138.262 38.791 133.275C34.062 128.459 30.7101 122.552 28.2359 116.263C31.3533 122.747 35.7872 128.864 41.4014 134.233ZM113.108 69.0545C110.149 71.5715 107.456 74.447 105.375 77.6031C107.887 73.3638 110.876 69.3506 114.583 66.5296C114.031 67.1141 113.516 67.6907 113.078 68.2596C112.866 68.5479 112.926 68.8674 113.108 69.0545ZM106.646 151.143C106.419 151.284 106.192 151.432 105.958 151.572C105.738 151.712 105.519 151.837 105.292 151.969C90.7492 160.432 72.5143 162.49 55.7094 157.978C55.7018 157.868 55.6564 157.752 55.5354 157.689C41.2955 150.255 30.2032 141.184 21.2068 127.422C8.79037 108.416 14.4651 90.7261 18.7174 70.3169C18.8082 69.8805 18.2408 69.7324 18.0819 70.1376C10.8636 88.6221 8.71471 107.465 18.15 125.357C24.309 137.038 34.6598 148.4 46.607 154.806C45.4645 154.315 44.3296 153.808 43.2173 153.247C12.8232 138.044 2.64649 96.3758 18.6569 67.0205C18.8234 67.7609 19.8373 68.1817 20.2534 67.3323C33.487 40.4161 61.5884 31.0648 89.0997 38.125C102.379 41.5304 114.22 49.4946 123.012 60.1707C121.794 60.8565 120.606 61.5812 119.501 62.3527C119.35 62.3994 119.206 62.4696 119.055 62.5163C118.767 62.0799 118.382 61.7059 118.011 61.324C117.595 60.8954 117.027 61.1838 116.861 61.628C116.505 61.3085 116.142 61.0045 115.87 60.7396C115.325 60.1863 114.568 60.7474 114.614 61.363C114.001 60.8175 113.388 60.2564 112.752 59.7499C112.427 59.4927 112.033 59.6408 111.859 59.9135C110.989 59.0096 110.096 58.1368 109.166 57.2952C108.75 56.9289 108.273 57.3731 108.424 57.8173C90.5525 42.0915 56.6249 41.4525 39.6536 58.4485C24.6646 71.1975 20.2761 88.8013 24.3619 105.478C24.0517 105.517 23.7491 105.766 23.8247 106.187C27.555 126.503 43.066 147.278 64.562 148.618C64.8495 148.642 65.0009 148.463 65.0917 148.252C71.4323 150.161 78.1285 150.793 84.8853 149.951C86.7996 151.065 89.1149 151.86 91.1729 151.619C91.4302 151.588 91.5739 151.237 91.3167 151.089C90.2347 150.458 89.0014 150.239 87.8059 149.935C87.4957 149.858 87.2157 149.733 86.9131 149.632C88.0102 149.445 89.1073 149.211 90.2044 148.954C90.1439 149.156 90.1742 149.398 90.3936 149.515C92.0658 150.419 95.7581 151.611 96.9461 149.296C97.0747 149.031 96.9158 148.689 96.6056 148.689C95.7733 148.704 95.0318 149.141 94.1995 149.226C93.0948 149.343 92.0884 149.141 91.0746 148.743C92.2171 148.447 93.3596 148.096 94.5097 147.715C94.5702 147.831 94.661 147.941 94.8199 147.995C95.6749 148.283 96.5223 148.447 97.4227 148.494C98.4669 148.548 99.1554 148.244 99.9953 147.644C100.2 147.496 100.131 147.161 99.8667 147.153C98.6712 147.13 97.4908 147.216 96.318 147.076C96.825 146.85 96.9234 146.281 96.7266 145.883C98.3761 145.174 99.965 144.325 101.524 143.39C100.759 144.052 100.003 144.722 99.2387 145.377C98.8074 145.751 99.3749 146.491 99.844 146.179C105.178 142.626 110.815 137.763 113.948 131.903C120.379 122.902 123.935 112.102 124.541 101.137C124.639 101.355 124.896 101.472 125.1 101.246C126.72 99.5007 127.295 96.6486 128.066 94.4199C128.293 93.7575 127.302 93.5003 127.06 94.1393C126.266 96.22 124.964 98.4331 124.563 100.654C124.775 96.1576 124.51 91.6378 123.731 87.2116C123.822 87.2194 123.92 87.1726 123.958 87.0635C124.525 85.5751 124.616 83.9074 124.851 82.3333C124.904 81.967 124.367 81.8034 124.298 82.1774C124.056 83.5879 123.693 85.0062 123.595 86.4401C123.179 84.2893 122.657 82.1541 122.013 80.0578C122.581 79.0058 122.588 77.4472 122.581 76.3796C122.581 76.3407 122.558 76.3095 122.551 76.2705C122.687 76.177 122.815 76.0679 122.944 75.9744C124.003 78.2499 124.957 80.5877 125.865 82.9489C125.6 82.8398 125.252 82.9022 125.191 83.2373C124.851 85.1699 123.935 87.344 124.306 89.3234C124.351 89.565 124.707 89.5961 124.813 89.3935C125.698 87.7181 125.895 85.5361 126.114 83.6425C126.281 84.0711 126.432 84.5153 126.591 84.9439C126.364 84.8426 126.099 84.8971 126.054 85.2088C125.759 87.3051 125.343 89.3857 125.1 91.482C125.07 91.7703 125.524 91.895 125.638 91.6378C126.44 89.7676 126.606 87.7025 126.863 85.6998C127.174 86.5336 127.491 87.3596 127.779 88.2168C127.9 88.5675 128.475 88.5363 128.437 88.1311C128.014 83.4165 126.432 79.037 124.276 74.9536C126.152 73.6833 128.15 72.6469 130.2 71.743C136.775 87.0167 134.891 105.267 130.026 120.861C127.696 128.326 124.071 134.724 119.532 140.085C119.358 139.898 119.093 139.813 118.873 139.953C116.55 141.504 114.825 144.153 112.851 146.148C110.959 148.05 108.871 149.694 106.646 151.143ZM135.89 52.152C136.011 52.1364 136.125 52.0818 136.193 51.9571C136.548 51.3181 136.2 50.5389 136.117 49.8531C136.034 49.1985 136.004 48.5283 135.981 47.8659C136.155 48.1855 136.344 48.5205 136.533 48.8634C136.337 48.9258 136.17 49.105 136.178 49.3855C136.193 50.6402 136.435 52.5416 137.403 53.4066C137.593 53.578 137.941 53.5313 138.001 53.243C138.107 52.6741 137.971 52.2455 137.789 51.6922C137.653 51.287 137.54 50.8817 137.449 50.4765C138.319 51.9649 139.333 53.4845 140.46 54.8015C140.173 54.7937 139.893 54.9729 139.772 55.2535C138.44 54.295 137.139 53.2507 135.89 52.152ZM132.22 48.7855C132.341 48.7777 132.463 48.6998 132.516 48.5439C133.015 47.1256 132.75 45.458 132.652 43.9774C132.576 42.7305 132.372 41.4993 132.16 40.2602C132.553 41.1174 132.97 41.959 133.378 42.8007C133.189 42.8708 133.015 43.0033 133.015 43.276C132.992 44.2891 132.97 45.3021 132.947 46.3152C132.924 47.2503 132.735 48.279 133.227 49.1128C133.371 49.3544 133.719 49.3544 133.87 49.1128C134.294 48.3881 134.173 47.5776 134.157 46.7516C134.135 45.9256 134.12 45.1073 134.104 44.2813C134.407 44.8891 134.732 45.4892 135.043 46.0892C134.899 46.1827 134.793 46.3386 134.785 46.5646C134.77 47.6633 134.748 48.7543 134.823 49.8531C134.861 50.3363 134.891 50.9519 135.088 51.4506C134.112 50.57 133.151 49.6817 132.22 48.7855ZM129.867 46.5334C129.02 45.7229 128.135 44.8735 127.249 44.0007C127.908 42.1227 128.089 40.0342 128.596 38.1016C128.906 36.9249 129.27 35.7638 129.671 34.6105C129.92 35.2105 130.178 35.8106 130.427 36.4028C130.14 39.7927 129.368 43.3851 130.109 46.6347C130.17 46.8841 130.533 46.8763 130.594 46.6347C131.244 43.9696 131.237 41.0005 131.161 38.1172C131.328 38.4835 131.509 38.8419 131.676 39.2082C131.524 39.2316 131.388 39.3407 131.411 39.5199C131.592 41.0005 131.585 42.4889 131.585 43.9774C131.585 45.4112 131.373 47.0165 131.804 48.3881C131.146 47.7646 130.503 47.1334 129.867 46.5334ZM118.525 32.4051C119.547 32.8961 120.841 33.0052 121.907 33.1221C124.14 33.3558 126.379 33.3558 128.611 33.4494C127.317 36.434 126.122 39.8004 126.167 42.9253C123.095 39.8082 120.114 36.3171 118.525 32.4051ZM123.572 24.6591C126.568 20.6614 129.436 16.5469 132.553 12.6583C131.328 18.947 129.459 25.0877 128.46 31.4232C128.46 31.4466 128.452 31.4622 128.452 31.4778C128.437 31.5635 128.422 31.6414 128.407 31.7272C127.499 31.7194 126.591 31.7505 125.759 31.7427C124.102 31.7116 120.266 32.0934 118.624 30.8154C120.523 29.6777 122.914 25.5397 123.572 24.6591ZM134.15 11.1387C137.608 11.2478 141.058 11.5127 144.516 11.692C144.478 11.7232 144.448 11.7699 144.41 11.8011C144.38 11.7855 144.357 11.7621 144.327 11.7465C143.789 11.427 143.177 12.1907 143.623 12.6427C141.414 14.9961 139.658 17.9418 137.812 20.5523C135.413 23.9344 132.924 27.2229 130.336 30.4491C130.23 30.4413 130.125 30.4725 130.034 30.5271C131.229 24.0201 133.287 17.708 134.15 11.1387ZM152.249 21.4329C153.966 23.4279 155.858 26.2566 158.044 28.1659C158.029 28.2905 158.037 28.423 158.105 28.5633C158.309 28.9841 158.521 29.3971 158.733 29.8179C158.718 29.8491 158.703 29.8803 158.688 29.9037C158.604 29.9114 158.536 29.9504 158.461 29.9816C158.241 29.8491 157.961 29.8491 157.727 30.1063C157.424 30.4336 157.144 30.7764 156.849 31.1193C148.806 32.374 139.651 33.161 131.888 30.6907C133.832 28.423 135.618 26.0151 137.373 23.5837C139.704 20.3575 142.503 17.0222 144.493 13.4921C147.217 16.0092 149.797 18.6042 152.249 21.4329ZM156.743 11.0218C161.2 18.6042 168.047 24.6202 173.949 30.9868C173.919 31.0258 173.888 31.057 173.866 31.0881C173.745 30.8855 173.555 30.7219 173.253 30.7219C169.008 30.7219 164.824 30.5894 160.625 30.1063C160.579 29.9738 160.534 29.8335 160.481 29.701C160.859 29.6699 161.222 29.3036 160.95 28.8906C160.534 28.2828 160.057 27.7061 159.573 27.1294C157.976 21.9317 157.477 16.43 156.743 11.0218ZM172.231 32.787C172.133 32.5454 171.838 32.4051 171.596 32.6389C169.447 34.7274 167.555 37.2055 165.724 39.6991C164.272 37.0574 162.811 34.4079 161.328 31.7817C164.975 32.3116 168.713 32.335 172.375 32.3272C172.337 32.4908 172.277 32.6311 172.231 32.787ZM171.195 35.53C170.953 35.9742 170.711 36.4184 170.461 36.8626C170.431 36.9249 170.423 36.9795 170.408 37.0418C169.84 37.8367 169.288 38.6393 168.698 39.3796C168.085 40.1511 167.449 40.9148 166.821 41.6863C166.753 41.5616 166.693 41.4447 166.632 41.3278C168.569 38.9666 170.536 36.5353 171.883 33.839C171.687 34.4234 171.437 34.9767 171.195 35.53ZM162.879 47.4997C161.457 49.066 160.004 50.6168 158.597 52.1831C160.435 49.3699 162.403 46.6581 164.476 43.993C164.847 43.5176 165.217 43.05 165.603 42.5825C165.679 42.6994 165.739 42.8085 165.808 42.9331C164.801 44.1566 163.81 45.3879 162.804 46.6191C162.554 46.923 162.652 47.2893 162.879 47.4997ZM146.173 56.6796C145.658 56.6873 145.151 56.6873 144.637 56.7185C141.52 53.1027 138.712 49.7674 136.337 45.4892C134.415 42.0136 132.75 38.3978 131.078 34.7897C131.07 34.7118 131.04 34.6416 130.995 34.6027C130.836 34.2598 130.677 33.9169 130.518 33.5662C130.911 33.6052 131.32 33.6208 131.721 33.6675C131.918 33.6909 132.069 33.6364 132.183 33.5429C135.898 37.8523 139.469 42.6448 144.13 45.8087C144.569 46.1048 145.068 45.7619 145.204 45.3411C145.227 45.4424 145.272 45.5359 145.333 45.6216C145.484 49.2842 145.469 53.0871 146.173 56.6796ZM145.265 44.2111C145.272 44.3982 145.28 44.5852 145.288 44.7722C145.257 44.8268 145.235 44.8891 145.219 44.9593C145.189 44.8346 145.129 44.7177 145.015 44.6242C140.665 41.0395 137.116 36.6989 133.227 32.6467C139.832 34.7507 148.246 34.3299 155.245 33.0831C152.377 36.7924 149.835 40.7668 146.286 43.8293C145.931 43.4708 145.227 43.5721 145.265 44.2111ZM150.924 54.4041C150.728 55.1756 150.531 55.947 150.334 56.7029C149.472 56.6718 148.609 56.6562 147.747 56.6562C147.421 52.939 147.051 49.1985 146.619 45.497C150.894 42.0214 153.959 37.3068 157.265 32.8883C154.708 38.803 153.111 45.5515 151.545 51.9182C151.295 52.5884 151.038 53.2663 150.834 53.9443C150.773 54.1391 150.834 54.2794 150.924 54.4041ZM154.897 53.3832C154.125 54.0222 153.308 54.6067 152.483 55.1756C153.285 53.3988 153.815 51.4428 154.284 49.518C155.116 47.5075 155.858 45.4346 156.788 43.5332C157.061 42.9565 156.274 42.4734 155.949 43.0266C155.926 43.0578 155.903 43.0968 155.88 43.128C156.857 39.4498 157.908 35.8261 159.255 32.2649C159.27 32.2571 159.285 32.2571 159.3 32.2571C159.558 32.1947 159.679 32.0311 159.747 31.8518C161.313 34.9689 162.978 38.0471 164.726 41.0551C163.946 42.1227 163.174 43.1747 162.388 44.1956C160.564 46.5723 158.816 49.0037 157.242 51.5441C156.365 51.9494 155.623 52.7754 154.897 53.3832ZM178.693 65.2516C172.194 60.8175 164.499 58.2459 156.607 57.1861C156.592 57.0926 156.577 57.0146 156.539 56.9367C160.133 52.2377 164.355 48.053 168.062 43.4552C169.47 41.7019 170.975 39.6991 172.11 37.5406C172.965 36.4262 173.722 35.2417 174.108 33.9871C174.161 33.8156 174.07 33.652 173.934 33.5585C174.305 32.9974 174.721 32.4441 175.038 31.844C175.614 31.8518 176.136 31.0726 175.614 30.5037C169.349 23.6149 162.796 17.2326 157.379 9.56456C157.152 9.23726 156.781 9.21389 156.508 9.35416C156.501 9.32298 156.501 9.29961 156.493 9.26844C156.395 8.56709 155.23 8.73074 155.298 9.43988C155.805 14.5363 156.221 19.6874 157.379 24.6669C155.994 23.2175 154.549 21.7992 153.3 20.3497C150.826 17.4976 148.269 14.4039 145.129 12.2842C145.182 12.1829 145.235 12.0816 145.288 11.9803C145.325 11.8946 145.325 11.8089 145.318 11.7309C145.416 11.7387 145.507 11.7465 145.598 11.7543C147.762 11.8478 150.296 12.0504 152.536 11.5595C152.604 11.5751 152.65 11.6141 152.71 11.6141C153.111 11.6063 153.505 11.5985 153.898 11.6218L153.921 11.6296C153.959 11.6686 153.974 11.692 154.087 11.7855C154.609 12.2219 155.555 11.6374 155.094 10.9828C155.018 10.8737 154.957 10.7413 154.874 10.6166C154.995 10.4529 154.957 10.2425 154.821 10.0945C154.927 9.64249 154.571 9.12037 154.08 9.12037C153.542 9.12037 152.998 9.11258 152.445 9.12817C152.203 9.13596 151.908 9.26843 151.795 9.51001C151.742 9.64249 151.719 9.74379 151.711 9.85289C149.222 9.89965 146.68 10.2114 144.213 10.1178C140.657 9.97757 137.108 9.6347 133.545 9.6347C133.174 9.6347 132.962 9.87627 132.886 10.1568C132.788 10.1958 132.69 10.2425 132.591 10.336C129.58 13.2116 127.234 17.1859 124.76 20.5368C123.111 22.7655 121.469 25.0098 119.766 27.1996C119.335 27.7528 118.2 29.4984 117.61 29.9816C117.224 29.966 116.823 30.2855 116.982 30.7531C117.027 30.9011 117.11 31.0258 117.179 31.1505C117.042 31.2674 116.974 31.4466 117.05 31.6726C119.002 37.6496 124.858 43.0734 129.012 47.4218C131.933 50.4843 135.285 53.8586 138.962 56.5159C134.558 55.4873 128.997 57.0224 123.996 59.633C117.368 50.7337 108.235 43.4007 96.8023 38.6315C69.8206 27.3866 37.0432 35.2729 21.6759 60.8175C21.5548 60.8019 21.4262 60.8331 21.3278 60.9344C9.80427 73.0989 7.51166 93.173 10.2204 109.304C13.4134 128.256 23.7718 143.553 39.7065 153.505C62.3829 167.68 92.1868 165.03 112.419 149.125C115.067 151.58 117.965 153.801 121.174 155.663C145.015 169.495 173.714 164.827 189.195 141.379C204.789 117.767 202.799 81.6709 178.693 65.2516Z" fill="#333333"/>
<path fill-rule="evenodd" clip-rule="evenodd" d="M127.424 149.032C126.864 148.626 126.357 149.569 126.894 149.967C129.852 152.18 133.076 155.313 136.692 156.255C136.867 156.302 136.988 156.084 136.867 155.959C134.256 153.162 130.496 151.253 127.424 149.032Z" fill="#333333"/>
<path fill-rule="evenodd" clip-rule="evenodd" d="M150.319 154.58C149.139 154.291 147.989 153.925 146.846 153.489C146.589 153.388 146.407 153.832 146.657 153.949C148.723 154.852 151.363 156.597 153.671 155.787C153.853 155.725 153.838 155.499 153.671 155.429C152.619 154.993 151.424 154.86 150.319 154.58Z" fill="#333333"/>
<path fill-rule="evenodd" clip-rule="evenodd" d="M158.703 152.57C158.43 152.515 158.317 152.928 158.589 153.005C160.269 153.488 162.153 153.893 163.765 152.966C163.946 152.858 163.855 152.593 163.666 152.585C161.971 152.507 160.413 152.92 158.703 152.57Z" fill="#333333"/>
<path fill-rule="evenodd" clip-rule="evenodd" d="M167.071 150.364C166.095 150.473 165.104 150.488 164.128 150.512C163.629 150.519 163.629 151.298 164.128 151.313C165.868 151.352 168.176 151.663 169.704 150.628C169.894 150.496 169.803 150.247 169.599 150.224C168.759 150.107 167.911 150.27 167.071 150.364Z" fill="#333333"/>
<path fill-rule="evenodd" clip-rule="evenodd" d="M181.47 80.5026C181.583 80.5026 181.583 80.3151 181.47 80.3151C181.342 80.3151 181.342 80.5026 181.47 80.5026Z" fill="#333333"/>
<path fill-rule="evenodd" clip-rule="evenodd" d="M184.202 85.5815H184.209V84.6403C184.209 84.6325 184.202 84.6325 184.202 84.6403" fill="#333333"/>
<path fill-rule="evenodd" clip-rule="evenodd" d="M183.906 82.9335C186.456 87.3364 187.909 92.0822 189.195 96.9916C189.339 97.5449 190.247 97.4514 190.187 96.8591C189.566 91.5912 187.432 86.8844 184.497 82.575C184.247 82.2088 183.679 82.5438 183.906 82.9335Z" fill="#333333"/>
<path fill-rule="evenodd" clip-rule="evenodd" d="M43.7924 140.849C43.3838 140.335 42.5061 141.021 42.892 141.558C46.1304 146.078 50.7988 150.582 56.292 151.814C56.8065 151.93 57.1697 151.167 56.6627 150.902C51.6916 148.299 47.3485 145.353 43.7924 140.849Z" fill="#333333"/>
<path fill-rule="evenodd" clip-rule="evenodd" d="M56.2318 147.613C55.7551 147.154 55.0666 147.863 55.5206 148.338C58.0023 150.956 60.9835 153.528 64.464 154.494C64.7969 154.596 65.1374 154.105 64.8272 153.855C62.0504 151.595 58.8498 150.138 56.2318 147.613Z" fill="#333333"/>
<path fill-rule="evenodd" clip-rule="evenodd" d="M62.648 148.642C62.0881 148.284 61.619 149.156 62.1411 149.546C64.986 151.658 67.9823 154.876 71.5007 155.718C71.932 155.827 72.333 155.242 71.9622 154.9C69.2535 152.445 65.7048 150.621 62.648 148.642Z" fill="#333333"/>
<path fill-rule="evenodd" clip-rule="evenodd" d="M72.3025 151.946C71.6744 151.743 71.4248 152.733 72.0301 152.951C73.4979 153.488 74.8826 154.197 76.4261 154.431C76.759 154.486 76.9936 154.049 76.6682 153.855C75.2836 153.044 73.8157 152.468 72.3025 151.946Z" fill="#333333"/>
<path fill-rule="evenodd" clip-rule="evenodd" d="M34.3724 59.828C39.2602 54.3964 46.0397 48.9493 53.1748 47.3596C53.258 47.3362 53.2202 47.2193 53.1445 47.2349C45.4344 48.6454 38.5641 53.0093 33.8805 59.4384C33.6611 59.7345 34.1302 60.0929 34.3724 59.828Z" fill="#333333"/>
<path fill-rule="evenodd" clip-rule="evenodd" d="M96.4772 47.7803C103.499 50.2272 109.794 53.0638 115.401 58.1447C115.65 58.3707 116.066 58.0745 115.877 57.7628C111.867 51.2247 103.537 48.7934 96.7344 46.8062C96.1215 46.627 95.8794 47.5777 96.4772 47.7803Z" fill="#333333"/>
<path fill-rule="evenodd" clip-rule="evenodd" d="M123.33 77.7825C123.338 78.6238 123.292 79.4341 123.148 80.2754C123.141 80.3689 123.247 80.4001 123.285 80.3144C123.602 79.4886 123.633 78.6628 123.648 77.7825C123.655 77.5721 123.322 77.5721 123.33 77.7825Z" fill="#333333"/>
<path fill-rule="evenodd" clip-rule="evenodd" d="M123.996 79.9332C123.762 81.2658 123.762 82.5983 123.603 83.9309C123.58 84.1179 123.867 84.1491 123.913 83.9777C124.231 82.6841 124.367 81.4138 124.609 80.1047C124.685 79.6916 124.072 79.5202 123.996 79.9332Z" fill="#333333"/>
<path fill-rule="evenodd" clip-rule="evenodd" d="M126.584 88.8403C125.986 90.9833 125.078 93.0796 124.73 95.2849C124.654 95.7369 125.214 96.0408 125.471 95.6122C126.629 93.6406 126.985 91.3106 127.454 89.0897C127.575 88.5052 126.75 88.2636 126.584 88.8403Z" fill="#333333"/>
<path fill-rule="evenodd" clip-rule="evenodd" d="M126.508 100.716C126.508 100.623 126.508 100.529 126.508 100.436C126.508 100.389 126.44 100.389 126.44 100.436C126.447 100.529 126.447 100.623 126.447 100.716C126.447 100.747 126.508 100.747 126.508 100.716Z" fill="#333333"/>
<path fill-rule="evenodd" clip-rule="evenodd" d="M103.696 121.406C103.65 121.017 103.136 121.017 103.098 121.406C102.863 123.635 101.933 126.986 103.461 128.887C103.605 129.074 103.885 128.95 103.945 128.763C104.255 127.726 104.021 126.62 103.968 125.552C103.892 124.165 103.817 122.793 103.696 121.406Z" fill="#333333"/>
<path fill-rule="evenodd" clip-rule="evenodd" d="M104.838 132.09C104.914 132.277 105.141 132.277 105.209 132.09C106.011 130.056 105.405 127.43 105.148 125.326C105.08 124.812 104.308 124.796 104.354 125.326C104.581 127.492 104.028 130.048 104.838 132.09Z" fill="#333333"/>
<path fill-rule="evenodd" clip-rule="evenodd" d="M107.902 135.386C107.91 134.077 107.539 132.799 107.358 131.506C107.138 129.924 107.025 128.311 107.1 126.721C107.131 126.113 106.276 126.144 106.2 126.721C105.875 129.495 105.579 133.134 107.093 135.612C107.32 135.987 107.895 135.846 107.902 135.386Z" fill="#333333"/>
<path fill-rule="evenodd" clip-rule="evenodd" d="M2.55585 103.047C2.26833 109.444 3.20656 116.17 6.07421 121.913C6.30877 122.388 6.98217 122.045 6.87624 121.57C5.5143 115.375 3.60001 109.429 3.11576 103.047C3.0855 102.68 2.57099 102.665 2.55585 103.047Z" fill="#333333"/>
<path fill-rule="evenodd" clip-rule="evenodd" d="M1.89771 121.547C1.67071 120.884 0.64169 121.165 0.868681 121.835C1.63288 124.079 3.07806 125.591 4.72753 127.196C5.09828 127.555 5.63549 127.002 5.28744 126.62C3.91036 125.123 2.58624 123.51 1.89771 121.547Z" fill="#333333"/>
<path fill-rule="evenodd" clip-rule="evenodd" d="M197.208 82.4114C197.435 82.9413 198.222 82.5594 198.086 82.0295C196.262 75.016 190.852 69.9507 186.29 64.7452C185.972 64.3711 185.473 64.9088 185.775 65.2829C190.134 70.6988 194.34 75.9823 197.208 82.4114Z" fill="#333333"/>
<path fill-rule="evenodd" clip-rule="evenodd" d="M199.607 73.0601C199.342 72.3821 198.268 72.6549 198.525 73.364C201.37 81.3516 202.853 89.3626 203.609 97.8255C203.67 98.5191 204.631 98.5346 204.669 97.8255C205.13 89.3392 202.701 80.8295 199.607 73.0601Z" fill="#333333"/>
<path fill-rule="evenodd" clip-rule="evenodd" d="M27.8049 44.0008C30.491 42.45 33.2603 40.572 35.6967 38.6472C36.1582 38.2887 35.9236 37.4081 35.2729 37.6185C32.2464 38.5536 29.409 40.8681 26.9651 42.8786C26.3295 43.3929 27.1391 44.3748 27.8049 44.0008Z" fill="#333333"/>
<path fill-rule="evenodd" clip-rule="evenodd" d="M193.554 144.675C191.798 149.421 188.651 153.146 185.624 157.066C185.163 157.658 185.866 158.399 186.441 157.908C190.323 154.572 192.911 149.826 194.446 144.933C194.643 144.34 193.758 144.107 193.554 144.675Z" fill="#333333"/>
</svg>
