<svg width="200" height="150" viewBox="0 0 200 150" fill="none" xmlns="http://www.w3.org/2000/svg">
<path fill-rule="evenodd" clip-rule="evenodd" d="M114.725 9.00257C116.424 9.36678 118.042 10.0952 119.534 10.9521C120.306 11.4092 120.974 10.2809 120.232 9.8024C118.643 8.75977 116.988 8.05278 115.133 7.57432C113.671 7.19583 111.645 6.6888 110.286 7.46006C110.019 7.61716 110.034 7.97423 110.286 8.1242C111.541 8.89546 113.277 8.6955 114.725 9.00257Z" fill="#333333"/>
<path fill-rule="evenodd" clip-rule="evenodd" d="M108.097 12.1878C109.039 12.552 110.145 12.4663 111.14 12.602C112.357 12.7591 113.567 12.9662 114.776 13.1804C115.645 13.3304 116.031 12.0735 115.147 11.8879C113.945 11.6379 112.75 11.3951 111.54 11.2023C110.442 11.0381 109.158 10.7738 108.097 11.1523C107.555 11.3451 107.577 11.9878 108.097 12.1878Z" fill="#333333"/>
<path fill-rule="evenodd" clip-rule="evenodd" d="M138.364 4.45368C137.919 3.76811 137.503 3.06113 137.176 2.31129C136.887 1.62573 136.813 0.875891 136.427 0.233177C136.256 -0.0596156 135.737 -0.0953234 135.573 0.233177C134.816 1.75427 136.353 3.87523 137.214 5.10353C137.689 5.7891 138.832 5.16066 138.364 4.45368Z" fill="#333333"/>
<path fill-rule="evenodd" clip-rule="evenodd" d="M160.645 9.53836C161.624 8.39575 162.626 7.28885 163.71 6.23908C164.371 5.60351 165.076 5.01078 165.833 4.48233C166.382 4.0967 166.887 3.82533 167.243 3.25403C167.406 2.98266 167.191 2.68273 166.887 2.6613C165.521 2.57561 164.244 3.86104 163.302 4.68228C161.951 5.85346 160.815 7.25315 159.702 8.63142C159.183 9.27413 160.088 10.1882 160.645 9.53836Z" fill="#333333"/>
<path fill-rule="evenodd" clip-rule="evenodd" d="M165.885 12.2377C168.052 10.988 170.219 9.6811 172.149 8.11716C172.498 7.83151 172.127 7.17451 171.681 7.35304C169.343 8.28855 167.354 9.83106 165.202 11.1094C164.46 11.545 165.135 12.6733 165.885 12.2377Z" fill="#333333"/>
<path fill-rule="evenodd" clip-rule="evenodd" d="M174.049 20.55C175.044 20.5 175.934 20.1786 176.795 19.7287C177.018 19.6145 177.144 19.3717 177.152 19.136C177.152 18.7504 176.87 18.4504 176.439 18.4504C176.112 18.4504 175.764 18.6718 175.474 18.8004C175.014 19.0003 174.554 19.1289 174.049 19.1574C173.121 19.2074 173.114 20.5928 174.049 20.55Z" fill="#333333"/>
<path fill-rule="evenodd" clip-rule="evenodd" d="M115.816 137.482C115.964 137.617 116.12 137.76 116.269 137.903C116.313 137.939 116.372 137.881 116.335 137.839C116.187 137.696 116.038 137.546 115.897 137.403C115.846 137.353 115.764 137.432 115.816 137.482Z" fill="#333333"/>
<path fill-rule="evenodd" clip-rule="evenodd" d="M186.08 124.656C172.921 148.9 145.422 153.078 120.944 142.409C117.055 140.724 113.589 138.488 110.479 135.896C110.872 135.603 111.236 135.282 111.615 134.975C111.815 135.982 112.305 137.017 113.285 137.253C113.544 137.317 113.76 137.146 113.774 136.896C113.849 135.896 112.958 135.075 112.691 134.097C112.869 133.947 113.04 133.775 113.218 133.625C113.626 134.868 114.264 136.617 115.519 136.696C115.66 136.71 115.801 136.596 115.838 136.467C115.867 136.332 115.867 136.225 115.86 136.103C117.025 137.439 118.257 138.674 119.786 139.752C119.964 139.874 120.172 139.602 120.016 139.467C118.755 138.353 117.567 137.117 116.417 135.853C116.662 136.068 116.907 136.289 117.196 136.432C117.404 136.539 117.634 136.439 117.716 136.26C117.738 136.318 117.738 136.382 117.797 136.432C119.4 137.803 121.026 139.145 122.725 140.402C124.188 141.488 126.043 143.116 127.943 143.316C128.151 143.337 128.307 143.066 128.188 142.902C127.29 141.709 125.687 141.009 124.44 140.195C122.362 138.831 120.335 137.389 118.383 135.868C118.139 135.668 117.849 135.803 117.73 136.01C117.322 134.482 116.06 133.197 115.185 131.84C115.281 131.754 115.378 131.676 115.467 131.59C117.426 133.397 119.541 135.082 121.887 136.539C122.339 136.825 122.822 136.189 122.451 135.832C122.154 135.546 121.879 135.253 121.582 134.968C124.373 136.653 127.357 137.96 130.459 138.896C130.274 138.995 130.17 139.224 130.37 139.41C132.656 141.488 136.352 143.295 139.581 142.887C139.826 142.859 140.019 142.502 139.722 142.373C136.805 141.081 133.599 141.188 131.06 139.053C133.176 139.652 135.335 140.067 137.532 140.331C137.547 140.345 137.547 140.374 137.569 140.388C139.759 141.652 142.357 143.137 144.954 143.316C145.251 143.337 145.318 142.945 145.095 142.802C143.522 141.809 141.681 141.259 139.93 140.552C142.386 140.717 144.873 140.638 147.344 140.388C147.322 140.531 147.374 140.695 147.552 140.759C149.905 141.659 152.822 142.238 155.301 141.502C155.494 141.452 155.494 141.188 155.301 141.131C153.037 140.459 150.617 140.859 148.317 140.302C153.557 139.667 158.715 138.103 163.487 135.675C165.907 136.053 168.215 135.646 170.115 134.089C170.219 134.004 170.108 133.825 169.989 133.875C168.245 134.454 166.53 134.989 164.727 135.004C165.966 134.325 167.169 133.575 168.341 132.783C171.206 132.068 174.405 131.026 176.424 128.955C176.543 128.833 176.424 128.591 176.238 128.655C174.413 129.262 172.676 130.097 170.917 130.904C170.976 130.854 171.035 130.819 171.095 130.776C172.423 129.698 173.633 128.512 174.776 127.291C176.602 126.241 178.48 124.977 179.615 123.335C179.749 123.156 179.497 122.92 179.311 123.042C178.45 123.57 177.663 124.206 176.877 124.841C187.037 111.801 187.735 92.7057 179.185 78.7159C167.517 59.6487 134.133 54.9783 117.181 69.8393C117.085 69.8393 116.981 69.8607 116.884 69.9535C106.174 80.2013 101.424 95.8978 104.304 110.13C104.007 109.216 103.688 108.324 103.436 107.36C99.7987 93.3984 105.499 80.3013 115.274 70.1249C115.667 69.7179 115.066 69.1466 114.643 69.5179C100.385 82.008 98.0619 101.747 105.447 117.714C105.098 117.536 104.512 117.736 104.556 118.186C104.668 119.393 104.727 120.592 104.898 121.792C105.009 122.606 105.039 123.62 105.432 124.392C105.246 124.57 105.068 124.77 104.883 124.941C104.193 125.441 103.539 126.005 102.886 126.513C102.693 126.655 102.493 126.798 102.307 126.948C100.489 124.342 98.8932 121.578 97.6166 118.636C97.6537 118.507 97.6463 118.357 97.5721 118.2C97.2381 117.55 96.9338 116.9 96.6443 116.243C96.5775 116.065 96.5033 115.893 96.4365 115.715C92.1317 103.832 94.1579 92.0487 98.8116 80.9797C99.0045 81.0154 99.2124 80.944 99.2643 80.7012C99.4276 79.9656 99.6354 79.2658 99.8655 78.5802C100.615 76.9377 101.424 75.3166 102.263 73.717C109.321 66.5971 116.543 59.9914 126.251 56.1637C130.029 54.6712 134.037 53.8071 138.134 53.4357C138.163 53.45 138.193 53.4643 138.23 53.4786C138.23 53.5286 138.275 53.5786 138.297 53.6286C136.085 53.8856 133.985 54.3213 132.24 54.9711C131.424 55.2711 131.758 56.5279 132.597 56.2423C139.425 53.8928 145.704 55.9709 152.562 56.4137C152.963 56.4422 153.082 55.8924 152.762 55.7138C151.582 55.0354 150.194 54.5426 148.717 54.1713C148.792 53.9856 148.792 53.7571 148.695 53.5643C148.844 53.5572 148.977 53.55 149.126 53.55C149.43 53.5786 149.742 53.5929 150.046 53.6286C150.194 54.057 150.862 54.3213 151.285 53.9428C151.352 53.9071 151.412 53.8642 151.478 53.8214C155.895 54.4212 160.236 55.4282 164.304 56.735C194.022 66.2615 199.172 100.533 186.08 124.656ZM127.587 65.476C145.496 58.5132 168.772 64.4833 178.717 80.7512C188.039 96.0049 183.965 116.508 171.288 128.676C156.83 142.552 131.936 142.745 117.174 129.869C120.669 126.17 123.668 121.971 126.013 117.3C134.935 99.5399 134.935 80.9511 127.587 65.476ZM116.676 71.5389C122.436 86.4928 119.838 104.596 111.102 117.736C110.568 118.536 110.004 119.293 109.433 120.043C101.06 104.539 105.432 84.9145 116.676 71.5389ZM106.664 120.093C106.538 120.178 106.449 120.3 106.441 120.492C106.434 121.207 106.456 122.242 106.813 123.006C106.738 123.085 106.664 123.156 106.582 123.235C106.501 122.785 106.382 122.335 106.308 121.921C106.1 120.735 105.907 119.557 105.736 118.371C106.018 118.957 106.36 119.514 106.664 120.093ZM50.0858 127.869C44.5267 124.306 39.4278 119.543 34.841 113.658C17.9632 92.0201 25.504 68.8466 44.3635 51.5219C44.5861 51.3219 44.6084 51.0934 44.5416 50.8863C63.4752 38.9461 94.0243 42.8809 108.638 58.5061C109.158 59.0774 109.633 59.6701 110.108 60.2628C103.562 65.0546 99.2569 73.5456 95.7982 80.0585C89.8086 91.3774 89.2149 106.96 96.0803 118.036C97.4385 121.421 99.2049 124.649 101.313 127.684C100.971 127.934 100.645 128.191 100.311 128.441C85.771 137.931 65.7983 136.417 50.0858 127.869ZM33.8613 59.9272C33.9281 59.9557 34.0023 59.9772 34.0839 59.9986C23.7599 72.9386 20.7688 88.171 27.1072 103.646C20.7391 89.1636 22.654 72.6458 33.8613 59.9272ZM39.7915 123.02C42.3818 125.334 45.2393 127.384 48.2823 129.155C49.7222 130.097 51.2066 130.962 52.7281 131.754C47.1022 129.548 42.0255 126.712 37.2309 122.142C32.5921 117.729 29.3041 112.316 26.8771 106.553C29.935 112.494 34.2843 118.1 39.7915 123.02ZM110.13 63.2907C107.228 65.5974 104.586 68.2325 102.545 71.1247C105.009 67.2399 107.941 63.5621 111.577 60.9769C111.036 61.5125 110.531 62.041 110.1 62.5623C109.893 62.8265 109.952 63.1193 110.13 63.2907ZM103.792 138.517C103.569 138.646 103.346 138.781 103.116 138.91C102.901 139.038 102.686 139.153 102.463 139.274C88.198 147.029 70.3109 148.915 53.8266 144.78C53.8191 144.68 53.7746 144.573 53.6559 144.516C39.6876 137.703 28.8068 129.39 19.982 116.779C7.80246 99.3614 13.369 83.1506 17.5402 64.4476C17.6293 64.0477 17.0726 63.912 16.9167 64.2834C9.83611 81.2225 7.72824 98.4901 16.9835 114.887C23.0251 125.591 33.1784 136.003 44.8978 141.873C43.7771 141.424 42.6638 140.959 41.5728 140.445C11.7584 126.513 1.77577 88.3281 17.4808 61.4268C17.6441 62.1053 18.6386 62.4909 19.0469 61.7125C32.028 37.0465 59.5935 28.477 86.58 34.947C99.6057 38.0677 111.221 45.3661 119.846 55.1497C118.651 55.7781 117.485 56.4422 116.402 57.1492C116.253 57.1921 116.112 57.2563 115.964 57.2992C115.682 56.8993 115.303 56.5565 114.94 56.2066C114.531 55.8138 113.975 56.078 113.812 56.4851C113.463 56.1923 113.106 55.9138 112.839 55.671C112.305 55.1639 111.563 55.6781 111.607 56.2423C111.006 55.7424 110.405 55.2282 109.781 54.764C109.462 54.5284 109.076 54.664 108.906 54.914C108.052 54.0856 107.176 53.2858 106.263 52.5145C105.855 52.1789 105.387 52.5859 105.536 52.993C88.0051 38.5819 54.7246 37.9963 38.077 53.5714C23.3739 65.2546 19.0691 81.3867 23.077 96.6691C22.7727 96.7048 22.4758 96.9333 22.5501 97.3189C26.2091 115.936 41.4243 134.975 62.5103 136.203C62.7924 136.225 62.9408 136.06 63.0299 135.868C69.2496 137.617 75.8181 138.196 82.446 137.424C84.3237 138.446 86.5949 139.174 88.6137 138.953C88.866 138.924 89.007 138.603 88.7547 138.467C87.6933 137.889 86.4836 137.689 85.3109 137.41C85.0066 137.339 84.7319 137.224 84.4351 137.132C85.5113 136.96 86.5875 136.746 87.6637 136.51C87.6043 136.696 87.634 136.917 87.8492 137.024C89.4895 137.853 93.1114 138.945 94.2767 136.825C94.4029 136.582 94.247 136.268 93.9427 136.268C93.1263 136.282 92.3989 136.682 91.5825 136.76C90.4989 136.867 89.5117 136.682 88.5172 136.318C89.6379 136.046 90.7586 135.725 91.8868 135.375C91.9462 135.482 92.0352 135.582 92.1911 135.632C93.0298 135.896 93.8611 136.046 94.7443 136.089C95.7685 136.139 96.4439 135.86 97.2678 135.311C97.4682 135.175 97.4014 134.868 97.1416 134.861C95.9689 134.839 94.8111 134.918 93.6607 134.789C94.1579 134.582 94.2544 134.061 94.0615 133.697C95.6795 133.047 97.2381 132.268 98.767 131.411C98.0174 132.018 97.2752 132.633 96.5256 133.232C96.1025 133.575 96.6592 134.254 97.1193 133.968C102.352 130.712 107.881 126.255 110.954 120.885C117.263 112.637 120.751 102.739 121.345 92.6914C121.441 92.8913 121.694 92.9985 121.894 92.7914C123.482 91.1917 124.047 88.578 124.804 86.5356C125.026 85.9286 124.054 85.6929 123.816 86.2785C123.037 88.1852 121.761 90.2134 121.367 92.2486C121.575 88.1281 121.315 83.9862 120.551 79.9299C120.64 79.9371 120.736 79.8942 120.773 79.7942C121.33 78.4302 121.419 76.902 121.649 75.4595C121.701 75.1238 121.174 74.9739 121.107 75.3166C120.87 76.6092 120.514 77.9089 120.417 79.2229C120.009 77.2519 119.497 75.2952 118.866 73.3742C119.423 72.4101 119.43 70.9819 119.423 70.0035C119.423 69.9678 119.4 69.9393 119.393 69.9036C119.526 69.8179 119.653 69.7179 119.779 69.6322C120.818 71.7174 121.753 73.8598 122.644 76.0236C122.384 75.9237 122.043 75.9808 121.983 76.2879C121.649 78.0589 120.751 80.0513 121.115 81.8652C121.159 82.0866 121.508 82.1151 121.612 81.9295C122.48 80.3941 122.673 78.3945 122.889 76.6592C123.052 77.052 123.2 77.459 123.356 77.8518C123.134 77.759 122.874 77.809 122.829 78.0946C122.54 80.0156 122.132 81.9223 121.894 83.8433C121.864 84.1076 122.31 84.2218 122.421 83.9862C123.208 82.2723 123.371 80.3798 123.623 78.5445C123.928 79.3086 124.239 80.0656 124.522 80.8511C124.64 81.1725 125.204 81.1439 125.167 80.7726C124.752 76.4521 123.2 72.4387 121.085 68.6967C122.926 67.5326 124.885 66.5829 126.897 65.7545C133.346 79.7514 131.498 96.4763 126.726 110.766C124.44 117.607 120.885 123.47 116.431 128.384C116.261 128.212 116.001 128.134 115.786 128.262C113.507 129.683 111.815 132.111 109.878 133.939C108.022 135.682 105.974 137.189 103.792 138.517ZM132.478 47.8013C132.597 47.787 132.708 47.737 132.775 47.6227C133.124 47.0372 132.782 46.323 132.701 45.6946C132.619 45.0947 132.589 44.4806 132.567 43.8736C132.738 44.1664 132.923 44.4734 133.109 44.7877C132.916 44.8448 132.753 45.009 132.76 45.2661C132.775 46.4159 133.012 48.1583 133.962 48.951C134.148 49.1081 134.489 49.0653 134.549 48.8011C134.653 48.2797 134.519 47.887 134.341 47.3799C134.207 47.0086 134.096 46.6372 134.007 46.2659C134.86 47.6299 135.855 49.0224 136.961 50.2293C136.679 50.2222 136.404 50.3864 136.285 50.6435C134.979 49.7651 133.703 48.8082 132.478 47.8013ZM128.878 44.7162C128.997 44.7091 129.116 44.6377 129.168 44.4949C129.658 43.1951 129.398 41.6669 129.301 40.3101C129.227 39.1675 129.027 38.0391 128.819 36.9037C129.205 37.6892 129.613 38.4605 130.014 39.2317C129.828 39.296 129.658 39.4174 129.658 39.6674C129.635 40.5957 129.613 41.5241 129.591 42.4525C129.569 43.3094 129.383 44.2521 129.865 45.0162C130.006 45.2376 130.348 45.2376 130.496 45.0162C130.912 44.352 130.793 43.6093 130.778 42.8524C130.756 42.0954 130.741 41.3456 130.726 40.5886C131.023 41.1456 131.342 41.6955 131.647 42.2454C131.506 42.3311 131.402 42.4739 131.394 42.681C131.38 43.6879 131.357 44.6877 131.431 45.6946C131.469 46.1374 131.498 46.7015 131.691 47.1586C130.734 46.3516 129.791 45.5375 128.878 44.7162ZM126.57 42.6524C125.739 41.9097 124.87 41.1313 124.002 40.3315C124.648 38.6104 124.826 36.6966 125.323 34.9255C125.627 33.8472 125.984 32.7832 126.377 31.7262C126.622 32.2761 126.874 32.826 127.119 33.3687C126.837 36.4752 126.08 39.7673 126.808 42.7452C126.867 42.9738 127.223 42.9666 127.283 42.7452C127.921 40.3029 127.913 37.5821 127.839 34.9398C128.002 35.2755 128.181 35.604 128.344 35.9396C128.195 35.961 128.062 36.061 128.084 36.2253C128.262 37.5821 128.255 38.9461 128.255 40.3101C128.255 41.6241 128.047 43.0952 128.47 44.352C127.824 43.7807 127.193 43.2023 126.57 42.6524ZM115.444 29.7053C116.446 30.1552 117.716 30.2551 118.762 30.3623C120.952 30.5765 123.148 30.5765 125.338 30.6622C124.069 33.3973 122.896 36.4823 122.941 39.346C119.927 36.4895 117.003 33.2902 115.444 29.7053ZM120.395 22.6068C123.334 18.9433 126.147 15.1727 129.205 11.6092C128.002 17.3723 126.169 22.9996 125.19 28.8055C125.19 28.8269 125.182 28.8412 125.182 28.8554C125.167 28.934 125.152 29.0054 125.138 29.084C124.247 29.0768 123.356 29.1054 122.54 29.0982C120.914 29.0697 117.151 29.4196 115.541 28.2484C117.404 27.2058 119.749 23.4138 120.395 22.6068ZM130.771 10.2167C134.163 10.3167 137.547 10.5595 140.939 10.7237C140.902 10.7523 140.872 10.7951 140.835 10.8237C140.805 10.8094 140.783 10.788 140.754 10.7737C140.227 10.4809 139.625 11.1808 140.063 11.595C137.896 13.7516 136.174 16.451 134.363 18.8434C132.01 21.9427 129.569 24.9563 127.03 27.9128C126.926 27.9057 126.822 27.9342 126.733 27.9842C127.906 22.0212 129.925 16.2368 130.771 10.2167ZM148.524 19.6503C150.209 21.4785 152.065 24.0708 154.21 25.8204C154.195 25.9347 154.202 26.0561 154.269 26.1846C154.469 26.5702 154.677 26.9487 154.885 27.3344C154.87 27.3629 154.855 27.3915 154.841 27.4129C154.759 27.42 154.692 27.4558 154.618 27.4843C154.403 27.3629 154.128 27.3629 153.898 27.5986C153.601 27.8985 153.326 28.2127 153.037 28.5269C145.147 29.6767 136.167 30.398 128.552 28.1342C130.459 26.0561 132.211 23.8494 133.933 21.6213C136.219 18.6648 138.965 15.6084 140.917 12.3734C143.589 14.68 146.12 17.058 148.524 19.6503ZM152.933 10.1096C157.305 17.058 164.022 22.5711 169.811 28.4055C169.781 28.4413 169.751 28.4698 169.729 28.4984C169.61 28.3127 169.425 28.1627 169.128 28.1627C164.964 28.1627 160.86 28.0413 156.741 27.5986C156.696 27.4772 156.652 27.3486 156.6 27.2272C156.971 27.1987 157.327 26.863 157.06 26.4845C156.652 25.9275 156.184 25.3991 155.709 24.8706C154.143 20.1074 153.653 15.0656 152.933 10.1096ZM168.126 30.0552C168.03 29.8338 167.74 29.7053 167.503 29.9195C165.395 31.8334 163.539 34.1043 161.743 36.3895C160.318 33.9686 158.886 31.5406 157.431 29.134C161.008 29.6196 164.675 29.641 168.267 29.6338C168.23 29.7838 168.171 29.9124 168.126 30.0552ZM167.109 32.5689C166.872 32.976 166.634 33.383 166.389 33.7901C166.36 33.8472 166.352 33.8972 166.337 33.9543C165.781 34.6827 165.239 35.4183 164.66 36.0967C164.059 36.8037 163.435 37.5035 162.819 38.2105C162.752 38.0963 162.693 37.9891 162.634 37.882C164.534 35.7182 166.464 33.4901 167.785 31.0193C167.592 31.5548 167.347 32.0619 167.109 32.5689ZM158.952 43.5379C157.557 44.9733 156.132 46.3944 154.752 47.8298C156.555 45.2518 158.485 42.7667 160.518 40.3243C160.882 39.8887 161.246 39.4603 161.624 39.0318C161.699 39.1389 161.758 39.2389 161.825 39.3531C160.838 40.4743 159.865 41.6026 158.878 42.731C158.633 43.0095 158.73 43.3451 158.952 43.5379ZM142.565 51.9504C142.06 51.9575 141.563 51.9575 141.058 51.9861C138 48.6725 135.246 45.616 132.916 41.6955C131.031 38.5105 129.398 35.1969 127.758 31.8905C127.75 31.8191 127.72 31.7548 127.676 31.7191C127.52 31.4049 127.364 31.0907 127.208 30.7693C127.594 30.805 127.995 30.8193 128.388 30.8621C128.581 30.8836 128.73 30.8336 128.841 30.7479C132.485 34.697 135.989 39.0889 140.561 41.9883C140.991 42.2596 141.481 41.9454 141.615 41.5598C141.637 41.6526 141.681 41.7383 141.741 41.8169C141.889 45.1733 141.874 48.6582 142.565 51.9504ZM141.674 40.5243C141.681 40.6957 141.689 40.8671 141.696 41.0385C141.666 41.0885 141.644 41.1456 141.629 41.2099C141.6 41.0956 141.54 40.9885 141.429 40.9028C137.161 37.6178 133.68 33.6401 129.865 29.9266C136.345 31.8548 144.598 31.4692 151.464 30.3266C148.651 33.7258 146.157 37.3679 142.676 40.1744C142.327 39.8459 141.637 39.9387 141.674 40.5243ZM147.226 49.8651C147.033 50.5721 146.84 51.2791 146.647 51.9718C145.801 51.9432 144.954 51.9289 144.108 51.9289C143.789 48.5225 143.425 45.0947 143.002 41.7026C147.196 38.5176 150.202 34.1971 153.445 30.148C150.937 35.5683 149.371 41.7526 147.834 47.587C147.589 48.2012 147.337 48.8225 147.137 49.4438C147.077 49.6223 147.137 49.7508 147.226 49.8651ZM151.122 48.9296C150.365 49.5152 149.564 50.0508 148.755 50.5721C149.541 48.9439 150.061 47.1514 150.521 45.3875C151.337 43.5451 152.065 41.6455 152.978 39.903C153.245 39.3746 152.473 38.9318 152.154 39.4388C152.132 39.4674 152.109 39.5031 152.087 39.5317C153.044 36.161 154.076 32.8403 155.397 29.5767C155.412 29.5696 155.427 29.5696 155.442 29.5696C155.694 29.5124 155.813 29.3625 155.88 29.1982C157.416 32.0547 159.049 34.8755 160.763 37.6321C159.999 38.6104 159.242 39.5745 158.47 40.51C156.681 42.6881 154.967 44.9162 153.423 47.2443C152.562 47.6156 151.835 48.3726 151.122 48.9296ZM174.464 59.8058C168.089 55.7424 160.541 53.3858 152.8 52.4145C152.785 52.3288 152.77 52.2574 152.733 52.186C156.258 47.8798 160.4 44.045 164.036 39.8316C165.417 38.2248 166.894 36.3895 168.007 34.4114C168.846 33.3902 169.588 32.3047 169.967 31.1549C170.019 30.9978 169.93 30.8479 169.796 30.7622C170.16 30.248 170.568 29.741 170.88 29.1911C171.444 29.1982 171.956 28.4841 171.444 27.9628C165.298 21.6499 158.871 15.8012 153.557 8.77415C153.334 8.47422 152.97 8.4528 152.703 8.58134C152.696 8.55277 152.696 8.53135 152.688 8.50278C152.592 7.86007 151.449 8.01003 151.516 8.65989C152.013 13.3303 152.421 18.0507 153.557 22.614C152.198 21.2857 150.781 19.986 149.556 18.6577C147.129 16.044 144.62 13.2089 141.54 11.2665C141.592 11.1736 141.644 11.0808 141.696 10.988C141.733 10.9094 141.733 10.8308 141.726 10.7594C141.822 10.7666 141.911 10.7737 142 10.7809C144.123 10.8665 146.61 11.0522 148.806 10.6023C148.873 10.6166 148.918 10.6523 148.977 10.6523C149.371 10.6452 149.756 10.638 150.142 10.6595L150.165 10.6666C150.202 10.7023 150.217 10.7237 150.328 10.8094C150.84 11.2093 151.768 10.6737 151.315 10.0739C151.241 9.97389 151.182 9.85249 151.1 9.73823C151.219 9.58826 151.182 9.39544 151.048 9.25976C151.152 8.84556 150.803 8.3671 150.321 8.3671C149.794 8.3671 149.259 8.35996 148.717 8.37424C148.48 8.38138 148.19 8.50278 148.079 8.72416C148.027 8.84556 148.005 8.9384 147.997 9.03838C145.556 9.08123 143.062 9.36688 140.642 9.28118C137.154 9.15264 133.673 8.83842 130.177 8.83842C129.813 8.83842 129.606 9.0598 129.531 9.31689C129.435 9.3526 129.338 9.39544 129.242 9.48114C126.288 12.1163 123.987 15.7583 121.56 18.8291C119.942 20.8715 118.332 22.9282 116.662 24.9349C116.239 25.4419 115.125 27.0416 114.546 27.4843C114.168 27.47 113.774 27.7628 113.93 28.1913C113.975 28.327 114.056 28.4413 114.123 28.5555C113.99 28.6626 113.923 28.8269 113.997 29.034C115.912 34.5113 121.657 39.4817 125.731 43.4665C128.596 46.273 131.884 49.3652 135.491 51.8004C131.172 50.8577 125.716 52.2646 120.811 54.6569C114.309 46.5016 105.35 39.7816 94.1357 35.4111C67.6687 25.1063 35.5164 32.3333 20.4422 55.7424C20.3235 55.7281 20.1973 55.7567 20.1008 55.8495C8.79702 66.997 6.54814 85.393 9.20523 100.175C12.3373 117.543 22.4981 131.561 38.1289 140.681C60.3728 153.671 89.6082 151.243 109.455 136.667C112.052 138.917 114.895 140.952 118.042 142.659C141.429 155.335 169.581 151.057 184.766 129.569C200.063 107.931 198.111 74.8525 174.464 59.8058Z" fill="#333333"/>
<path fill-rule="evenodd" clip-rule="evenodd" d="M124.173 136.582C123.624 136.21 123.127 137.075 123.653 137.439C126.555 139.467 129.717 142.338 133.265 143.202C133.436 143.245 133.554 143.045 133.436 142.93C130.875 140.367 127.186 138.617 124.173 136.582Z" fill="#333333"/>
<path fill-rule="evenodd" clip-rule="evenodd" d="M146.632 141.666C145.474 141.402 144.346 141.066 143.225 140.666C142.973 140.574 142.795 140.981 143.04 141.088C145.066 141.916 147.656 143.516 149.92 142.773C150.098 142.716 150.083 142.509 149.92 142.445C148.888 142.045 147.716 141.923 146.632 141.666Z" fill="#333333"/>
<path fill-rule="evenodd" clip-rule="evenodd" d="M154.856 139.824C154.588 139.774 154.477 140.152 154.744 140.224C156.392 140.667 158.24 141.038 159.821 140.188C159.999 140.088 159.91 139.845 159.724 139.838C158.062 139.767 156.533 140.145 154.856 139.824Z" fill="#333333"/>
<path fill-rule="evenodd" clip-rule="evenodd" d="M163.065 137.803C162.107 137.903 161.135 137.917 160.177 137.939C159.687 137.946 159.687 138.66 160.177 138.674C161.884 138.71 164.148 138.996 165.647 138.046C165.833 137.924 165.744 137.696 165.543 137.674C164.72 137.567 163.888 137.717 163.065 137.803Z" fill="#333333"/>
<path fill-rule="evenodd" clip-rule="evenodd" d="M177.189 73.7813C177.3 73.7813 177.3 73.6099 177.189 73.6099C177.062 73.6099 177.062 73.7813 177.189 73.7813Z" fill="#333333"/>
<path fill-rule="evenodd" clip-rule="evenodd" d="M179.868 78.4376H179.875V77.5735C179.875 77.5663 179.868 77.5663 179.868 77.5735" fill="#333333"/>
<path fill-rule="evenodd" clip-rule="evenodd" d="M179.578 76.0094C182.08 80.0443 183.505 84.3933 184.766 88.8923C184.907 89.3993 185.798 89.3137 185.739 88.7709C185.13 83.9434 183.037 79.6301 180.157 75.6809C179.912 75.3453 179.356 75.6524 179.578 76.0094Z" fill="#333333"/>
<path fill-rule="evenodd" clip-rule="evenodd" d="M42.1368 129.083C41.736 128.612 40.8751 129.24 41.2536 129.733C44.4302 133.875 49.0096 138.003 54.398 139.131C54.9027 139.238 55.259 138.538 54.7617 138.296C49.8854 135.91 45.6252 133.211 42.1368 129.083Z" fill="#333333"/>
<path fill-rule="evenodd" clip-rule="evenodd" d="M54.339 135.282C53.8714 134.861 53.196 135.511 53.6414 135.946C56.0758 138.346 59.0001 140.702 62.4142 141.588C62.7408 141.681 63.0748 141.231 62.7705 141.002C60.0466 138.931 56.9071 137.596 54.339 135.282Z" fill="#333333"/>
<path fill-rule="evenodd" clip-rule="evenodd" d="M60.6329 136.225C60.0836 135.896 59.6235 136.696 60.1356 137.053C62.9263 138.988 65.8654 141.938 69.3167 142.709C69.7397 142.809 70.1331 142.273 69.7694 141.959C67.1123 139.71 63.6314 138.039 60.6329 136.225Z" fill="#333333"/>
<path fill-rule="evenodd" clip-rule="evenodd" d="M70.1031 139.252C69.4871 139.067 69.2422 139.974 69.8359 140.174C71.2758 140.666 72.6341 141.316 74.1481 141.531C74.4747 141.581 74.7048 141.181 74.3857 141.002C73.0274 140.259 71.5875 139.731 70.1031 139.252Z" fill="#333333"/>
<path fill-rule="evenodd" clip-rule="evenodd" d="M32.8965 54.8356C37.6911 49.8581 44.3413 44.8663 51.3403 43.4095C51.4219 43.3881 51.3848 43.281 51.3106 43.2953C43.7475 44.5878 37.0083 48.5869 32.4141 54.4785C32.1988 54.7499 32.659 55.0784 32.8965 54.8356Z" fill="#333333"/>
<path fill-rule="evenodd" clip-rule="evenodd" d="M93.8167 43.795C100.704 46.0374 106.88 48.6368 112.379 53.2929C112.624 53.5 113.032 53.2286 112.847 52.943C108.913 46.9514 100.742 44.7234 94.0691 42.9023C93.4679 42.7381 93.2304 43.6093 93.8167 43.795Z" fill="#333333"/>
<path fill-rule="evenodd" clip-rule="evenodd" d="M120.157 71.2891C120.165 72.0604 120.12 72.8031 119.979 73.5744C119.972 73.66 120.076 73.6886 120.113 73.6101C120.425 72.8531 120.454 72.0961 120.469 71.2891C120.477 71.0963 120.15 71.0963 120.157 71.2891Z" fill="#333333"/>
<path fill-rule="evenodd" clip-rule="evenodd" d="M120.811 73.2599C120.581 74.4811 120.581 75.7023 120.425 76.9234C120.403 77.0948 120.685 77.1234 120.729 76.9663C121.041 75.7808 121.174 74.6168 121.412 73.417C121.486 73.0386 120.885 72.8814 120.811 73.2599Z" fill="#333333"/>
<path fill-rule="evenodd" clip-rule="evenodd" d="M123.349 81.4225C122.763 83.3863 121.872 85.3073 121.531 87.3283C121.456 87.7425 122.006 88.021 122.258 87.6282C123.393 85.8215 123.742 83.6863 124.202 81.651C124.321 81.1154 123.512 80.894 123.349 81.4225Z" fill="#333333"/>
<path fill-rule="evenodd" clip-rule="evenodd" d="M123.275 92.3058C123.275 92.2201 123.275 92.1344 123.275 92.0487C123.275 92.0059 123.208 92.0059 123.208 92.0487C123.215 92.1344 123.215 92.2201 123.215 92.3058C123.215 92.3344 123.275 92.3344 123.275 92.3058Z" fill="#333333"/>
<path fill-rule="evenodd" clip-rule="evenodd" d="M100.897 111.266C100.853 110.909 100.348 110.909 100.311 111.266C100.081 113.308 99.1682 116.379 100.667 118.121C100.808 118.293 101.083 118.179 101.142 118.007C101.447 117.057 101.217 116.043 101.165 115.065C101.09 113.794 101.016 112.537 100.897 111.266Z" fill="#333333"/>
<path fill-rule="evenodd" clip-rule="evenodd" d="M102.018 121.057C102.092 121.228 102.315 121.228 102.382 121.057C103.169 119.193 102.575 116.786 102.322 114.858C102.256 114.387 101.499 114.372 101.543 114.858C101.766 116.843 101.224 119.186 102.018 121.057Z" fill="#333333"/>
<path fill-rule="evenodd" clip-rule="evenodd" d="M105.024 124.077C105.031 122.878 104.668 121.707 104.49 120.521C104.274 119.071 104.163 117.593 104.237 116.136C104.267 115.579 103.428 115.608 103.354 116.136C103.035 118.679 102.745 122.014 104.23 124.285C104.453 124.627 105.017 124.499 105.024 124.077Z" fill="#333333"/>
<path fill-rule="evenodd" clip-rule="evenodd" d="M1.68685 94.441C1.40482 100.304 2.32515 106.467 5.1381 111.73C5.36819 112.166 6.02875 111.851 5.92484 111.416C4.58887 105.738 2.7111 100.29 2.23609 94.441C2.2064 94.1053 1.7017 94.091 1.68685 94.441Z" fill="#333333"/>
<path fill-rule="evenodd" clip-rule="evenodd" d="M1.04126 111.394C0.818601 110.787 -0.190797 111.045 0.0318649 111.659C0.781491 113.715 2.1991 115.101 3.81711 116.572C4.18079 116.9 4.70775 116.393 4.36634 116.043C3.01553 114.672 1.71667 113.194 1.04126 111.394Z" fill="#333333"/>
<path fill-rule="evenodd" clip-rule="evenodd" d="M192.626 75.5309C192.849 76.0165 193.621 75.6666 193.487 75.181C191.699 68.7538 186.392 64.112 181.916 59.3416C181.605 58.9989 181.115 59.4916 181.412 59.8344C185.687 64.7976 189.813 69.6394 192.626 75.5309Z" fill="#333333"/>
<path fill-rule="evenodd" clip-rule="evenodd" d="M194.979 66.9615C194.72 66.3402 193.666 66.5902 193.918 67.24C196.709 74.5599 198.163 81.9011 198.906 89.6565C198.965 90.2921 199.908 90.3064 199.945 89.6565C200.397 81.8797 198.015 74.0814 194.979 66.9615Z" fill="#333333"/>
<path fill-rule="evenodd" clip-rule="evenodd" d="M26.4544 40.3315C29.0892 38.9103 31.8056 37.1893 34.1955 35.4254C34.6483 35.0969 34.4182 34.2899 33.7799 34.4828C30.8111 35.3397 28.0278 37.4607 25.6305 39.3031C25.0071 39.7744 25.8012 40.6742 26.4544 40.3315Z" fill="#333333"/>
<path fill-rule="evenodd" clip-rule="evenodd" d="M189.042 132.59C187.32 136.939 184.232 140.352 181.263 143.944C180.811 144.487 181.501 145.166 182.065 144.716C185.872 141.659 188.411 137.31 189.917 132.825C190.11 132.283 189.242 132.069 189.042 132.59Z" fill="#333333"/>
</svg>
