<svg class="w-full" width="500" height="148" viewBox="0 0 500 148" fill="none" xmlns="http://www.w3.org/2000/svg">
<mask id="path-1-outside-1_217_5730" maskUnits="userSpaceOnUse" x="-2" y="-1" width="503" height="150" fill="black">
<rect fill="white" x="-2" y="-1" width="503" height="150"/>
<path d="M15 144V130.8C18.0667 130.667 20.6 130.267 22.6 129.6C24.7333 128.933 26.3333 127.4 27.4 125C28.6 122.6 29.2 118.733 29.2 113.4V33.2L7.4 46.2L0.2 34.2L46 0.799996H58V111.2C58 114.8 57.9333 118.267 57.8 121.6C57.8 124.933 57.6667 127.467 57.4 129.2C59.5333 128.933 62.2 128.8 65.4 128.8C68.7333 128.667 71.0667 128.6 72.4 128.6V144H15ZM133.25 147.2C124.45 147.2 117.383 145.933 112.05 143.4C106.717 140.867 102.783 137.6 100.25 133.6C97.85 129.6 96.65 125.4 96.65 121C96.65 117.4 97.7833 114.067 100.05 111C102.45 107.8 105.717 106.2 109.85 106.2C114.917 106.2 118.317 107.667 120.05 110.6C121.783 113.4 122.65 116.133 122.65 118.8C122.65 119.867 122.383 121.333 121.85 123.2C121.45 124.933 120.783 126.333 119.85 127.4C120.917 129 122.583 130.4 124.85 131.6C127.25 132.667 130.117 133.133 133.45 133C137.317 132.733 140.717 131.667 143.65 129.8C146.583 127.8 149.05 125.133 151.05 121.8C153.183 118.467 154.85 114.667 156.05 110.4C157.383 106.133 158.25 101.6 158.65 96.8C159.183 91.8667 159.317 86.8667 159.05 81.8C156.917 84.3333 153.45 86.8 148.65 89.2C143.85 91.6 138.917 92.9333 133.85 93.2C126.517 93.3333 120.117 92.3333 114.65 90.2C109.317 87.9333 104.85 84.6667 101.25 80.4C97.7833 76.1333 95.1833 71.1333 93.45 65.4C91.7167 59.6667 90.85 53.4 90.85 46.6C90.85 37.6667 92.85 29.8 96.85 23C100.983 16.0667 106.65 10.6667 113.85 6.79999C121.183 2.79999 129.583 0.799996 139.05 0.799996C147.983 0.799996 155.517 2.46666 161.65 5.79999C167.917 9.13333 172.983 13.8667 176.85 20C180.717 26 183.517 33.1333 185.25 41.4C187.117 49.6667 188.05 58.6667 188.05 68.4C188.05 74.4 187.583 80.9333 186.65 88C185.85 95.0667 184.317 102.067 182.05 109C179.917 115.933 176.783 122.333 172.65 128.2C168.65 133.933 163.383 138.533 156.85 142C150.45 145.467 142.583 147.2 133.25 147.2ZM139.45 77.2C142.25 77.2 144.917 76.6 147.45 75.4C149.983 74.2 152.25 72.6 154.25 70.6C156.25 68.6 157.85 66.4 159.05 64C159.05 57.6 158.717 51.4667 158.05 45.6C157.383 39.7333 156.25 34.4667 154.65 29.8C153.183 25.1333 151.117 21.4667 148.45 18.8C145.917 16.1333 142.717 14.8 138.85 14.8C134.85 14.8 131.517 16.1333 128.85 18.8C126.183 21.3333 124.183 24.6667 122.85 28.8C121.65 32.9333 121.05 37.3333 121.05 42C121.05 44.9333 121.25 48.4 121.65 52.4C122.05 56.4 122.85 60.3333 124.05 64.2C125.25 67.9333 127.05 71.0667 129.45 73.6C131.983 76 135.317 77.2 139.45 77.2ZM223.484 125.2C219.218 125.2 215.684 123.667 212.884 120.6C210.218 117.533 208.884 113.867 208.884 109.6C208.884 105.333 210.351 101.667 213.284 98.6C216.218 95.5333 219.618 94 223.484 94C227.618 94 231.018 95.5333 233.684 98.6C236.484 101.667 237.884 105.333 237.884 109.6C237.884 113.867 236.551 117.533 233.884 120.6C231.351 123.667 227.884 125.2 223.484 125.2ZM223.484 44.6C219.218 44.6 215.684 43.0667 212.884 40C210.218 36.9333 208.884 33.2667 208.884 29C208.884 24.7333 210.351 21.0667 213.284 18C216.218 14.9333 219.618 13.4 223.484 13.4C227.618 13.4 231.018 14.9333 233.684 18C236.484 21.0667 237.884 24.7333 237.884 29C237.884 33.2667 236.551 36.9333 233.884 40C231.351 43.0667 227.884 44.6 223.484 44.6ZM315.084 147.2C304.951 147.2 296.351 145.067 289.284 140.8C282.218 136.4 276.551 130.667 272.284 123.6C268.018 116.4 264.884 108.533 262.884 100C261.018 91.4667 260.084 83 260.084 74.6C260.084 66.2 261.218 57.6667 263.484 49C265.884 40.3333 269.418 32.4 274.084 25.2C278.751 17.8667 284.551 12 291.484 7.59999C298.418 3.06666 306.551 0.799996 315.884 0.799996C325.618 0.799996 333.884 3 340.684 7.39999C347.618 11.8 353.218 17.6 357.484 24.8C361.751 31.8667 364.884 39.6667 366.884 48.2C368.884 56.7333 369.884 65.2 369.884 73.6C369.884 81.8667 368.751 90.3333 366.484 99C364.351 107.667 361.018 115.667 356.484 123C351.951 130.2 346.218 136.067 339.284 140.6C332.484 145 324.418 147.2 315.084 147.2ZM316.284 133C320.951 133 324.818 131.533 327.884 128.6C330.951 125.667 333.284 121.667 334.884 116.6C336.618 111.4 337.818 105.467 338.484 98.8C339.151 92.1333 339.484 85.1333 339.484 77.8C339.484 69.6667 339.151 61.8667 338.484 54.4C337.951 46.8 336.818 40.0667 335.084 34.2C333.484 28.2 331.084 23.4667 327.884 20C324.818 16.5333 320.684 14.8 315.484 14.8C310.684 14.8 306.684 16.2667 303.484 19.2C300.284 22.1333 297.684 26.2 295.684 31.4C293.818 36.6 292.484 42.5333 291.684 49.2C290.884 55.8667 290.484 62.9333 290.484 70.4C290.484 76 290.618 81.7333 290.884 87.6C291.284 93.4667 291.951 99.1333 292.884 104.6C293.951 109.933 295.418 114.733 297.284 119C299.151 123.267 301.618 126.667 304.684 129.2C307.884 131.733 311.751 133 316.284 133ZM444.233 147.2C434.099 147.2 425.499 145.067 418.433 140.8C411.366 136.4 405.699 130.667 401.433 123.6C397.166 116.4 394.033 108.533 392.033 100C390.166 91.4667 389.233 83 389.233 74.6C389.233 66.2 390.366 57.6667 392.633 49C395.033 40.3333 398.566 32.4 403.233 25.2C407.899 17.8667 413.699 12 420.633 7.59999C427.566 3.06666 435.699 0.799996 445.033 0.799996C454.766 0.799996 463.033 3 469.833 7.39999C476.766 11.8 482.366 17.6 486.633 24.8C490.899 31.8667 494.033 39.6667 496.033 48.2C498.033 56.7333 499.033 65.2 499.033 73.6C499.033 81.8667 497.899 90.3333 495.633 99C493.499 107.667 490.166 115.667 485.633 123C481.099 130.2 475.366 136.067 468.433 140.6C461.633 145 453.566 147.2 444.233 147.2ZM445.433 133C450.099 133 453.966 131.533 457.033 128.6C460.099 125.667 462.433 121.667 464.033 116.6C465.766 111.4 466.966 105.467 467.633 98.8C468.299 92.1333 468.633 85.1333 468.633 77.8C468.633 69.6667 468.299 61.8667 467.633 54.4C467.099 46.8 465.966 40.0667 464.233 34.2C462.633 28.2 460.233 23.4667 457.033 20C453.966 16.5333 449.833 14.8 444.633 14.8C439.833 14.8 435.833 16.2667 432.633 19.2C429.433 22.1333 426.833 26.2 424.833 31.4C422.966 36.6 421.633 42.5333 420.833 49.2C420.033 55.8667 419.633 62.9333 419.633 70.4C419.633 76 419.766 81.7333 420.033 87.6C420.433 93.4667 421.099 99.1333 422.033 104.6C423.099 109.933 424.566 114.733 426.433 119C428.299 123.267 430.766 126.667 433.833 129.2C437.033 131.733 440.899 133 445.433 133Z"/>
</mask>
<path d="M15 144H14V145H15V144ZM15 130.8L14.9566 129.801L14 129.843V130.8H15ZM22.6 129.6L22.3017 128.646L22.2927 128.648L22.2838 128.651L22.6 129.6ZM27.4 125L26.5056 124.553L26.4954 124.573L26.4862 124.594L27.4 125ZM29.2 33.2H30.2V31.4394L28.6878 32.3411L29.2 33.2ZM7.4 46.2L6.54251 46.7145L7.05561 47.5697L7.91218 47.0589L7.4 46.2ZM0.2 34.2L-0.38922 33.392L-1.1278 33.9306L-0.657493 34.7145L0.2 34.2ZM46 0.799996V-0.200004H45.6741L45.4108 -0.00797666L46 0.799996ZM58 0.799996H59V-0.200004H58V0.799996ZM57.8 121.6L56.8008 121.56L56.8 121.58V121.6H57.8ZM57.4 129.2L56.4116 129.048L56.2103 130.356L57.524 130.192L57.4 129.2ZM65.4 128.8V129.8H65.42L65.44 129.799L65.4 128.8ZM72.4 128.6H73.4V127.6H72.4V128.6ZM72.4 144V145H73.4V144H72.4ZM16 144V130.8H14V144H16ZM15.0434 131.799C18.1647 131.663 20.798 131.255 22.9162 130.549L22.2838 128.651C20.402 129.279 17.9686 129.67 14.9566 129.801L15.0434 131.799ZM22.8983 130.554C25.3549 129.787 27.1529 128.018 28.3138 125.406L26.4862 124.594C25.5138 126.782 24.1118 128.08 22.3017 128.646L22.8983 130.554ZM28.2944 125.447C29.6037 122.829 30.2 118.764 30.2 113.4H28.2C28.2 118.702 27.5963 122.371 26.5056 124.553L28.2944 125.447ZM30.2 113.4V33.2H28.2V113.4H30.2ZM28.6878 32.3411L6.88782 45.3411L7.91218 47.0589L29.7122 34.0589L28.6878 32.3411ZM8.25749 45.6855L1.05749 33.6855L-0.657493 34.7145L6.54251 46.7145L8.25749 45.6855ZM0.78922 35.008L46.5892 1.60797L45.4108 -0.00797666L-0.38922 33.392L0.78922 35.008ZM46 1.8H58V-0.200004H46V1.8ZM57 0.799996V111.2H59V0.799996H57ZM57 111.2C57 114.788 56.9336 118.241 56.8008 121.56L58.7992 121.64C58.9331 118.292 59 114.812 59 111.2H57ZM56.8 121.6C56.8 124.919 56.6665 127.391 56.4116 129.048L58.3884 129.352C58.6669 127.542 58.8 124.948 58.8 121.6H56.8ZM57.524 130.192C59.6016 129.933 62.2235 129.8 65.4 129.8V127.8C62.1765 127.8 59.4651 127.934 57.276 128.208L57.524 130.192ZM65.44 129.799C68.7739 129.666 71.089 129.6 72.4 129.6V127.6C71.0444 127.6 68.6928 127.667 65.36 127.801L65.44 129.799ZM71.4 128.6V144H73.4V128.6H71.4ZM72.4 143H15V145H72.4V143ZM112.05 143.4L111.621 144.303L111.621 144.303L112.05 143.4ZM100.25 133.6L99.3925 134.114L99.3987 134.125L99.4052 134.135L100.25 133.6ZM100.05 111L99.25 110.4L99.2458 110.406L100.05 111ZM120.05 110.6L119.189 111.109L119.194 111.118L119.2 111.126L120.05 110.6ZM121.85 123.2L120.888 122.925L120.881 122.95L120.876 122.975L121.85 123.2ZM119.85 127.4L119.097 126.741L118.593 127.318L119.018 127.955L119.85 127.4ZM124.85 131.6L124.382 132.484L124.412 132.5L124.444 132.514L124.85 131.6ZM133.45 133L133.49 133.999L133.504 133.999L133.519 133.998L133.45 133ZM143.65 129.8L144.187 130.644L144.2 130.635L144.213 130.626L143.65 129.8ZM151.05 121.8L150.208 121.261L150.2 121.273L150.193 121.286L151.05 121.8ZM156.05 110.4L155.096 110.102L155.091 110.115L155.087 110.129L156.05 110.4ZM158.65 96.8L157.656 96.6925L157.654 96.7047L157.653 96.717L158.65 96.8ZM159.05 81.8L160.049 81.7474L159.916 79.2197L158.285 81.1559L159.05 81.8ZM133.85 93.2L133.868 94.1998L133.885 94.1995L133.903 94.1986L133.85 93.2ZM114.65 90.2L114.259 91.1203L114.273 91.1262L114.286 91.1316L114.65 90.2ZM101.25 80.4L100.474 81.0306L100.48 81.0378L100.486 81.0449L101.25 80.4ZM93.45 65.4L92.4928 65.6894L92.4928 65.6894L93.45 65.4ZM96.85 23L95.991 22.4879L95.9881 22.493L96.85 23ZM113.85 6.79999L114.323 7.681L114.329 7.67789L113.85 6.79999ZM161.65 5.79999L161.172 6.67865L161.18 6.68286L161.65 5.79999ZM176.85 20L176.004 20.5333L176.009 20.5417L176.85 20ZM185.25 41.4L184.271 41.6052L184.273 41.6127L184.275 41.6203L185.25 41.4ZM186.65 88L185.659 87.8691L185.657 87.8783L185.656 87.8875L186.65 88ZM182.05 109L181.1 108.689L181.097 108.698L181.094 108.706L182.05 109ZM172.65 128.2L171.833 127.624L171.83 127.628L172.65 128.2ZM156.85 142L156.381 141.117L156.374 141.121L156.85 142ZM147.45 75.4L147.022 74.4963L147.022 74.4963L147.45 75.4ZM159.05 64L159.944 64.4472L160.05 64.2361V64H159.05ZM154.65 29.8L153.696 30.0998L153.7 30.1121L153.704 30.1243L154.65 29.8ZM148.45 18.8L147.725 19.4887L147.734 19.498L147.743 19.5071L148.45 18.8ZM128.85 18.8L129.539 19.525L129.548 19.5162L129.557 19.5071L128.85 18.8ZM122.85 28.8L121.898 28.493L121.894 28.507L121.89 28.5212L122.85 28.8ZM121.65 52.4L122.645 52.3005L122.645 52.3005L121.65 52.4ZM124.05 64.2L123.095 64.4964L123.098 64.506L124.05 64.2ZM129.45 73.6L128.724 74.2877L128.743 74.3074L128.762 74.3259L129.45 73.6ZM133.25 146.2C124.532 146.2 117.629 144.943 112.479 142.497L111.621 144.303C117.138 146.924 124.368 148.2 133.25 148.2V146.2ZM112.479 142.497C107.274 140.024 103.505 136.87 101.095 133.065L99.4052 134.135C102.062 138.33 106.159 141.709 111.621 144.303L112.479 142.497ZM101.107 133.086C98.7949 129.231 97.65 125.208 97.65 121H95.65C95.65 125.592 96.9051 129.969 99.3925 134.114L101.107 133.086ZM97.65 121C97.65 117.627 98.7067 114.5 100.854 111.594L99.2458 110.406C96.86 113.633 95.65 117.173 95.65 121H97.65ZM100.85 111.6C103.054 108.661 106.019 107.2 109.85 107.2V105.2C105.414 105.2 101.846 106.938 99.25 110.4L100.85 111.6ZM109.85 107.2C114.75 107.2 117.714 108.612 119.189 111.109L120.911 110.091C118.919 106.721 115.083 105.2 109.85 105.2V107.2ZM119.2 111.126C120.858 113.805 121.65 116.359 121.65 118.8H123.65C123.65 115.908 122.709 112.995 120.9 110.074L119.2 111.126ZM121.65 118.8C121.65 119.727 121.414 121.088 120.888 122.925L122.812 123.475C123.353 121.579 123.65 120.006 123.65 118.8H121.65ZM120.876 122.975C120.503 124.588 119.898 125.827 119.097 126.741L120.603 128.059C121.669 126.84 122.397 125.279 122.824 123.425L120.876 122.975ZM119.018 127.955C120.202 129.731 122.016 131.231 124.382 132.484L125.318 130.716C123.151 129.569 121.631 128.269 120.682 126.845L119.018 127.955ZM124.444 132.514C127.017 133.657 130.044 134.137 133.49 133.999L133.41 132.001C130.19 132.13 127.483 131.676 125.256 130.686L124.444 132.514ZM133.519 133.998C137.532 133.721 141.097 132.61 144.187 130.644L143.113 128.956C140.336 130.724 137.101 131.746 133.381 132.002L133.519 133.998ZM144.213 130.626C147.277 128.537 149.84 125.76 151.907 122.314L150.193 121.286C148.26 124.507 145.89 127.063 143.087 128.974L144.213 130.626ZM151.892 122.339C154.085 118.913 155.789 115.021 157.013 110.671L155.087 110.129C153.911 114.312 152.282 118.02 150.208 121.261L151.892 122.339ZM157.004 110.698C158.361 106.356 159.241 101.751 159.647 96.883L157.653 96.717C157.259 101.449 156.405 105.91 155.096 110.102L157.004 110.698ZM159.644 96.9075C160.183 91.9198 160.318 86.8663 160.049 81.7474L158.051 81.8526C158.315 86.867 158.183 91.8135 157.656 96.6925L159.644 96.9075ZM158.285 81.1559C156.277 83.5402 152.947 85.9332 148.203 88.3056L149.097 90.0944C153.953 87.6667 157.556 85.1265 159.815 82.4441L158.285 81.1559ZM148.203 88.3056C143.519 90.6477 138.719 91.9424 133.797 92.2014L133.903 94.1986C139.114 93.9243 144.181 92.5523 149.097 90.0944L148.203 88.3056ZM133.832 92.2002C126.597 92.3317 120.332 91.3441 115.014 89.2684L114.286 91.1316C119.901 93.3226 126.436 94.335 133.868 94.1998L133.832 92.2002ZM115.041 89.2797C109.846 87.0719 105.509 83.8974 102.014 79.7551L100.486 81.0449C104.191 85.436 108.787 88.7948 114.259 91.1203L115.041 89.2797ZM102.026 79.7694C98.6485 75.6123 96.1063 70.7307 94.4072 65.1106L92.4928 65.6894C94.2604 71.5359 96.9182 76.6543 100.474 81.0306L102.026 79.7694ZM94.4072 65.1106C92.7058 59.4828 91.85 53.315 91.85 46.6H89.85C89.85 53.485 90.7275 59.8505 92.4928 65.6894L94.4072 65.1106ZM91.85 46.6C91.85 37.8209 93.8138 30.1338 97.7119 23.507L95.9881 22.493C91.8862 29.4662 89.85 37.5124 89.85 46.6H91.85ZM97.7089 23.5121C101.748 16.7364 107.281 11.463 114.323 7.68098L113.377 5.919C106.019 9.87029 100.218 15.3969 95.9911 22.4879L97.7089 23.5121ZM114.329 7.67789C121.497 3.76818 129.728 1.8 139.05 1.8V-0.200004C129.439 -0.200004 120.87 1.83181 113.371 5.92209L114.329 7.67789ZM139.05 1.8C147.862 1.8 155.221 3.44416 161.172 6.67862L162.128 4.92137C155.812 1.48916 148.105 -0.200004 139.05 -0.200004V1.8ZM161.18 6.68286C167.29 9.93261 172.228 14.544 176.004 20.5333L177.696 19.4667C173.738 13.1894 168.543 8.33405 162.12 4.91712L161.18 6.68286ZM176.009 20.5417C179.799 26.422 182.559 33.4367 184.271 41.6052L186.229 41.1948C184.475 32.8299 181.634 25.578 177.691 19.4583L176.009 20.5417ZM184.275 41.6203C186.123 49.8049 187.05 58.7301 187.05 68.4H189.05C189.05 58.6033 188.111 49.5284 186.225 41.1797L184.275 41.6203ZM187.05 68.4C187.05 74.349 186.587 80.838 185.659 87.8691L187.641 88.1309C188.579 81.0287 189.05 74.451 189.05 68.4H187.05ZM185.656 87.8875C184.864 94.8851 183.346 101.819 181.1 108.689L183 109.311C185.288 102.315 186.836 95.2482 187.644 88.1125L185.656 87.8875ZM181.094 108.706C178.992 115.54 175.905 121.844 171.833 127.624L173.467 128.776C177.662 122.822 180.842 116.327 183.006 109.294L181.094 108.706ZM171.83 127.628C167.926 133.223 162.783 137.72 156.381 141.117L157.319 142.883C163.984 139.347 169.374 134.643 173.47 128.772L171.83 127.628ZM156.374 141.121C150.156 144.489 142.463 146.2 133.25 146.2V148.2C142.704 148.2 150.744 146.444 157.326 142.879L156.374 141.121ZM139.45 78.2C142.398 78.2 145.211 77.567 147.878 76.3037L147.022 74.4963C144.622 75.6329 142.102 76.2 139.45 76.2V78.2ZM147.878 76.3037C150.516 75.0542 152.877 73.3874 154.957 71.3071L153.543 69.8929C151.623 71.8126 149.451 73.3458 147.022 74.4963L147.878 76.3037ZM154.957 71.3071C157.029 69.2352 158.694 66.9484 159.944 64.4472L158.156 63.5528C157.006 65.8516 155.471 67.9648 153.543 69.8929L154.957 71.3071ZM160.05 64C160.05 57.5654 159.715 51.3942 159.044 45.4871L157.056 45.7129C157.718 51.5391 158.05 57.6346 158.05 64H160.05ZM159.044 45.4871C158.37 39.562 157.224 34.2227 155.596 29.4757L153.704 30.1243C155.277 34.7106 156.396 39.9046 157.056 45.7129L159.044 45.4871ZM155.604 29.5002C154.103 24.724 151.966 20.9022 149.157 18.0929L147.743 19.5071C150.267 22.0311 152.264 25.5426 153.696 30.0998L155.604 29.5002ZM149.175 18.1112C146.442 15.2347 142.975 13.8 138.85 13.8V15.8C142.458 15.8 145.391 17.0319 147.725 19.4887L149.175 18.1112ZM138.85 13.8C134.603 13.8 131.009 15.2264 128.143 18.0929L129.557 19.5071C132.024 17.0402 135.097 15.8 138.85 15.8V13.8ZM128.161 18.075C125.353 20.7427 123.274 24.2293 121.898 28.493L123.802 29.107C125.093 25.104 127.013 21.924 129.539 19.525L128.161 18.075ZM121.89 28.5212C120.661 32.7524 120.05 37.2469 120.05 42H122.05C122.05 37.4198 122.639 33.1143 123.81 29.0788L121.89 28.5212ZM120.05 42C120.05 44.9761 120.253 48.4776 120.655 52.4995L122.645 52.3005C122.247 48.3224 122.05 44.8905 122.05 42H120.05ZM120.655 52.4995C121.062 56.5668 121.875 60.5661 123.095 64.4964L125.005 63.9036C123.825 60.1006 123.038 56.2332 122.645 52.3005L120.655 52.4995ZM123.098 64.506C124.338 68.3642 126.209 71.6329 128.724 74.2877L130.176 72.9122C127.891 70.5004 126.162 67.5025 125.002 63.894L123.098 64.506ZM128.762 74.3259C131.515 76.9337 135.111 78.2 139.45 78.2V76.2C135.522 76.2 132.452 75.0663 130.138 72.874L128.762 74.3259ZM212.884 120.6L212.13 121.256L212.138 121.265L212.146 121.274L212.884 120.6ZM213.284 98.6L212.562 97.9088L212.562 97.9088L213.284 98.6ZM233.684 98.6L232.93 99.2562L232.938 99.2653L232.946 99.2743L233.684 98.6ZM233.884 120.6L233.13 119.944L233.121 119.953L233.113 119.963L233.884 120.6ZM212.884 40L212.13 40.6562L212.138 40.6653L212.146 40.6743L212.884 40ZM213.284 18L214.007 18.6912L214.007 18.6912L213.284 18ZM233.684 18L232.93 18.6562L232.938 18.6653L232.946 18.6743L233.684 18ZM233.884 40L233.13 39.3438L233.121 39.3534L233.113 39.3631L233.884 40ZM223.484 124.2C219.49 124.2 216.228 122.779 213.623 119.926L212.146 121.274C215.141 124.555 218.945 126.2 223.484 126.2V124.2ZM213.639 119.944C211.139 117.069 209.884 113.639 209.884 109.6H207.884C207.884 114.095 209.296 117.998 212.13 121.256L213.639 119.944ZM209.884 109.6C209.884 105.589 211.253 102.171 214.007 99.2912L212.562 97.9088C209.449 101.163 207.884 105.077 207.884 109.6H209.884ZM214.007 99.2912C216.772 96.4005 219.919 95 223.484 95V93C219.317 93 215.663 94.6662 212.562 97.9088L214.007 99.2912ZM223.484 95C227.334 95 230.457 96.4122 232.93 99.2562L234.439 97.9438C231.579 94.6545 227.901 93 223.484 93V95ZM232.946 99.2743C235.573 102.151 236.884 105.575 236.884 109.6H238.884C238.884 105.091 237.396 101.182 234.423 97.9257L232.946 99.2743ZM236.884 109.6C236.884 113.639 235.63 117.069 233.13 119.944L234.639 121.256C237.472 117.998 238.884 114.095 238.884 109.6H236.884ZM233.113 119.963C230.792 122.774 227.622 124.2 223.484 124.2V126.2C228.147 126.2 231.91 124.56 234.655 121.237L233.113 119.963ZM223.484 43.6C219.49 43.6 216.228 42.1785 213.623 39.3257L212.146 40.6743C215.141 43.9548 218.945 45.6 223.484 45.6V43.6ZM213.639 39.3438C211.139 36.4688 209.884 33.0386 209.884 29H207.884C207.884 33.4947 209.296 37.3979 212.13 40.6562L213.639 39.3438ZM209.884 29C209.884 24.9893 211.253 21.5707 214.007 18.6912L212.562 17.3088C209.449 20.5627 207.884 24.4774 207.884 29H209.884ZM214.007 18.6912C216.772 15.8005 219.919 14.4 223.484 14.4V12.4C219.317 12.4 215.663 14.0662 212.562 17.3088L214.007 18.6912ZM223.484 14.4C227.334 14.4 230.457 15.8122 232.93 18.6562L234.439 17.3438C231.579 14.0545 227.901 12.4 223.484 12.4V14.4ZM232.946 18.6743C235.573 21.5512 236.884 24.9753 236.884 29H238.884C238.884 24.4914 237.396 20.5822 234.423 17.3257L232.946 18.6743ZM236.884 29C236.884 33.0386 235.63 36.4688 233.13 39.3438L234.639 40.6562C237.472 37.3979 238.884 33.4947 238.884 29H236.884ZM233.113 39.3631C230.792 42.1735 227.622 43.6 223.484 43.6V45.6C228.147 45.6 231.91 43.9598 234.655 40.6369L233.113 39.3631ZM289.284 140.8L288.756 141.649L288.768 141.656L289.284 140.8ZM272.284 123.6L271.424 124.11L271.428 124.117L272.284 123.6ZM262.884 100L261.907 100.214L261.909 100.221L261.911 100.228L262.884 100ZM263.484 49L262.521 48.7331L262.519 48.74L262.517 48.747L263.484 49ZM274.084 25.2L274.924 25.7439L274.928 25.7369L274.084 25.2ZM291.484 7.59999L292.02 8.4444L292.032 8.43696L291.484 7.59999ZM340.684 7.39999L340.141 8.2396L340.149 8.24432L340.684 7.39999ZM357.484 24.8L356.624 25.3098L356.628 25.3169L357.484 24.8ZM366.484 99L365.517 98.747L365.515 98.754L365.513 98.761L366.484 99ZM356.484 123L357.331 123.533L357.335 123.526L356.484 123ZM339.284 140.6L339.828 141.44L339.832 141.437L339.284 140.6ZM327.884 128.6L327.193 127.877L327.193 127.877L327.884 128.6ZM334.884 116.6L333.936 116.284L333.933 116.291L333.931 116.299L334.884 116.6ZM338.484 98.8L339.479 98.8995L339.479 98.8995L338.484 98.8ZM338.484 54.4L337.487 54.47L337.487 54.4795L337.488 54.4889L338.484 54.4ZM335.084 34.2L334.118 34.4577L334.122 34.4705L334.125 34.4833L335.084 34.2ZM327.884 20L327.135 20.6626L327.142 20.6705L327.15 20.6783L327.884 20ZM303.484 19.2L304.16 19.9372L304.16 19.9372L303.484 19.2ZM295.684 31.4L294.751 31.041L294.747 31.0515L294.743 31.0621L295.684 31.4ZM291.684 49.2L290.691 49.0808L290.691 49.0808L291.684 49.2ZM290.884 87.6L289.885 87.6454L289.886 87.6567L289.887 87.668L290.884 87.6ZM292.884 104.6L291.899 104.768L291.901 104.782L291.904 104.796L292.884 104.6ZM297.284 119L298.201 118.599L298.201 118.599L297.284 119ZM304.684 129.2L304.047 129.971L304.056 129.978L304.064 129.984L304.684 129.2ZM315.084 146.2C305.092 146.2 296.68 144.097 289.801 139.944L288.768 141.656C296.022 146.036 304.81 148.2 315.084 148.2V146.2ZM289.813 139.951C282.879 135.634 277.325 130.014 273.14 123.083L271.428 124.117C275.777 131.32 281.557 137.166 288.756 141.649L289.813 139.951ZM273.145 123.09C268.932 115.982 265.836 108.211 263.858 99.7718L261.911 100.228C263.933 108.856 267.103 116.818 271.424 124.11L273.145 123.09ZM263.861 99.7863C262.009 91.3204 261.084 82.9253 261.084 74.6H259.084C259.084 83.0747 260.026 91.613 261.907 100.214L263.861 99.7863ZM261.084 74.6C261.084 66.2909 262.205 57.8425 264.452 49.253L262.517 48.747C260.23 57.4908 259.084 66.1091 259.084 74.6H261.084ZM264.448 49.2669C266.822 40.6936 270.315 32.8544 274.924 25.7439L273.245 24.6561C268.521 31.9456 264.947 39.9731 262.521 48.7331L264.448 49.2669ZM274.928 25.7369C279.521 18.52 285.218 12.7611 292.02 8.44432L290.949 6.75566C283.884 11.2389 277.981 17.2134 273.241 24.6631L274.928 25.7369ZM292.032 8.43696C298.782 4.02311 306.72 1.8 315.884 1.8V-0.200004C306.382 -0.200004 298.053 2.11021 290.937 6.76302L292.032 8.43696ZM315.884 1.8C325.464 1.8 333.533 3.96378 340.141 8.23956L341.228 6.56042C334.236 2.03621 325.771 -0.200004 315.884 -0.200004V1.8ZM340.149 8.24432C346.946 12.5583 352.436 18.2426 356.624 25.3098L358.345 24.2902C353.999 16.9574 348.289 11.0417 341.22 6.55566L340.149 8.24432ZM356.628 25.3169C360.838 32.2887 363.933 39.9903 365.911 48.4282L367.858 47.9718C365.836 39.343 362.664 31.4447 358.34 24.2831L356.628 25.3169ZM365.911 48.4282C367.894 56.89 368.884 65.2801 368.884 73.6H370.884C370.884 65.1199 369.875 56.5767 367.858 47.9718L365.911 48.4282ZM368.884 73.6C368.884 81.7745 367.764 90.1561 365.517 98.747L367.452 99.253C369.738 90.5106 370.884 81.9588 370.884 73.6H368.884ZM365.513 98.761C363.404 107.33 360.11 115.233 355.634 122.474L357.335 123.526C361.925 116.101 365.298 108.003 367.455 99.239L365.513 98.761ZM355.638 122.467C351.179 129.549 345.547 135.311 338.737 139.763L339.832 141.437C346.889 136.823 352.723 130.851 357.331 123.533L355.638 122.467ZM338.741 139.76C332.126 144.04 324.255 146.2 315.084 146.2V148.2C324.58 148.2 332.842 145.96 339.828 141.44L338.741 139.76ZM316.284 134C321.181 134 325.304 132.452 328.576 129.323L327.193 127.877C324.332 130.614 320.722 132 316.284 132V134ZM328.576 129.323C331.791 126.247 334.2 122.088 335.838 116.901L333.931 116.299C332.369 121.245 330.111 125.086 327.193 127.877L328.576 129.323ZM335.833 116.916C337.594 111.632 338.807 105.624 339.479 98.8995L337.489 98.7005C336.828 105.309 335.641 111.168 333.936 116.284L335.833 116.916ZM339.479 98.8995C340.15 92.1968 340.484 85.1635 340.484 77.8H338.484C338.484 85.1032 338.152 92.0698 337.489 98.7005L339.479 98.8995ZM340.484 77.8C340.484 69.6394 340.15 61.8097 339.48 54.3111L337.488 54.4889C338.152 61.9237 338.484 69.6939 338.484 77.8H340.484ZM339.482 54.33C338.945 46.6745 337.802 39.8673 336.043 33.9166L334.125 34.4833C335.834 40.266 336.957 46.9255 337.487 54.47L339.482 54.33ZM336.051 33.9423C334.422 27.8332 331.959 22.9394 328.619 19.3217L327.15 20.6783C330.21 23.9939 332.547 28.5667 334.118 34.4577L336.051 33.9423ZM328.633 19.3374C325.352 15.6283 320.931 13.8 315.484 13.8V15.8C320.437 15.8 324.283 17.4383 327.135 20.6626L328.633 19.3374ZM315.484 13.8C310.463 13.8 306.213 15.342 302.809 18.4628L304.16 19.9372C307.156 17.1913 310.906 15.8 315.484 15.8V13.8ZM302.809 18.4628C299.467 21.5259 296.791 25.7363 294.751 31.041L296.618 31.759C298.577 26.6637 301.102 22.7407 304.16 19.9372L302.809 18.4628ZM294.743 31.0621C292.846 36.3461 291.499 42.3549 290.691 49.0808L292.677 49.3191C293.47 42.7117 294.789 36.8539 296.626 31.7379L294.743 31.0621ZM290.691 49.0808C289.886 55.7911 289.484 62.8979 289.484 70.4H291.484C291.484 62.9688 291.882 55.9422 292.677 49.3191L290.691 49.0808ZM289.484 70.4C289.484 76.0159 289.618 81.7643 289.885 87.6454L291.883 87.5546C291.617 81.7023 291.484 75.9841 291.484 70.4H289.484ZM289.887 87.668C290.289 93.5663 290.959 99.2665 291.899 104.768L293.87 104.432C292.943 99.0002 292.28 93.367 291.882 87.532L289.887 87.668ZM291.904 104.796C292.982 110.188 294.468 115.059 296.368 119.401L298.201 118.599C296.367 114.408 294.92 109.678 293.865 104.404L291.904 104.796ZM296.368 119.401C298.287 123.787 300.841 127.322 304.047 129.971L305.321 128.429C302.394 126.011 300.015 122.747 298.201 118.599L296.368 119.401ZM304.064 129.984C307.46 132.673 311.552 134 316.284 134V132C311.95 132 308.309 130.794 305.305 128.416L304.064 129.984ZM418.433 140.8L417.904 141.649L417.916 141.656L418.433 140.8ZM401.433 123.6L400.572 124.11L400.577 124.117L401.433 123.6ZM392.033 100L391.056 100.214L391.058 100.221L391.059 100.228L392.033 100ZM392.633 49L391.669 48.7331L391.667 48.74L391.665 48.747L392.633 49ZM403.233 25.2L404.072 25.7439L404.076 25.7369L403.233 25.2ZM420.633 7.59999L421.169 8.4444L421.18 8.43696L420.633 7.59999ZM469.833 7.39999L469.29 8.2396L469.297 8.24432L469.833 7.39999ZM486.633 24.8L485.772 25.3098L485.777 25.3169L486.633 24.8ZM495.633 99L494.665 98.747L494.664 98.754L494.662 98.761L495.633 99ZM485.633 123L486.479 123.533L486.483 123.526L485.633 123ZM468.433 140.6L468.976 141.44L468.98 141.437L468.433 140.6ZM457.033 128.6L456.342 127.877L456.342 127.877L457.033 128.6ZM464.033 116.6L463.084 116.284L463.082 116.291L463.079 116.299L464.033 116.6ZM467.633 98.8L468.628 98.8995L468.628 98.8995L467.633 98.8ZM467.633 54.4L466.635 54.47L466.636 54.4795L466.637 54.4889L467.633 54.4ZM464.233 34.2L463.267 34.4577L463.27 34.4705L463.274 34.4833L464.233 34.2ZM457.033 20L456.284 20.6626L456.291 20.6705L456.298 20.6783L457.033 20ZM432.633 19.2L433.309 19.9372L433.309 19.9372L432.633 19.2ZM424.833 31.4L423.899 31.041L423.895 31.0515L423.892 31.0621L424.833 31.4ZM420.833 49.2L419.84 49.0808L419.84 49.0808L420.833 49.2ZM420.033 87.6L419.034 87.6454L419.034 87.6567L419.035 87.668L420.033 87.6ZM422.033 104.6L421.047 104.768L421.049 104.782L421.052 104.796L422.033 104.6ZM426.433 119L427.349 118.599L427.349 118.599L426.433 119ZM433.833 129.2L433.196 129.971L433.204 129.978L433.212 129.984L433.833 129.2ZM444.233 146.2C434.24 146.2 425.828 144.097 418.95 139.944L417.916 141.656C425.171 146.036 433.959 148.2 444.233 148.2V146.2ZM418.961 139.951C412.027 135.634 406.473 130.014 402.289 123.083L400.577 124.117C404.926 131.32 410.705 137.166 417.904 141.649L418.961 139.951ZM402.293 123.09C398.081 115.982 394.984 108.211 393.006 99.7718L391.059 100.228C393.081 108.856 396.252 116.818 400.573 124.11L402.293 123.09ZM393.01 99.7863C391.158 91.3204 390.233 82.9253 390.233 74.6H388.233C388.233 83.0747 389.175 91.613 391.056 100.214L393.01 99.7863ZM390.233 74.6C390.233 66.2909 391.354 57.8425 393.6 49.253L391.665 48.747C389.379 57.4908 388.233 66.1091 388.233 74.6H390.233ZM393.597 49.2669C395.971 40.6936 399.463 32.8544 404.072 25.7439L402.394 24.6561C397.669 31.9456 394.095 39.9731 391.669 48.7331L393.597 49.2669ZM404.076 25.7369C408.669 18.52 414.366 12.7611 421.169 8.44432L420.097 6.75566C413.033 11.2389 407.13 17.2134 402.389 24.6631L404.076 25.7369ZM421.18 8.43696C427.931 4.02311 435.868 1.8 445.033 1.8V-0.200004C435.531 -0.200004 427.202 2.11021 420.086 6.76302L421.18 8.43696ZM445.033 1.8C454.613 1.8 462.682 3.96378 469.29 8.23956L470.376 6.56042C463.384 2.03621 454.92 -0.200004 445.033 -0.200004V1.8ZM469.297 8.24432C476.095 12.5583 481.585 18.2426 485.773 25.3098L487.493 24.2902C483.148 16.9574 477.438 11.0417 470.369 6.55566L469.297 8.24432ZM485.777 25.3169C489.986 32.2887 493.082 39.9903 495.059 48.4282L497.006 47.9718C494.984 39.343 491.813 31.4447 487.489 24.2831L485.777 25.3169ZM495.059 48.4282C497.042 56.89 498.033 65.2801 498.033 73.6H500.033C500.033 65.1199 499.023 56.5767 497.006 47.9718L495.059 48.4282ZM498.033 73.6C498.033 81.7745 496.912 90.1561 494.665 98.747L496.6 99.253C498.887 90.5106 500.033 81.9588 500.033 73.6H498.033ZM494.662 98.761C492.553 107.33 489.259 115.233 484.782 122.474L486.483 123.526C491.074 116.101 494.446 108.003 496.604 99.239L494.662 98.761ZM484.787 122.467C480.328 129.549 474.695 135.311 467.886 139.763L468.98 141.437C476.037 136.823 481.871 130.851 486.479 123.533L484.787 122.467ZM467.89 139.76C461.275 144.04 453.403 146.2 444.233 146.2V148.2C453.729 148.2 461.991 145.96 468.976 141.44L467.89 139.76ZM445.433 134C450.329 134 454.452 132.452 457.724 129.323L456.342 127.877C453.48 130.614 449.87 132 445.433 132V134ZM457.724 129.323C460.939 126.247 463.348 122.088 464.986 116.901L463.079 116.299C461.517 121.245 459.26 125.086 456.342 127.877L457.724 129.323ZM464.982 116.916C466.743 111.632 467.955 105.624 468.628 98.8995L466.638 98.7005C465.977 105.309 464.79 111.168 463.084 116.284L464.982 116.916ZM468.628 98.8995C469.298 92.1968 469.633 85.1635 469.633 77.8H467.633C467.633 85.1032 467.301 92.0698 466.638 98.7005L468.628 98.8995ZM469.633 77.8C469.633 69.6394 469.298 61.8097 468.629 54.3111L466.637 54.4889C467.301 61.9237 467.633 69.6939 467.633 77.8H469.633ZM468.63 54.33C468.093 46.6745 466.95 39.8673 465.192 33.9166L463.274 34.4833C464.982 40.266 466.106 46.9255 466.635 54.47L468.63 54.33ZM465.199 33.9423C463.57 27.8332 461.107 22.9394 457.768 19.3217L456.298 20.6783C459.359 23.9939 461.696 28.5667 463.267 34.4577L465.199 33.9423ZM457.782 19.3374C454.501 15.6283 450.08 13.8 444.633 13.8V15.8C449.586 15.8 453.432 17.4383 456.284 20.6626L457.782 19.3374ZM444.633 13.8C439.611 13.8 435.362 15.342 431.957 18.4628L433.309 19.9372C436.304 17.1913 440.054 15.8 444.633 15.8V13.8ZM431.957 18.4628C428.616 21.5259 425.94 25.7363 423.899 31.041L425.766 31.759C427.726 26.6637 430.25 22.7407 433.309 19.9372L431.957 18.4628ZM423.892 31.0621C421.995 36.3461 420.647 42.3549 419.84 49.0808L421.826 49.3191C422.619 42.7117 423.937 36.8539 425.774 31.7379L423.892 31.0621ZM419.84 49.0808C419.035 55.7911 418.633 62.8979 418.633 70.4H420.633C420.633 62.9688 421.031 55.9422 421.826 49.3191L419.84 49.0808ZM418.633 70.4C418.633 76.0159 418.767 81.7643 419.034 87.6454L421.032 87.5546C420.766 81.7023 420.633 75.9841 420.633 70.4H418.633ZM419.035 87.668C419.437 93.5663 420.108 99.2665 421.047 104.768L423.019 104.432C422.091 99.0002 421.428 93.367 421.03 87.532L419.035 87.668ZM421.052 104.796C422.131 110.188 423.617 115.059 425.517 119.401L427.349 118.599C425.515 114.408 424.068 109.678 423.013 104.404L421.052 104.796ZM425.517 119.401C427.435 123.787 429.989 127.322 433.196 129.971L434.47 128.429C431.543 126.011 429.164 122.747 427.349 118.599L425.517 119.401ZM433.212 129.984C436.608 132.673 440.701 134 445.433 134V132C441.098 132 437.457 130.794 434.454 128.416L433.212 129.984Z" fill="black" mask="url(#path-1-outside-1_217_5730)"/>
</svg>
