<svg class="w-full" width="484" height="148" viewBox="0 0 484 148" fill="none" xmlns="http://www.w3.org/2000/svg">
<mask id="path-1-outside-1_217_5730" maskUnits="userSpaceOnUse" x="-2.00006" y="-1" width="487" height="150" fill="black">
<rect fill="white" x="-2.00006" y="-1" width="487" height="150"/>
<path d="M14.9999 144V130.8C18.0666 130.667 20.5999 130.267 22.5999 129.6C24.7333 128.933 26.3333 127.4 27.3999 125C28.5999 122.6 29.1999 118.733 29.1999 113.4V33.2L7.39994 46.2L0.199939 34.2L45.9999 0.799996H57.9999V111.2C57.9999 114.8 57.9333 118.267 57.7999 121.6C57.7999 124.933 57.6666 127.467 57.3999 129.2C59.5333 128.933 62.1999 128.8 65.3999 128.8C68.7333 128.667 71.0666 128.6 72.3999 128.6V144H14.9999ZM133.25 147.2C124.45 147.2 117.383 145.933 112.05 143.4C106.717 140.867 102.783 137.6 100.25 133.6C97.8499 129.6 96.6499 125.4 96.6499 121C96.6499 117.4 97.7833 114.067 100.05 111C102.45 107.8 105.717 106.2 109.85 106.2C114.917 106.2 118.317 107.667 120.05 110.6C121.783 113.4 122.65 116.133 122.65 118.8C122.65 119.867 122.383 121.333 121.85 123.2C121.45 124.933 120.783 126.333 119.85 127.4C120.917 129 122.583 130.4 124.85 131.6C127.25 132.667 130.117 133.133 133.45 133C137.317 132.733 140.717 131.667 143.65 129.8C146.583 127.8 149.05 125.133 151.05 121.8C153.183 118.467 154.85 114.667 156.05 110.4C157.383 106.133 158.25 101.6 158.65 96.8C159.183 91.8667 159.317 86.8667 159.05 81.8C156.917 84.3333 153.45 86.8 148.65 89.2C143.85 91.6 138.917 92.9333 133.85 93.2C126.517 93.3333 120.117 92.3333 114.65 90.2C109.317 87.9333 104.85 84.6667 101.25 80.4C97.7833 76.1333 95.1833 71.1333 93.4499 65.4C91.7166 59.6667 90.8499 53.4 90.8499 46.6C90.8499 37.6667 92.8499 29.8 96.8499 23C100.983 16.0667 106.65 10.6667 113.85 6.79999C121.183 2.79999 129.583 0.799996 139.05 0.799996C147.983 0.799996 155.517 2.46666 161.65 5.79999C167.917 9.13333 172.983 13.8667 176.85 20C180.717 26 183.517 33.1333 185.25 41.4C187.117 49.6667 188.05 58.6667 188.05 68.4C188.05 74.4 187.583 80.9333 186.65 88C185.85 95.0667 184.317 102.067 182.05 109C179.917 115.933 176.783 122.333 172.65 128.2C168.65 133.933 163.383 138.533 156.85 142C150.45 145.467 142.583 147.2 133.25 147.2ZM139.45 77.2C142.25 77.2 144.917 76.6 147.45 75.4C149.983 74.2 152.25 72.6 154.25 70.6C156.25 68.6 157.85 66.4 159.05 64C159.05 57.6 158.717 51.4667 158.05 45.6C157.383 39.7333 156.25 34.4667 154.65 29.8C153.183 25.1333 151.117 21.4667 148.45 18.8C145.917 16.1333 142.717 14.8 138.85 14.8C134.85 14.8 131.517 16.1333 128.85 18.8C126.183 21.3333 124.183 24.6667 122.85 28.8C121.65 32.9333 121.05 37.3333 121.05 42C121.05 44.9333 121.25 48.4 121.65 52.4C122.05 56.4 122.85 60.3333 124.05 64.2C125.25 67.9333 127.05 71.0667 129.45 73.6C131.983 76 135.317 77.2 139.45 77.2ZM223.484 125.2C219.218 125.2 215.684 123.667 212.884 120.6C210.218 117.533 208.884 113.867 208.884 109.6C208.884 105.333 210.351 101.667 213.284 98.6C216.218 95.5333 219.618 94 223.484 94C227.618 94 231.018 95.5333 233.684 98.6C236.484 101.667 237.884 105.333 237.884 109.6C237.884 113.867 236.551 117.533 233.884 120.6C231.351 123.667 227.884 125.2 223.484 125.2ZM223.484 44.6C219.218 44.6 215.684 43.0667 212.884 40C210.218 36.9333 208.884 33.2667 208.884 29C208.884 24.7333 210.351 21.0667 213.284 18C216.218 14.9333 219.618 13.4 223.484 13.4C227.618 13.4 231.018 14.9333 233.684 18C236.484 21.0667 237.884 24.7333 237.884 29C237.884 33.2667 236.551 36.9333 233.884 40C231.351 43.0667 227.884 44.6 223.484 44.6ZM301.884 147.2C291.884 147.2 283.684 145.733 277.284 142.8C270.884 139.733 266.151 135.933 263.084 131.4C260.018 126.867 258.484 122.333 258.484 117.8C258.484 113.8 259.684 110.333 262.084 107.4C264.618 104.333 267.951 102.733 272.084 102.6C275.418 102.467 278.018 103.133 279.884 104.6C281.751 106.067 283.084 107.8 283.884 109.8C284.684 111.8 285.084 113.667 285.084 115.4C285.084 116.733 284.818 118.267 284.284 120C283.751 121.6 282.951 123.133 281.884 124.6C283.351 127.133 285.751 129.133 289.084 130.6C292.551 131.933 296.151 132.6 299.884 132.6C308.284 132.6 314.618 130.067 318.884 125C323.151 119.933 325.284 113.667 325.284 106.2C325.284 101.667 324.418 97.1333 322.684 92.6C320.951 88.0667 317.951 84.3333 313.684 81.4C309.418 78.3333 303.418 76.8667 295.684 77C294.751 77 293.084 77.0667 290.684 77.2C288.284 77.3333 286.484 77.4667 285.284 77.6V63.2C286.351 63.3333 287.351 63.4 288.284 63.4C289.218 63.4 290.151 63.4 291.084 63.4C296.951 63.4 301.951 62.3333 306.084 60.2C310.218 58.0667 313.351 55.1333 315.484 51.4C317.751 47.6667 318.951 43.3333 319.084 38.4C319.218 33.7333 318.618 29.6667 317.284 26.2C316.084 22.6 314.084 19.8 311.284 17.8C308.618 15.8 305.018 14.8 300.484 14.8C296.884 14.8 293.618 15.6667 290.684 17.4C287.751 19.1333 285.751 21.0667 284.684 23.2C285.884 24.6667 286.684 26.4 287.084 28.4C287.618 30.2667 287.884 31.8 287.884 33C287.884 34.6 287.418 36.4667 286.484 38.6C285.684 40.6 284.284 42.3333 282.284 43.8C280.284 45.2667 277.618 45.9333 274.284 45.8C270.151 45.6667 267.018 44.2 264.884 41.4C262.751 38.6 261.684 35.2667 261.684 31.4C261.684 27.4 263.218 23 266.284 18.2C269.351 13.4 274.018 9.33333 280.284 5.99999C286.551 2.53333 294.351 0.799996 303.684 0.799996C311.951 0.799996 319.418 1.93333 326.084 4.19999C332.884 6.46666 338.218 10.2 342.084 15.4C346.084 20.6 348.084 27.5333 348.084 36.2C348.084 39.6667 347.084 43.6 345.084 48C343.218 52.2667 340.084 56.2 335.684 59.8C331.284 63.4 325.418 66.0667 318.084 67.8C330.884 70.0667 340.284 74.6667 346.284 81.6C352.418 88.5333 355.484 96.2667 355.484 104.8C355.484 113.867 353.151 121.6 348.484 128C343.951 134.267 337.618 139.067 329.484 142.4C321.484 145.6 312.284 147.2 301.884 147.2ZM428.998 147.2C418.865 147.2 410.265 145.067 403.198 140.8C396.132 136.4 390.465 130.667 386.198 123.6C381.932 116.4 378.798 108.533 376.798 100C374.932 91.4667 373.998 83 373.998 74.6C373.998 66.2 375.132 57.6667 377.398 49C379.798 40.3333 383.332 32.4 387.998 25.2C392.665 17.8667 398.465 12 405.398 7.59999C412.332 3.06666 420.465 0.799996 429.798 0.799996C439.532 0.799996 447.798 3 454.598 7.39999C461.532 11.8 467.132 17.6 471.398 24.8C475.665 31.8667 478.798 39.6667 480.798 48.2C482.798 56.7333 483.798 65.2 483.798 73.6C483.798 81.8667 482.665 90.3333 480.398 99C478.265 107.667 474.932 115.667 470.398 123C465.865 130.2 460.132 136.067 453.198 140.6C446.398 145 438.332 147.2 428.998 147.2ZM430.198 133C434.865 133 438.732 131.533 441.798 128.6C444.865 125.667 447.198 121.667 448.798 116.6C450.532 111.4 451.732 105.467 452.398 98.8C453.065 92.1333 453.398 85.1333 453.398 77.8C453.398 69.6667 453.065 61.8667 452.398 54.4C451.865 46.8 450.732 40.0667 448.998 34.2C447.398 28.2 444.998 23.4667 441.798 20C438.732 16.5333 434.598 14.8 429.398 14.8C424.598 14.8 420.598 16.2667 417.398 19.2C414.198 22.1333 411.598 26.2 409.598 31.4C407.732 36.6 406.398 42.5333 405.598 49.2C404.798 55.8667 404.398 62.9333 404.398 70.4C404.398 76 404.532 81.7333 404.798 87.6C405.198 93.4667 405.865 99.1333 406.798 104.6C407.865 109.933 409.332 114.733 411.198 119C413.065 123.267 415.532 126.667 418.598 129.2C421.798 131.733 425.665 133 430.198 133Z"/>
</mask>
<path d="M14.9999 144H13.9999V145H14.9999V144ZM14.9999 130.8L14.9565 129.801L13.9999 129.843V130.8H14.9999ZM22.5999 129.6L22.3017 128.646L22.2927 128.648L22.2837 128.651L22.5999 129.6ZM27.3999 125L26.5055 124.553L26.4954 124.573L26.4861 124.594L27.3999 125ZM29.1999 33.2H30.1999V31.4394L28.6878 32.3411L29.1999 33.2ZM7.39994 46.2L6.54245 46.7145L7.05555 47.5697L7.91212 47.0589L7.39994 46.2ZM0.199939 34.2L-0.389281 33.392L-1.12786 33.9306L-0.657554 34.7145L0.199939 34.2ZM45.9999 0.799996V-0.200004H45.674L45.4107 -0.00797666L45.9999 0.799996ZM57.9999 0.799996H58.9999V-0.200004H57.9999V0.799996ZM57.7999 121.6L56.8007 121.56L56.7999 121.58V121.6H57.7999ZM57.3999 129.2L56.4116 129.048L56.2103 130.356L57.524 130.192L57.3999 129.2ZM65.3999 128.8V129.8H65.4199L65.4399 129.799L65.3999 128.8ZM72.3999 128.6H73.3999V127.6H72.3999V128.6ZM72.3999 144V145H73.3999V144H72.3999ZM15.9999 144V130.8H13.9999V144H15.9999ZM15.0434 131.799C18.1647 131.663 20.7979 131.255 22.9162 130.549L22.2837 128.651C20.402 129.279 17.9686 129.67 14.9565 129.801L15.0434 131.799ZM22.8982 130.554C25.3548 129.787 27.1528 128.018 28.3138 125.406L26.4861 124.594C25.5138 126.782 24.1117 128.08 22.3017 128.646L22.8982 130.554ZM28.2944 125.447C29.6036 122.829 30.1999 118.764 30.1999 113.4H28.1999C28.1999 118.702 27.5963 122.371 26.5055 124.553L28.2944 125.447ZM30.1999 113.4V33.2H28.1999V113.4H30.1999ZM28.6878 32.3411L6.88776 45.3411L7.91212 47.0589L29.7121 34.0589L28.6878 32.3411ZM8.25743 45.6855L1.05743 33.6855L-0.657554 34.7145L6.54245 46.7145L8.25743 45.6855ZM0.789159 35.008L46.5892 1.60797L45.4107 -0.00797666L-0.389281 33.392L0.789159 35.008ZM45.9999 1.8H57.9999V-0.200004H45.9999V1.8ZM56.9999 0.799996V111.2H58.9999V0.799996H56.9999ZM56.9999 111.2C56.9999 114.788 56.9335 118.241 56.8007 121.56L58.7991 121.64C58.933 118.292 58.9999 114.812 58.9999 111.2H56.9999ZM56.7999 121.6C56.7999 124.919 56.6664 127.391 56.4116 129.048L58.3883 129.352C58.6668 127.542 58.7999 124.948 58.7999 121.6H56.7999ZM57.524 130.192C59.6016 129.933 62.2235 129.8 65.3999 129.8V127.8C62.1764 127.8 59.465 127.934 57.2759 128.208L57.524 130.192ZM65.4399 129.799C68.7738 129.666 71.0889 129.6 72.3999 129.6V127.6C71.0443 127.6 68.6927 127.667 65.36 127.801L65.4399 129.799ZM71.3999 128.6V144H73.3999V128.6H71.3999ZM72.3999 143H14.9999V145H72.3999V143ZM112.05 143.4L111.621 144.303L111.621 144.303L112.05 143.4ZM100.25 133.6L99.3924 134.114L99.3987 134.125L99.4051 134.135L100.25 133.6ZM100.05 111L99.2499 110.4L99.2458 110.406L100.05 111ZM120.05 110.6L119.189 111.109L119.194 111.118L119.2 111.126L120.05 110.6ZM121.85 123.2L120.888 122.925L120.881 122.95L120.876 122.975L121.85 123.2ZM119.85 127.4L119.097 126.741L118.593 127.318L119.018 127.955L119.85 127.4ZM124.85 131.6L124.382 132.484L124.412 132.5L124.444 132.514L124.85 131.6ZM133.45 133L133.49 133.999L133.504 133.999L133.519 133.998L133.45 133ZM143.65 129.8L144.187 130.644L144.2 130.635L144.213 130.626L143.65 129.8ZM151.05 121.8L150.208 121.261L150.2 121.273L150.192 121.286L151.05 121.8ZM156.05 110.4L155.095 110.102L155.091 110.115L155.087 110.129L156.05 110.4ZM158.65 96.8L157.656 96.6925L157.654 96.7047L157.653 96.717L158.65 96.8ZM159.05 81.8L160.049 81.7474L159.916 79.2197L158.285 81.1559L159.05 81.8ZM133.85 93.2L133.868 94.1998L133.885 94.1995L133.903 94.1986L133.85 93.2ZM114.65 90.2L114.259 91.1203L114.273 91.1262L114.286 91.1316L114.65 90.2ZM101.25 80.4L100.474 81.0306L100.48 81.0378L100.486 81.0449L101.25 80.4ZM93.4499 65.4L92.4927 65.6894L92.4927 65.6894L93.4499 65.4ZM96.8499 23L95.991 22.4879L95.988 22.493L96.8499 23ZM113.85 6.79999L114.323 7.681L114.329 7.67789L113.85 6.79999ZM161.65 5.79999L161.172 6.67865L161.18 6.68286L161.65 5.79999ZM176.85 20L176.004 20.5333L176.009 20.5417L176.85 20ZM185.25 41.4L184.271 41.6052L184.273 41.6127L184.275 41.6203L185.25 41.4ZM186.65 88L185.659 87.8691L185.657 87.8783L185.656 87.8875L186.65 88ZM182.05 109L181.099 108.689L181.097 108.698L181.094 108.706L182.05 109ZM172.65 128.2L171.832 127.624L171.83 127.628L172.65 128.2ZM156.85 142L156.381 141.117L156.374 141.121L156.85 142ZM147.45 75.4L147.022 74.4963L147.022 74.4963L147.45 75.4ZM159.05 64L159.944 64.4472L160.05 64.2361V64H159.05ZM154.65 29.8L153.696 30.0998L153.7 30.1121L153.704 30.1243L154.65 29.8ZM148.45 18.8L147.725 19.4887L147.734 19.498L147.743 19.5071L148.45 18.8ZM128.85 18.8L129.539 19.525L129.548 19.5162L129.557 19.5071L128.85 18.8ZM122.85 28.8L121.898 28.493L121.894 28.507L121.89 28.5212L122.85 28.8ZM121.65 52.4L122.645 52.3005L122.645 52.3005L121.65 52.4ZM124.05 64.2L123.095 64.4964L123.098 64.506L124.05 64.2ZM129.45 73.6L128.724 74.2877L128.743 74.3074L128.762 74.3259L129.45 73.6ZM133.25 146.2C124.532 146.2 117.629 144.943 112.479 142.497L111.621 144.303C117.138 146.924 124.368 148.2 133.25 148.2V146.2ZM112.479 142.497C107.274 140.024 103.505 136.87 101.095 133.065L99.4051 134.135C102.062 138.33 106.159 141.709 111.621 144.303L112.479 142.497ZM101.107 133.086C98.7948 129.231 97.6499 125.208 97.6499 121H95.6499C95.6499 125.592 96.905 129.969 99.3924 134.114L101.107 133.086ZM97.6499 121C97.6499 117.627 98.7066 114.5 100.854 111.594L99.2458 110.406C96.8599 113.633 95.6499 117.173 95.6499 121H97.6499ZM100.85 111.6C103.054 108.661 106.019 107.2 109.85 107.2V105.2C105.414 105.2 101.846 106.938 99.2499 110.4L100.85 111.6ZM109.85 107.2C114.75 107.2 117.714 108.612 119.189 111.109L120.911 110.091C118.919 106.721 115.083 105.2 109.85 105.2V107.2ZM119.2 111.126C120.858 113.805 121.65 116.359 121.65 118.8H123.65C123.65 115.908 122.708 112.995 120.9 110.074L119.2 111.126ZM121.65 118.8C121.65 119.727 121.413 121.088 120.888 122.925L122.811 123.475C123.353 121.579 123.65 120.006 123.65 118.8H121.65ZM120.876 122.975C120.503 124.588 119.898 125.827 119.097 126.741L120.603 128.059C121.669 126.84 122.397 125.279 122.824 123.425L120.876 122.975ZM119.018 127.955C120.202 129.731 122.016 131.231 124.382 132.484L125.318 130.716C123.151 129.569 121.631 128.269 120.682 126.845L119.018 127.955ZM124.444 132.514C127.017 133.657 130.044 134.137 133.49 133.999L133.41 132.001C130.19 132.13 127.483 131.676 125.256 130.686L124.444 132.514ZM133.519 133.998C137.532 133.721 141.097 132.61 144.187 130.644L143.113 128.956C140.336 130.724 137.101 131.746 133.381 132.002L133.519 133.998ZM144.213 130.626C147.277 128.537 149.84 125.76 151.907 122.314L150.192 121.286C148.26 124.507 145.89 127.063 143.087 128.974L144.213 130.626ZM151.892 122.339C154.085 118.913 155.789 115.021 157.013 110.671L155.087 110.129C153.911 114.312 152.282 118.02 150.208 121.261L151.892 122.339ZM157.004 110.698C158.361 106.356 159.241 101.751 159.646 96.883L157.653 96.717C157.259 101.449 156.405 105.91 155.095 110.102L157.004 110.698ZM159.644 96.9075C160.183 91.9198 160.318 86.8663 160.049 81.7474L158.051 81.8526C158.315 86.867 158.183 91.8135 157.656 96.6925L159.644 96.9075ZM158.285 81.1559C156.277 83.5402 152.947 85.9332 148.203 88.3056L149.097 90.0944C153.953 87.6667 157.556 85.1265 159.815 82.4441L158.285 81.1559ZM148.203 88.3056C143.518 90.6477 138.719 91.9424 133.797 92.2014L133.903 94.1986C139.114 93.9243 144.181 92.5523 149.097 90.0944L148.203 88.3056ZM133.832 92.2002C126.597 92.3317 120.332 91.3441 115.013 89.2684L114.286 91.1316C119.901 93.3226 126.436 94.335 133.868 94.1998L133.832 92.2002ZM115.041 89.2797C109.846 87.0719 105.509 83.8974 102.014 79.7551L100.486 81.0449C104.191 85.436 108.787 88.7948 114.259 91.1203L115.041 89.2797ZM102.026 79.7694C98.6484 75.6123 96.1063 70.7307 94.4072 65.1106L92.4927 65.6894C94.2603 71.5359 96.9181 76.6543 100.474 81.0306L102.026 79.7694ZM94.4072 65.1106C92.7057 59.4828 91.8499 53.315 91.8499 46.6H89.8499C89.8499 53.485 90.7275 59.8505 92.4927 65.6894L94.4072 65.1106ZM91.8499 46.6C91.8499 37.8209 93.8137 30.1338 97.7119 23.507L95.988 22.493C91.8861 29.4662 89.8499 37.5124 89.8499 46.6H91.8499ZM97.7089 23.5121C101.748 16.7364 107.281 11.463 114.323 7.68098L113.377 5.919C106.019 9.87029 100.218 15.3969 95.991 22.4879L97.7089 23.5121ZM114.329 7.67789C121.497 3.76818 129.728 1.8 139.05 1.8V-0.200004C129.439 -0.200004 120.87 1.83181 113.371 5.92209L114.329 7.67789ZM139.05 1.8C147.862 1.8 155.221 3.44416 161.172 6.67862L162.127 4.92137C155.812 1.48916 148.105 -0.200004 139.05 -0.200004V1.8ZM161.18 6.68286C167.29 9.93261 172.228 14.544 176.004 20.5333L177.696 19.4667C173.738 13.1894 168.543 8.33405 162.12 4.91712L161.18 6.68286ZM176.009 20.5417C179.799 26.422 182.558 33.4367 184.271 41.6052L186.229 41.1948C184.475 32.8299 181.634 25.578 177.691 19.4583L176.009 20.5417ZM184.275 41.6203C186.123 49.8049 187.05 58.7301 187.05 68.4H189.05C189.05 58.6033 188.111 49.5284 186.225 41.1797L184.275 41.6203ZM187.05 68.4C187.05 74.349 186.587 80.838 185.659 87.8691L187.641 88.1309C188.579 81.0287 189.05 74.451 189.05 68.4H187.05ZM185.656 87.8875C184.864 94.8851 183.346 101.819 181.099 108.689L183 109.311C185.288 102.315 186.836 95.2482 187.644 88.1125L185.656 87.8875ZM181.094 108.706C178.991 115.54 175.904 121.844 171.832 127.624L173.467 128.776C177.662 122.822 180.842 116.327 183.006 109.294L181.094 108.706ZM171.83 127.628C167.926 133.223 162.783 137.72 156.381 141.117L157.319 142.883C163.984 139.347 169.374 134.643 173.47 128.772L171.83 127.628ZM156.374 141.121C150.155 144.489 142.463 146.2 133.25 146.2V148.2C142.704 148.2 150.744 146.444 157.326 142.879L156.374 141.121ZM139.45 78.2C142.398 78.2 145.211 77.567 147.878 76.3037L147.022 74.4963C144.622 75.6329 142.102 76.2 139.45 76.2V78.2ZM147.878 76.3037C150.516 75.0542 152.877 73.3874 154.957 71.3071L153.543 69.8929C151.623 71.8126 149.451 73.3458 147.022 74.4963L147.878 76.3037ZM154.957 71.3071C157.029 69.2352 158.694 66.9484 159.944 64.4472L158.156 63.5528C157.006 65.8516 155.471 67.9648 153.543 69.8929L154.957 71.3071ZM160.05 64C160.05 57.5654 159.715 51.3942 159.044 45.4871L157.056 45.7129C157.718 51.5391 158.05 57.6346 158.05 64H160.05ZM159.044 45.4871C158.37 39.562 157.223 34.2227 155.596 29.4757L153.704 30.1243C155.276 34.7106 156.396 39.9046 157.056 45.7129L159.044 45.4871ZM155.604 29.5002C154.103 24.724 151.966 20.9022 149.157 18.0929L147.743 19.5071C150.267 22.0311 152.264 25.5426 153.696 30.0998L155.604 29.5002ZM149.175 18.1112C146.442 15.2347 142.975 13.8 138.85 13.8V15.8C142.458 15.8 145.391 17.0319 147.725 19.4887L149.175 18.1112ZM138.85 13.8C134.603 13.8 131.009 15.2264 128.143 18.0929L129.557 19.5071C132.024 17.0402 135.097 15.8 138.85 15.8V13.8ZM128.161 18.075C125.353 20.7427 123.274 24.2293 121.898 28.493L123.802 29.107C125.093 25.104 127.013 21.924 129.539 19.525L128.161 18.075ZM121.89 28.5212C120.661 32.7524 120.05 37.2469 120.05 42H122.05C122.05 37.4198 122.639 33.1143 123.81 29.0788L121.89 28.5212ZM120.05 42C120.05 44.9761 120.253 48.4776 120.655 52.4995L122.645 52.3005C122.247 48.3224 122.05 44.8905 122.05 42H120.05ZM120.655 52.4995C121.062 56.5668 121.875 60.5661 123.095 64.4964L125.005 63.9036C123.825 60.1006 123.038 56.2332 122.645 52.3005L120.655 52.4995ZM123.098 64.506C124.338 68.3642 126.209 71.6329 128.724 74.2877L130.176 72.9122C127.891 70.5004 126.162 67.5025 125.002 63.894L123.098 64.506ZM128.762 74.3259C131.515 76.9337 135.111 78.2 139.45 78.2V76.2C135.522 76.2 132.452 75.0663 130.138 72.874L128.762 74.3259ZM212.884 120.6L212.13 121.256L212.138 121.265L212.146 121.274L212.884 120.6ZM213.284 98.6L212.562 97.9088L212.562 97.9088L213.284 98.6ZM233.684 98.6L232.93 99.2562L232.938 99.2653L232.946 99.2743L233.684 98.6ZM233.884 120.6L233.13 119.944L233.121 119.953L233.113 119.963L233.884 120.6ZM212.884 40L212.13 40.6562L212.138 40.6653L212.146 40.6743L212.884 40ZM213.284 18L214.007 18.6912L214.007 18.6912L213.284 18ZM233.684 18L232.93 18.6562L232.938 18.6653L232.946 18.6743L233.684 18ZM233.884 40L233.13 39.3438L233.121 39.3534L233.113 39.3631L233.884 40ZM223.484 124.2C219.49 124.2 216.228 122.779 213.623 119.926L212.146 121.274C215.141 124.555 218.945 126.2 223.484 126.2V124.2ZM213.639 119.944C211.139 117.069 209.884 113.639 209.884 109.6H207.884C207.884 114.095 209.296 117.998 212.13 121.256L213.639 119.944ZM209.884 109.6C209.884 105.589 211.253 102.171 214.007 99.2912L212.562 97.9088C209.449 101.163 207.884 105.077 207.884 109.6H209.884ZM214.007 99.2912C216.772 96.4005 219.919 95 223.484 95V93C219.317 93 215.663 94.6662 212.562 97.9088L214.007 99.2912ZM223.484 95C227.334 95 230.457 96.4122 232.93 99.2562L234.439 97.9438C231.579 94.6545 227.901 93 223.484 93V95ZM232.946 99.2743C235.573 102.151 236.884 105.575 236.884 109.6H238.884C238.884 105.091 237.396 101.182 234.423 97.9257L232.946 99.2743ZM236.884 109.6C236.884 113.639 235.63 117.069 233.13 119.944L234.639 121.256C237.472 117.998 238.884 114.095 238.884 109.6H236.884ZM233.113 119.963C230.792 122.774 227.622 124.2 223.484 124.2V126.2C228.147 126.2 231.91 124.56 234.655 121.237L233.113 119.963ZM223.484 43.6C219.49 43.6 216.228 42.1785 213.623 39.3257L212.146 40.6743C215.141 43.9548 218.945 45.6 223.484 45.6V43.6ZM213.639 39.3438C211.139 36.4688 209.884 33.0386 209.884 29H207.884C207.884 33.4947 209.296 37.3979 212.13 40.6562L213.639 39.3438ZM209.884 29C209.884 24.9893 211.253 21.5707 214.007 18.6912L212.562 17.3088C209.449 20.5627 207.884 24.4774 207.884 29H209.884ZM214.007 18.6912C216.772 15.8005 219.919 14.4 223.484 14.4V12.4C219.317 12.4 215.663 14.0662 212.562 17.3088L214.007 18.6912ZM223.484 14.4C227.334 14.4 230.457 15.8122 232.93 18.6562L234.439 17.3438C231.579 14.0545 227.901 12.4 223.484 12.4V14.4ZM232.946 18.6743C235.573 21.5512 236.884 24.9753 236.884 29H238.884C238.884 24.4914 237.396 20.5822 234.423 17.3257L232.946 18.6743ZM236.884 29C236.884 33.0386 235.63 36.4688 233.13 39.3438L234.639 40.6562C237.472 37.3979 238.884 33.4947 238.884 29H236.884ZM233.113 39.3631C230.792 42.1735 227.622 43.6 223.484 43.6V45.6C228.147 45.6 231.91 43.9598 234.655 40.6369L233.113 39.3631ZM277.284 142.8L276.852 143.702L276.86 143.706L276.868 143.709L277.284 142.8ZM263.084 131.4L263.913 130.84L263.913 130.84L263.084 131.4ZM262.084 107.4L261.313 106.763L261.31 106.767L262.084 107.4ZM272.084 102.6L272.117 103.6L272.124 103.599L272.084 102.6ZM279.884 104.6L280.502 103.814L280.502 103.814L279.884 104.6ZM283.884 109.8L282.956 110.171L282.956 110.171L283.884 109.8ZM284.284 120L285.233 120.316L285.237 120.305L285.24 120.294L284.284 120ZM281.884 124.6L281.076 124.012L280.693 124.538L281.019 125.101L281.884 124.6ZM289.084 130.6L288.682 131.515L288.703 131.525L288.725 131.533L289.084 130.6ZM318.884 125L318.119 124.356L318.119 124.356L318.884 125ZM322.684 92.6L321.75 92.9571L321.75 92.9571L322.684 92.6ZM313.684 81.4L313.101 82.212L313.109 82.2181L313.118 82.224L313.684 81.4ZM295.684 77V78H295.693L295.702 77.9998L295.684 77ZM290.684 77.2L290.629 76.2015L290.629 76.2015L290.684 77.2ZM285.284 77.6H284.284V78.7173L285.395 78.5939L285.284 77.6ZM285.284 63.2L285.408 62.2077L284.284 62.0672V63.2H285.284ZM306.084 60.2L305.626 59.3114L305.626 59.3114L306.084 60.2ZM315.484 51.4L314.63 50.881L314.623 50.8923L314.616 50.9039L315.484 51.4ZM319.084 38.4L318.085 38.3714L318.085 38.373L319.084 38.4ZM317.284 26.2L316.336 26.5162L316.343 26.5378L316.351 26.559L317.284 26.2ZM311.284 17.8L310.684 18.6L310.694 18.607L310.703 18.6137L311.284 17.8ZM290.684 17.4L290.176 16.5391L290.684 17.4ZM284.684 23.2L283.79 22.7528L283.5 23.332L283.91 23.8332L284.684 23.2ZM287.084 28.4L286.104 28.5961L286.112 28.6358L286.123 28.6747L287.084 28.4ZM286.484 38.6L285.568 38.1992L285.562 38.2138L285.556 38.2286L286.484 38.6ZM282.284 43.8L281.693 42.9936L281.693 42.9936L282.284 43.8ZM274.284 45.8L274.324 44.8008L274.317 44.8005L274.284 45.8ZM264.884 41.4L264.089 42.006L264.089 42.006L264.884 41.4ZM266.284 18.2L267.127 18.7384L267.127 18.7384L266.284 18.2ZM280.284 5.99999L280.754 6.88286L280.761 6.879L280.768 6.87502L280.284 5.99999ZM326.084 4.19999L325.762 5.14678L325.768 5.14867L326.084 4.19999ZM342.084 15.4L341.282 15.9967L341.287 16.0032L341.292 16.0097L342.084 15.4ZM345.084 48L344.174 47.5862L344.171 47.5927L344.168 47.5992L345.084 48ZM335.684 59.8L335.051 59.026L335.051 59.026L335.684 59.8ZM318.084 67.8L317.854 66.8268L317.91 68.7847L318.084 67.8ZM346.284 81.6L345.528 82.2544L345.535 82.2626L346.284 81.6ZM348.484 128L347.676 127.411L347.674 127.414L348.484 128ZM329.484 142.4L329.856 143.329L329.864 143.325L329.484 142.4ZM301.884 146.2C291.972 146.2 283.927 144.745 277.701 141.891L276.868 143.709C283.441 146.722 291.797 148.2 301.884 148.2V146.2ZM277.716 141.898C271.43 138.886 266.855 135.189 263.913 130.84L262.256 131.96C265.447 136.678 270.339 140.581 276.852 143.702L277.716 141.898ZM263.913 130.84C260.934 126.437 259.484 122.095 259.484 117.8H257.484C257.484 122.571 259.101 127.296 262.256 131.96L263.913 130.84ZM259.484 117.8C259.484 114.017 260.613 110.778 262.858 108.033L261.31 106.767C258.756 109.889 257.484 113.583 257.484 117.8H259.484ZM262.855 108.037C265.198 105.201 268.257 103.724 272.117 103.599L272.052 101.601C267.645 101.743 264.038 103.465 261.313 106.763L262.855 108.037ZM272.124 103.599C275.315 103.472 277.65 104.116 279.266 105.386L280.502 103.814C278.385 102.15 275.52 101.462 272.044 101.601L272.124 103.599ZM279.266 105.386C281.009 106.756 282.228 108.351 282.956 110.171L284.813 109.429C283.941 107.249 282.493 105.378 280.502 103.814L279.266 105.386ZM282.956 110.171C283.72 112.081 284.084 113.821 284.084 115.4H286.084C286.084 113.513 285.649 111.519 284.813 109.429L282.956 110.171ZM284.084 115.4C284.084 116.605 283.842 118.036 283.329 119.706L285.24 120.294C285.793 118.497 286.084 116.862 286.084 115.4H284.084ZM283.336 119.684C282.837 121.179 282.086 122.622 281.076 124.012L282.693 125.188C283.816 123.645 284.665 122.021 285.233 120.316L283.336 119.684ZM281.019 125.101C282.616 127.859 285.202 129.984 288.682 131.515L289.487 129.685C286.3 128.282 284.086 126.408 282.75 124.099L281.019 125.101ZM288.725 131.533C292.307 132.911 296.029 133.6 299.884 133.6V131.6C296.273 131.6 292.795 130.956 289.443 129.667L288.725 131.533ZM299.884 133.6C308.494 133.6 315.144 130.995 319.649 125.644L318.119 124.356C314.092 129.139 308.075 131.6 299.884 131.6V133.6ZM319.649 125.644C324.087 120.374 326.284 113.87 326.284 106.2H324.284C324.284 113.463 322.215 119.492 318.119 124.356L319.649 125.644ZM326.284 106.2C326.284 101.536 325.392 96.8821 323.618 92.2429L321.75 92.9571C323.443 97.3846 324.284 101.797 324.284 106.2H326.284ZM323.618 92.2429C321.808 87.5073 318.673 83.616 314.251 80.576L313.118 82.224C317.229 85.0507 320.094 88.626 321.75 92.9571L323.618 92.2429ZM314.268 80.588C309.761 77.3488 303.518 75.8648 295.667 76.0001L295.702 77.9998C303.317 77.8685 309.074 79.3179 313.101 82.212L314.268 80.588ZM295.684 76C294.72 76 293.027 76.0683 290.629 76.2015L290.74 78.1985C293.141 78.065 294.782 78 295.684 78V76ZM290.629 76.2015C288.225 76.3351 286.402 76.4696 285.174 76.6061L285.395 78.5939C286.566 78.4637 288.344 78.3316 290.74 78.1985L290.629 76.2015ZM286.284 77.6V63.2H284.284V77.6H286.284ZM285.16 64.1923C286.262 64.33 287.304 64.4 288.284 64.4V62.4C287.398 62.4 286.44 62.3367 285.408 62.2077L285.16 64.1923ZM288.284 64.4C288.286 64.4 288.288 64.4 288.29 64.4C288.292 64.4 288.293 64.4 288.295 64.4C288.297 64.4 288.299 64.4 288.301 64.4C288.303 64.4 288.304 64.4 288.306 64.4C288.308 64.4 288.31 64.4 288.312 64.4C288.313 64.4 288.315 64.4 288.317 64.4C288.319 64.4 288.321 64.4 288.323 64.4C288.324 64.4 288.326 64.4 288.328 64.4C288.33 64.4 288.332 64.4 288.334 64.4C288.335 64.4 288.337 64.4 288.339 64.4C288.341 64.4 288.343 64.4 288.344 64.4C288.346 64.4 288.348 64.4 288.35 64.4C288.352 64.4 288.354 64.4 288.355 64.4C288.357 64.4 288.359 64.4 288.361 64.4C288.363 64.4 288.365 64.4 288.366 64.4C288.368 64.4 288.37 64.4 288.372 64.4C288.374 64.4 288.375 64.4 288.377 64.4C288.379 64.4 288.381 64.4 288.383 64.4C288.385 64.4 288.386 64.4 288.388 64.4C288.39 64.4 288.392 64.4 288.394 64.4C288.396 64.4 288.397 64.4 288.399 64.4C288.401 64.4 288.403 64.4 288.405 64.4C288.406 64.4 288.408 64.4 288.41 64.4C288.412 64.4 288.414 64.4 288.416 64.4C288.417 64.4 288.419 64.4 288.421 64.4C288.423 64.4 288.425 64.4 288.427 64.4C288.428 64.4 288.43 64.4 288.432 64.4C288.434 64.4 288.436 64.4 288.437 64.4C288.439 64.4 288.441 64.4 288.443 64.4C288.445 64.4 288.447 64.4 288.448 64.4C288.45 64.4 288.452 64.4 288.454 64.4C288.456 64.4 288.457 64.4 288.459 64.4C288.461 64.4 288.463 64.4 288.465 64.4C288.467 64.4 288.468 64.4 288.47 64.4C288.472 64.4 288.474 64.4 288.476 64.4C288.478 64.4 288.479 64.4 288.481 64.4C288.483 64.4 288.485 64.4 288.487 64.4C288.488 64.4 288.49 64.4 288.492 64.4C288.494 64.4 288.496 64.4 288.498 64.4C288.499 64.4 288.501 64.4 288.503 64.4C288.505 64.4 288.507 64.4 288.509 64.4C288.51 64.4 288.512 64.4 288.514 64.4C288.516 64.4 288.518 64.4 288.519 64.4C288.521 64.4 288.523 64.4 288.525 64.4C288.527 64.4 288.529 64.4 288.53 64.4C288.532 64.4 288.534 64.4 288.536 64.4C288.538 64.4 288.54 64.4 288.541 64.4C288.543 64.4 288.545 64.4 288.547 64.4C288.549 64.4 288.55 64.4 288.552 64.4C288.554 64.4 288.556 64.4 288.558 64.4C288.56 64.4 288.561 64.4 288.563 64.4C288.565 64.4 288.567 64.4 288.569 64.4C288.571 64.4 288.572 64.4 288.574 64.4C288.576 64.4 288.578 64.4 288.58 64.4C288.581 64.4 288.583 64.4 288.585 64.4C288.587 64.4 288.589 64.4 288.591 64.4C288.592 64.4 288.594 64.4 288.596 64.4C288.598 64.4 288.6 64.4 288.602 64.4C288.603 64.4 288.605 64.4 288.607 64.4C288.609 64.4 288.611 64.4 288.612 64.4C288.614 64.4 288.616 64.4 288.618 64.4C288.62 64.4 288.622 64.4 288.623 64.4C288.625 64.4 288.627 64.4 288.629 64.4C288.631 64.4 288.632 64.4 288.634 64.4C288.636 64.4 288.638 64.4 288.64 64.4C288.642 64.4 288.643 64.4 288.645 64.4C288.647 64.4 288.649 64.4 288.651 64.4C288.653 64.4 288.654 64.4 288.656 64.4C288.658 64.4 288.66 64.4 288.662 64.4C288.663 64.4 288.665 64.4 288.667 64.4C288.669 64.4 288.671 64.4 288.673 64.4C288.674 64.4 288.676 64.4 288.678 64.4C288.68 64.4 288.682 64.4 288.684 64.4C288.685 64.4 288.687 64.4 288.689 64.4C288.691 64.4 288.693 64.4 288.694 64.4C288.696 64.4 288.698 64.4 288.7 64.4C288.702 64.4 288.704 64.4 288.705 64.4C288.707 64.4 288.709 64.4 288.711 64.4C288.713 64.4 288.715 64.4 288.716 64.4C288.718 64.4 288.72 64.4 288.722 64.4C288.724 64.4 288.725 64.4 288.727 64.4C288.729 64.4 288.731 64.4 288.733 64.4C288.735 64.4 288.736 64.4 288.738 64.4C288.74 64.4 288.742 64.4 288.744 64.4C288.746 64.4 288.747 64.4 288.749 64.4C288.751 64.4 288.753 64.4 288.755 64.4C288.756 64.4 288.758 64.4 288.76 64.4C288.762 64.4 288.764 64.4 288.766 64.4C288.767 64.4 288.769 64.4 288.771 64.4C288.773 64.4 288.775 64.4 288.777 64.4C288.778 64.4 288.78 64.4 288.782 64.4C288.784 64.4 288.786 64.4 288.787 64.4C288.789 64.4 288.791 64.4 288.793 64.4C288.795 64.4 288.797 64.4 288.798 64.4C288.8 64.4 288.802 64.4 288.804 64.4C288.806 64.4 288.807 64.4 288.809 64.4C288.811 64.4 288.813 64.4 288.815 64.4C288.817 64.4 288.818 64.4 288.82 64.4C288.822 64.4 288.824 64.4 288.826 64.4C288.828 64.4 288.829 64.4 288.831 64.4C288.833 64.4 288.835 64.4 288.837 64.4C288.838 64.4 288.84 64.4 288.842 64.4C288.844 64.4 288.846 64.4 288.848 64.4C288.849 64.4 288.851 64.4 288.853 64.4C288.855 64.4 288.857 64.4 288.859 64.4C288.86 64.4 288.862 64.4 288.864 64.4C288.866 64.4 288.868 64.4 288.869 64.4C288.871 64.4 288.873 64.4 288.875 64.4C288.877 64.4 288.879 64.4 288.88 64.4C288.882 64.4 288.884 64.4 288.886 64.4C288.888 64.4 288.89 64.4 288.891 64.4C288.893 64.4 288.895 64.4 288.897 64.4C288.899 64.4 288.9 64.4 288.902 64.4C288.904 64.4 288.906 64.4 288.908 64.4C288.91 64.4 288.911 64.4 288.913 64.4C288.915 64.4 288.917 64.4 288.919 64.4C288.921 64.4 288.922 64.4 288.924 64.4C288.926 64.4 288.928 64.4 288.93 64.4C288.931 64.4 288.933 64.4 288.935 64.4C288.937 64.4 288.939 64.4 288.941 64.4C288.942 64.4 288.944 64.4 288.946 64.4C288.948 64.4 288.95 64.4 288.952 64.4C288.953 64.4 288.955 64.4 288.957 64.4C288.959 64.4 288.961 64.4 288.962 64.4C288.964 64.4 288.966 64.4 288.968 64.4C288.97 64.4 288.972 64.4 288.973 64.4C288.975 64.4 288.977 64.4 288.979 64.4C288.981 64.4 288.982 64.4 288.984 64.4C288.986 64.4 288.988 64.4 288.99 64.4C288.992 64.4 288.993 64.4 288.995 64.4C288.997 64.4 288.999 64.4 289.001 64.4C289.003 64.4 289.004 64.4 289.006 64.4C289.008 64.4 289.01 64.4 289.012 64.4C289.013 64.4 289.015 64.4 289.017 64.4C289.019 64.4 289.021 64.4 289.023 64.4C289.024 64.4 289.026 64.4 289.028 64.4C289.03 64.4 289.032 64.4 289.034 64.4C289.035 64.4 289.037 64.4 289.039 64.4C289.041 64.4 289.043 64.4 289.044 64.4C289.046 64.4 289.048 64.4 289.05 64.4C289.052 64.4 289.054 64.4 289.055 64.4C289.057 64.4 289.059 64.4 289.061 64.4C289.063 64.4 289.065 64.4 289.066 64.4C289.068 64.4 289.07 64.4 289.072 64.4C289.074 64.4 289.075 64.4 289.077 64.4C289.079 64.4 289.081 64.4 289.083 64.4C289.085 64.4 289.086 64.4 289.088 64.4C289.09 64.4 289.092 64.4 289.094 64.4C289.096 64.4 289.097 64.4 289.099 64.4C289.101 64.4 289.103 64.4 289.105 64.4C289.106 64.4 289.108 64.4 289.11 64.4C289.112 64.4 289.114 64.4 289.116 64.4C289.117 64.4 289.119 64.4 289.121 64.4C289.123 64.4 289.125 64.4 289.127 64.4C289.128 64.4 289.13 64.4 289.132 64.4C289.134 64.4 289.136 64.4 289.137 64.4C289.139 64.4 289.141 64.4 289.143 64.4C289.145 64.4 289.147 64.4 289.148 64.4C289.15 64.4 289.152 64.4 289.154 64.4C289.156 64.4 289.157 64.4 289.159 64.4C289.161 64.4 289.163 64.4 289.165 64.4C289.167 64.4 289.168 64.4 289.17 64.4C289.172 64.4 289.174 64.4 289.176 64.4C289.178 64.4 289.179 64.4 289.181 64.4C289.183 64.4 289.185 64.4 289.187 64.4C289.188 64.4 289.19 64.4 289.192 64.4C289.194 64.4 289.196 64.4 289.198 64.4C289.199 64.4 289.201 64.4 289.203 64.4C289.205 64.4 289.207 64.4 289.209 64.4C289.21 64.4 289.212 64.4 289.214 64.4C289.216 64.4 289.218 64.4 289.219 64.4C289.221 64.4 289.223 64.4 289.225 64.4C289.227 64.4 289.229 64.4 289.23 64.4C289.232 64.4 289.234 64.4 289.236 64.4C289.238 64.4 289.24 64.4 289.241 64.4C289.243 64.4 289.245 64.4 289.247 64.4C289.249 64.4 289.25 64.4 289.252 64.4C289.254 64.4 289.256 64.4 289.258 64.4C289.26 64.4 289.261 64.4 289.263 64.4C289.265 64.4 289.267 64.4 289.269 64.4C289.271 64.4 289.272 64.4 289.274 64.4C289.276 64.4 289.278 64.4 289.28 64.4C289.281 64.4 289.283 64.4 289.285 64.4C289.287 64.4 289.289 64.4 289.291 64.4C289.292 64.4 289.294 64.4 289.296 64.4C289.298 64.4 289.3 64.4 289.302 64.4C289.303 64.4 289.305 64.4 289.307 64.4C289.309 64.4 289.311 64.4 289.312 64.4C289.314 64.4 289.316 64.4 289.318 64.4C289.32 64.4 289.322 64.4 289.323 64.4C289.325 64.4 289.327 64.4 289.329 64.4C289.331 64.4 289.332 64.4 289.334 64.4C289.336 64.4 289.338 64.4 289.34 64.4C289.342 64.4 289.343 64.4 289.345 64.4C289.347 64.4 289.349 64.4 289.351 64.4C289.353 64.4 289.354 64.4 289.356 64.4C289.358 64.4 289.36 64.4 289.362 64.4C289.363 64.4 289.365 64.4 289.367 64.4C289.369 64.4 289.371 64.4 289.373 64.4C289.374 64.4 289.376 64.4 289.378 64.4C289.38 64.4 289.382 64.4 289.384 64.4C289.385 64.4 289.387 64.4 289.389 64.4C289.391 64.4 289.393 64.4 289.394 64.4C289.396 64.4 289.398 64.4 289.4 64.4C289.402 64.4 289.404 64.4 289.405 64.4C289.407 64.4 289.409 64.4 289.411 64.4C289.413 64.4 289.415 64.4 289.416 64.4C289.418 64.4 289.42 64.4 289.422 64.4C289.424 64.4 289.425 64.4 289.427 64.4C289.429 64.4 289.431 64.4 289.433 64.4C289.435 64.4 289.436 64.4 289.438 64.4C289.44 64.4 289.442 64.4 289.444 64.4C289.446 64.4 289.447 64.4 289.449 64.4C289.451 64.4 289.453 64.4 289.455 64.4C289.456 64.4 289.458 64.4 289.46 64.4C289.462 64.4 289.464 64.4 289.466 64.4C289.467 64.4 289.469 64.4 289.471 64.4C289.473 64.4 289.475 64.4 289.477 64.4C289.478 64.4 289.48 64.4 289.482 64.4C289.484 64.4 289.486 64.4 289.487 64.4C289.489 64.4 289.491 64.4 289.493 64.4C289.495 64.4 289.497 64.4 289.498 64.4C289.5 64.4 289.502 64.4 289.504 64.4C289.506 64.4 289.507 64.4 289.509 64.4C289.511 64.4 289.513 64.4 289.515 64.4C289.517 64.4 289.518 64.4 289.52 64.4C289.522 64.4 289.524 64.4 289.526 64.4C289.528 64.4 289.529 64.4 289.531 64.4C289.533 64.4 289.535 64.4 289.537 64.4C289.538 64.4 289.54 64.4 289.542 64.4C289.544 64.4 289.546 64.4 289.548 64.4C289.549 64.4 289.551 64.4 289.553 64.4C289.555 64.4 289.557 64.4 289.559 64.4C289.56 64.4 289.562 64.4 289.564 64.4C289.566 64.4 289.568 64.4 289.569 64.4C289.571 64.4 289.573 64.4 289.575 64.4C289.577 64.4 289.579 64.4 289.58 64.4C289.582 64.4 289.584 64.4 289.586 64.4C289.588 64.4 289.59 64.4 289.591 64.4C289.593 64.4 289.595 64.4 289.597 64.4C289.599 64.4 289.6 64.4 289.602 64.4C289.604 64.4 289.606 64.4 289.608 64.4C289.61 64.4 289.611 64.4 289.613 64.4C289.615 64.4 289.617 64.4 289.619 64.4C289.621 64.4 289.622 64.4 289.624 64.4C289.626 64.4 289.628 64.4 289.63 64.4C289.631 64.4 289.633 64.4 289.635 64.4C289.637 64.4 289.639 64.4 289.641 64.4C289.642 64.4 289.644 64.4 289.646 64.4C289.648 64.4 289.65 64.4 289.652 64.4C289.653 64.4 289.655 64.4 289.657 64.4C289.659 64.4 289.661 64.4 289.662 64.4C289.664 64.4 289.666 64.4 289.668 64.4C289.67 64.4 289.672 64.4 289.673 64.4C289.675 64.4 289.677 64.4 289.679 64.4C289.681 64.4 289.682 64.4 289.684 64.4C289.686 64.4 289.688 64.4 289.69 64.4C289.692 64.4 289.693 64.4 289.695 64.4C289.697 64.4 289.699 64.4 289.701 64.4C289.703 64.4 289.704 64.4 289.706 64.4C289.708 64.4 289.71 64.4 289.712 64.4C289.713 64.4 289.715 64.4 289.717 64.4C289.719 64.4 289.721 64.4 289.723 64.4C289.724 64.4 289.726 64.4 289.728 64.4C289.73 64.4 289.732 64.4 289.734 64.4C289.735 64.4 289.737 64.4 289.739 64.4C289.741 64.4 289.743 64.4 289.744 64.4C289.746 64.4 289.748 64.4 289.75 64.4C289.752 64.4 289.754 64.4 289.755 64.4C289.757 64.4 289.759 64.4 289.761 64.4C289.763 64.4 289.765 64.4 289.766 64.4C289.768 64.4 289.77 64.4 289.772 64.4C289.774 64.4 289.775 64.4 289.777 64.4C289.779 64.4 289.781 64.4 289.783 64.4C289.785 64.4 289.786 64.4 289.788 64.4C289.79 64.4 289.792 64.4 289.794 64.4C289.796 64.4 289.797 64.4 289.799 64.4C289.801 64.4 289.803 64.4 289.805 64.4C289.806 64.4 289.808 64.4 289.81 64.4C289.812 64.4 289.814 64.4 289.816 64.4C289.817 64.4 289.819 64.4 289.821 64.4C289.823 64.4 289.825 64.4 289.827 64.4C289.828 64.4 289.83 64.4 289.832 64.4C289.834 64.4 289.836 64.4 289.837 64.4C289.839 64.4 289.841 64.4 289.843 64.4C289.845 64.4 289.847 64.4 289.848 64.4C289.85 64.4 289.852 64.4 289.854 64.4C289.856 64.4 289.857 64.4 289.859 64.4C289.861 64.4 289.863 64.4 289.865 64.4C289.867 64.4 289.868 64.4 289.87 64.4C289.872 64.4 289.874 64.4 289.876 64.4C289.878 64.4 289.879 64.4 289.881 64.4C289.883 64.4 289.885 64.4 289.887 64.4C289.888 64.4 289.89 64.4 289.892 64.4C289.894 64.4 289.896 64.4 289.898 64.4C289.899 64.4 289.901 64.4 289.903 64.4C289.905 64.4 289.907 64.4 289.909 64.4C289.91 64.4 289.912 64.4 289.914 64.4C289.916 64.4 289.918 64.4 289.919 64.4C289.921 64.4 289.923 64.4 289.925 64.4C289.927 64.4 289.929 64.4 289.93 64.4C289.932 64.4 289.934 64.4 289.936 64.4C289.938 64.4 289.94 64.4 289.941 64.4C289.943 64.4 289.945 64.4 289.947 64.4C289.949 64.4 289.95 64.4 289.952 64.4C289.954 64.4 289.956 64.4 289.958 64.4C289.96 64.4 289.961 64.4 289.963 64.4C289.965 64.4 289.967 64.4 289.969 64.4C289.971 64.4 289.972 64.4 289.974 64.4C289.976 64.4 289.978 64.4 289.98 64.4C289.981 64.4 289.983 64.4 289.985 64.4C289.987 64.4 289.989 64.4 289.991 64.4C289.992 64.4 289.994 64.4 289.996 64.4C289.998 64.4 290 64.4 290.002 64.4C290.003 64.4 290.005 64.4 290.007 64.4C290.009 64.4 290.011 64.4 290.012 64.4C290.014 64.4 290.016 64.4 290.018 64.4C290.02 64.4 290.022 64.4 290.023 64.4C290.025 64.4 290.027 64.4 290.029 64.4C290.031 64.4 290.032 64.4 290.034 64.4C290.036 64.4 290.038 64.4 290.04 64.4C290.042 64.4 290.043 64.4 290.045 64.4C290.047 64.4 290.049 64.4 290.051 64.4C290.053 64.4 290.054 64.4 290.056 64.4C290.058 64.4 290.06 64.4 290.062 64.4C290.063 64.4 290.065 64.4 290.067 64.4C290.069 64.4 290.071 64.4 290.073 64.4C290.074 64.4 290.076 64.4 290.078 64.4C290.08 64.4 290.082 64.4 290.084 64.4C290.085 64.4 290.087 64.4 290.089 64.4C290.091 64.4 290.093 64.4 290.094 64.4C290.096 64.4 290.098 64.4 290.1 64.4C290.102 64.4 290.104 64.4 290.105 64.4C290.107 64.4 290.109 64.4 290.111 64.4C290.113 64.4 290.115 64.4 290.116 64.4C290.118 64.4 290.12 64.4 290.122 64.4C290.124 64.4 290.125 64.4 290.127 64.4C290.129 64.4 290.131 64.4 290.133 64.4C290.135 64.4 290.136 64.4 290.138 64.4C290.14 64.4 290.142 64.4 290.144 64.4C290.146 64.4 290.147 64.4 290.149 64.4C290.151 64.4 290.153 64.4 290.155 64.4C290.156 64.4 290.158 64.4 290.16 64.4C290.162 64.4 290.164 64.4 290.166 64.4C290.167 64.4 290.169 64.4 290.171 64.4C290.173 64.4 290.175 64.4 290.177 64.4C290.178 64.4 290.18 64.4 290.182 64.4C290.184 64.4 290.186 64.4 290.187 64.4C290.189 64.4 290.191 64.4 290.193 64.4C290.195 64.4 290.197 64.4 290.198 64.4C290.2 64.4 290.202 64.4 290.204 64.4C290.206 64.4 290.207 64.4 290.209 64.4C290.211 64.4 290.213 64.4 290.215 64.4C290.217 64.4 290.218 64.4 290.22 64.4C290.222 64.4 290.224 64.4 290.226 64.4C290.228 64.4 290.229 64.4 290.231 64.4C290.233 64.4 290.235 64.4 290.237 64.4C290.238 64.4 290.24 64.4 290.242 64.4C290.244 64.4 290.246 64.4 290.248 64.4C290.249 64.4 290.251 64.4 290.253 64.4C290.255 64.4 290.257 64.4 290.259 64.4C290.26 64.4 290.262 64.4 290.264 64.4C290.266 64.4 290.268 64.4 290.269 64.4C290.271 64.4 290.273 64.4 290.275 64.4C290.277 64.4 290.279 64.4 290.28 64.4C290.282 64.4 290.284 64.4 290.286 64.4C290.288 64.4 290.29 64.4 290.291 64.4C290.293 64.4 290.295 64.4 290.297 64.4C290.299 64.4 290.3 64.4 290.302 64.4C290.304 64.4 290.306 64.4 290.308 64.4C290.31 64.4 290.311 64.4 290.313 64.4C290.315 64.4 290.317 64.4 290.319 64.4C290.321 64.4 290.322 64.4 290.324 64.4C290.326 64.4 290.328 64.4 290.33 64.4C290.331 64.4 290.333 64.4 290.335 64.4C290.337 64.4 290.339 64.4 290.341 64.4C290.342 64.4 290.344 64.4 290.346 64.4C290.348 64.4 290.35 64.4 290.352 64.4C290.353 64.4 290.355 64.4 290.357 64.4C290.359 64.4 290.361 64.4 290.362 64.4C290.364 64.4 290.366 64.4 290.368 64.4C290.37 64.4 290.372 64.4 290.373 64.4C290.375 64.4 290.377 64.4 290.379 64.4C290.381 64.4 290.382 64.4 290.384 64.4C290.386 64.4 290.388 64.4 290.39 64.4C290.392 64.4 290.393 64.4 290.395 64.4C290.397 64.4 290.399 64.4 290.401 64.4C290.403 64.4 290.404 64.4 290.406 64.4C290.408 64.4 290.41 64.4 290.412 64.4C290.413 64.4 290.415 64.4 290.417 64.4C290.419 64.4 290.421 64.4 290.423 64.4C290.424 64.4 290.426 64.4 290.428 64.4C290.43 64.4 290.432 64.4 290.434 64.4C290.435 64.4 290.437 64.4 290.439 64.4C290.441 64.4 290.443 64.4 290.444 64.4C290.446 64.4 290.448 64.4 290.45 64.4C290.452 64.4 290.454 64.4 290.455 64.4C290.457 64.4 290.459 64.4 290.461 64.4C290.463 64.4 290.465 64.4 290.466 64.4C290.468 64.4 290.47 64.4 290.472 64.4C290.474 64.4 290.475 64.4 290.477 64.4C290.479 64.4 290.481 64.4 290.483 64.4C290.485 64.4 290.486 64.4 290.488 64.4C290.49 64.4 290.492 64.4 290.494 64.4C290.496 64.4 290.497 64.4 290.499 64.4C290.501 64.4 290.503 64.4 290.505 64.4C290.506 64.4 290.508 64.4 290.51 64.4C290.512 64.4 290.514 64.4 290.516 64.4C290.517 64.4 290.519 64.4 290.521 64.4C290.523 64.4 290.525 64.4 290.527 64.4C290.528 64.4 290.53 64.4 290.532 64.4C290.534 64.4 290.536 64.4 290.537 64.4C290.539 64.4 290.541 64.4 290.543 64.4C290.545 64.4 290.547 64.4 290.548 64.4C290.55 64.4 290.552 64.4 290.554 64.4C290.556 64.4 290.557 64.4 290.559 64.4C290.561 64.4 290.563 64.4 290.565 64.4C290.567 64.4 290.568 64.4 290.57 64.4C290.572 64.4 290.574 64.4 290.576 64.4C290.578 64.4 290.579 64.4 290.581 64.4C290.583 64.4 290.585 64.4 290.587 64.4C290.588 64.4 290.59 64.4 290.592 64.4C290.594 64.4 290.596 64.4 290.598 64.4C290.599 64.4 290.601 64.4 290.603 64.4C290.605 64.4 290.607 64.4 290.609 64.4C290.61 64.4 290.612 64.4 290.614 64.4C290.616 64.4 290.618 64.4 290.619 64.4C290.621 64.4 290.623 64.4 290.625 64.4C290.627 64.4 290.629 64.4 290.63 64.4C290.632 64.4 290.634 64.4 290.636 64.4C290.638 64.4 290.64 64.4 290.641 64.4C290.643 64.4 290.645 64.4 290.647 64.4C290.649 64.4 290.65 64.4 290.652 64.4C290.654 64.4 290.656 64.4 290.658 64.4C290.66 64.4 290.661 64.4 290.663 64.4C290.665 64.4 290.667 64.4 290.669 64.4C290.671 64.4 290.672 64.4 290.674 64.4C290.676 64.4 290.678 64.4 290.68 64.4C290.681 64.4 290.683 64.4 290.685 64.4C290.687 64.4 290.689 64.4 290.691 64.4C290.692 64.4 290.694 64.4 290.696 64.4C290.698 64.4 290.7 64.4 290.702 64.4C290.703 64.4 290.705 64.4 290.707 64.4C290.709 64.4 290.711 64.4 290.712 64.4C290.714 64.4 290.716 64.4 290.718 64.4C290.72 64.4 290.722 64.4 290.723 64.4C290.725 64.4 290.727 64.4 290.729 64.4C290.731 64.4 290.732 64.4 290.734 64.4C290.736 64.4 290.738 64.4 290.74 64.4C290.742 64.4 290.743 64.4 290.745 64.4C290.747 64.4 290.749 64.4 290.751 64.4C290.753 64.4 290.754 64.4 290.756 64.4C290.758 64.4 290.76 64.4 290.762 64.4C290.763 64.4 290.765 64.4 290.767 64.4C290.769 64.4 290.771 64.4 290.773 64.4C290.774 64.4 290.776 64.4 290.778 64.4C290.78 64.4 290.782 64.4 290.784 64.4C290.785 64.4 290.787 64.4 290.789 64.4C290.791 64.4 290.793 64.4 290.794 64.4C290.796 64.4 290.798 64.4 290.8 64.4C290.802 64.4 290.804 64.4 290.805 64.4C290.807 64.4 290.809 64.4 290.811 64.4C290.813 64.4 290.815 64.4 290.816 64.4C290.818 64.4 290.82 64.4 290.822 64.4C290.824 64.4 290.825 64.4 290.827 64.4C290.829 64.4 290.831 64.4 290.833 64.4C290.835 64.4 290.836 64.4 290.838 64.4C290.84 64.4 290.842 64.4 290.844 64.4C290.846 64.4 290.847 64.4 290.849 64.4C290.851 64.4 290.853 64.4 290.855 64.4C290.856 64.4 290.858 64.4 290.86 64.4C290.862 64.4 290.864 64.4 290.866 64.4C290.867 64.4 290.869 64.4 290.871 64.4C290.873 64.4 290.875 64.4 290.877 64.4C290.878 64.4 290.88 64.4 290.882 64.4C290.884 64.4 290.886 64.4 290.887 64.4C290.889 64.4 290.891 64.4 290.893 64.4C290.895 64.4 290.897 64.4 290.898 64.4C290.9 64.4 290.902 64.4 290.904 64.4C290.906 64.4 290.907 64.4 290.909 64.4C290.911 64.4 290.913 64.4 290.915 64.4C290.917 64.4 290.918 64.4 290.92 64.4C290.922 64.4 290.924 64.4 290.926 64.4C290.928 64.4 290.929 64.4 290.931 64.4C290.933 64.4 290.935 64.4 290.937 64.4C290.938 64.4 290.94 64.4 290.942 64.4C290.944 64.4 290.946 64.4 290.948 64.4C290.949 64.4 290.951 64.4 290.953 64.4C290.955 64.4 290.957 64.4 290.959 64.4C290.96 64.4 290.962 64.4 290.964 64.4C290.966 64.4 290.968 64.4 290.969 64.4C290.971 64.4 290.973 64.4 290.975 64.4C290.977 64.4 290.979 64.4 290.98 64.4C290.982 64.4 290.984 64.4 290.986 64.4C290.988 64.4 290.99 64.4 290.991 64.4C290.993 64.4 290.995 64.4 290.997 64.4C290.999 64.4 291 64.4 291.002 64.4C291.004 64.4 291.006 64.4 291.008 64.4C291.01 64.4 291.011 64.4 291.013 64.4C291.015 64.4 291.017 64.4 291.019 64.4C291.021 64.4 291.022 64.4 291.024 64.4C291.026 64.4 291.028 64.4 291.03 64.4C291.031 64.4 291.033 64.4 291.035 64.4C291.037 64.4 291.039 64.4 291.041 64.4C291.042 64.4 291.044 64.4 291.046 64.4C291.048 64.4 291.05 64.4 291.052 64.4C291.053 64.4 291.055 64.4 291.057 64.4C291.059 64.4 291.061 64.4 291.062 64.4C291.064 64.4 291.066 64.4 291.068 64.4C291.07 64.4 291.072 64.4 291.073 64.4C291.075 64.4 291.077 64.4 291.079 64.4C291.081 64.4 291.082 64.4 291.084 64.4V62.4C291.082 62.4 291.081 62.4 291.079 62.4C291.077 62.4 291.075 62.4 291.073 62.4C291.072 62.4 291.07 62.4 291.068 62.4C291.066 62.4 291.064 62.4 291.062 62.4C291.061 62.4 291.059 62.4 291.057 62.4C291.055 62.4 291.053 62.4 291.052 62.4C291.05 62.4 291.048 62.4 291.046 62.4C291.044 62.4 291.042 62.4 291.041 62.4C291.039 62.4 291.037 62.4 291.035 62.4C291.033 62.4 291.031 62.4 291.03 62.4C291.028 62.4 291.026 62.4 291.024 62.4C291.022 62.4 291.021 62.4 291.019 62.4C291.017 62.4 291.015 62.4 291.013 62.4C291.011 62.4 291.01 62.4 291.008 62.4C291.006 62.4 291.004 62.4 291.002 62.4C291 62.4 290.999 62.4 290.997 62.4C290.995 62.4 290.993 62.4 290.991 62.4C290.99 62.4 290.988 62.4 290.986 62.4C290.984 62.4 290.982 62.4 290.98 62.4C290.979 62.4 290.977 62.4 290.975 62.4C290.973 62.4 290.971 62.4 290.969 62.4C290.968 62.4 290.966 62.4 290.964 62.4C290.962 62.4 290.96 62.4 290.959 62.4C290.957 62.4 290.955 62.4 290.953 62.4C290.951 62.4 290.949 62.4 290.948 62.4C290.946 62.4 290.944 62.4 290.942 62.4C290.94 62.4 290.938 62.4 290.937 62.4C290.935 62.4 290.933 62.4 290.931 62.4C290.929 62.4 290.928 62.4 290.926 62.4C290.924 62.4 290.922 62.4 290.92 62.4C290.918 62.4 290.917 62.4 290.915 62.4C290.913 62.4 290.911 62.4 290.909 62.4C290.907 62.4 290.906 62.4 290.904 62.4C290.902 62.4 290.9 62.4 290.898 62.4C290.897 62.4 290.895 62.4 290.893 62.4C290.891 62.4 290.889 62.4 290.887 62.4C290.886 62.4 290.884 62.4 290.882 62.4C290.88 62.4 290.878 62.4 290.877 62.4C290.875 62.4 290.873 62.4 290.871 62.4C290.869 62.4 290.867 62.4 290.866 62.4C290.864 62.4 290.862 62.4 290.86 62.4C290.858 62.4 290.856 62.4 290.855 62.4C290.853 62.4 290.851 62.4 290.849 62.4C290.847 62.4 290.846 62.4 290.844 62.4C290.842 62.4 290.84 62.4 290.838 62.4C290.836 62.4 290.835 62.4 290.833 62.4C290.831 62.4 290.829 62.4 290.827 62.4C290.825 62.4 290.824 62.4 290.822 62.4C290.82 62.4 290.818 62.4 290.816 62.4C290.815 62.4 290.813 62.4 290.811 62.4C290.809 62.4 290.807 62.4 290.805 62.4C290.804 62.4 290.802 62.4 290.8 62.4C290.798 62.4 290.796 62.4 290.794 62.4C290.793 62.4 290.791 62.4 290.789 62.4C290.787 62.4 290.785 62.4 290.784 62.4C290.782 62.4 290.78 62.4 290.778 62.4C290.776 62.4 290.774 62.4 290.773 62.4C290.771 62.4 290.769 62.4 290.767 62.4C290.765 62.4 290.763 62.4 290.762 62.4C290.76 62.4 290.758 62.4 290.756 62.4C290.754 62.4 290.753 62.4 290.751 62.4C290.749 62.4 290.747 62.4 290.745 62.4C290.743 62.4 290.742 62.4 290.74 62.4C290.738 62.4 290.736 62.4 290.734 62.4C290.732 62.4 290.731 62.4 290.729 62.4C290.727 62.4 290.725 62.4 290.723 62.4C290.722 62.4 290.72 62.4 290.718 62.4C290.716 62.4 290.714 62.4 290.712 62.4C290.711 62.4 290.709 62.4 290.707 62.4C290.705 62.4 290.703 62.4 290.702 62.4C290.7 62.4 290.698 62.4 290.696 62.4C290.694 62.4 290.692 62.4 290.691 62.4C290.689 62.4 290.687 62.4 290.685 62.4C290.683 62.4 290.681 62.4 290.68 62.4C290.678 62.4 290.676 62.4 290.674 62.4C290.672 62.4 290.671 62.4 290.669 62.4C290.667 62.4 290.665 62.4 290.663 62.4C290.661 62.4 290.66 62.4 290.658 62.4C290.656 62.4 290.654 62.4 290.652 62.4C290.65 62.4 290.649 62.4 290.647 62.4C290.645 62.4 290.643 62.4 290.641 62.4C290.64 62.4 290.638 62.4 290.636 62.4C290.634 62.4 290.632 62.4 290.63 62.4C290.629 62.4 290.627 62.4 290.625 62.4C290.623 62.4 290.621 62.4 290.619 62.4C290.618 62.4 290.616 62.4 290.614 62.4C290.612 62.4 290.61 62.4 290.609 62.4C290.607 62.4 290.605 62.4 290.603 62.4C290.601 62.4 290.599 62.4 290.598 62.4C290.596 62.4 290.594 62.4 290.592 62.4C290.59 62.4 290.588 62.4 290.587 62.4C290.585 62.4 290.583 62.4 290.581 62.4C290.579 62.4 290.578 62.4 290.576 62.4C290.574 62.4 290.572 62.4 290.57 62.4C290.568 62.4 290.567 62.4 290.565 62.4C290.563 62.4 290.561 62.4 290.559 62.4C290.557 62.4 290.556 62.4 290.554 62.4C290.552 62.4 290.55 62.4 290.548 62.4C290.547 62.4 290.545 62.4 290.543 62.4C290.541 62.4 290.539 62.4 290.537 62.4C290.536 62.4 290.534 62.4 290.532 62.4C290.53 62.4 290.528 62.4 290.527 62.4C290.525 62.4 290.523 62.4 290.521 62.4C290.519 62.4 290.517 62.4 290.516 62.4C290.514 62.4 290.512 62.4 290.51 62.4C290.508 62.4 290.506 62.4 290.505 62.4C290.503 62.4 290.501 62.4 290.499 62.4C290.497 62.4 290.496 62.4 290.494 62.4C290.492 62.4 290.49 62.4 290.488 62.4C290.486 62.4 290.485 62.4 290.483 62.4C290.481 62.4 290.479 62.4 290.477 62.4C290.475 62.4 290.474 62.4 290.472 62.4C290.47 62.4 290.468 62.4 290.466 62.4C290.465 62.4 290.463 62.4 290.461 62.4C290.459 62.4 290.457 62.4 290.455 62.4C290.454 62.4 290.452 62.4 290.45 62.4C290.448 62.4 290.446 62.4 290.444 62.4C290.443 62.4 290.441 62.4 290.439 62.4C290.437 62.4 290.435 62.4 290.434 62.4C290.432 62.4 290.43 62.4 290.428 62.4C290.426 62.4 290.424 62.4 290.423 62.4C290.421 62.4 290.419 62.4 290.417 62.4C290.415 62.4 290.413 62.4 290.412 62.4C290.41 62.4 290.408 62.4 290.406 62.4C290.404 62.4 290.403 62.4 290.401 62.4C290.399 62.4 290.397 62.4 290.395 62.4C290.393 62.4 290.392 62.4 290.39 62.4C290.388 62.4 290.386 62.4 290.384 62.4C290.382 62.4 290.381 62.4 290.379 62.4C290.377 62.4 290.375 62.4 290.373 62.4C290.372 62.4 290.37 62.4 290.368 62.4C290.366 62.4 290.364 62.4 290.362 62.4C290.361 62.4 290.359 62.4 290.357 62.4C290.355 62.4 290.353 62.4 290.352 62.4C290.35 62.4 290.348 62.4 290.346 62.4C290.344 62.4 290.342 62.4 290.341 62.4C290.339 62.4 290.337 62.4 290.335 62.4C290.333 62.4 290.331 62.4 290.33 62.4C290.328 62.4 290.326 62.4 290.324 62.4C290.322 62.4 290.321 62.4 290.319 62.4C290.317 62.4 290.315 62.4 290.313 62.4C290.311 62.4 290.31 62.4 290.308 62.4C290.306 62.4 290.304 62.4 290.302 62.4C290.3 62.4 290.299 62.4 290.297 62.4C290.295 62.4 290.293 62.4 290.291 62.4C290.29 62.4 290.288 62.4 290.286 62.4C290.284 62.4 290.282 62.4 290.28 62.4C290.279 62.4 290.277 62.4 290.275 62.4C290.273 62.4 290.271 62.4 290.269 62.4C290.268 62.4 290.266 62.4 290.264 62.4C290.262 62.4 290.26 62.4 290.259 62.4C290.257 62.4 290.255 62.4 290.253 62.4C290.251 62.4 290.249 62.4 290.248 62.4C290.246 62.4 290.244 62.4 290.242 62.4C290.24 62.4 290.238 62.4 290.237 62.4C290.235 62.4 290.233 62.4 290.231 62.4C290.229 62.4 290.228 62.4 290.226 62.4C290.224 62.4 290.222 62.4 290.22 62.4C290.218 62.4 290.217 62.4 290.215 62.4C290.213 62.4 290.211 62.4 290.209 62.4C290.207 62.4 290.206 62.4 290.204 62.4C290.202 62.4 290.2 62.4 290.198 62.4C290.197 62.4 290.195 62.4 290.193 62.4C290.191 62.4 290.189 62.4 290.187 62.4C290.186 62.4 290.184 62.4 290.182 62.4C290.18 62.4 290.178 62.4 290.177 62.4C290.175 62.4 290.173 62.4 290.171 62.4C290.169 62.4 290.167 62.4 290.166 62.4C290.164 62.4 290.162 62.4 290.16 62.4C290.158 62.4 290.156 62.4 290.155 62.4C290.153 62.4 290.151 62.4 290.149 62.4C290.147 62.4 290.146 62.4 290.144 62.4C290.142 62.4 290.14 62.4 290.138 62.4C290.136 62.4 290.135 62.4 290.133 62.4C290.131 62.4 290.129 62.4 290.127 62.4C290.125 62.4 290.124 62.4 290.122 62.4C290.12 62.4 290.118 62.4 290.116 62.4C290.115 62.4 290.113 62.4 290.111 62.4C290.109 62.4 290.107 62.4 290.105 62.4C290.104 62.4 290.102 62.4 290.1 62.4C290.098 62.4 290.096 62.4 290.094 62.4C290.093 62.4 290.091 62.4 290.089 62.4C290.087 62.4 290.085 62.4 290.084 62.4C290.082 62.4 290.08 62.4 290.078 62.4C290.076 62.4 290.074 62.4 290.073 62.4C290.071 62.4 290.069 62.4 290.067 62.4C290.065 62.4 290.063 62.4 290.062 62.4C290.06 62.4 290.058 62.4 290.056 62.4C290.054 62.4 290.053 62.4 290.051 62.4C290.049 62.4 290.047 62.4 290.045 62.4C290.043 62.4 290.042 62.4 290.04 62.4C290.038 62.4 290.036 62.4 290.034 62.4C290.032 62.4 290.031 62.4 290.029 62.4C290.027 62.4 290.025 62.4 290.023 62.4C290.022 62.4 290.02 62.4 290.018 62.4C290.016 62.4 290.014 62.4 290.012 62.4C290.011 62.4 290.009 62.4 290.007 62.4C290.005 62.4 290.003 62.4 290.002 62.4C290 62.4 289.998 62.4 289.996 62.4C289.994 62.4 289.992 62.4 289.991 62.4C289.989 62.4 289.987 62.4 289.985 62.4C289.983 62.4 289.981 62.4 289.98 62.4C289.978 62.4 289.976 62.4 289.974 62.4C289.972 62.4 289.971 62.4 289.969 62.4C289.967 62.4 289.965 62.4 289.963 62.4C289.961 62.4 289.96 62.4 289.958 62.4C289.956 62.4 289.954 62.4 289.952 62.4C289.95 62.4 289.949 62.4 289.947 62.4C289.945 62.4 289.943 62.4 289.941 62.4C289.94 62.4 289.938 62.4 289.936 62.4C289.934 62.4 289.932 62.4 289.93 62.4C289.929 62.4 289.927 62.4 289.925 62.4C289.923 62.4 289.921 62.4 289.919 62.4C289.918 62.4 289.916 62.4 289.914 62.4C289.912 62.4 289.91 62.4 289.909 62.4C289.907 62.4 289.905 62.4 289.903 62.4C289.901 62.4 289.899 62.4 289.898 62.4C289.896 62.4 289.894 62.4 289.892 62.4C289.89 62.4 289.888 62.4 289.887 62.4C289.885 62.4 289.883 62.4 289.881 62.4C289.879 62.4 289.878 62.4 289.876 62.4C289.874 62.4 289.872 62.4 289.87 62.4C289.868 62.4 289.867 62.4 289.865 62.4C289.863 62.4 289.861 62.4 289.859 62.4C289.857 62.4 289.856 62.4 289.854 62.4C289.852 62.4 289.85 62.4 289.848 62.4C289.847 62.4 289.845 62.4 289.843 62.4C289.841 62.4 289.839 62.4 289.837 62.4C289.836 62.4 289.834 62.4 289.832 62.4C289.83 62.4 289.828 62.4 289.827 62.4C289.825 62.4 289.823 62.4 289.821 62.4C289.819 62.4 289.817 62.4 289.816 62.4C289.814 62.4 289.812 62.4 289.81 62.4C289.808 62.4 289.806 62.4 289.805 62.4C289.803 62.4 289.801 62.4 289.799 62.4C289.797 62.4 289.796 62.4 289.794 62.4C289.792 62.4 289.79 62.4 289.788 62.4C289.786 62.4 289.785 62.4 289.783 62.4C289.781 62.4 289.779 62.4 289.777 62.4C289.775 62.4 289.774 62.4 289.772 62.4C289.77 62.4 289.768 62.4 289.766 62.4C289.765 62.4 289.763 62.4 289.761 62.4C289.759 62.4 289.757 62.4 289.755 62.4C289.754 62.4 289.752 62.4 289.75 62.4C289.748 62.4 289.746 62.4 289.744 62.4C289.743 62.4 289.741 62.4 289.739 62.4C289.737 62.4 289.735 62.4 289.734 62.4C289.732 62.4 289.73 62.4 289.728 62.4C289.726 62.4 289.724 62.4 289.723 62.4C289.721 62.4 289.719 62.4 289.717 62.4C289.715 62.4 289.713 62.4 289.712 62.4C289.71 62.4 289.708 62.4 289.706 62.4C289.704 62.4 289.703 62.4 289.701 62.4C289.699 62.4 289.697 62.4 289.695 62.4C289.693 62.4 289.692 62.4 289.69 62.4C289.688 62.4 289.686 62.4 289.684 62.4C289.682 62.4 289.681 62.4 289.679 62.4C289.677 62.4 289.675 62.4 289.673 62.4C289.672 62.4 289.67 62.4 289.668 62.4C289.666 62.4 289.664 62.4 289.662 62.4C289.661 62.4 289.659 62.4 289.657 62.4C289.655 62.4 289.653 62.4 289.652 62.4C289.65 62.4 289.648 62.4 289.646 62.4C289.644 62.4 289.642 62.4 289.641 62.4C289.639 62.4 289.637 62.4 289.635 62.4C289.633 62.4 289.631 62.4 289.63 62.4C289.628 62.4 289.626 62.4 289.624 62.4C289.622 62.4 289.621 62.4 289.619 62.4C289.617 62.4 289.615 62.4 289.613 62.4C289.611 62.4 289.61 62.4 289.608 62.4C289.606 62.4 289.604 62.4 289.602 62.4C289.6 62.4 289.599 62.4 289.597 62.4C289.595 62.4 289.593 62.4 289.591 62.4C289.59 62.4 289.588 62.4 289.586 62.4C289.584 62.4 289.582 62.4 289.58 62.4C289.579 62.4 289.577 62.4 289.575 62.4C289.573 62.4 289.571 62.4 289.569 62.4C289.568 62.4 289.566 62.4 289.564 62.4C289.562 62.4 289.56 62.4 289.559 62.4C289.557 62.4 289.555 62.4 289.553 62.4C289.551 62.4 289.549 62.4 289.548 62.4C289.546 62.4 289.544 62.4 289.542 62.4C289.54 62.4 289.538 62.4 289.537 62.4C289.535 62.4 289.533 62.4 289.531 62.4C289.529 62.4 289.528 62.4 289.526 62.4C289.524 62.4 289.522 62.4 289.52 62.4C289.518 62.4 289.517 62.4 289.515 62.4C289.513 62.4 289.511 62.4 289.509 62.4C289.507 62.4 289.506 62.4 289.504 62.4C289.502 62.4 289.5 62.4 289.498 62.4C289.497 62.4 289.495 62.4 289.493 62.4C289.491 62.4 289.489 62.4 289.487 62.4C289.486 62.4 289.484 62.4 289.482 62.4C289.48 62.4 289.478 62.4 289.477 62.4C289.475 62.4 289.473 62.4 289.471 62.4C289.469 62.4 289.467 62.4 289.466 62.4C289.464 62.4 289.462 62.4 289.46 62.4C289.458 62.4 289.456 62.4 289.455 62.4C289.453 62.4 289.451 62.4 289.449 62.4C289.447 62.4 289.446 62.4 289.444 62.4C289.442 62.4 289.44 62.4 289.438 62.4C289.436 62.4 289.435 62.4 289.433 62.4C289.431 62.4 289.429 62.4 289.427 62.4C289.425 62.4 289.424 62.4 289.422 62.4C289.42 62.4 289.418 62.4 289.416 62.4C289.415 62.4 289.413 62.4 289.411 62.4C289.409 62.4 289.407 62.4 289.405 62.4C289.404 62.4 289.402 62.4 289.4 62.4C289.398 62.4 289.396 62.4 289.394 62.4C289.393 62.4 289.391 62.4 289.389 62.4C289.387 62.4 289.385 62.4 289.384 62.4C289.382 62.4 289.38 62.4 289.378 62.4C289.376 62.4 289.374 62.4 289.373 62.4C289.371 62.4 289.369 62.4 289.367 62.4C289.365 62.4 289.363 62.4 289.362 62.4C289.36 62.4 289.358 62.4 289.356 62.4C289.354 62.4 289.353 62.4 289.351 62.4C289.349 62.4 289.347 62.4 289.345 62.4C289.343 62.4 289.342 62.4 289.34 62.4C289.338 62.4 289.336 62.4 289.334 62.4C289.332 62.4 289.331 62.4 289.329 62.4C289.327 62.4 289.325 62.4 289.323 62.4C289.322 62.4 289.32 62.4 289.318 62.4C289.316 62.4 289.314 62.4 289.312 62.4C289.311 62.4 289.309 62.4 289.307 62.4C289.305 62.4 289.303 62.4 289.302 62.4C289.3 62.4 289.298 62.4 289.296 62.4C289.294 62.4 289.292 62.4 289.291 62.4C289.289 62.4 289.287 62.4 289.285 62.4C289.283 62.4 289.281 62.4 289.28 62.4C289.278 62.4 289.276 62.4 289.274 62.4C289.272 62.4 289.271 62.4 289.269 62.4C289.267 62.4 289.265 62.4 289.263 62.4C289.261 62.4 289.26 62.4 289.258 62.4C289.256 62.4 289.254 62.4 289.252 62.4C289.25 62.4 289.249 62.4 289.247 62.4C289.245 62.4 289.243 62.4 289.241 62.4C289.24 62.4 289.238 62.4 289.236 62.4C289.234 62.4 289.232 62.4 289.23 62.4C289.229 62.4 289.227 62.4 289.225 62.4C289.223 62.4 289.221 62.4 289.219 62.4C289.218 62.4 289.216 62.4 289.214 62.4C289.212 62.4 289.21 62.4 289.209 62.4C289.207 62.4 289.205 62.4 289.203 62.4C289.201 62.4 289.199 62.4 289.198 62.4C289.196 62.4 289.194 62.4 289.192 62.4C289.19 62.4 289.188 62.4 289.187 62.4C289.185 62.4 289.183 62.4 289.181 62.4C289.179 62.4 289.178 62.4 289.176 62.4C289.174 62.4 289.172 62.4 289.17 62.4C289.168 62.4 289.167 62.4 289.165 62.4C289.163 62.4 289.161 62.4 289.159 62.4C289.157 62.4 289.156 62.4 289.154 62.4C289.152 62.4 289.15 62.4 289.148 62.4C289.147 62.4 289.145 62.4 289.143 62.4C289.141 62.4 289.139 62.4 289.137 62.4C289.136 62.4 289.134 62.4 289.132 62.4C289.13 62.4 289.128 62.4 289.127 62.4C289.125 62.4 289.123 62.4 289.121 62.4C289.119 62.4 289.117 62.4 289.116 62.4C289.114 62.4 289.112 62.4 289.11 62.4C289.108 62.4 289.106 62.4 289.105 62.4C289.103 62.4 289.101 62.4 289.099 62.4C289.097 62.4 289.096 62.4 289.094 62.4C289.092 62.4 289.09 62.4 289.088 62.4C289.086 62.4 289.085 62.4 289.083 62.4C289.081 62.4 289.079 62.4 289.077 62.4C289.075 62.4 289.074 62.4 289.072 62.4C289.07 62.4 289.068 62.4 289.066 62.4C289.065 62.4 289.063 62.4 289.061 62.4C289.059 62.4 289.057 62.4 289.055 62.4C289.054 62.4 289.052 62.4 289.05 62.4C289.048 62.4 289.046 62.4 289.044 62.4C289.043 62.4 289.041 62.4 289.039 62.4C289.037 62.4 289.035 62.4 289.034 62.4C289.032 62.4 289.03 62.4 289.028 62.4C289.026 62.4 289.024 62.4 289.023 62.4C289.021 62.4 289.019 62.4 289.017 62.4C289.015 62.4 289.013 62.4 289.012 62.4C289.01 62.4 289.008 62.4 289.006 62.4C289.004 62.4 289.003 62.4 289.001 62.4C288.999 62.4 288.997 62.4 288.995 62.4C288.993 62.4 288.992 62.4 288.99 62.4C288.988 62.4 288.986 62.4 288.984 62.4C288.982 62.4 288.981 62.4 288.979 62.4C288.977 62.4 288.975 62.4 288.973 62.4C288.972 62.4 288.97 62.4 288.968 62.4C288.966 62.4 288.964 62.4 288.962 62.4C288.961 62.4 288.959 62.4 288.957 62.4C288.955 62.4 288.953 62.4 288.952 62.4C288.95 62.4 288.948 62.4 288.946 62.4C288.944 62.4 288.942 62.4 288.941 62.4C288.939 62.4 288.937 62.4 288.935 62.4C288.933 62.4 288.931 62.4 288.93 62.4C288.928 62.4 288.926 62.4 288.924 62.4C288.922 62.4 288.921 62.4 288.919 62.4C288.917 62.4 288.915 62.4 288.913 62.4C288.911 62.4 288.91 62.4 288.908 62.4C288.906 62.4 288.904 62.4 288.902 62.4C288.9 62.4 288.899 62.4 288.897 62.4C288.895 62.4 288.893 62.4 288.891 62.4C288.89 62.4 288.888 62.4 288.886 62.4C288.884 62.4 288.882 62.4 288.88 62.4C288.879 62.4 288.877 62.4 288.875 62.4C288.873 62.4 288.871 62.4 288.869 62.4C288.868 62.4 288.866 62.4 288.864 62.4C288.862 62.4 288.86 62.4 288.859 62.4C288.857 62.4 288.855 62.4 288.853 62.4C288.851 62.4 288.849 62.4 288.848 62.4C288.846 62.4 288.844 62.4 288.842 62.4C288.84 62.4 288.838 62.4 288.837 62.4C288.835 62.4 288.833 62.4 288.831 62.4C288.829 62.4 288.828 62.4 288.826 62.4C288.824 62.4 288.822 62.4 288.82 62.4C288.818 62.4 288.817 62.4 288.815 62.4C288.813 62.4 288.811 62.4 288.809 62.4C288.807 62.4 288.806 62.4 288.804 62.4C288.802 62.4 288.8 62.4 288.798 62.4C288.797 62.4 288.795 62.4 288.793 62.4C288.791 62.4 288.789 62.4 288.787 62.4C288.786 62.4 288.784 62.4 288.782 62.4C288.78 62.4 288.778 62.4 288.777 62.4C288.775 62.4 288.773 62.4 288.771 62.4C288.769 62.4 288.767 62.4 288.766 62.4C288.764 62.4 288.762 62.4 288.76 62.4C288.758 62.4 288.756 62.4 288.755 62.4C288.753 62.4 288.751 62.4 288.749 62.4C288.747 62.4 288.746 62.4 288.744 62.4C288.742 62.4 288.74 62.4 288.738 62.4C288.736 62.4 288.735 62.4 288.733 62.4C288.731 62.4 288.729 62.4 288.727 62.4C288.725 62.4 288.724 62.4 288.722 62.4C288.72 62.4 288.718 62.4 288.716 62.4C288.715 62.4 288.713 62.4 288.711 62.4C288.709 62.4 288.707 62.4 288.705 62.4C288.704 62.4 288.702 62.4 288.7 62.4C288.698 62.4 288.696 62.4 288.694 62.4C288.693 62.4 288.691 62.4 288.689 62.4C288.687 62.4 288.685 62.4 288.684 62.4C288.682 62.4 288.68 62.4 288.678 62.4C288.676 62.4 288.674 62.4 288.673 62.4C288.671 62.4 288.669 62.4 288.667 62.4C288.665 62.4 288.663 62.4 288.662 62.4C288.66 62.4 288.658 62.4 288.656 62.4C288.654 62.4 288.653 62.4 288.651 62.4C288.649 62.4 288.647 62.4 288.645 62.4C288.643 62.4 288.642 62.4 288.64 62.4C288.638 62.4 288.636 62.4 288.634 62.4C288.632 62.4 288.631 62.4 288.629 62.4C288.627 62.4 288.625 62.4 288.623 62.4C288.622 62.4 288.62 62.4 288.618 62.4C288.616 62.4 288.614 62.4 288.612 62.4C288.611 62.4 288.609 62.4 288.607 62.4C288.605 62.4 288.603 62.4 288.602 62.4C288.6 62.4 288.598 62.4 288.596 62.4C288.594 62.4 288.592 62.4 288.591 62.4C288.589 62.4 288.587 62.4 288.585 62.4C288.583 62.4 288.581 62.4 288.58 62.4C288.578 62.4 288.576 62.4 288.574 62.4C288.572 62.4 288.571 62.4 288.569 62.4C288.567 62.4 288.565 62.4 288.563 62.4C288.561 62.4 288.56 62.4 288.558 62.4C288.556 62.4 288.554 62.4 288.552 62.4C288.55 62.4 288.549 62.4 288.547 62.4C288.545 62.4 288.543 62.4 288.541 62.4C288.54 62.4 288.538 62.4 288.536 62.4C288.534 62.4 288.532 62.4 288.53 62.4C288.529 62.4 288.527 62.4 288.525 62.4C288.523 62.4 288.521 62.4 288.519 62.4C288.518 62.4 288.516 62.4 288.514 62.4C288.512 62.4 288.51 62.4 288.509 62.4C288.507 62.4 288.505 62.4 288.503 62.4C288.501 62.4 288.499 62.4 288.498 62.4C288.496 62.4 288.494 62.4 288.492 62.4C288.49 62.4 288.488 62.4 288.487 62.4C288.485 62.4 288.483 62.4 288.481 62.4C288.479 62.4 288.478 62.4 288.476 62.4C288.474 62.4 288.472 62.4 288.47 62.4C288.468 62.4 288.467 62.4 288.465 62.4C288.463 62.4 288.461 62.4 288.459 62.4C288.457 62.4 288.456 62.4 288.454 62.4C288.452 62.4 288.45 62.4 288.448 62.4C288.447 62.4 288.445 62.4 288.443 62.4C288.441 62.4 288.439 62.4 288.437 62.4C288.436 62.4 288.434 62.4 288.432 62.4C288.43 62.4 288.428 62.4 288.427 62.4C288.425 62.4 288.423 62.4 288.421 62.4C288.419 62.4 288.417 62.4 288.416 62.4C288.414 62.4 288.412 62.4 288.41 62.4C288.408 62.4 288.406 62.4 288.405 62.4C288.403 62.4 288.401 62.4 288.399 62.4C288.397 62.4 288.396 62.4 288.394 62.4C288.392 62.4 288.39 62.4 288.388 62.4C288.386 62.4 288.385 62.4 288.383 62.4C288.381 62.4 288.379 62.4 288.377 62.4C288.375 62.4 288.374 62.4 288.372 62.4C288.37 62.4 288.368 62.4 288.366 62.4C288.365 62.4 288.363 62.4 288.361 62.4C288.359 62.4 288.357 62.4 288.355 62.4C288.354 62.4 288.352 62.4 288.35 62.4C288.348 62.4 288.346 62.4 288.344 62.4C288.343 62.4 288.341 62.4 288.339 62.4C288.337 62.4 288.335 62.4 288.334 62.4C288.332 62.4 288.33 62.4 288.328 62.4C288.326 62.4 288.324 62.4 288.323 62.4C288.321 62.4 288.319 62.4 288.317 62.4C288.315 62.4 288.313 62.4 288.312 62.4C288.31 62.4 288.308 62.4 288.306 62.4C288.304 62.4 288.303 62.4 288.301 62.4C288.299 62.4 288.297 62.4 288.295 62.4C288.293 62.4 288.292 62.4 288.29 62.4C288.288 62.4 288.286 62.4 288.284 62.4V64.4ZM291.084 64.4C297.07 64.4 302.236 63.3118 306.543 61.0886L305.626 59.3114C301.666 61.3549 296.832 62.4 291.084 62.4V64.4ZM306.543 61.0886C310.833 58.8743 314.116 55.8108 316.353 51.8961L314.616 50.9039C312.586 54.4558 309.602 57.259 305.626 59.3114L306.543 61.0886ZM316.339 51.919C318.707 48.0185 319.947 43.5111 320.084 38.427L318.085 38.373C317.955 43.1555 316.795 47.3148 314.63 50.881L316.339 51.919ZM320.084 38.4286C320.22 33.6624 319.609 29.4585 318.218 25.841L316.351 26.559C317.626 29.8748 318.215 33.8043 318.085 38.3714L320.084 38.4286ZM318.233 25.8838C316.973 22.1049 314.855 19.1217 311.866 16.9863L310.703 18.6137C313.313 20.4782 315.195 23.0951 316.336 26.5162L318.233 25.8838ZM311.884 17C308.992 14.8306 305.157 13.8 300.484 13.8V15.8C304.878 15.8 308.243 16.7694 310.684 18.6L311.884 17ZM300.484 13.8C296.716 13.8 293.272 14.7095 290.176 16.5391L291.193 18.2609C293.963 16.6239 297.053 15.8 300.484 15.8V13.8ZM290.176 16.5391C287.144 18.3303 284.972 20.3884 283.79 22.7528L285.579 23.6472C286.53 21.7449 288.358 19.9363 291.193 18.2609L290.176 16.5391ZM283.91 23.8332C284.999 25.1637 285.733 26.744 286.104 28.5961L288.065 28.2039C287.635 26.056 286.77 24.1696 285.458 22.5668L283.91 23.8332ZM286.123 28.6747C286.644 30.4999 286.884 31.9321 286.884 33H288.884C288.884 31.6679 288.591 30.0335 288.046 28.1253L286.123 28.6747ZM286.884 33C286.884 34.4141 286.469 36.1394 285.568 38.1992L287.4 39.0008C288.366 36.7939 288.884 34.7859 288.884 33H286.884ZM285.556 38.2286C284.835 40.0299 283.565 41.6204 281.693 42.9936L282.876 44.6064C285.003 43.0462 286.533 41.1701 287.413 38.9714L285.556 38.2286ZM281.693 42.9936C279.93 44.2866 277.509 44.9282 274.324 44.8008L274.244 46.7992C277.726 46.9385 280.639 46.2467 282.876 44.6064L281.693 42.9936ZM274.317 44.8005C270.425 44.675 267.598 43.3117 265.68 40.794L264.089 42.006C266.437 45.0883 269.877 46.6583 274.252 46.7995L274.317 44.8005ZM265.68 40.794C263.692 38.1854 262.684 35.0705 262.684 31.4H260.684C260.684 35.4628 261.81 39.0146 264.089 42.006L265.68 40.794ZM262.684 31.4C262.684 27.6555 264.122 23.4426 267.127 18.7384L265.442 17.6616C262.314 22.5574 260.684 27.1445 260.684 31.4H262.684ZM267.127 18.7384C270.081 14.115 274.602 10.155 280.754 6.88286L279.815 5.11712C273.433 8.51163 268.621 12.685 265.442 17.6616L267.127 18.7384ZM280.768 6.87502C286.849 3.51148 294.47 1.8 303.684 1.8V-0.200004C294.232 -0.200004 286.253 1.55517 279.8 5.12495L280.768 6.87502ZM303.684 1.8C311.86 1.8 319.216 2.92087 325.762 5.14676L326.406 3.25321C319.62 0.945782 312.042 -0.200004 303.684 -0.200004V1.8ZM325.768 5.14867C332.395 7.35776 337.55 10.9784 341.282 15.9967L342.887 14.8033C338.885 9.42161 333.373 5.57556 326.401 3.2513L325.768 5.14867ZM341.292 16.0097C345.12 20.9861 347.084 27.6831 347.084 36.2H349.084C349.084 27.3835 347.049 20.2139 342.877 14.7903L341.292 16.0097ZM347.084 36.2C347.084 39.4793 346.137 43.2682 344.174 47.5862L345.995 48.4138C348.032 43.9318 349.084 39.854 349.084 36.2H347.084ZM344.168 47.5992C342.377 51.6923 339.355 55.5045 335.051 59.026L336.318 60.574C340.813 56.8955 344.058 52.8411 346 48.4008L344.168 47.5992ZM335.051 59.026C330.8 62.5039 325.086 65.1175 317.854 66.8268L318.314 68.7732C325.749 67.0158 331.768 64.2961 336.318 60.574L335.051 59.026ZM317.91 68.7847C330.576 71.0277 339.73 75.5545 345.528 82.2544L347.04 80.9456C340.838 73.7788 331.192 69.1056 318.259 66.8153L317.91 68.7847ZM345.535 82.2626C351.522 89.0299 354.484 96.5323 354.484 104.8H356.484C356.484 96.0011 353.314 88.0368 347.033 80.9374L345.535 82.2626ZM354.484 104.8C354.484 113.687 352.201 121.206 347.676 127.411L349.292 128.589C354.101 121.994 356.484 114.047 356.484 104.8H354.484ZM347.674 127.414C343.264 133.51 337.09 138.202 329.105 141.475L329.864 143.325C338.145 139.931 344.638 135.024 349.295 128.586L347.674 127.414ZM329.113 141.472C321.253 144.616 312.183 146.2 301.884 146.2V148.2C312.386 148.2 321.716 146.584 329.856 143.328L329.113 141.472ZM403.198 140.8L402.67 141.649L402.682 141.656L403.198 140.8ZM386.198 123.6L385.338 124.11L385.342 124.117L386.198 123.6ZM376.798 100L375.821 100.214L375.823 100.221L375.825 100.228L376.798 100ZM377.398 49L376.435 48.7331L376.433 48.74L376.431 48.747L377.398 49ZM387.998 25.2L388.838 25.7439L388.842 25.7369L387.998 25.2ZM405.398 7.59999L405.934 8.4444L405.946 8.43696L405.398 7.59999ZM454.598 7.39999L454.055 8.2396L454.063 8.24432L454.598 7.39999ZM471.398 24.8L470.538 25.3098L470.542 25.3169L471.398 24.8ZM480.398 99L479.431 98.747L479.429 98.754L479.427 98.761L480.398 99ZM470.398 123L471.245 123.533L471.249 123.526L470.398 123ZM453.198 140.6L453.742 141.44L453.746 141.437L453.198 140.6ZM441.798 128.6L441.107 127.877L441.107 127.877L441.798 128.6ZM448.798 116.6L447.85 116.284L447.847 116.291L447.845 116.299L448.798 116.6ZM452.398 98.8L453.393 98.8995L453.393 98.8995L452.398 98.8ZM452.398 54.4L451.401 54.47L451.402 54.4795L451.402 54.4889L452.398 54.4ZM448.998 34.2L448.032 34.4577L448.036 34.4705L448.039 34.4833L448.998 34.2ZM441.798 20L441.049 20.6626L441.056 20.6705L441.064 20.6783L441.798 20ZM417.398 19.2L418.074 19.9372L418.074 19.9372L417.398 19.2ZM409.598 31.4L408.665 31.041L408.661 31.0515L408.657 31.0621L409.598 31.4ZM405.598 49.2L404.606 49.0808L404.606 49.0808L405.598 49.2ZM404.798 87.6L403.799 87.6454L403.8 87.6567L403.801 87.668L404.798 87.6ZM406.798 104.6L405.813 104.768L405.815 104.782L405.818 104.796L406.798 104.6ZM411.198 119L412.115 118.599L412.115 118.599L411.198 119ZM418.598 129.2L417.961 129.971L417.97 129.978L417.978 129.984L418.598 129.2ZM428.998 146.2C419.006 146.2 410.594 144.097 403.715 139.944L402.682 141.656C409.936 146.036 418.724 148.2 428.998 148.2V146.2ZM403.727 139.951C396.793 135.634 391.239 130.014 387.054 123.083L385.342 124.117C389.691 131.32 395.471 137.166 402.67 141.649L403.727 139.951ZM387.059 123.09C382.846 115.982 379.75 108.211 377.772 99.7718L375.825 100.228C377.847 108.856 381.017 116.818 385.338 124.11L387.059 123.09ZM377.775 99.7863C375.923 91.3204 374.998 82.9253 374.998 74.6H372.998C372.998 83.0747 373.94 91.613 375.821 100.214L377.775 99.7863ZM374.998 74.6C374.998 66.2909 376.119 57.8425 378.366 49.253L376.431 48.747C374.144 57.4908 372.998 66.1091 372.998 74.6H374.998ZM378.362 49.2669C380.736 40.6936 384.229 32.8544 388.838 25.7439L387.159 24.6561C382.435 31.9456 378.861 39.9731 376.435 48.7331L378.362 49.2669ZM388.842 25.7369C393.435 18.52 399.132 12.7611 405.934 8.44432L404.863 6.75566C397.798 11.2389 391.895 17.2134 387.155 24.6631L388.842 25.7369ZM405.946 8.43696C412.696 4.02311 420.634 1.8 429.798 1.8V-0.200004C420.296 -0.200004 411.967 2.11021 404.851 6.76302L405.946 8.43696ZM429.798 1.8C439.378 1.8 447.447 3.96378 454.055 8.23956L455.142 6.56042C448.15 2.03621 439.685 -0.200004 429.798 -0.200004V1.8ZM454.063 8.24432C460.86 12.5583 466.35 18.2426 470.538 25.3098L472.259 24.2902C467.913 16.9574 462.203 11.0417 455.134 6.55566L454.063 8.24432ZM470.542 25.3169C474.752 32.2887 477.847 39.9903 479.825 48.4282L481.772 47.9718C479.75 39.343 476.578 31.4447 472.254 24.2831L470.542 25.3169ZM479.825 48.4282C481.808 56.89 482.798 65.2801 482.798 73.6H484.798C484.798 65.1199 483.789 56.5767 481.772 47.9718L479.825 48.4282ZM482.798 73.6C482.798 81.7745 481.678 90.1561 479.431 98.747L481.366 99.253C483.652 90.5106 484.798 81.9588 484.798 73.6H482.798ZM479.427 98.761C477.318 107.33 474.024 115.233 469.548 122.474L471.249 123.526C475.839 116.101 479.212 108.003 481.369 99.239L479.427 98.761ZM469.552 122.467C465.093 129.549 459.461 135.311 452.651 139.763L453.746 141.437C460.803 136.823 466.637 130.851 471.245 123.533L469.552 122.467ZM452.655 139.76C446.04 144.04 438.169 146.2 428.998 146.2V148.2C438.494 148.2 446.756 145.96 453.742 141.44L452.655 139.76ZM430.198 134C435.095 134 439.218 132.452 442.49 129.323L441.107 127.877C438.246 130.614 434.636 132 430.198 132V134ZM442.49 129.323C445.705 126.247 448.114 122.088 449.752 116.901L447.845 116.299C446.283 121.245 444.025 125.086 441.107 127.877L442.49 129.323ZM449.747 116.916C451.508 111.632 452.721 105.624 453.393 98.8995L451.403 98.7005C450.742 105.309 449.555 111.168 447.85 116.284L449.747 116.916ZM453.393 98.8995C454.064 92.1968 454.398 85.1635 454.398 77.8H452.398C452.398 85.1032 452.066 92.0698 451.403 98.7005L453.393 98.8995ZM454.398 77.8C454.398 69.6394 454.064 61.8097 453.394 54.3111L451.402 54.4889C452.066 61.9237 452.398 69.6939 452.398 77.8H454.398ZM453.396 54.33C452.859 46.6745 451.716 39.8673 449.957 33.9166L448.039 34.4833C449.748 40.266 450.871 46.9255 451.401 54.47L453.396 54.33ZM449.965 33.9423C448.336 27.8332 445.873 22.9394 442.533 19.3217L441.064 20.6783C444.124 23.9939 446.461 28.5667 448.032 34.4577L449.965 33.9423ZM442.547 19.3374C439.266 15.6283 434.845 13.8 429.398 13.8V15.8C434.351 15.8 438.197 17.4383 441.049 20.6626L442.547 19.3374ZM429.398 13.8C424.377 13.8 420.127 15.342 416.723 18.4628L418.074 19.9372C421.07 17.1913 424.82 15.8 429.398 15.8V13.8ZM416.723 18.4628C413.381 21.5259 410.705 25.7363 408.665 31.041L410.532 31.759C412.491 26.6637 415.016 22.7407 418.074 19.9372L416.723 18.4628ZM408.657 31.0621C406.76 36.3461 405.413 42.3549 404.606 49.0808L406.591 49.3191C407.384 42.7117 408.703 36.8539 410.54 31.7379L408.657 31.0621ZM404.606 49.0808C403.8 55.7911 403.398 62.8979 403.398 70.4H405.398C405.398 62.9688 405.796 55.9422 406.591 49.3191L404.606 49.0808ZM403.398 70.4C403.398 76.0159 403.532 81.7643 403.799 87.6454L405.797 87.5546C405.531 81.7023 405.398 75.9841 405.398 70.4H403.398ZM403.801 87.668C404.203 93.5663 404.873 99.2665 405.813 104.768L407.784 104.432C406.857 99.0002 406.194 93.367 405.796 87.532L403.801 87.668ZM405.818 104.796C406.896 110.188 408.382 115.059 410.282 119.401L412.115 118.599C410.281 114.408 408.834 109.678 407.779 104.404L405.818 104.796ZM410.282 119.401C412.201 123.787 414.755 127.322 417.961 129.971L419.235 128.429C416.308 126.011 413.929 122.747 412.115 118.599L410.282 119.401ZM417.978 129.984C421.374 132.673 425.466 134 430.198 134V132C425.864 132 422.223 130.794 419.219 128.416L417.978 129.984Z" fill="black" mask="url(#path-1-outside-1_217_5730)"/>
</svg>
