<svg width="200" height="194" viewBox="0 0 200 194" fill="none" xmlns="http://www.w3.org/2000/svg">
<path fill-rule="evenodd" clip-rule="evenodd" d="M60.7872 135.617C54.2773 132.974 50.8615 129.643 47.867 123.209C45.4085 117.91 44.0912 112.166 41.8319 106.789C41.4949 105.985 40.2159 106.498 40.4227 107.318C42.7433 116.47 47.2849 138.833 60.7259 137.133C61.5761 137.033 61.4382 135.877 60.7872 135.617Z" fill="#333333"/>
<path fill-rule="evenodd" clip-rule="evenodd" d="M59.2096 183.307C59.3475 183.315 59.3628 183.093 59.2173 183.085C59.0794 183.085 59.0717 183.307 59.2096 183.307Z" fill="#333333"/>
<path fill-rule="evenodd" clip-rule="evenodd" d="M74.1672 180.313C70.1387 179.509 66.1868 181.707 62.2962 182.396C61.8367 182.473 61.9056 183.246 62.3728 183.216C66.3017 182.963 70.5753 182.465 74.2208 180.926C74.4812 180.818 74.4506 180.366 74.1672 180.313Z" fill="#333333"/>
<path fill-rule="evenodd" clip-rule="evenodd" d="M41.4567 79.7921C41.2958 80.198 41.0048 80.7341 40.6602 81.0022C40.6525 80.9869 40.6602 80.9869 40.6525 80.9716C40.4457 80.4431 40.3768 79.7921 40.3232 79.2254C40.3079 79.0645 40.2313 78.965 40.124 78.9037C40.5836 78.8041 41.0125 78.6357 41.4567 78.4365C41.5945 78.3753 41.6864 78.3829 41.7324 78.3829C41.8319 78.7046 41.6098 79.4015 41.4567 79.7921ZM39.5726 78.4748C39.4884 78.651 39.5726 78.7888 39.7105 78.8807C39.496 78.9344 39.3046 79.0799 39.2892 79.3249C39.228 80.2899 39.1361 82.3655 40.5836 82.4037C41.6175 82.4267 42.2608 81.1707 42.6284 80.3895C43.0114 79.5624 43.3943 78.268 42.7433 77.4715C41.8319 76.3534 40.0398 77.5098 39.5726 78.4748Z" fill="#333333"/>
<path fill-rule="evenodd" clip-rule="evenodd" d="M49.2917 51.4165C49.3836 51.3322 49.5368 51.225 49.6593 51.1408C49.6517 51.4165 49.5981 51.6845 49.5215 51.9373C49.4066 52.3355 49.1692 52.9329 48.8552 53.1397C48.8015 53.1014 48.7403 53.0554 48.702 52.9942C48.5182 52.7414 48.3956 52.4504 48.2884 52.1594C48.656 51.9756 48.9854 51.6845 49.2917 51.4165ZM49.0236 54.411C49.9733 54.3038 50.5018 53.1167 50.7545 52.3355C50.9919 51.6079 51.237 50.26 50.3716 49.8235C49.5061 49.3793 48.3267 50.237 47.8059 51.1408C47.4996 50.9876 47.04 51.2173 47.1166 51.6692C47.2775 52.6955 47.5991 54.5719 49.0236 54.411Z" fill="#333333"/>
<path fill-rule="evenodd" clip-rule="evenodd" d="M39.2509 47.4954C39.1896 47.4571 39.2509 47.6562 39.2279 47.8783C39.1973 48.1846 39.0441 48.5063 38.8986 48.7744C38.6459 49.2492 38.2246 49.9002 37.6732 49.9997C37.3439 50.0687 37.0222 48.4527 36.9456 47.9549C37.589 47.8859 38.799 47.1967 39.2509 47.4954ZM37.5813 51.2328C38.6459 51.34 39.5113 50.2908 39.9785 49.4636C40.4533 48.6212 40.8286 47.4571 40.1699 46.6069C39.3045 45.4964 37.1218 46.515 36.5627 47.4341C36.5397 47.4647 36.5397 47.4953 36.5321 47.5336C36.2946 47.5336 36.0419 47.6638 36.0419 47.9396C36.0419 49.0501 36.0649 51.0873 37.5813 51.2328Z" fill="#333333"/>
<path fill-rule="evenodd" clip-rule="evenodd" d="M45.7228 40.4802C46.1363 38.9254 43.7928 38.106 42.9273 39.3007C42.8125 39.4539 42.9273 39.63 43.0729 39.699C43.3562 39.8292 44.574 39.7909 44.5816 40.1815C44.6046 40.909 42.8201 39.8062 42.6823 39.7066C42.2457 39.385 41.656 40.0819 42.0696 40.4419C42.9886 41.246 45.2173 42.3795 45.7228 40.4802Z" fill="#333333"/>
<path fill-rule="evenodd" clip-rule="evenodd" d="M62.25 102.11C64.1341 98.602 64.5936 94.4356 64.9765 90.5297C65.0072 90.1774 64.4098 90.0702 64.3485 90.4225C63.6516 94.2901 62.319 98.0965 61.9054 102.002C61.8824 102.186 62.1658 102.27 62.25 102.11Z" fill="#333333"/>
<path fill-rule="evenodd" clip-rule="evenodd" d="M66.2019 93.2715C65.3059 96.7639 64.4557 100.256 63.4754 103.733C63.3835 104.063 63.8507 104.308 64.0345 104.001C65.9032 100.815 66.3321 97.1009 67.0903 93.5472C67.2129 92.9728 66.3551 92.6741 66.2019 93.2715Z" fill="#333333"/>
<path fill-rule="evenodd" clip-rule="evenodd" d="M68.2317 99.4441C68.3083 98.977 67.5041 98.8391 67.4122 99.2986C66.9144 101.887 66.2634 104.468 65.9111 107.08C65.8881 107.264 66.1792 107.356 66.2634 107.187C67.5041 104.805 67.7798 102.056 68.2317 99.4441Z" fill="#333333"/>
<path fill-rule="evenodd" clip-rule="evenodd" d="M69.5488 97.3841C69.5488 97.0624 69.0817 97.0471 69.051 97.3687C68.4536 104.269 67.6342 110.848 65.819 117.549C65.7501 117.795 66.0948 117.978 66.225 117.741C69.6025 111.629 69.5871 104.185 69.5488 97.3841Z" fill="#333333"/>
<path fill-rule="evenodd" clip-rule="evenodd" d="M71.0577 122.558C73.1332 118.323 74.3203 113.536 74.2131 108.811C74.1978 108.244 73.317 108.198 73.317 108.773C73.3017 113.529 71.4483 117.71 70.4297 122.267C70.3455 122.627 70.8739 122.941 71.0577 122.558Z" fill="#333333"/>
<path fill-rule="evenodd" clip-rule="evenodd" d="M68.4845 130.631C71.2263 129.061 72.2526 125.063 72.9878 122.237C73.141 121.647 72.2449 121.348 72.0764 121.946C71.6245 123.546 71.1038 125.101 70.3762 126.602C69.7405 127.896 68.8138 128.961 68.0786 130.186C67.9254 130.447 68.2088 130.784 68.4845 130.631Z" fill="#333333"/>
<path fill-rule="evenodd" clip-rule="evenodd" d="M68.3923 133.472C70.4525 132.453 71.6472 130.255 72.4438 128.195C72.6888 127.559 71.6855 127.245 71.4405 127.873C70.6516 129.895 69.4109 131.304 67.9864 132.898C67.726 133.189 68.017 133.656 68.3923 133.472Z" fill="#333333"/>
<path fill-rule="evenodd" clip-rule="evenodd" d="M181.55 77.073C181.925 76.2535 182.27 75.3881 183.411 75.748C184.606 76.131 185.127 77.4789 184.805 78.6201C184.721 78.9264 184.56 79.317 184.338 79.631C183.771 79.608 183.197 79.5927 182.607 79.5774C182.492 79.4395 182.393 79.3017 182.324 79.1945C181.918 78.5894 181.65 77.8389 181.55 77.073ZM188.458 82.0665C190.235 82.2656 196.439 84.5939 191.759 85.5052C183.924 87.0217 173.6 85.8499 165.329 83.9276C169.526 82.84 173.999 82.3652 178.226 81.9899C181.634 81.6989 185.058 81.6759 188.458 82.0665ZM176.074 140.028C175.76 150.336 173.838 160.384 172.513 170.578C171.885 170.869 171.701 171.873 172.49 172.164C177.353 173.979 182.14 175.105 186.299 178.153C176.442 181.247 160.55 179.616 151.589 174.316C156.391 172.753 161.17 172.669 166.302 173.044C166.462 173.32 166.692 173.573 167.022 173.78C168.14 174.446 170.169 174.568 171.196 173.688C171.517 173.42 171.402 172.899 170.973 172.83C170.039 172.684 168.071 173.129 167.42 172.393C167.542 172.087 167.558 171.735 167.404 171.451C167.841 171.987 168.844 171.957 168.875 171.099C169.243 160.109 171.226 149.524 174.305 138.963C174.466 138.404 174.228 137.73 173.562 137.661C157.877 136.229 159.807 111.507 160.512 100.601C160.833 95.5228 161.553 90.5294 162.419 85.5742C168.883 87.2668 175.952 87.6573 182.584 87.9331C185.985 88.0786 194.164 89.2427 196.109 85.398C198.269 81.1091 188.788 79.922 185.747 79.6923C185.839 79.5085 185.931 79.3247 186 79.1255C186.651 77.2951 185.739 75.2426 183.932 74.5227C183.227 74.2546 182.484 74.3388 181.849 74.6452C181.895 74.1244 181.121 73.8563 180.83 74.4001C179.988 75.9702 180.218 78.0227 181.098 79.5851C175.071 79.631 168.293 80.3816 162.932 82.7022C164.081 76.4833 165.406 70.3104 166.462 64.0455C166.654 64.1068 166.861 64.1068 167.083 64.0072C167.129 63.9766 167.182 63.9689 167.228 63.9383C174.818 69.7896 187.853 71.7196 197.005 68.2808C196.171 79.5927 196.714 91.0042 195.504 102.339C195.451 102.86 195.397 103.411 195.328 103.986C195.328 103.986 195.328 103.986 195.32 103.993C192.724 109.768 189.117 114.624 184.981 119.38C184.813 119.571 185.088 119.824 185.28 119.686C189.86 116.5 192.778 111.537 195.052 106.505C193.613 118.622 190.181 138.128 177.031 139.07C176.572 139.109 176.089 139.56 176.074 140.028ZM181.535 61.1735C181.627 62.1921 182.086 63.1571 183.013 63.7315C184.79 64.8497 187.018 63.2873 187.8 61.6637C187.815 61.633 187.823 61.6024 187.83 61.5718C191.675 62.1691 195.083 63.4788 197.189 65.7687C197.189 65.8377 197.182 65.8989 197.182 65.9602C188.673 69.7053 177.284 67.6834 169.273 63.1495C172.574 62.016 177.047 61.2501 181.535 61.1735ZM186.536 61.4033C186.015 62.3453 184.774 63.0882 183.84 62.7742C183.174 62.5444 182.821 61.8934 182.676 61.1735C183.986 61.1812 185.28 61.2578 186.536 61.4033ZM183.074 139.645C189.638 135.394 192.326 127.529 194.325 120.352C198.813 104.223 200.85 84.3181 199.035 67.3924C199.142 67.3388 199.257 67.3005 199.364 67.2392C199.992 66.9099 200.184 66.2589 199.808 65.6539C197.442 61.8245 192.586 60.4689 188.052 59.8639C187.601 57.0531 183.365 54.8091 181.228 57.191C180.907 57.5509 181.359 58.0488 181.765 57.9032C182.883 57.505 183.779 57.3212 184.905 57.819C185.701 58.1713 186.337 58.8682 186.62 59.6877C185.686 59.5882 184.774 59.5116 183.917 59.4503C183.541 59.4197 183.135 59.4044 182.737 59.3814C182.852 58.8453 182.109 58.5159 181.879 59.0674C181.841 59.1516 181.818 59.2359 181.788 59.3201C176.878 59.098 171.219 59.4273 167.037 61.8858C166.784 61.8551 166.577 61.9777 166.409 62.1385C165.988 61.7632 165.214 61.7556 164.984 62.4066C158.88 79.4855 156.943 101.037 158.459 118.997C159.026 125.736 160.856 133.28 166.485 137.577C170.529 140.663 172.651 137.661 170.828 144.332C168.507 152.81 167.336 161.725 167.213 170.509C166.96 170.234 166.478 170.172 166.286 170.624C166.248 170.708 166.24 170.808 166.202 170.9C160.213 170.157 154.323 170.647 148.725 173.006C147.982 173.32 147.768 174.4 148.457 174.905C158.314 182.051 177.652 183.805 188.933 179.539C189.753 179.233 189.776 178.206 189.194 177.67C185.234 174.025 179.949 171.566 174.588 170.724C175.354 162.858 176.94 155.115 177.912 147.28C178.724 140.771 178.709 142.463 183.074 139.645Z" fill="#333333"/>
<path fill-rule="evenodd" clip-rule="evenodd" d="M164.953 116.853C164.532 111.247 165.29 105.625 165.076 100.004C165.045 99.1687 163.713 99.1917 163.629 100.011C162.618 109.056 159.141 130.746 171.839 133.771C172.635 133.962 172.903 132.882 172.413 132.415C167.435 127.835 165.474 123.677 164.953 116.853Z" fill="#333333"/>
<path fill-rule="evenodd" clip-rule="evenodd" d="M154.836 174.898C154.959 174.944 155.043 174.752 154.913 174.699C154.79 174.645 154.706 174.837 154.836 174.898Z" fill="#333333"/>
<path fill-rule="evenodd" clip-rule="evenodd" d="M157.923 175.12C157.486 175.036 157.287 175.748 157.716 175.878C161.346 176.981 165.367 177.984 169.181 177.831C169.442 177.816 169.572 177.402 169.334 177.257C165.972 175.166 161.668 175.809 157.923 175.12Z" fill="#333333"/>
<path fill-rule="evenodd" clip-rule="evenodd" d="M173.884 75.5262C173.593 75.8402 173.148 76.2308 172.75 76.3534C172.75 76.338 172.75 76.338 172.75 76.3304C172.75 75.779 172.903 75.1663 173.049 74.6378C173.087 74.4923 173.049 74.3774 172.972 74.2855C173.432 74.3468 173.868 74.3391 174.335 74.3161C174.481 74.3085 174.565 74.3391 174.604 74.3544C174.581 74.6838 174.152 75.2275 173.884 75.5262ZM172.62 73.7111C172.49 73.8413 172.513 73.9945 172.612 74.117C172.405 74.1017 172.176 74.163 172.084 74.3774C171.701 75.2275 170.912 77.0656 172.214 77.5941C173.133 77.9617 174.136 77.0503 174.734 76.4682C175.354 75.8555 176.143 74.814 175.829 73.8796C175.377 72.5623 173.37 72.9912 172.62 73.7111Z" fill="#333333"/>
<path fill-rule="evenodd" clip-rule="evenodd" d="M190.549 52.5961C190.672 52.5502 190.832 52.5119 190.978 52.4812C190.878 52.7187 190.74 52.9408 190.587 53.1475C190.342 53.4692 189.936 53.9211 189.576 54.0053C189.538 53.9517 189.5 53.8904 189.484 53.8215C189.408 53.5305 189.393 53.2318 189.4 52.9331C189.791 52.8948 190.181 52.7416 190.549 52.5961ZM188.504 52.0906C188.297 53.0633 187.96 54.8784 189.293 55.2077C190.189 55.4298 191.07 54.5414 191.56 53.9211C192.019 53.3467 192.701 52.2132 192.073 51.5316C191.437 50.8346 190.082 51.2099 189.308 51.8456C189.079 51.6081 188.596 51.6541 188.504 52.0906Z" fill="#333333"/>
<path fill-rule="evenodd" clip-rule="evenodd" d="M180.593 45.2973C181.198 45.4505 182.523 45.2437 182.829 45.6649C182.783 45.6113 182.775 45.8104 182.676 46.0019C182.546 46.2623 182.3 46.4997 182.071 46.6989C181.688 47.0358 181.09 47.48 180.562 47.3881C180.233 47.3345 180.493 45.7721 180.593 45.2973ZM180.056 48.468C180.983 48.9275 182.109 48.2689 182.814 47.6868C183.534 47.0894 184.269 46.1627 183.962 45.1748C183.557 43.8728 181.236 44.0643 180.424 44.6999C180.393 44.7152 180.378 44.7459 180.363 44.7765C180.148 44.6923 179.88 44.7306 179.788 44.9833C179.405 45.9866 178.732 47.8247 180.056 48.468Z" fill="#333333"/>
<path fill-rule="evenodd" clip-rule="evenodd" d="M191.039 41.5292C191.935 40.2655 190.105 38.7338 188.918 39.515C188.764 39.6222 188.803 39.8137 188.91 39.9286C189.117 40.1353 190.235 40.5183 190.112 40.8706C189.883 41.5369 188.642 39.9362 188.558 39.806C188.274 39.3618 187.501 39.7984 187.753 40.2579C188.313 41.2918 189.936 43.0686 191.039 41.5292Z" fill="#333333"/>
<path fill-rule="evenodd" clip-rule="evenodd" d="M185.073 102.699C187.96 100.18 189.783 96.5723 191.445 93.1872C191.598 92.8808 191.1 92.5745 190.924 92.8732C188.987 96.1281 186.49 99.1074 184.797 102.493C184.721 102.646 184.935 102.822 185.073 102.699Z" fill="#333333"/>
<path fill-rule="evenodd" clip-rule="evenodd" d="M186.046 105.005C188.803 102.776 190.449 99.5672 192.341 96.6262C192.648 96.1437 191.966 95.5846 191.629 96.0671C189.638 98.9162 187.692 101.781 185.632 104.584C185.433 104.852 185.77 105.227 186.046 105.005Z" fill="#333333"/>
<path fill-rule="evenodd" clip-rule="evenodd" d="M190.679 101.911C189.354 104.078 187.891 106.184 186.697 108.42C186.605 108.581 186.842 108.757 186.972 108.643C188.902 106.912 190.082 104.522 191.368 102.324C191.598 101.926 190.917 101.535 190.679 101.911Z" fill="#333333"/>
<path fill-rule="evenodd" clip-rule="evenodd" d="M183.365 118.147C188.473 113.774 190.985 107.057 193.252 100.915C193.36 100.624 192.946 100.448 192.808 100.731C189.936 106.751 186.965 112.403 183.059 117.833C182.921 118.032 183.166 118.316 183.365 118.147Z" fill="#333333"/>
<path fill-rule="evenodd" clip-rule="evenodd" d="M186.091 124.128C189.4 121.004 192.088 117.098 193.589 112.793C193.766 112.273 192.992 111.936 192.793 112.464C191.169 116.745 188.083 119.885 185.624 123.653C185.425 123.945 185.793 124.412 186.091 124.128Z" fill="#333333"/>
<path fill-rule="evenodd" clip-rule="evenodd" d="M181.037 130.531C184.039 130.049 186.321 126.786 187.937 124.488C188.282 124.006 187.57 123.439 187.217 123.914C186.268 125.208 185.272 126.441 184.108 127.536C183.097 128.486 181.895 129.137 180.822 129.995C180.593 130.171 180.738 130.577 181.037 130.531Z" fill="#333333"/>
<path fill-rule="evenodd" clip-rule="evenodd" d="M184.629 129.053C183.235 130.608 181.642 131.458 179.819 132.407C179.482 132.583 179.589 133.104 179.988 133.058C182.186 132.844 184.008 131.266 185.433 129.673C185.869 129.191 185.073 128.563 184.629 129.053Z" fill="#333333"/>
<path fill-rule="evenodd" clip-rule="evenodd" d="M140.446 187.091C140.415 187.19 140.415 187.282 140.415 187.366C132.281 189.855 124.316 190.729 115.662 191.119C107.291 191.494 97.3118 192.904 89.9288 188.194C90.0973 187.971 90.1739 187.657 89.9977 187.32C88.7876 185.008 88.1903 182.388 87.8073 179.685C89.5305 178.727 91.1082 177.686 92.5251 176.606C92.5557 176.629 92.5481 176.675 92.5864 176.705C93.9573 177.785 95.3512 178.819 96.8369 179.731C97.9551 180.42 99.395 181.247 100.735 181.155C101.088 181.125 101.202 180.742 100.934 180.527C99.8085 179.6 98.2538 179.164 96.9671 178.444C95.6805 177.716 94.4781 176.866 93.291 175.986C93.536 175.779 93.8118 175.58 94.0415 175.381C94.7231 174.775 94.3785 173.772 93.6203 173.458C91.5065 172.608 89.2548 172.041 86.9572 171.727C86.8423 170.732 86.7121 169.751 86.5436 168.802C85.0808 160.561 85.5403 151.784 85.5863 143.459C85.6552 131.427 86.2756 119.25 88.3128 107.348C101.624 111.453 122.578 112.097 133.469 102.485C133.576 102.393 133.622 102.286 133.652 102.171C142.598 128.149 148.863 160.722 140.446 187.091ZM49.4678 78.4901C49.5367 77.5558 49.5597 76.5831 50.8004 76.5218C52.1024 76.4529 53.098 77.5788 53.1976 78.8041C53.2282 79.1335 53.2206 79.5624 53.1133 79.953C52.5543 80.1368 51.9952 80.3282 51.4131 80.5427C51.2599 80.4431 51.1068 80.3435 50.9919 80.267C50.3868 79.8304 49.8431 79.2024 49.4678 78.4901ZM58.0073 80.8184C59.8071 80.3665 66.6846 80.3665 62.4723 82.9552C55.4186 87.2823 44.9492 89.9169 36.2106 91.0734C39.8944 88.4848 44.0608 86.3863 48.0356 84.4793C51.2446 82.9475 54.5608 81.6762 58.0073 80.8184ZM55.8475 183.928C59.9373 180.657 64.5555 178.827 69.6791 177.326C69.9395 177.533 70.2459 177.701 70.6518 177.778C71.9844 178.015 73.991 177.395 74.6726 176.162C74.8794 175.786 74.5884 175.319 74.1442 175.411C73.1792 175.61 71.4253 176.759 70.5293 176.284C70.5369 175.94 70.422 175.595 70.1693 175.373C70.7897 175.733 71.7547 175.342 71.4713 174.5C67.8104 163.678 65.8881 152.665 65.015 141.284C64.9767 140.687 64.4942 140.112 63.8202 140.288C48.0509 144.623 40.9054 119.885 37.6121 109.033C36.0727 103.978 34.9469 98.8623 33.9819 93.731C40.89 93.0187 47.8901 90.8283 54.446 88.6686C57.8005 87.5657 66.1715 85.7046 66.654 81.2626C67.1977 76.3074 57.5477 78.6203 54.5072 79.5011C54.5379 79.2943 54.5532 79.0799 54.5532 78.8578C54.5072 76.8435 52.8759 75.1739 50.854 75.1433C50.0805 75.1356 49.3759 75.4879 48.8704 76.024C48.7249 75.4956 47.8824 75.5109 47.7982 76.1542C47.5531 77.9847 48.5258 79.8993 49.958 81.0941C44.1067 83.3381 37.7959 86.5394 33.4305 90.7517C32.2816 84.2954 31.309 77.8085 30.053 71.3292C30.2597 71.3216 30.4665 71.2527 30.6427 71.0688C30.681 71.0306 30.7269 70.9923 30.7652 70.954C40.2697 73.8643 53.6495 70.9846 61.2775 64.2985C64.6014 75.6028 69.2962 86.4858 72.2601 97.9509C72.398 98.4717 72.5435 99.0308 72.689 99.6052C72.689 99.6129 72.6814 99.6129 72.6814 99.6205C72.2601 106.192 70.5369 112.227 68.247 118.354C68.1551 118.599 68.515 118.744 68.6529 118.545C71.9385 113.774 72.9571 107.884 73.3324 102.171C76.3652 114.463 80.1486 134.674 67.7032 140.388C67.2743 140.595 66.968 141.215 67.1288 141.675C70.5829 151.799 72.3903 162.269 74.8181 172.669C74.3127 173.175 74.5041 174.209 75.3772 174.209C80.7613 174.193 85.8237 173.55 90.9857 174.99C82.5305 181.599 66.4855 185.812 55.8475 183.928ZM43.6548 63.0425C44.1144 63.9999 44.9185 64.7657 46.029 64.9878C48.1582 65.4244 49.7512 63.0961 49.9197 61.2274C49.9273 61.1891 49.9197 61.1661 49.9197 61.1278C53.8716 60.316 57.6626 60.3466 60.55 61.7865V61.7941C60.5729 61.8554 60.5883 61.9243 60.6036 61.9856C53.7031 68.7329 41.901 70.9233 32.4578 69.4299C35.2532 67.1323 39.32 64.7581 43.6548 63.0425ZM48.6024 61.4342C48.4339 62.5524 47.5072 63.7165 46.4809 63.7548C45.7457 63.7854 45.1636 63.2646 44.7654 62.6213C46.0367 62.1541 47.3234 61.7558 48.6024 61.4342ZM88.9791 103.611C102.619 106.904 119.706 105.786 132.105 99.0844C132.289 98.9849 132.389 98.847 132.442 98.7091C132.779 99.6435 133.109 100.616 133.438 101.566C133.216 101.374 132.887 101.305 132.603 101.551C121.766 111.116 101.784 109.562 88.5196 106.192C88.6728 105.334 88.8106 104.468 88.9791 103.611ZM91.0776 94.5428C92.5251 89.2659 94.4781 83.5219 96.454 77.5251C101.516 78.628 106.74 79.1335 111.909 79.0186C115.532 78.942 120.862 78.5514 123.252 75.419C126.147 82.9858 129.417 90.4607 132.151 97.9203C131.967 97.7901 131.715 97.7288 131.439 97.836C117.875 103.052 103.623 105.028 89.2855 102.102C89.8139 99.5669 90.396 97.0395 91.0776 94.5428ZM97.8173 73.3511C99.7779 75.0131 102.612 77.3949 105.009 76.7669C105.415 76.6597 105.468 76.1695 105.154 75.9321C104.128 75.1586 102.727 74.8905 101.593 74.2549C100.414 73.6039 99.326 72.8227 98.2385 72.0338C99.3413 68.5721 100.391 65.0491 101.34 61.5184C101.348 61.572 101.34 61.618 101.386 61.6716C105.07 66.0754 110.056 70.1804 115.524 72.1257C115.877 72.2483 116.076 71.7581 115.792 71.559C111.006 68.1279 105.936 65.6312 101.884 61.2044C101.739 61.0436 101.547 61.0742 101.425 61.1814C101.677 60.2394 101.907 59.3051 102.137 58.3554C106.173 62.4911 111.09 65.8226 116.275 68.3117C116.711 68.5262 117.071 67.9824 116.681 67.676C111.986 64.0994 106.747 61.4495 102.344 57.4976C102.466 56.9845 102.558 56.4713 102.673 55.9582C107.812 60.7526 113.908 65.2482 120.51 67.6914C121.238 69.92 122.019 72.1411 122.846 74.3468C122.762 74.3468 122.67 74.3315 122.586 74.3774C114.414 78.4365 105.69 77.4179 96.9212 76.1083C97.2199 75.1892 97.5186 74.2702 97.8173 73.3511ZM102.428 23.5159C103.186 23.5848 103.906 23.6078 104.542 23.5542C105.254 23.5082 105.484 22.5662 104.771 22.3058C103.745 21.9305 102.688 21.762 101.624 21.5782C101.425 21.3408 101.088 21.3102 100.797 21.4327C100.46 21.3715 100.115 21.3102 99.7779 21.2336C94.6083 20.0005 94.547 13.2838 99.6017 11.9206C99.8009 11.867 99.954 11.7521 100.069 11.5989C100.919 12.6788 102.29 13.3681 103.937 13.6591C106.387 14.0957 111.404 13.9808 112.974 11.6525C113.349 11.1164 112.805 10.5727 112.254 10.6339C111.289 10.7335 110.37 11.2926 109.428 11.5606C108.218 11.9053 106.962 12.0278 105.706 12.0508C105.3 12.0585 104.894 12.0278 104.503 11.9819C104.557 11.0016 104.128 10.0519 103.952 9.08687C103.737 7.89211 103.63 6.68204 103.439 5.48728C103.416 5.34942 103.339 5.2422 103.247 5.15795C106.694 6.10763 111.289 6.72799 113.694 5.40303C113.61 7.57811 113.671 9.73787 114.031 11.9283C114.138 12.5869 114.965 12.7324 115.417 12.3571C116.949 11.0781 118.381 14.3944 118.603 15.3517C119.331 18.5684 115.363 19.8857 112.989 20.238C110.393 20.6286 107.605 20.3528 105.085 19.6942C103.73 19.3419 102.443 18.6986 101.547 17.6034C101.654 17.5574 101.777 17.5038 101.968 17.4272C102.665 17.1438 102.259 16.2554 101.677 16.1559C100.643 15.9874 100.452 15.8265 99.64 16.4852C99.3337 16.7456 99.3031 17.1975 99.4639 17.5421C101.654 22.1986 109.665 23.3934 115.149 21.5782C115.141 21.6548 115.141 21.7391 115.141 21.8157C113.862 21.8386 112.69 22.5586 111.442 22.8113C109.841 23.1483 108.111 23.0334 106.525 22.6581C105.644 22.4513 105.208 23.7457 106.096 24.0214C107.804 24.5345 109.504 24.6877 111.274 24.5115C112.499 24.3966 114.146 24.052 115.08 23.1253C114.758 30.0871 114.896 37.0259 115.578 43.934C115.563 43.911 115.563 43.8881 115.54 43.8651C113.893 42.4176 111.787 41.5062 109.956 40.3114C108.088 39.0937 106.311 37.7305 104.741 36.1528C104.725 35.7851 104.687 35.4252 104.664 35.0652C106.02 36.3289 107.345 37.6079 108.792 38.772C110.247 39.9515 112.484 41.5675 114.467 41.1692C114.72 41.1156 114.774 40.748 114.559 40.6178C112.89 39.5839 111.021 39.0248 109.374 37.8607C107.705 36.6812 106.158 35.318 104.595 33.993C104.542 33.388 104.465 32.7906 104.396 32.1932C107.215 34.2304 110.753 37.2786 114.184 37.2556C114.452 37.248 114.529 36.9416 114.337 36.7884C112.821 35.6243 110.86 35.0269 109.19 34.0926C107.506 33.1506 105.882 32.1013 104.258 31.0674C104.113 30.0335 103.906 29.0072 103.684 27.9962C105.162 29.5893 106.77 31.0367 108.647 32.1549C109.941 32.9361 112.124 33.9547 113.51 32.9667C113.709 32.8212 113.579 32.5379 113.403 32.4689C112.905 32.2698 112.461 32.2698 111.925 32.2085C110.791 32.0936 109.696 31.5269 108.716 30.9831C106.946 30.0028 105.376 28.6319 103.967 27.1921C103.822 27.0389 103.646 27.0619 103.515 27.1461C103.217 25.9207 102.857 24.7107 102.428 23.5159ZM102.696 5.01244C102.39 5.05073 102.114 5.25752 102.144 5.61748C102.267 7.27942 102.007 9.92167 102.918 11.5683C102.512 11.4075 102.129 11.216 101.8 10.9556C101.961 10.1821 101.784 9.26302 101.762 8.52013C101.723 7.20283 101.593 5.88553 101.379 4.59121C101.784 4.72907 102.229 4.87458 102.696 5.01244ZM117.684 57.5282C118.35 60.6377 119.223 63.7088 120.204 66.7646C114.452 62.7898 108.164 59.8718 102.834 55.2383C103.186 53.584 103.492 51.9374 103.768 50.2984C105.223 51.7919 106.816 53.0709 108.57 54.258C110.914 55.8433 113.464 57.6738 116.06 58.7766C116.351 58.8991 116.543 58.5086 116.367 58.3018C114.85 56.5403 112.583 55.468 110.607 54.2886C108.218 52.8641 105.897 51.363 103.898 49.433C104.174 47.6944 104.381 45.9636 104.534 44.2404C107.421 47.0971 110.745 50.4592 114.59 51.6923C114.85 51.7765 115.111 51.4166 114.889 51.2251C113.341 49.8695 111.511 48.8356 109.857 47.6179C108.026 46.2623 106.303 44.7612 104.634 43.2141C104.718 42.1419 104.764 41.0697 104.794 40.0128C107.276 42.9078 110.584 45.7491 114.092 46.7218C114.322 46.7831 114.552 46.492 114.36 46.3082C112.913 44.9756 111.097 44.0642 109.489 42.946C107.751 41.7436 106.211 40.3191 104.817 38.7414C104.817 38.2895 104.787 37.8453 104.779 37.3935C107.628 40.4953 111.427 43.4515 115.233 44.3552C115.379 44.3859 115.532 44.2863 115.593 44.1561C116.045 48.6288 116.727 53.0862 117.684 57.5282ZM137.443 108.244C133.216 94.2518 127.357 80.7878 122.264 67.1093C116.727 52.2361 116.558 36.6123 116.619 20.9809C117.684 20.4601 118.603 19.8244 119.269 19.0355C121.636 16.2478 118.932 9.51576 115.524 10.4578C115.226 8.1908 115.187 5.90085 115.157 3.61855C115.256 3.27391 115.317 2.89097 115.302 2.45443C115.08 -1.95699 103.385 0.800146 101.034 1.4205C100.337 1.60431 100.398 2.73014 101.156 2.72248C104.971 2.66887 108.861 1.31328 112.668 2.09447C114.1 2.39316 113.472 3.38879 112.453 3.89427C111.12 4.57589 109.259 4.37676 107.812 4.2772C105.3 4.10871 102.412 3.61089 100.153 2.40848C99.4333 2.02554 98.7516 2.82971 99.0503 3.41177C98.9125 5.06605 98.7976 6.71267 98.7287 8.37461C98.6291 10.4654 98.4836 10.1514 97.0744 11.1854C95.1903 12.5563 94.2866 14.2642 94.0032 16.5465C93.5131 20.4601 97.1356 22.5203 100.705 23.2632C105.407 37.6462 100.774 52.0676 97.419 66.2975C94.0951 80.4125 88.5579 93.8842 86.2449 108.237C83.7712 123.608 83.7252 139.461 83.8861 154.978C83.9397 159.902 83.9473 165.746 84.4528 171.498C81.9101 171.367 79.3444 171.536 76.886 172.049C74.7569 164.122 73.4779 156.019 71.5632 148.047C69.9778 141.429 70.5752 143.076 73.7919 138.741C78.6245 132.216 78.3565 123.6 77.6825 115.888C76.1661 98.5713 70.8739 78.4901 62.9318 62.6979C63.0237 62.606 63.1156 62.5217 63.1999 62.4298C63.69 61.8784 63.6364 61.1814 63.0467 60.7219C59.3552 57.8652 54.1396 58.3247 49.5138 59.3893C48.0433 56.8236 43.1111 56.188 41.9087 59.2821C41.7248 59.7493 42.3452 60.0709 42.6822 59.7799C43.6242 58.9757 44.4284 58.4779 45.7074 58.5468C46.6188 58.6005 47.4765 59.0523 48.0586 59.7416C47.1089 59.9943 46.1975 60.2471 45.3474 60.4922C44.9645 60.607 44.5662 60.7372 44.1756 60.8521C44.0837 60.3007 43.2489 60.2471 43.2183 60.8674C43.2106 60.967 43.2183 61.0589 43.2183 61.1508C38.3703 62.7285 32.9939 65.1104 29.8232 69.024C29.5705 69.0929 29.4096 69.2767 29.3024 69.4988C28.7586 69.2844 28.0081 69.5601 28.0157 70.2723C28.3221 89.1051 34.3035 110.756 42.3299 127.659C45.3398 134 49.8737 140.671 56.9121 142.793C61.9745 144.309 62.9395 140.618 63.5981 147.763C64.4406 156.854 66.5544 165.945 69.6409 174.53C69.2962 174.354 68.7984 174.461 68.7831 174.975C68.7754 175.082 68.7984 175.174 68.8061 175.281C62.7097 176.744 57.1648 179.363 52.5849 183.698C51.9722 184.28 52.1637 185.413 53.0138 185.643C62.3038 188.194 75.7985 185.689 85.862 180.688C86.3828 182.871 87.0185 184.977 87.8763 186.869C87.2712 186.853 86.7045 187.726 87.2559 188.209C94.1104 194.167 104.021 193.547 112.56 193.049C122.915 192.444 135.176 193.371 144.015 187.052C144.359 186.807 144.015 186.164 143.616 186.317C143.157 186.47 142.713 186.608 142.253 186.754C149.743 162.345 144.643 132.086 137.443 108.244Z" fill="#333333"/>
<path fill-rule="evenodd" clip-rule="evenodd" d="M138.087 155.996C132.289 166.588 111.817 163.793 101.861 162.958C99.4102 162.751 96.9594 162.445 94.524 162.116C90.013 161.511 91.2307 155.338 91.1465 152.083C91.0929 150.176 91.0239 148.246 90.9244 146.316C91.4528 150.497 92.0119 154.671 92.7089 158.945C92.7778 159.335 93.1531 159.581 93.5207 159.619C105.844 160.653 129.241 167.017 138.148 154.863C138.454 154.449 138.087 153.99 137.666 153.936C141.081 143.62 135.483 131.274 133.001 121.226C133.086 121.187 133.17 121.149 133.246 121.103C133.798 120.82 133.469 119.985 132.879 120.108C132.787 120.13 132.687 120.153 132.595 120.176C132.373 120.023 132.044 120.092 131.883 120.337C117.806 123.431 105.66 128.915 90.8861 124.596C89.9977 124.335 89.6071 125.614 90.4495 125.951C102.834 130.837 120.043 127.605 131.921 121.762C133.484 133.173 137.934 143.206 136.103 154.962C127.104 161.993 114.077 160.094 103.385 158.937C101.271 158.707 99.1652 158.455 97.059 158.217C93.1377 157.781 93.3062 152.711 92.5557 149.479C90.7176 141.583 91.292 133.388 89.9134 125.407C89.7603 124.527 88.5042 124.871 88.5885 125.721C88.6421 126.204 88.6957 126.679 88.7493 127.154C88.5808 126.349 88.4276 125.53 88.2362 124.726C88.1443 124.335 87.4703 124.366 87.5086 124.795C88.6421 137.271 89.9977 149.571 89.9441 162.123C89.9441 162.391 90.1126 162.721 90.4036 162.774C101.8 164.896 132.871 170.525 139.19 156.517C139.473 155.881 138.416 155.391 138.087 155.996Z" fill="#333333"/>
<path fill-rule="evenodd" clip-rule="evenodd" d="M128.115 125.637C117.592 128.18 106.15 135.088 95.3816 129.153C94.7077 128.777 94.1026 129.719 94.7383 130.164C103.523 136.375 120.173 132.002 128.421 126.449C128.812 126.189 128.628 125.515 128.115 125.637Z" fill="#333333"/>
<path fill-rule="evenodd" clip-rule="evenodd" d="M116.658 147.357C116.803 146.66 116.39 146.002 116.129 145.351C115.785 144.524 115.494 143.681 115.264 142.816C115.318 142.785 115.371 142.762 115.409 142.701C115.792 142.134 116.152 141.552 116.52 140.978C116.673 142.042 116.589 143.291 117.194 144.164C117.5 144.608 118.159 144.501 118.22 143.926C118.35 142.777 118.075 141.33 117.768 140.219C117.707 139.974 117.546 139.836 117.355 139.767C117.715 139.277 118.098 138.81 118.534 138.374C119.974 138.197 120.633 138.649 120.518 139.714C120.495 140.173 120.411 140.618 120.265 141.047C119.997 141.996 119.499 142.885 119.024 143.735C118.335 144.998 117.5 146.178 116.658 147.357ZM115.134 149.517C114.383 147.319 113.732 145.083 113.02 142.862C113.012 142.839 112.997 142.823 112.989 142.808C113.319 143.022 113.64 143.237 113.993 143.398C114.061 143.428 114.123 143.428 114.184 143.428C114.314 144.256 114.467 145.075 114.728 145.879C114.981 146.676 115.164 147.51 115.969 147.863C116.083 147.916 116.198 147.893 116.305 147.847C115.907 148.407 115.509 148.958 115.134 149.517ZM111.863 143.13C111.994 143.643 112.101 144.179 112.216 144.715C111.909 143.842 111.588 142.969 111.274 142.088C111.036 141.414 109.941 141.629 110.156 142.348C110.669 144.072 111.075 145.818 111.511 147.556C111.634 148.024 111.726 148.514 111.825 149.004C111.618 148.805 111.419 148.606 111.212 148.407C111.09 147.311 110.653 146.216 110.362 145.167C109.895 143.497 109.359 141.843 108.792 140.196C110.171 140.587 111.266 141.583 112.43 142.44C112.086 142.44 111.749 142.693 111.863 143.13ZM108.517 145.489C107.873 144.661 105.913 140.717 107.529 140.143C107.935 141.95 108.34 143.75 108.815 145.535C108.854 145.672 108.877 145.81 108.915 145.94C108.785 145.795 108.639 145.642 108.517 145.489ZM122.027 139.101C121.713 137.424 120.548 135.816 118.703 136.505C116.711 137.24 115.249 139.905 114.513 141.858C114.46 141.874 114.429 141.904 114.383 141.92C112.836 140.526 110.646 138.726 108.616 138.488C106.449 138.251 105.262 140.074 105.338 142.096C105.438 144.447 107.429 146.645 108.877 148.315C110.607 150.321 112.614 152.075 114.261 154.151C114.804 154.84 115.984 154.013 115.517 153.262C115.379 153.032 115.187 152.841 115.034 152.626C116.405 150.245 118.167 148.1 119.652 145.787C120.809 143.987 122.448 141.368 122.027 139.101Z" fill="#333333"/>
<path fill-rule="evenodd" clip-rule="evenodd" d="M134.02 183.33C128.031 183.506 121.728 185.858 115.8 186.807C110.592 187.635 93.513 191.211 90.6946 184.272C90.3959 183.514 89.1322 183.997 89.3696 184.762C91.3609 191.119 101.746 189.909 106.701 189.603C114.904 189.097 126.943 188.538 134.257 184.387C134.717 184.127 134.602 183.307 134.02 183.33Z" fill="#333333"/>
<path fill-rule="evenodd" clip-rule="evenodd" d="M109.298 76.5217C106.617 74.5611 103.508 73.3893 100.942 71.1989C100.406 70.7394 99.5865 71.444 100.123 71.9571C102.512 74.2471 105.683 76.8051 109.091 77.1957C109.474 77.2493 109.566 76.7208 109.298 76.5217Z" fill="#333333"/>
<path fill-rule="evenodd" clip-rule="evenodd" d="M111.151 76.1543C111.442 76.2616 111.687 75.8786 111.473 75.6565C109.987 74.0941 107.98 73.0143 106.265 71.7123C104.204 70.1422 102.328 68.3731 100.697 66.3588C100.337 65.9223 99.7318 66.5044 100.053 66.9486C102.719 70.5405 106.816 74.6839 111.151 76.1543Z" fill="#333333"/>
<path fill-rule="evenodd" clip-rule="evenodd" d="M115.072 75.5031C115.294 75.5797 115.402 75.281 115.233 75.1508C111.113 71.8269 106.717 69.0545 102.88 65.3553C102.428 64.9188 101.715 65.5698 102.167 66.014C105.897 69.6978 110.056 73.6957 115.072 75.5031Z" fill="#333333"/>
<path fill-rule="evenodd" clip-rule="evenodd" d="M104.649 53.4155C104.159 53.0555 103.668 53.852 104.143 54.212C108.302 57.4287 113.081 61.9243 118.335 63.1267C118.71 63.211 118.932 62.7591 118.618 62.5217C116.405 60.8674 113.793 59.7033 111.457 58.2022C109.121 56.7011 106.885 55.0545 104.649 53.4155Z" fill="#333333"/>
<path fill-rule="evenodd" clip-rule="evenodd" d="M104.787 48.0545C108.157 50.9955 111.948 54.373 116.16 56.0196C116.466 56.1422 116.773 55.6903 116.512 55.4605C113.043 52.4813 108.677 50.5896 105.131 47.641C104.894 47.4419 104.549 47.8554 104.787 48.0545Z" fill="#333333"/>
<path fill-rule="evenodd" clip-rule="evenodd" d="M110.531 30.1943C111.657 30.5083 113.364 30.5006 114.077 29.4284C114.207 29.2293 114.061 28.9306 113.816 28.9306C112.644 28.9536 111.695 29.3825 110.485 29.1144C109.137 28.831 108.011 27.9962 107.138 26.97C106.816 26.6023 106.295 27.1002 106.586 27.4754C107.597 28.7774 108.938 29.7348 110.531 30.1943Z" fill="#333333"/>
<path fill-rule="evenodd" clip-rule="evenodd" d="M114.429 27.3759C114.613 27.2227 114.513 26.9777 114.322 26.8934C113.656 26.6024 112.882 26.7709 112.17 26.7709C111.212 26.7785 110.347 26.4799 109.573 25.9284C109.145 25.6221 108.739 26.2884 109.137 26.61C110.378 27.5904 113.043 28.5554 114.429 27.3759Z" fill="#333333"/>
<path fill-rule="evenodd" clip-rule="evenodd" d="M102.252 112.717C102.52 112.579 102.52 112.081 102.183 112.005C100.827 111.737 99.4256 111.951 98.047 111.875C95.9332 111.76 93.7275 111.132 91.8282 110.205C91.361 109.975 90.9244 110.603 91.384 110.91C94.1871 112.778 99.012 114.387 102.252 112.717Z" fill="#333333"/>
<path fill-rule="evenodd" clip-rule="evenodd" d="M99.0274 114.938C99.1805 114.815 99.1576 114.532 98.9891 114.44C98.2691 114.096 97.5262 114.195 96.7451 114.142C95.4584 114.05 94.256 113.667 93.1455 113.031C92.6323 112.732 92.1498 113.475 92.6476 113.805C94.187 114.831 97.3195 116.271 99.0274 114.938Z" fill="#333333"/>
<path fill-rule="evenodd" clip-rule="evenodd" d="M99.2189 117.458C99.441 117.374 99.441 117.014 99.2418 116.906C98.5142 116.501 97.6794 116.47 96.86 116.37C95.6269 116.217 94.4322 115.918 93.2757 115.482C92.8315 115.321 92.4868 116.033 92.9234 116.248C94.6236 117.06 97.3501 118.254 99.2189 117.458Z" fill="#333333"/>
<path fill-rule="evenodd" clip-rule="evenodd" d="M98.8587 184.226C99.1114 184.211 99.3565 183.882 99.1191 183.667C98.2383 182.901 97.0972 182.557 96.0709 181.99C94.677 181.232 93.375 180.336 92.3258 179.141C91.9735 178.743 91.4297 179.271 91.7284 179.685C93.2219 181.707 96.1475 184.387 98.8587 184.226Z" fill="#333333"/>
<path fill-rule="evenodd" clip-rule="evenodd" d="M103.5 177.816C101.264 176.062 98.7592 174.653 96.5075 172.891C93.9649 170.893 91.7208 168.526 89.7679 165.96C89.362 165.432 88.6267 166.137 89.0097 166.665C92.4561 171.39 97.4879 176.591 103.217 178.429C103.607 178.559 103.799 178.046 103.5 177.816Z" fill="#333333"/>
<path fill-rule="evenodd" clip-rule="evenodd" d="M99.349 171.299C98.9814 170.824 98.3381 171.459 98.6751 171.927C100.758 174.822 104.779 178.306 108.578 178.314C108.938 178.314 109.068 177.87 108.785 177.663C107.391 176.652 105.576 176.192 104.059 175.35C102.221 174.331 100.636 172.96 99.349 171.299Z" fill="#333333"/>
<path fill-rule="evenodd" clip-rule="evenodd" d="M112.009 176.361C110.041 175.205 107.873 174.332 105.851 173.244C105.338 172.961 104.84 173.726 105.353 174.018C107.337 175.128 109.443 176.568 111.687 177.058C112.093 177.135 112.415 176.598 112.009 176.361Z" fill="#333333"/>
<path fill-rule="evenodd" clip-rule="evenodd" d="M144.513 67.4844C143.188 67.4308 143.111 69.4757 144.428 69.5293C145.746 69.5829 145.83 67.538 144.513 67.4844Z" fill="#333333"/>
<path fill-rule="evenodd" clip-rule="evenodd" d="M145.676 73.4812C143.877 73.4123 143.769 76.2001 145.561 76.269C147.361 76.3379 147.476 73.5578 145.676 73.4812Z" fill="#333333"/>
<path fill-rule="evenodd" clip-rule="evenodd" d="M150.777 68.8708C148.204 68.7635 148.043 72.7614 150.616 72.861C153.19 72.9605 153.351 68.9703 150.777 68.8708Z" fill="#333333"/>
<path fill-rule="evenodd" clip-rule="evenodd" d="M153.948 59.8106C151.306 59.7111 151.145 63.8008 153.787 63.908C156.422 64.0153 156.583 59.9178 153.948 59.8106Z" fill="#333333"/>
<path fill-rule="evenodd" clip-rule="evenodd" d="M147.178 53.4233C145.699 53.3621 145.607 55.6597 147.086 55.7133C148.564 55.7745 148.656 53.4769 147.178 53.4233Z" fill="#333333"/>
<path fill-rule="evenodd" clip-rule="evenodd" d="M140.17 52.887C138.363 52.8104 138.255 55.6212 140.063 55.6978C141.878 55.7667 141.985 52.956 140.17 52.887Z" fill="#333333"/>
<path fill-rule="evenodd" clip-rule="evenodd" d="M136.073 32.4615C133.492 32.362 133.331 36.3522 135.912 36.4517C138.485 36.559 138.646 32.5688 136.073 32.4615Z" fill="#333333"/>
<path fill-rule="evenodd" clip-rule="evenodd" d="M143.861 30.7763C142.337 30.715 142.245 33.0816 143.769 33.1429C145.294 33.2041 145.385 30.8376 143.861 30.7763Z" fill="#333333"/>
<path fill-rule="evenodd" clip-rule="evenodd" d="M162.756 50.2601C160.925 50.1835 160.818 53.0172 162.641 53.0938C164.471 53.1627 164.586 50.329 162.756 50.2601Z" fill="#333333"/>
<path fill-rule="evenodd" clip-rule="evenodd" d="M78.8312 58.7382C76.84 58.6616 76.7174 61.7404 78.7087 61.8247C80.6923 61.9013 80.8225 58.8225 78.8312 58.7382Z" fill="#333333"/>
<path fill-rule="evenodd" clip-rule="evenodd" d="M76.3191 68.8325C74.795 68.7712 74.7031 71.1377 76.2271 71.199C77.7512 71.2603 77.8508 68.8937 76.3191 68.8325Z" fill="#333333"/>
<path fill-rule="evenodd" clip-rule="evenodd" d="M69.5951 61.2811C67.4583 61.1969 66.8915 63.7166 68.0097 64.9267C66.0644 65.5547 66.164 68.9015 68.5841 69.0011C70.6596 69.0777 71.2264 66.6422 70.1618 65.4475C72.176 64.8348 72.0918 61.373 69.5951 61.2811Z" fill="#333333"/>
<path fill-rule="evenodd" clip-rule="evenodd" d="M72.0305 53.048C69.3959 52.9407 69.2351 57.0305 71.8697 57.1377C74.5043 57.2449 74.6728 53.1475 72.0305 53.048Z" fill="#333333"/>
<path fill-rule="evenodd" clip-rule="evenodd" d="M74.2588 50.0763C73.11 50.0304 73.0411 51.8072 74.1899 51.8531C75.331 51.8991 75.4 50.1223 74.2588 50.0763Z" fill="#333333"/>
<path fill-rule="evenodd" clip-rule="evenodd" d="M61.2774 40.7863C58.7884 40.6867 58.6275 44.5621 61.1243 44.6616C63.621 44.7612 63.7742 40.8859 61.2774 40.7863Z" fill="#333333"/>
<path fill-rule="evenodd" clip-rule="evenodd" d="M56.6899 50.1912C56.5904 50.1835 56.5827 50.3444 56.6899 50.3444C56.7895 50.352 56.7972 50.1912 56.6899 50.1912Z" fill="#333333"/>
<path fill-rule="evenodd" clip-rule="evenodd" d="M57.387 32.76C56.5139 32.7294 56.4526 34.0773 57.3333 34.1156C58.2064 34.1539 58.26 32.7907 57.387 32.76Z" fill="#333333"/>
<path fill-rule="evenodd" clip-rule="evenodd" d="M53.7412 18.4228C52.6766 18.3769 52.6077 20.0311 53.6723 20.0694C54.7445 20.1154 54.8058 18.4611 53.7412 18.4228Z" fill="#333333"/>
<path fill-rule="evenodd" clip-rule="evenodd" d="M54.5533 33.319C53.6343 33.273 53.573 34.7052 54.4997 34.7435C55.4188 34.7818 55.48 33.3496 54.5533 33.319Z" fill="#333333"/>
<path fill-rule="evenodd" clip-rule="evenodd" d="M50.762 40.2809C49.0617 40.2119 48.9622 42.8542 50.6624 42.9231C52.3626 42.9921 52.4622 40.3498 50.762 40.2809Z" fill="#333333"/>
<path fill-rule="evenodd" clip-rule="evenodd" d="M55.7174 39.4078C54.4461 39.3618 54.3695 41.3301 55.6408 41.3837C56.9122 41.4373 56.9887 39.4614 55.7174 39.4078Z" fill="#333333"/>
<path fill-rule="evenodd" clip-rule="evenodd" d="M66.6155 30.2786C64.7851 30.202 64.6702 33.0434 66.5006 33.1123C68.3311 33.1889 68.4459 30.3476 66.6155 30.2786Z" fill="#333333"/>
<path fill-rule="evenodd" clip-rule="evenodd" d="M70.3226 25.4461C70.2153 25.4384 70.2153 25.5992 70.3149 25.5992C70.4145 25.6069 70.4221 25.4461 70.3226 25.4461Z" fill="#333333"/>
<path fill-rule="evenodd" clip-rule="evenodd" d="M169.441 41.0237C167.136 40.9318 166.998 44.5084 169.304 44.6003C171.609 44.6922 171.754 41.108 169.441 41.0237Z" fill="#333333"/>
<path fill-rule="evenodd" clip-rule="evenodd" d="M176.916 47.3575C176.794 47.3575 176.679 47.3729 176.556 47.3729C176.273 47.212 175.936 47.1048 175.53 47.0895C175.009 47.0818 175.04 47.0895 174.542 46.9057C172.107 46.002 170.69 49.4867 172.681 50.8729C173.47 51.432 174.397 51.5852 175.346 51.6541C175.76 51.6847 176.104 51.6005 176.411 51.455C176.526 51.4703 176.633 51.4932 176.755 51.5009C179.428 51.6081 179.589 47.4648 176.916 47.3575Z" fill="#333333"/>
<path fill-rule="evenodd" clip-rule="evenodd" d="M176.495 40.411C173.952 40.3115 173.792 44.2557 176.334 44.3553C178.877 44.4548 179.038 40.5183 176.495 40.411Z" fill="#333333"/>
<path fill-rule="evenodd" clip-rule="evenodd" d="M180.21 35.3485C178.188 35.272 178.065 38.4044 180.087 38.481C182.102 38.5576 182.224 35.4328 180.21 35.3485Z" fill="#333333"/>
<path fill-rule="evenodd" clip-rule="evenodd" d="M173.141 18.7903C171.869 18.7444 171.793 20.7127 173.064 20.7586C174.335 20.8122 174.412 18.844 173.141 18.7903Z" fill="#333333"/>
<path fill-rule="evenodd" clip-rule="evenodd" d="M163.72 25.9973C161.354 25.8978 161.208 29.574 163.575 29.6659C165.941 29.7578 166.087 26.0893 163.72 25.9973Z" fill="#333333"/>
<path fill-rule="evenodd" clip-rule="evenodd" d="M14.8427 78.2296C13.1808 78.1607 13.0812 80.7264 14.7355 80.7953C16.3898 80.8566 16.4893 78.2909 14.8427 78.2296Z" fill="#333333"/>
<path fill-rule="evenodd" clip-rule="evenodd" d="M1.31741 82.58C-0.367512 82.511 -0.474733 85.1303 1.21784 85.1916C2.90276 85.2605 3.00232 82.6489 1.31741 82.58Z" fill="#333333"/>
<path fill-rule="evenodd" clip-rule="evenodd" d="M12.7287 60.4845C10.0482 60.3772 9.8797 64.5436 12.5679 64.6508C15.2561 64.758 15.4246 60.5917 12.7287 60.4845Z" fill="#333333"/>
<path fill-rule="evenodd" clip-rule="evenodd" d="M21.3526 90.9967C18.6185 90.8818 18.45 95.1247 21.1841 95.2319C23.9183 95.3392 24.0868 91.1039 21.3526 90.9967Z" fill="#333333"/>
</svg>
