<svg width="204" height="212" viewBox="0 0 204 212" fill="none" xmlns="http://www.w3.org/2000/svg">
<path fill-rule="evenodd" clip-rule="evenodd" d="M61.9693 148.424C55.3328 145.541 51.8506 141.906 48.7978 134.885C46.2915 129.102 44.9486 122.834 42.6454 116.967C42.3018 116.09 40.998 116.65 41.2088 117.544C43.5745 127.531 48.2044 151.935 61.9068 150.079C62.7734 149.971 62.6329 148.709 61.9693 148.424Z" fill="#333333"/>
<path fill-rule="evenodd" clip-rule="evenodd" d="M60.3607 200.465C60.5009 200.473 60.5164 200.232 60.3685 200.224C60.2283 200.224 60.2206 200.465 60.3607 200.465Z" fill="#333333"/>
<path fill-rule="evenodd" clip-rule="evenodd" d="M75.6094 197.198C71.5026 196.321 67.4739 198.719 63.5076 199.471C63.0392 199.554 63.1094 200.398 63.5857 200.365C67.591 200.089 71.9477 199.546 75.6641 197.867C75.9296 197.75 75.8983 197.257 75.6094 197.198Z" fill="#333333"/>
<path fill-rule="evenodd" clip-rule="evenodd" d="M42.2629 87.5074C42.0989 87.9503 41.8022 88.5354 41.4509 88.8279C41.4431 88.8112 41.4509 88.8111 41.4431 88.7944C41.2323 88.2178 41.162 87.5074 41.1073 86.8889C41.0917 86.7134 41.0136 86.6048 40.9043 86.5379C41.3728 86.4293 41.81 86.2454 42.2629 86.0281C42.4034 85.9613 42.4971 85.9696 42.5439 85.9696C42.6454 86.3206 42.419 87.0812 42.2629 87.5074ZM40.3422 86.0699C40.2563 86.2621 40.3422 86.4126 40.4827 86.5129C40.2641 86.5714 40.0689 86.7302 40.0533 86.9976C39.9908 88.0506 39.8971 90.3155 41.3728 90.3573C42.4268 90.3823 43.0827 89.0117 43.4574 88.1593C43.8478 87.2567 44.2382 85.8443 43.5745 84.9751C42.6454 83.7549 40.8185 85.0169 40.3422 86.0699Z" fill="#333333"/>
<path fill-rule="evenodd" clip-rule="evenodd" d="M50.2502 56.5434C50.3439 56.4514 50.5001 56.3344 50.625 56.2425C50.6172 56.5434 50.5625 56.8359 50.4845 57.1117C50.3674 57.5462 50.1253 58.1981 49.8052 58.4238C49.7506 58.382 49.6881 58.3318 49.6491 58.265C49.4617 57.9892 49.3367 57.6716 49.2274 57.354C49.6022 57.1534 49.9379 56.8359 50.2502 56.5434ZM49.977 59.8111C50.9451 59.6941 51.4838 58.3987 51.7415 57.5462C51.9835 56.7523 52.2334 55.2814 51.3511 54.805C50.4689 54.3203 49.2665 55.2563 48.7356 56.2425C48.4233 56.0753 47.9548 56.3261 48.0329 56.8191C48.1968 57.939 48.5247 59.9866 49.977 59.8111Z" fill="#333333"/>
<path fill-rule="evenodd" clip-rule="evenodd" d="M40.0142 52.2643C39.9518 52.2225 40.0142 52.4398 39.9908 52.6822C39.9596 53.0165 39.8034 53.3675 39.6551 53.66C39.3974 54.1782 38.968 54.8885 38.4058 54.9972C38.0701 55.0724 37.7422 53.309 37.6641 52.7658C38.32 52.6905 39.5536 51.9384 40.0142 52.2643ZM38.3122 56.3427C39.3974 56.4597 40.2797 55.3148 40.7559 54.4122C41.24 53.4928 41.6226 52.2225 40.9511 51.2949C40.0689 50.083 37.8437 51.1946 37.2737 52.1975C37.2503 52.2309 37.2503 52.2643 37.2425 52.3061C37.0005 52.3061 36.7428 52.4482 36.7428 52.749C36.7428 53.9609 36.7662 56.1839 38.3122 56.3427Z" fill="#333333"/>
<path fill-rule="evenodd" clip-rule="evenodd" d="M46.6119 44.6086C47.0335 42.9126 44.6444 42.0186 43.7621 43.322C43.645 43.4891 43.7621 43.6812 43.9105 43.7564C44.1994 43.8985 45.4408 43.8567 45.4486 44.2828C45.472 45.0765 43.6528 43.8734 43.5123 43.7648C43.0673 43.4139 42.4661 44.1742 42.8877 44.5669C43.8246 45.4441 46.0966 46.6807 46.6119 44.6086Z" fill="#333333"/>
<path fill-rule="evenodd" clip-rule="evenodd" d="M63.4605 111.861C65.3812 108.033 65.8497 103.487 66.2401 99.2246C66.2713 98.8402 65.6623 98.7232 65.5998 99.1076C64.8893 103.328 63.5308 107.482 63.1092 111.744C63.0858 111.945 63.3747 112.036 63.4605 111.861Z" fill="#333333"/>
<path fill-rule="evenodd" clip-rule="evenodd" d="M67.4893 102.216C66.5758 106.027 65.7091 109.838 64.7098 113.633C64.6161 113.992 65.0923 114.259 65.2797 113.925C67.1848 110.448 67.622 106.395 68.395 102.517C68.5199 101.891 67.6454 101.565 67.4893 102.216Z" fill="#333333"/>
<path fill-rule="evenodd" clip-rule="evenodd" d="M69.5585 108.952C69.6366 108.443 68.8168 108.292 68.7231 108.794C68.2156 111.618 67.552 114.435 67.1928 117.285C67.1694 117.485 67.4661 117.586 67.552 117.402C68.8168 114.803 69.0979 111.802 69.5585 108.952Z" fill="#333333"/>
<path fill-rule="evenodd" clip-rule="evenodd" d="M70.9013 106.704C70.9013 106.353 70.425 106.337 70.3938 106.688C69.7848 114.218 68.9494 121.397 67.0989 128.709C67.0287 128.977 67.38 129.177 67.5127 128.918C70.9559 122.249 70.9403 114.126 70.9013 106.704Z" fill="#333333"/>
<path fill-rule="evenodd" clip-rule="evenodd" d="M72.4395 134.175C74.5554 129.554 75.7655 124.33 75.6562 119.174C75.6406 118.555 74.7427 118.505 74.7427 119.132C74.7271 124.322 72.8377 128.885 71.7993 133.858C71.7134 134.25 72.2521 134.593 72.4395 134.175Z" fill="#333333"/>
<path fill-rule="evenodd" clip-rule="evenodd" d="M69.8162 142.984C72.6113 141.271 73.6576 136.908 74.4071 133.824C74.5633 133.181 73.6498 132.855 73.478 133.507C73.0173 135.253 72.4864 136.95 71.7447 138.588C71.0967 140 70.1519 141.162 69.4024 142.499C69.2463 142.783 69.5351 143.151 69.8162 142.984Z" fill="#333333"/>
<path fill-rule="evenodd" clip-rule="evenodd" d="M69.7222 146.084C71.8225 144.973 73.0405 142.574 73.8525 140.326C74.1023 139.633 73.0795 139.29 72.8297 139.975C72.0255 142.182 70.7606 143.719 69.3084 145.458C69.043 145.775 69.3397 146.285 69.7222 146.084Z" fill="#333333"/>
<path fill-rule="evenodd" clip-rule="evenodd" d="M185.08 84.5404C185.463 83.6462 185.814 82.7018 186.978 83.0946C188.196 83.5125 188.727 84.9834 188.399 86.2286C188.313 86.5629 188.149 86.9892 187.922 87.3318C187.345 87.3067 186.759 87.29 186.158 87.2733C186.041 87.1229 185.939 86.9724 185.869 86.8554C185.455 86.1952 185.182 85.3762 185.08 84.5404ZM192.123 89.9894C193.934 90.2067 200.258 92.7474 195.488 93.7419C187.501 95.3967 176.976 94.118 168.544 92.0203C172.822 90.8335 177.382 90.3154 181.692 89.9059C185.166 89.5883 188.656 89.5632 192.123 89.9894ZM179.498 153.238C179.178 164.487 177.218 175.452 175.867 186.576C175.227 186.893 175.04 187.988 175.844 188.306C180.802 190.286 185.682 191.515 189.921 194.841C179.873 198.218 163.672 196.438 154.537 190.654C159.432 188.949 164.304 188.857 169.535 189.267C169.699 189.568 169.934 189.844 170.269 190.069C171.409 190.796 173.478 190.93 174.524 189.969C174.852 189.676 174.735 189.108 174.298 189.033C173.345 188.874 171.339 189.359 170.675 188.556C170.8 188.222 170.816 187.838 170.66 187.529C171.105 188.114 172.128 188.08 172.159 187.144C172.534 175.151 174.556 163.601 177.694 152.076C177.858 151.466 177.616 150.731 176.937 150.656C160.947 149.093 162.914 122.115 163.633 110.214C163.961 104.673 164.695 99.2244 165.577 93.8171C172.167 95.6641 179.373 96.0903 186.134 96.3912C189.601 96.55 197.94 97.8203 199.923 93.6249C202.124 88.9448 192.459 87.6494 189.359 87.3987C189.453 87.1981 189.546 86.9975 189.617 86.7802C190.28 84.7828 189.351 82.543 187.509 81.7574C186.79 81.4649 186.033 81.5568 185.385 81.8911C185.432 81.3228 184.643 81.0303 184.346 81.6237C183.488 83.337 183.722 85.5767 184.62 87.2817C178.475 87.3318 171.565 88.1508 166.1 90.6831C167.271 83.8969 168.622 77.1609 169.699 70.3245C169.895 70.3914 170.105 70.3914 170.332 70.2827C170.379 70.2493 170.433 70.2409 170.48 70.2075C178.217 76.5926 191.506 78.6986 200.836 74.9462C199.985 87.29 200.539 99.7425 199.306 112.111C199.251 112.68 199.197 113.281 199.126 113.908C199.126 113.908 199.126 113.908 199.118 113.917C196.472 120.218 192.794 125.517 188.578 130.707C188.406 130.916 188.688 131.191 188.883 131.041C193.552 127.564 196.526 122.149 198.845 116.658C197.377 129.879 193.88 151.166 180.474 152.193C180.005 152.235 179.514 152.728 179.498 153.238ZM185.065 67.1905C185.158 68.302 185.627 69.3551 186.572 69.9819C188.383 71.202 190.655 69.4971 191.451 67.7254C191.467 67.6919 191.475 67.6585 191.483 67.6251C195.402 68.277 198.876 69.7061 201.024 72.2049C201.024 72.2801 201.016 72.347 201.016 72.4139C192.341 76.5006 180.732 74.2943 172.565 69.3467C175.93 68.1098 180.489 67.2741 185.065 67.1905ZM190.163 67.4412C189.632 68.4692 188.367 69.2798 187.415 68.9372C186.736 68.6865 186.376 67.9761 186.228 67.1905C187.563 67.1989 188.883 67.2824 190.163 67.4412ZM186.634 152.82C193.325 148.182 196.066 139.599 198.104 131.768C202.679 114.167 204.756 92.4465 202.905 73.9767C203.015 73.9182 203.132 73.8764 203.241 73.8095C203.881 73.4502 204.076 72.7398 203.694 72.0796C201.281 67.9009 196.331 66.4216 191.709 65.7614C191.248 62.6942 186.931 60.2455 184.752 62.8447C184.425 63.2375 184.885 63.7807 185.299 63.6219C186.439 63.1873 187.352 62.9867 188.5 63.53C189.312 63.9144 189.96 64.6749 190.249 65.5692C189.296 65.4605 188.367 65.3769 187.493 65.3101C187.11 65.2767 186.697 65.2599 186.291 65.2349C186.408 64.6499 185.65 64.2905 185.416 64.8922C185.377 64.9841 185.354 65.0761 185.322 65.168C180.318 64.9256 174.548 65.285 170.285 67.9677C170.027 67.9343 169.816 68.068 169.645 68.2435C169.215 67.834 168.427 67.8257 168.192 68.536C161.97 87.173 159.994 110.691 161.54 130.289C162.118 137.643 163.984 145.875 169.723 150.564C173.845 153.932 176.008 150.656 174.15 157.935C171.784 167.187 170.589 176.915 170.464 186.501C170.207 186.2 169.715 186.133 169.52 186.626C169.481 186.718 169.473 186.826 169.434 186.927C163.328 186.116 157.324 186.651 151.617 189.225C150.86 189.568 150.641 190.746 151.344 191.298C161.392 199.095 181.106 201.009 192.607 196.354C193.442 196.02 193.466 194.9 192.872 194.315C188.836 190.337 183.449 187.654 177.983 186.735C178.764 178.152 180.38 169.702 181.372 161.153C182.199 154.049 182.184 155.896 186.634 152.82Z" fill="#333333"/>
<path fill-rule="evenodd" clip-rule="evenodd" d="M168.161 127.949C167.732 121.831 168.505 115.697 168.286 109.563C168.255 108.652 166.896 108.677 166.81 109.571C165.78 119.441 162.235 143.109 175.18 146.41C175.992 146.619 176.265 145.441 175.766 144.931C170.691 139.933 168.692 135.395 168.161 127.949Z" fill="#333333"/>
<path fill-rule="evenodd" clip-rule="evenodd" d="M157.847 191.288C157.971 191.338 158.057 191.13 157.925 191.072C157.8 191.014 157.714 191.222 157.847 191.288Z" fill="#333333"/>
<path fill-rule="evenodd" clip-rule="evenodd" d="M160.994 191.532C160.549 191.44 160.346 192.217 160.783 192.359C164.484 193.562 168.583 194.657 172.471 194.49C172.736 194.473 172.869 194.022 172.627 193.863C169.199 191.582 164.812 192.284 160.994 191.532Z" fill="#333333"/>
<path fill-rule="evenodd" clip-rule="evenodd" d="M177.265 82.8524C176.968 83.195 176.515 83.6213 176.109 83.755C176.109 83.7383 176.109 83.7383 176.109 83.7299C176.109 83.1282 176.265 82.4596 176.414 81.8829C176.453 81.7241 176.414 81.5988 176.336 81.4985C176.804 81.5653 177.249 81.557 177.725 81.5319C177.874 81.5236 177.96 81.557 177.999 81.5737C177.975 81.9331 177.538 82.5264 177.265 82.8524ZM175.977 80.8717C175.844 81.0138 175.867 81.1809 175.969 81.3146C175.758 81.2979 175.524 81.3648 175.43 81.5988C175.04 82.5264 174.235 84.5322 175.563 85.1089C176.5 85.51 177.522 84.5155 178.131 83.8803C178.764 83.2117 179.568 82.0751 179.248 81.0555C178.787 79.6181 176.742 80.0861 175.977 80.8717Z" fill="#333333"/>
<path fill-rule="evenodd" clip-rule="evenodd" d="M194.254 57.8304C194.379 57.7803 194.543 57.7385 194.691 57.7051C194.59 57.9641 194.449 58.2065 194.293 58.4322C194.043 58.7832 193.63 59.2763 193.263 59.3682C193.224 59.3097 193.185 59.2428 193.169 59.1676C193.091 58.85 193.075 58.5241 193.083 58.1982C193.481 58.1564 193.879 57.9892 194.254 57.8304ZM192.17 57.2788C191.959 58.3402 191.615 60.3209 192.974 60.6803C193.887 60.9227 194.785 59.9532 195.285 59.2763C195.753 58.6494 196.448 57.4126 195.808 56.6688C195.16 55.9082 193.778 56.3177 192.989 57.0114C192.755 56.7523 192.263 56.8025 192.17 57.2788Z" fill="#333333"/>
<path fill-rule="evenodd" clip-rule="evenodd" d="M184.104 49.8659C184.721 50.0331 186.072 49.8074 186.384 50.2671C186.337 50.2086 186.329 50.4259 186.228 50.6348C186.095 50.919 185.845 51.178 185.611 51.3953C185.221 51.7631 184.612 52.2478 184.073 52.1475C183.737 52.089 184.003 50.3841 184.104 49.8659ZM183.558 53.3259C184.502 53.8273 185.65 53.1086 186.368 52.4734C187.102 51.8216 187.852 50.8103 187.54 49.7322C187.126 48.3115 184.76 48.5204 183.932 49.2141C183.901 49.2308 183.886 49.2642 183.87 49.2976C183.651 49.2057 183.378 49.2475 183.284 49.5233C182.894 50.6181 182.207 52.6239 183.558 53.3259Z" fill="#333333"/>
<path fill-rule="evenodd" clip-rule="evenodd" d="M194.754 45.7533C195.667 44.3747 193.801 42.7037 192.591 43.556C192.435 43.6729 192.474 43.8818 192.583 44.0071C192.794 44.2327 193.934 44.6505 193.809 45.0348C193.575 45.7617 192.31 44.0155 192.224 43.8734C191.935 43.3889 191.147 43.8651 191.404 44.3664C191.974 45.4943 193.629 47.4327 194.754 45.7533Z" fill="#333333"/>
<path fill-rule="evenodd" clip-rule="evenodd" d="M188.672 112.504C191.615 109.755 193.473 105.819 195.168 102.125C195.324 101.79 194.816 101.456 194.637 101.782C192.661 105.334 190.116 108.585 188.391 112.279C188.313 112.446 188.531 112.638 188.672 112.504Z" fill="#333333"/>
<path fill-rule="evenodd" clip-rule="evenodd" d="M189.663 115.02C192.474 112.588 194.153 109.086 196.081 105.877C196.394 105.351 195.699 104.741 195.355 105.267C193.325 108.376 191.342 111.502 189.242 114.561C189.039 114.853 189.382 115.263 189.663 115.02Z" fill="#333333"/>
<path fill-rule="evenodd" clip-rule="evenodd" d="M194.387 111.644C193.036 114.009 191.545 116.307 190.327 118.747C190.233 118.923 190.475 119.115 190.608 118.99C192.576 117.101 193.778 114.494 195.09 112.095C195.324 111.66 194.629 111.234 194.387 111.644Z" fill="#333333"/>
<path fill-rule="evenodd" clip-rule="evenodd" d="M186.931 129.361C192.138 124.589 194.699 117.26 197.01 110.557C197.12 110.24 196.698 110.047 196.557 110.357C193.63 116.926 190.6 123.093 186.618 129.019C186.478 129.236 186.728 129.545 186.931 129.361Z" fill="#333333"/>
<path fill-rule="evenodd" clip-rule="evenodd" d="M189.71 135.888C193.083 132.479 195.823 128.216 197.354 123.519C197.533 122.951 196.745 122.583 196.542 123.16C194.886 127.832 191.74 131.258 189.234 135.37C189.031 135.688 189.406 136.198 189.71 135.888Z" fill="#333333"/>
<path fill-rule="evenodd" clip-rule="evenodd" d="M184.557 142.875C187.618 142.349 189.944 138.788 191.592 136.281C191.943 135.755 191.217 135.136 190.858 135.654C189.89 137.067 188.875 138.412 187.688 139.607C186.657 140.644 185.431 141.354 184.338 142.29C184.104 142.482 184.253 142.925 184.557 142.875Z" fill="#333333"/>
<path fill-rule="evenodd" clip-rule="evenodd" d="M188.219 141.262C186.798 142.959 185.174 143.886 183.316 144.923C182.972 145.115 183.081 145.683 183.487 145.633C185.728 145.399 187.586 143.677 189.039 141.939C189.484 141.413 188.672 140.727 188.219 141.262Z" fill="#333333"/>
<path fill-rule="evenodd" clip-rule="evenodd" d="M143.177 204.595C143.145 204.703 143.145 204.803 143.145 204.895C134.854 207.612 126.734 208.564 117.911 208.991C109.377 209.4 99.2041 210.938 91.6775 205.798C91.8493 205.556 91.9273 205.213 91.7478 204.845C90.5142 202.321 89.9052 199.463 89.5148 196.513C91.2715 195.468 92.8799 194.332 94.3243 193.153C94.3555 193.178 94.3477 193.228 94.3868 193.262C95.7843 194.44 97.2053 195.569 98.72 196.563C99.8599 197.315 101.328 198.218 102.694 198.118C103.053 198.084 103.17 197.666 102.897 197.432C101.749 196.421 100.164 195.945 98.8527 195.159C97.541 194.365 96.3152 193.437 95.1051 192.476C95.3549 192.251 95.636 192.033 95.8702 191.816C96.5651 191.156 96.2137 190.061 95.4408 189.718C93.2859 188.791 90.9904 188.172 88.6481 187.83C88.531 186.743 88.3983 185.673 88.2265 184.637C86.7353 175.645 87.2037 166.067 87.2506 156.982C87.3209 143.853 87.9533 130.565 90.0301 117.577C103.6 122.057 124.961 122.759 136.064 112.27C136.173 112.17 136.22 112.053 136.251 111.928C145.371 140.276 151.757 175.82 143.177 204.595ZM50.4298 86.0868C50.5 85.0672 50.5235 84.0058 51.7883 83.9389C53.1156 83.8637 54.1306 85.0922 54.2321 86.4294C54.2633 86.7888 54.2555 87.2568 54.1462 87.683C53.5763 87.8836 53.0063 88.0925 52.4129 88.3265C52.2568 88.2179 52.1006 88.1093 51.9835 88.0257C51.3667 87.5493 50.8123 86.864 50.4298 86.0868ZM59.1353 88.6274C60.9701 88.1343 67.9813 88.1343 63.6871 90.9591C56.4963 95.681 45.8233 98.556 36.9148 99.818C40.6702 96.9932 44.9176 94.7032 48.9697 92.6222C52.2411 90.9508 55.6219 89.5634 59.1353 88.6274ZM56.9335 201.143C61.1028 197.574 65.8108 195.577 71.0341 193.939C71.2996 194.165 71.6119 194.348 72.0257 194.432C73.3842 194.691 75.4298 194.014 76.1247 192.669C76.3355 192.259 76.0388 191.749 75.586 191.85C74.6022 192.067 72.8143 193.32 71.9008 192.802C71.9086 192.426 71.7915 192.05 71.5338 191.808C72.1662 192.201 73.15 191.774 72.8611 190.855C69.1291 179.046 67.1693 167.028 66.2793 154.609C66.2402 153.957 65.7484 153.33 65.0613 153.523C48.9854 158.253 41.7008 131.258 38.3436 119.416C36.7742 113.9 35.6265 108.317 34.6427 102.718C41.6852 101.941 48.8214 99.5505 55.5047 97.1937C58.9245 95.9903 67.4582 93.9594 67.9501 89.1121C68.5045 83.7049 58.6668 86.2288 55.5672 87.1899C55.5984 86.9643 55.614 86.7303 55.614 86.4879C55.5672 84.2899 53.9042 82.468 51.843 82.4346C51.0544 82.4262 50.3361 82.8107 49.8208 83.3957C49.6724 82.819 48.8136 82.8357 48.7277 83.5378C48.4779 85.5352 49.4694 87.6245 50.9295 88.9283C44.9644 91.377 38.5309 94.8704 34.0806 99.4669C32.9094 92.4217 31.9179 85.343 30.6374 78.2726C30.8482 78.2643 31.059 78.189 31.2386 77.9885C31.2777 77.9467 31.3245 77.9049 31.3635 77.8631C41.0528 81.0389 54.6927 77.8965 62.4691 70.6005C65.8577 82.936 70.6437 94.8119 73.6653 107.323C73.8058 107.891 73.9542 108.501 74.1025 109.128C74.1025 109.136 74.0947 109.136 74.0947 109.145C73.6653 116.315 71.9086 122.901 69.5741 129.587C69.4804 129.854 69.8474 130.013 69.9879 129.796C73.3374 124.589 74.3758 118.162 74.7584 111.928C77.8502 125.341 81.7072 147.397 69.0198 153.631C68.5825 153.857 68.2702 154.534 68.4342 155.035C71.9554 166.084 73.798 177.508 76.273 188.858C75.7577 189.409 75.9529 190.537 76.843 190.537C82.3318 190.521 87.4926 189.819 92.755 191.39C84.1353 198.602 67.7783 203.199 56.9335 201.143ZM44.5038 69.2299C44.9722 70.2746 45.792 71.1103 46.9241 71.3527C49.0947 71.8291 50.7187 69.2884 50.8904 67.2492C50.8982 67.2074 50.8904 67.1824 50.8904 67.1406C54.9192 66.2547 58.7839 66.2881 61.7274 67.8593V67.8677C61.7508 67.9345 61.7665 68.0097 61.7821 68.0766C54.7474 75.4395 42.7158 77.8297 33.089 76.2C35.9388 73.6928 40.0847 71.102 44.5038 69.2299ZM49.5475 67.4749C49.3757 68.695 48.431 69.9654 47.3848 70.0071C46.6353 70.0406 46.0419 69.4723 45.6359 68.7703C46.932 68.2605 48.2436 67.8259 49.5475 67.4749ZM90.7094 113.499C104.615 117.093 122.034 115.872 134.674 108.56C134.862 108.451 134.963 108.301 135.018 108.15C135.361 109.17 135.697 110.231 136.033 111.268C135.806 111.059 135.471 110.983 135.182 111.251C124.134 121.689 103.764 119.993 90.2409 116.315C90.3971 115.379 90.5376 114.435 90.7094 113.499ZM92.8487 103.604C94.3243 97.8456 96.3152 91.5776 98.3296 85.0337C103.49 86.2372 108.815 86.7888 114.085 86.6634C117.778 86.5798 123.213 86.1536 125.649 82.7355C128.6 90.9926 131.934 99.1494 134.721 107.289C134.534 107.147 134.276 107.081 133.995 107.198C120.168 112.889 105.638 115.045 91.0217 111.853C91.5604 109.086 92.1538 106.328 92.8487 103.604ZM99.7194 80.479C101.718 82.2925 104.607 84.8917 107.051 84.2064C107.465 84.0893 107.519 83.5545 107.199 83.2954C106.153 82.4513 104.724 82.1588 103.569 81.4651C102.366 80.7548 101.257 79.9023 100.149 79.0415C101.273 75.2639 102.343 71.4195 103.311 67.5668C103.319 67.6253 103.311 67.6754 103.358 67.7339C107.113 72.5394 112.196 77.019 117.771 79.1418C118.13 79.2755 118.333 78.7406 118.044 78.5233C113.164 74.7792 107.995 72.0547 103.865 67.2241C103.717 67.0486 103.522 67.0821 103.397 67.1991C103.654 66.1711 103.889 65.1515 104.123 64.1152C108.238 68.6282 113.25 72.2636 118.536 74.9798C118.981 75.2138 119.348 74.6204 118.95 74.2861C114.163 70.3832 108.823 67.4916 104.334 63.1792C104.459 62.6192 104.552 62.0593 104.669 61.4993C109.908 66.731 116.123 71.6368 122.853 74.3028C123.595 76.7348 124.391 79.1585 125.235 81.5654C125.149 81.5654 125.055 81.5487 124.969 81.5988C116.639 86.0283 107.746 84.9167 98.8059 83.4876C99.1104 82.4847 99.4149 81.4818 99.7194 80.479ZM104.42 26.0974C105.193 26.1726 105.926 26.1977 106.574 26.1392C107.301 26.0891 107.535 25.0611 106.809 24.777C105.762 24.3675 104.685 24.1836 103.6 23.983C103.397 23.7239 103.053 23.6905 102.757 23.8242C102.413 23.7574 102.062 23.6905 101.718 23.6069C96.448 22.2614 96.3855 14.932 101.539 13.4443C101.742 13.3858 101.898 13.2605 102.015 13.0933C102.881 14.2717 104.279 15.0239 105.958 15.3415C108.456 15.8178 113.57 15.6925 115.171 13.1518C115.553 12.5668 114.999 11.9734 114.437 12.0403C113.453 12.149 112.516 12.759 111.556 13.0515C110.322 13.4276 109.042 13.5614 107.761 13.5864C107.347 13.5948 106.934 13.5614 106.535 13.5112C106.59 12.4415 106.153 11.4051 105.973 10.3521C105.755 9.04836 105.645 7.72789 105.45 6.42414C105.427 6.27371 105.349 6.15671 105.255 6.06477C108.768 7.10109 113.453 7.77804 115.905 6.33221C115.819 8.70571 115.881 11.0625 116.248 13.4527C116.357 14.1714 117.201 14.3302 117.661 13.9207C119.223 12.525 120.683 16.1438 120.909 17.1885C121.651 20.6986 117.607 22.136 115.186 22.5205C112.54 22.9467 109.698 22.6458 107.129 21.9271C105.747 21.5427 104.435 20.8406 103.522 19.6455C103.631 19.5954 103.756 19.5369 103.951 19.4533C104.662 19.1441 104.248 18.1746 103.654 18.066C102.6 17.8821 102.405 17.7066 101.578 18.4254C101.265 18.7095 101.234 19.2026 101.398 19.5787C103.631 24.66 111.798 25.9637 117.388 23.983C117.38 24.0666 117.38 24.1585 117.38 24.2421C116.076 24.2672 114.882 25.0528 113.609 25.3286C111.977 25.6963 110.213 25.5709 108.597 25.1614C107.699 24.9358 107.254 26.3482 108.159 26.649C109.901 27.209 111.634 27.3761 113.437 27.1839C114.687 27.0585 116.365 26.6824 117.318 25.6712C116.99 33.2681 117.13 40.8399 117.825 48.3782C117.81 48.3532 117.81 48.3281 117.786 48.303C116.108 46.7235 113.96 45.7289 112.094 44.4252C110.189 43.0964 108.378 41.6087 106.777 39.8871C106.762 39.486 106.723 39.0932 106.699 38.7004C108.081 40.0793 109.432 41.475 110.908 42.7453C112.391 44.0324 114.671 45.7958 116.693 45.3612C116.951 45.3027 117.005 44.9016 116.787 44.7595C115.085 43.6312 113.18 43.0211 111.501 41.7508C109.799 40.4638 108.222 38.9762 106.629 37.5303C106.574 36.8701 106.496 36.2182 106.426 35.5664C109.299 37.7894 112.906 41.1157 116.404 41.0906C116.678 41.0822 116.756 40.7479 116.56 40.5808C115.015 39.3105 113.016 38.6586 111.314 37.639C109.596 36.611 107.941 35.4661 106.286 34.3378C106.137 33.2096 105.926 32.0897 105.7 30.9865C107.207 32.7248 108.846 34.3044 110.759 35.5246C112.079 36.377 114.304 37.4886 115.717 36.4104C115.92 36.2517 115.787 35.9424 115.608 35.8672C115.1 35.6499 114.648 35.6499 114.101 35.5831C112.946 35.4577 111.829 34.8393 110.83 34.2459C109.026 33.1761 107.426 31.6802 105.989 30.109C105.841 29.9418 105.661 29.9669 105.528 30.0588C105.224 28.7217 104.857 27.4012 104.42 26.0974ZM104.693 5.90598C104.381 5.94777 104.099 6.17342 104.131 6.56622C104.256 8.37977 103.99 11.2631 104.919 13.0599C104.505 12.8844 104.115 12.6755 103.779 12.3913C103.943 11.5472 103.764 10.5443 103.74 9.73367C103.701 8.2962 103.569 6.85873 103.35 5.44633C103.764 5.59676 104.217 5.75555 104.693 5.90598ZM119.972 63.2126C120.652 66.6057 121.542 69.957 122.541 73.2916C116.678 68.9541 110.267 65.77 104.833 60.7137C105.193 58.9085 105.505 57.1117 105.786 55.3232C107.269 56.9529 108.893 58.3486 110.681 59.644C113.07 61.374 115.67 63.3714 118.317 64.5748C118.614 64.7086 118.809 64.2823 118.629 64.0567C117.084 62.1345 114.772 60.9645 112.758 59.6774C110.322 58.1229 107.956 56.4849 105.919 54.3788C106.2 52.4817 106.411 50.5929 106.567 48.7125C109.51 51.8298 112.899 55.4987 116.818 56.8443C117.084 56.9362 117.349 56.5434 117.123 56.3345C115.545 54.8552 113.679 53.727 111.993 52.3981C110.127 50.9189 108.37 49.2808 106.668 47.5926C106.754 46.4226 106.801 45.2526 106.832 44.0992C109.362 47.2583 112.735 50.3589 116.311 51.4203C116.545 51.4872 116.779 51.1696 116.584 50.969C115.108 49.5148 113.258 48.5203 111.618 47.3001C109.846 45.988 108.277 44.4335 106.856 42.7119C106.856 42.2188 106.824 41.7341 106.817 41.241C109.721 44.6258 113.594 47.8517 117.474 48.8379C117.622 48.8713 117.778 48.7627 117.841 48.6206C118.302 53.5013 118.996 58.3653 119.972 63.2126ZM140.116 118.555C135.806 103.286 129.833 88.594 124.641 73.6677C118.996 57.4376 118.825 40.3886 118.887 23.3311C119.972 22.7628 120.909 22.0692 121.589 21.2084C124.001 18.1663 121.245 10.8201 117.771 11.8481C117.466 9.3743 117.427 6.87544 117.396 4.38494C117.497 4.00886 117.56 3.59099 117.544 3.11462C117.318 -1.69924 105.396 1.30942 102.999 1.98637C102.288 2.18695 102.351 3.41548 103.123 3.40712C107.012 3.34862 110.978 1.86937 114.858 2.72182C116.318 3.04776 115.678 4.13422 114.64 4.6858C113.281 5.42961 111.384 5.21232 109.908 5.10367C107.347 4.91981 104.404 4.37658 102.101 3.06447C101.367 2.6466 100.672 3.52413 100.976 4.15929C100.836 5.96448 100.719 7.76132 100.648 9.57488C100.547 11.8564 100.399 11.5138 98.962 12.642C97.0414 14.138 96.12 16.0017 95.8312 18.4922C95.3315 22.7628 99.0245 25.011 102.663 25.8216C107.457 41.5168 102.733 57.2538 99.3134 72.7818C95.9249 88.1845 90.2799 102.885 87.922 118.547C85.4002 135.32 85.3533 152.62 85.5173 169.552C85.5719 174.926 85.5797 181.302 86.095 187.579C83.5029 187.437 80.8874 187.621 78.3811 188.181C76.2106 179.531 74.9067 170.689 72.9548 161.989C71.3386 154.768 71.9476 156.565 75.2268 151.834C80.1534 144.714 79.8802 135.312 79.1931 126.896C77.6472 108 72.2521 86.0868 64.1556 68.8538C64.2493 68.7535 64.343 68.6616 64.4289 68.5613C64.9286 67.9596 64.8739 67.1991 64.2727 66.6976C60.5094 63.5803 55.1924 64.0818 50.4766 65.2434C48.9776 62.4437 43.9494 61.75 42.7236 65.1264C42.5363 65.6362 43.1687 65.9872 43.5122 65.6697C44.4726 64.7921 45.2924 64.2489 46.5962 64.3241C47.5253 64.3826 48.3998 64.8757 48.9932 65.6279C48.025 65.9037 47.0959 66.1795 46.2293 66.4469C45.8389 66.5723 45.4329 66.7143 45.0347 66.8397C44.941 66.238 44.09 66.1795 44.0587 66.8564C44.0509 66.9651 44.0587 67.0653 44.0587 67.1656C39.1165 68.8873 33.6356 71.4864 30.4032 75.757C30.1455 75.8323 29.9816 76.0328 29.8723 76.2752C29.3179 76.0412 28.5528 76.342 28.5606 77.1193C28.8729 97.6701 34.9707 121.296 43.1531 139.741C46.2215 146.661 50.8436 153.94 58.0188 156.255C63.1796 157.91 64.1634 153.882 64.8349 161.679C65.6937 171.6 67.8486 181.52 70.9951 190.888C70.6437 190.696 70.1362 190.813 70.1206 191.373C70.1128 191.49 70.1362 191.59 70.1441 191.707C63.9292 193.304 58.2764 196.162 53.6075 200.892C52.9829 201.527 53.1781 202.764 54.0447 203.015C63.5154 205.798 77.2724 203.065 87.5317 197.608C88.0626 199.99 88.7106 202.288 89.5851 204.352C88.9683 204.335 88.3905 205.288 88.9526 205.815C95.9405 212.317 106.044 211.64 114.749 211.097C125.305 210.436 137.805 211.448 146.815 204.553C147.166 204.285 146.815 203.583 146.409 203.75C145.941 203.918 145.488 204.068 145.019 204.227C152.655 177.592 147.455 144.572 140.116 118.555Z" fill="#333333"/>
<path fill-rule="evenodd" clip-rule="evenodd" d="M140.772 170.663C134.861 182.222 113.992 179.171 103.842 178.26C101.343 178.035 98.8449 177.7 96.362 177.341C91.7633 176.681 93.0047 169.945 92.9189 166.393C92.8642 164.312 92.7939 162.206 92.6924 160.1C93.2312 164.663 93.8011 169.218 94.5116 173.881C94.5819 174.307 94.9645 174.575 95.3392 174.617C107.902 175.745 131.754 182.69 140.834 169.427C141.147 168.975 140.772 168.474 140.342 168.415C143.825 157.158 138.117 143.686 135.588 132.721C135.673 132.679 135.759 132.637 135.837 132.587C136.4 132.278 136.064 131.367 135.463 131.501C135.369 131.526 135.267 131.551 135.174 131.576C134.947 131.409 134.612 131.484 134.448 131.751C120.097 135.128 107.714 141.112 92.6534 136.398C91.7477 136.114 91.3495 137.51 92.2084 137.877C104.833 143.209 122.377 139.683 134.487 133.306C136.079 145.758 140.616 156.707 138.75 169.535C129.576 177.207 116.295 175.135 105.395 173.873C103.241 173.622 101.093 173.346 98.9464 173.087C94.9488 172.611 95.1206 167.078 94.3555 163.551C92.4816 154.935 93.0672 145.992 91.6618 137.284C91.5057 136.323 90.2252 136.699 90.3111 137.627C90.3658 138.153 90.4204 138.671 90.4751 139.19C90.3033 138.312 90.1471 137.418 89.952 136.54C89.8583 136.114 89.1712 136.147 89.2102 136.615C90.3658 150.23 91.7477 163.652 91.6931 177.349C91.6931 177.642 91.8648 178.001 92.1615 178.06C103.779 180.375 135.455 186.517 141.896 171.232C142.185 170.538 141.108 170.003 140.772 170.663Z" fill="#333333"/>
<path fill-rule="evenodd" clip-rule="evenodd" d="M130.606 137.535C119.878 140.31 108.214 147.848 97.2364 141.371C96.5493 140.961 95.9325 141.989 96.5805 142.474C105.536 149.252 122.51 144.48 130.918 138.421C131.317 138.137 131.129 137.401 130.606 137.535Z" fill="#333333"/>
<path fill-rule="evenodd" clip-rule="evenodd" d="M118.926 161.236C119.075 160.476 118.653 159.757 118.387 159.047C118.036 158.144 117.739 157.225 117.505 156.28C117.56 156.247 117.615 156.222 117.654 156.155C118.044 155.537 118.411 154.902 118.786 154.275C118.942 155.436 118.856 156.799 119.473 157.751C119.785 158.236 120.457 158.119 120.519 157.492C120.652 156.239 120.371 154.659 120.058 153.447C119.996 153.18 119.832 153.029 119.637 152.954C120.004 152.419 120.394 151.91 120.839 151.433C122.307 151.241 122.978 151.734 122.861 152.896C122.838 153.397 122.752 153.882 122.604 154.35C122.33 155.386 121.823 156.356 121.339 157.283C120.636 158.662 119.785 159.949 118.926 161.236ZM117.373 163.593C116.607 161.195 115.944 158.754 115.218 156.331C115.21 156.306 115.194 156.289 115.186 156.272C115.522 156.506 115.85 156.74 116.209 156.916C116.279 156.949 116.342 156.949 116.404 156.949C116.537 157.852 116.693 158.746 116.959 159.623C117.216 160.493 117.404 161.404 118.224 161.788C118.341 161.846 118.458 161.821 118.567 161.771C118.161 162.381 117.755 162.983 117.373 163.593ZM114.039 156.623C114.171 157.183 114.281 157.768 114.398 158.353C114.085 157.4 113.758 156.448 113.437 155.487C113.195 154.751 112.079 154.985 112.298 155.771C112.821 157.651 113.234 159.557 113.679 161.454C113.804 161.963 113.898 162.498 114 163.033C113.789 162.816 113.586 162.599 113.375 162.381C113.25 161.186 112.805 159.991 112.508 158.846C112.032 157.024 111.486 155.219 110.908 153.422C112.313 153.848 113.43 154.935 114.616 155.871C114.265 155.871 113.922 156.147 114.039 156.623ZM110.627 159.197C109.971 158.295 107.972 153.991 109.62 153.364C110.033 155.336 110.447 157.3 110.931 159.247C110.97 159.398 110.994 159.548 111.033 159.69C110.9 159.532 110.752 159.364 110.627 159.197ZM124.399 152.227C124.079 150.397 122.892 148.642 121.011 149.394C118.981 150.196 117.49 153.105 116.74 155.236C116.685 155.253 116.654 155.286 116.607 155.303C115.03 153.782 112.797 151.818 110.728 151.559C108.519 151.299 107.308 153.289 107.387 155.495C107.488 158.061 109.518 160.459 110.994 162.281C112.758 164.471 114.804 166.385 116.482 168.649C117.037 169.402 118.239 168.499 117.763 167.68C117.622 167.429 117.427 167.22 117.271 166.986C118.669 164.387 120.464 162.047 121.979 159.523C123.158 157.559 124.829 154.701 124.399 152.227Z" fill="#333333"/>
<path fill-rule="evenodd" clip-rule="evenodd" d="M136.626 200.491C130.52 200.683 124.095 203.249 118.052 204.285C112.742 205.188 95.3314 209.091 92.4582 201.519C92.1537 200.692 90.8654 201.218 91.1075 202.054C93.1375 208.99 103.725 207.67 108.776 207.336C117.138 206.784 129.412 206.174 136.868 201.644C137.336 201.36 137.219 200.466 136.626 200.491Z" fill="#333333"/>
<path fill-rule="evenodd" clip-rule="evenodd" d="M111.423 83.9389C108.69 81.7994 105.521 80.5207 102.905 78.1305C102.358 77.629 101.523 78.3979 102.07 78.9578C104.506 81.4567 107.738 84.2481 111.212 84.6743C111.603 84.7328 111.696 84.1561 111.423 83.9389Z" fill="#333333"/>
<path fill-rule="evenodd" clip-rule="evenodd" d="M113.312 83.5379C113.609 83.6549 113.859 83.237 113.64 82.9946C112.126 81.2897 110.08 80.1113 108.331 78.6906C106.231 76.9773 104.318 75.0468 102.655 72.8488C102.288 72.3724 101.671 73.0076 101.999 73.4923C104.716 77.4119 108.893 81.9332 113.312 83.5379Z" fill="#333333"/>
<path fill-rule="evenodd" clip-rule="evenodd" d="M117.31 82.8273C117.536 82.9109 117.646 82.585 117.474 82.4429C113.273 78.8158 108.792 75.7904 104.88 71.7538C104.419 71.2774 103.693 71.9878 104.154 72.4725C107.956 76.4924 112.196 80.855 117.31 82.8273Z" fill="#333333"/>
<path fill-rule="evenodd" clip-rule="evenodd" d="M106.684 58.7247C106.184 58.3319 105.684 59.201 106.168 59.5938C110.408 63.1039 115.28 68.0097 120.636 69.3218C121.018 69.4138 121.245 68.9207 120.925 68.6616C118.668 66.8564 116.006 65.5861 113.625 63.948C111.243 62.31 108.963 60.5132 106.684 58.7247Z" fill="#333333"/>
<path fill-rule="evenodd" clip-rule="evenodd" d="M106.824 52.8746C110.26 56.0838 114.124 59.7694 118.419 61.5663C118.731 61.7 119.043 61.2069 118.778 60.9562C115.241 57.7051 110.791 55.6409 107.176 52.4233C106.934 52.206 106.582 52.6573 106.824 52.8746Z" fill="#333333"/>
<path fill-rule="evenodd" clip-rule="evenodd" d="M112.68 33.385C113.828 33.7277 115.569 33.7193 116.295 32.5493C116.428 32.332 116.279 32.0061 116.029 32.0061C114.835 32.0311 113.867 32.4992 112.633 32.2067C111.259 31.8974 110.111 30.9865 109.221 29.8666C108.893 29.4654 108.362 30.0087 108.659 30.4182C109.69 31.8389 111.056 32.8836 112.68 33.385Z" fill="#333333"/>
<path fill-rule="evenodd" clip-rule="evenodd" d="M116.654 30.309C116.842 30.1419 116.74 29.8745 116.545 29.7826C115.866 29.4652 115.077 29.649 114.351 29.649C113.375 29.6573 112.493 29.3315 111.704 28.7299C111.267 28.3957 110.853 29.1226 111.259 29.4735C112.524 30.5429 115.241 31.5957 116.654 30.309Z" fill="#333333"/>
<path fill-rule="evenodd" clip-rule="evenodd" d="M104.24 123.435C104.513 123.285 104.513 122.742 104.17 122.658C102.788 122.366 101.359 122.6 99.9536 122.516C97.7987 122.391 95.5501 121.706 93.6138 120.695C93.1376 120.444 92.6925 121.129 93.161 121.463C96.0186 123.502 100.937 125.257 104.24 123.435Z" fill="#333333"/>
<path fill-rule="evenodd" clip-rule="evenodd" d="M100.953 125.859C101.109 125.725 101.086 125.416 100.914 125.316C100.18 124.94 99.4227 125.049 98.6263 124.99C97.3146 124.89 96.0888 124.472 94.9567 123.779C94.4336 123.453 93.9417 124.263 94.4492 124.622C96.0186 125.742 99.2119 127.313 100.953 125.859Z" fill="#333333"/>
<path fill-rule="evenodd" clip-rule="evenodd" d="M101.148 128.609C101.375 128.517 101.375 128.124 101.172 128.007C100.43 127.564 99.5789 127.531 98.7435 127.422C97.4864 127.255 96.2684 126.929 95.0895 126.453C94.6366 126.278 94.2853 127.055 94.7303 127.289C96.4636 128.174 99.2431 129.478 101.148 128.609Z" fill="#333333"/>
<path fill-rule="evenodd" clip-rule="evenodd" d="M100.781 201.469C101.039 201.452 101.289 201.093 101.046 200.859C100.149 200.023 98.9853 199.647 97.939 199.029C96.5181 198.201 95.1908 197.223 94.1211 195.92C93.762 195.485 93.2076 196.062 93.5121 196.513C95.0346 198.719 98.0171 201.644 100.781 201.469Z" fill="#333333"/>
<path fill-rule="evenodd" clip-rule="evenodd" d="M105.513 194.474C103.233 192.56 100.68 191.022 98.3842 189.1C95.7921 186.919 93.5044 184.336 91.5135 181.537C91.0997 180.96 90.3501 181.729 90.7405 182.305C94.254 187.462 99.3836 193.137 105.224 195.142C105.622 195.284 105.817 194.724 105.513 194.474Z" fill="#333333"/>
<path fill-rule="evenodd" clip-rule="evenodd" d="M101.281 187.362C100.906 186.844 100.25 187.537 100.594 188.047C102.718 191.206 106.817 195.009 110.689 195.017C111.056 195.017 111.189 194.532 110.9 194.307C109.479 193.204 107.629 192.702 106.083 191.783C104.209 190.671 102.593 189.175 101.281 187.362Z" fill="#333333"/>
<path fill-rule="evenodd" clip-rule="evenodd" d="M114.187 192.886C112.18 191.624 109.971 190.671 107.91 189.485C107.386 189.175 106.879 190.011 107.402 190.329C109.424 191.54 111.571 193.112 113.859 193.646C114.273 193.73 114.601 193.145 114.187 192.886Z" fill="#333333"/>
<path fill-rule="evenodd" clip-rule="evenodd" d="M147.323 74.077C145.972 74.0185 145.894 76.2493 147.237 76.3077C148.58 76.3662 148.666 74.1354 147.323 74.077Z" fill="#333333"/>
<path fill-rule="evenodd" clip-rule="evenodd" d="M148.509 80.6209C146.674 80.5457 146.565 83.5869 148.392 83.6621C150.227 83.7373 150.344 80.7045 148.509 80.6209Z" fill="#333333"/>
<path fill-rule="evenodd" clip-rule="evenodd" d="M153.709 75.5897C151.086 75.4727 150.922 79.8353 153.545 79.9439C156.169 80.0526 156.333 75.6984 153.709 75.5897Z" fill="#333333"/>
<path fill-rule="evenodd" clip-rule="evenodd" d="M156.941 65.7031C154.248 65.5944 154.084 70.0573 156.778 70.1743C159.463 70.2913 159.627 65.8201 156.941 65.7031Z" fill="#333333"/>
<path fill-rule="evenodd" clip-rule="evenodd" d="M150.039 58.7332C148.533 58.6663 148.439 61.1728 149.946 61.2313C151.453 61.2981 151.546 58.7916 150.039 58.7332Z" fill="#333333"/>
<path fill-rule="evenodd" clip-rule="evenodd" d="M142.896 58.148C141.053 58.0645 140.944 61.1308 142.786 61.2143C144.637 61.2895 144.746 58.2232 142.896 58.148Z" fill="#333333"/>
<path fill-rule="evenodd" clip-rule="evenodd" d="M138.719 35.859C136.087 35.7504 135.923 40.1046 138.555 40.2132C141.178 40.3302 141.342 35.976 138.719 35.859Z" fill="#333333"/>
<path fill-rule="evenodd" clip-rule="evenodd" d="M146.659 34.0202C145.105 33.9533 145.011 36.535 146.565 36.6018C148.119 36.6687 148.212 34.087 146.659 34.0202Z" fill="#333333"/>
<path fill-rule="evenodd" clip-rule="evenodd" d="M165.92 55.2814C164.054 55.1978 163.945 58.2892 165.803 58.3727C167.669 58.4479 167.786 55.3566 165.92 55.2814Z" fill="#333333"/>
<path fill-rule="evenodd" clip-rule="evenodd" d="M80.3642 64.533C78.3342 64.4495 78.2093 67.8082 80.2392 67.9001C82.2614 67.9836 82.3941 64.6249 80.3642 64.533Z" fill="#333333"/>
<path fill-rule="evenodd" clip-rule="evenodd" d="M77.8031 75.5481C76.2494 75.4812 76.1557 78.0629 77.7094 78.1298C79.2632 78.1966 79.3647 75.6149 77.8031 75.5481Z" fill="#333333"/>
<path fill-rule="evenodd" clip-rule="evenodd" d="M70.9484 67.3078C68.7701 67.2159 68.1923 69.9654 69.3322 71.2859C67.3491 71.9712 67.4506 75.6234 69.9178 75.732C72.0336 75.8156 72.6114 73.158 71.5262 71.8542C73.5796 71.1856 73.4937 67.4081 70.9484 67.3078Z" fill="#333333"/>
<path fill-rule="evenodd" clip-rule="evenodd" d="M73.4312 58.3236C70.7454 58.2066 70.5814 62.6694 73.2672 62.7864C75.953 62.9034 76.1248 58.4322 73.4312 58.3236Z" fill="#333333"/>
<path fill-rule="evenodd" clip-rule="evenodd" d="M75.7028 55.0809C74.5317 55.0307 74.4614 56.9691 75.6326 57.0192C76.7959 57.0693 76.8662 55.131 75.7028 55.0809Z" fill="#333333"/>
<path fill-rule="evenodd" clip-rule="evenodd" d="M62.469 44.9434C59.9316 44.8348 59.7676 49.0636 62.3129 49.1723C64.8582 49.2809 65.0143 45.0521 62.469 44.9434Z" fill="#333333"/>
<path fill-rule="evenodd" clip-rule="evenodd" d="M57.7919 55.2063C57.691 55.198 57.6832 55.3734 57.7919 55.3734C57.8928 55.3817 57.9006 55.2063 57.7919 55.2063Z" fill="#333333"/>
<path fill-rule="evenodd" clip-rule="evenodd" d="M58.5029 36.1849C57.6128 36.1515 57.5504 37.622 58.4483 37.6638C59.3383 37.7055 59.393 36.2183 58.5029 36.1849Z" fill="#333333"/>
<path fill-rule="evenodd" clip-rule="evenodd" d="M54.7862 20.5396C53.701 20.4894 53.6307 22.2953 54.716 22.3371C55.809 22.3873 55.8715 20.5814 54.7862 20.5396Z" fill="#333333"/>
<path fill-rule="evenodd" clip-rule="evenodd" d="M55.6142 36.7948C54.6773 36.7446 54.6148 38.3071 55.5595 38.3488C56.4964 38.3906 56.5589 36.8282 55.6142 36.7948Z" fill="#333333"/>
<path fill-rule="evenodd" clip-rule="evenodd" d="M51.7491 44.3918C50.0158 44.3166 49.9143 47.199 51.6476 47.2742C53.3809 47.3494 53.4824 44.467 51.7491 44.3918Z" fill="#333333"/>
<path fill-rule="evenodd" clip-rule="evenodd" d="M56.8009 43.4391C55.5048 43.389 55.4267 45.5362 56.7228 45.5947C58.0189 45.6532 58.097 43.4976 56.8009 43.4391Z" fill="#333333"/>
<path fill-rule="evenodd" clip-rule="evenodd" d="M67.9109 33.477C66.0449 33.3935 65.9278 36.4932 67.7938 36.5683C69.6598 36.6519 69.7769 33.5522 67.9109 33.477Z" fill="#333333"/>
<path fill-rule="evenodd" clip-rule="evenodd" d="M71.6896 28.2035C71.5809 28.1952 71.5809 28.3706 71.6818 28.3706C71.7828 28.379 71.7905 28.2035 71.6896 28.2035Z" fill="#333333"/>
<path fill-rule="evenodd" clip-rule="evenodd" d="M172.736 45.2024C170.386 45.1021 170.246 49.005 172.596 49.1053C174.946 49.2056 175.094 45.2943 172.736 45.2024Z" fill="#333333"/>
<path fill-rule="evenodd" clip-rule="evenodd" d="M180.356 52.1141C180.231 52.1141 180.114 52.1308 179.989 52.1308C179.701 51.9553 179.357 51.8383 178.943 51.8216C178.412 51.8132 178.444 51.8216 177.936 51.621C175.453 50.6349 174.009 54.4375 176.039 55.9502C176.843 56.5602 177.788 56.7274 178.756 56.8026C179.177 56.836 179.529 56.7441 179.841 56.5853C179.958 56.602 180.068 56.6271 180.192 56.6355C182.917 56.7525 183.081 52.2311 180.356 52.1141Z" fill="#333333"/>
<path fill-rule="evenodd" clip-rule="evenodd" d="M179.927 44.5338C177.335 44.4251 177.171 48.7292 179.763 48.8378C182.355 48.9465 182.519 44.6508 179.927 44.5338Z" fill="#333333"/>
<path fill-rule="evenodd" clip-rule="evenodd" d="M183.714 39.0096C181.653 38.9261 181.528 42.3432 183.589 42.4268C185.643 42.5103 185.767 39.1015 183.714 39.0096Z" fill="#333333"/>
<path fill-rule="evenodd" clip-rule="evenodd" d="M176.507 20.9409C175.211 20.8908 175.133 23.038 176.429 23.0881C177.725 23.1466 177.803 20.9994 176.507 20.9409Z" fill="#333333"/>
<path fill-rule="evenodd" clip-rule="evenodd" d="M166.904 28.8051C164.491 28.6965 164.343 32.708 166.756 32.8083C169.168 32.9086 169.317 28.9054 166.904 28.8051Z" fill="#333333"/>
<path fill-rule="evenodd" clip-rule="evenodd" d="M15.1314 85.8025C13.4372 85.7273 13.3357 88.5262 15.0221 88.6014C16.7086 88.6682 16.8101 85.8693 15.1314 85.8025Z" fill="#333333"/>
<path fill-rule="evenodd" clip-rule="evenodd" d="M1.34312 90.5497C-0.374564 90.4745 -0.48387 93.3319 1.24162 93.3987C2.9593 93.4739 3.06079 90.6249 1.34312 90.5497Z" fill="#333333"/>
<path fill-rule="evenodd" clip-rule="evenodd" d="M12.9763 66.4385C10.2437 66.3215 10.0719 70.8679 12.8124 70.9849C15.5529 71.1019 15.7246 66.5555 12.9763 66.4385Z" fill="#333333"/>
<path fill-rule="evenodd" clip-rule="evenodd" d="M21.7679 99.7343C18.9806 99.6089 18.8088 104.239 21.5962 104.356C24.3835 104.473 24.5553 99.8513 21.7679 99.7343Z" fill="#333333"/>
</svg>

